<?xml version="1.0" encoding="UTF-8" standalone="no"?>
<svg
   xmlns:dc="http://purl.org/dc/elements/1.1/"
   xmlns:cc="http://creativecommons.org/ns#"
   xmlns:rdf="http://www.w3.org/1999/02/22-rdf-syntax-ns#"
   xmlns:svg="http://www.w3.org/2000/svg"
   xmlns="http://www.w3.org/2000/svg"
   xml:space="preserve"
   style="enable-background:new 0 0 575.7 233.3;"
   viewBox="0 0 575.7 233.3"
   y="0px"
   x="0px"
   id="Layer_1"
   version="1.0"><metadata
     id="metadata29"><rdf:RDF><cc:Work
         rdf:about=""><dc:format>image/svg+xml</dc:format><dc:type
           rdf:resource="http://purl.org/dc/dcmitype/StillImage" /><dc:title></dc:title></cc:Work></rdf:RDF></metadata><defs
     id="defs27" /><g
     transform="translate(-376.3,-361.7)"
     id="g28"><path
       d="M429.5,395.7h10.8l-6.6,53.5h-17.3l1.3-6.1c-1.9,2.3-4.7,4.7-7.6,6c-3.7,1.7-7.9,1.9-10,1.9   c-6.6,0-11.9-1.7-16.6-6.6c-4-4.2-7.2-10.4-7.2-19.7c0-9.8,3.5-17.8,8.6-23c5.5-5.6,12.2-7.8,19.7-7.8c3.1,0,7,0.4,10.4,2   c2,1,4.9,2.9,7.3,6.2l0,0C422.8,398.5,425.8,395.7,429.5,395.7L429.5,395.7z M398.3,412.7c-2.4,2.4-4.1,6.2-4.1,10.7   s1.8,7.3,3.5,9.1c2.5,2.6,5.6,3.6,9.1,3.6c4.9,0,8-1.9,9.8-3.6c3.1-3,4.6-7.6,4.6-11.5c0-3.8-1.4-7.2-3.7-9.2c-1.6-1.4-4.3-3-9-3   C404.2,408.7,400.9,410.1,398.3,412.7L398.3,412.7z"
       id="path2" /><path
       d="M476.3,361.7l-10.8,87.5h-17.3l8.7-70.3C458.1,369.1,466.4,361.7,476.3,361.7L476.3,361.7z"
       id="path4" /><path
       d="M497.2,425.8c-0.1,2.6,0.7,6,2.2,8c2.3,3.1,5.5,3.7,8.3,3.7c2,0,4.7-0.1,6.8-1.6c1.6-1.1,3-3.1,3.7-4.8   l17.4,1.4c-2.2,5.4-5.9,10.4-9.7,13.3c-6.1,4.6-13.4,5-18.4,5c-6.6,0-14.5-0.8-20.9-7.2c-5.2-5.2-6.7-11.5-6.7-18.7   c0-11.8,4.8-19.6,9.2-23.8c6.5-6.1,14.5-7.4,21.2-7.4c9.1,0,16,2.9,20,6.8c7.2,7.1,7.4,18.7,6.7,25.1h-39.8L497.2,425.8z    M520.6,415.2c-0.2-2.5-1.6-5.4-3.5-7s-4.9-2.2-7.1-2.2c-4.2,0-6.7,1.8-8.2,3.2c-1.3,1.4-2.5,3.5-3,5.9h21.8V415.2z"
       id="path6" /><path
       d="M588.8,420.3l22.1,28.9h-21.8l-12.2-17.3l-15.7,17.3h-23l28.1-28.9l-13.6-17.6c-2.2-2.8-0.2-7,3.4-7h13   l9.2,13.8l8.6-9.7c2.3-2.6,5.7-4.1,9.2-4.1h17.5L588.8,420.3z"
       id="path8" /><path
       d="M671.7,395.7l-10.2,81h-17.3l8-63.9C653.5,403,661.9,395.7,671.7,395.7z M665.4,362.8   c5.6,0,10.1,4.4,10.1,10.1s-4.4,10.1-10.1,10.1c-5.6,0-10.1-4.4-10.1-10.1S659.7,362.8,665.4,362.8z"
       id="path10" /><path
       d="M733.4,395.7h10.8l-6.6,53.5h-17.3l1.3-6.1c-1.9,2.3-4.7,4.7-7.6,6c-3.7,1.7-7.9,1.9-10,1.9   c-6.6,0-11.9-1.7-16.6-6.6c-4-4.2-7.2-10.4-7.2-19.7c0-9.8,3.5-17.8,8.6-23c5.5-5.6,12.2-7.8,19.7-7.8c3.1,0,7,0.4,10.4,2   c2,1,4.9,2.9,7.3,6.2l0,0C726.7,398.5,729.8,395.7,733.4,395.7L733.4,395.7z M702.2,412.7c-2.4,2.4-4.1,6.2-4.1,10.7   s1.8,7.3,3.5,9.1c2.5,2.6,5.6,3.6,9.1,3.6c4.9,0,8-1.9,9.8-3.6c3.1-3,4.6-7.6,4.6-11.5c0-3.8-1.4-7.2-3.7-9.2c-1.6-1.4-4.3-3-9-3   C708.1,408.7,704.9,410.1,702.2,412.7L702.2,412.7z"
       id="path12" /><path
       d="M775.5,395.7l-0.8,5.9c2-2.2,4.3-3.8,6.6-5c3.8-2,6.8-2.3,10.6-2.3c4.4,0,9.8,0.6,13.9,4.6   c4.2,4.1,4.6,9.5,4.6,12.7c0,1.8-0.1,4.4-0.8,10.2l-3.2,27.5H789l2.9-23.2c0.7-5.5,0.7-7.8,0.7-8.6c0-2-0.4-4.6-2.2-6.5   c-1.9-1.9-4.6-2.3-6.4-2.3c-3,0-5.6,0.7-7.8,2.9c-3.1,3.2-3.8,8.4-4.2,11.3l-3.1,26.4h-17.3l4.5-36.4   C757.4,403,765.7,395.7,775.5,395.7L775.5,395.7z"
       id="path14" /><path
       d="M848.4,361.7l-6.6,53.6l12.7-12.7c4.5-4.5,10.5-7,16.9-7h13.2l-26.3,24.6l24.2,28.9h-22.2l-19.7-23.5   l-3.1,23.5h-17.3l8.8-70.3C830.2,369.1,838.5,361.7,848.4,361.7L848.4,361.7z"
       id="path16" /><path
       d="M941.2,395.7H952l-6.6,53.5h-17.3l1.3-6.1c-1.9,2.3-4.7,4.7-7.6,6c-3.7,1.7-7.9,1.9-10,1.9   c-6.6,0-11.9-1.7-16.6-6.6c-4-4.2-7.2-10.4-7.2-19.7c0-9.8,3.5-17.8,8.6-23c5.5-5.6,12.2-7.8,19.7-7.8c3.1,0,7,0.4,10.4,2   c2,1,4.9,2.9,7.3,6.2l0,0C934.5,398.5,937.5,395.7,941.2,395.7L941.2,395.7z M909.9,412.7c-2.4,2.4-4.1,6.2-4.1,10.7   s1.8,7.3,3.5,9.1c2.5,2.6,5.6,3.6,9.1,3.6c4.9,0,8-1.9,9.8-3.6c3.1-3,4.6-7.6,4.6-11.5c0-3.8-1.4-7.2-3.7-9.2c-1.6-1.4-4.3-3-9-3   C915.8,408.7,912.6,410.1,909.9,412.7L909.9,412.7z"
       id="path18" /><path
       d="M593.5,569.2c7.1-7.1,11.6-12,15.1-16.4c2.8-3.5,7.3-9.8,7.3-16.1c0-3.2-1.2-5.9-3-7.4c-2.2-1.9-5-2.3-7.2-2.3   c-2.8,0-5.4,0.6-7.6,3c-1.9,2.2-3.2,6.4-3.5,9.7h-18.5c0.6-7,3.5-14.4,8.3-19.6c6.4-6.8,14.4-8.8,22.4-8.8c9.6,0,16.9,3,21.4,7.3   c3.2,3.1,6.6,8.6,6.6,17c0,6.2-1.8,12-5.3,17.3c-2.6,4-8.8,10.6-13.1,14.5l-10.9,10.1h25.3l-2,15.6h-59.4L593.5,569.2z"
       id="path20" /><path
       d="M653.5,587.5c-8-7.8-9.8-18.5-9.8-28c0-17.5,6.4-30.7,13.9-38.4c7.1-7.2,15.1-9.8,24-9.8   c5.8,0,13.6,1.1,20,7.6c7.9,7.9,9.2,19.2,9.2,27.6c0,9.4-1.7,27.6-14,39.8c-7.1,7-13.6,8.6-22.6,8.6   C667.1,595,660,593.8,653.5,587.5L653.5,587.5z M683.3,575.4c6.7-6.8,8.9-19.9,8.9-29.2c0-4-0.5-13.2-5.2-17c-1.6-1.2-3.5-2-6-2   c-2.9,0-6.1,1-9.1,3.7c-6.6,6.1-9.5,18.4-9.5,28.6c0,3.7,0.1,11.3,4.3,16c2.5,2.9,5.6,3.7,7.8,3.7   C678.1,579.1,680.9,577.9,683.3,575.4z"
       id="path22" /><path
       d="M734,528.7h-11.4l0,0c1.1-8.9,8.7-15.6,17.6-15.6h14.2l-9.8,80h-18.5L734,528.7z"
       id="path24" /><path
       d="M803,528.7h-34.3l0,0c1.1-8.9,8.7-15.6,17.6-15.6h47.9L777.7,595l-17.6-4.2L803,528.7z"
       id="path26" /></g></svg>