G04 #@! TF.FileFunction,Legend,Bot*
%FSLAX46Y46*%
G04 Gerber Fmt 4.6, Leading zero omitted, Abs format (unit mm)*
G04 Created by KiCad (PCBNEW 4.0.5) date 01/22/17 22:08:40*
%MOMM*%
%LPD*%
G01*
G04 APERTURE LIST*
%ADD10C,0.100000*%
%ADD11C,0.150000*%
%ADD12C,0.010000*%
%ADD13C,0.120000*%
%ADD14C,7.401300*%
%ADD15C,2.686000*%
%ADD16R,1.900000X0.950000*%
%ADD17R,0.950000X1.900000*%
%ADD18R,1.150000X1.600000*%
%ADD19R,1.600000X1.150000*%
%ADD20R,1.997660X2.200860*%
%ADD21R,0.850000X0.990000*%
%ADD22R,0.990000X0.850000*%
%ADD23R,0.900380X2.701240*%
%ADD24R,2.398980X2.899360*%
%ADD25C,1.299160*%
%ADD26R,1.300000X1.600000*%
%ADD27R,1.600000X1.300000*%
%ADD28R,2.000000X2.580000*%
%ADD29R,2.127200X2.127200*%
%ADD30O,2.127200X2.127200*%
%ADD31R,2.400000X5.900000*%
%ADD32O,10.399980X5.401260*%
%ADD33C,7.400240*%
%ADD34R,2.100000X2.100000*%
%ADD35O,2.100000X2.100000*%
G04 APERTURE END LIST*
D10*
D11*
X107550000Y-118700000D02*
G75*
G03X107550000Y-118700000I-1000000J0D01*
G01*
X115725000Y-117525000D02*
X115725000Y-118200000D01*
X105375000Y-117525000D02*
X105375000Y-118200000D01*
X105375000Y-127875000D02*
X105375000Y-127200000D01*
X115725000Y-127875000D02*
X115725000Y-127200000D01*
X115725000Y-117525000D02*
X115050000Y-117525000D01*
X115725000Y-127875000D02*
X115050000Y-127875000D01*
X105375000Y-127875000D02*
X106050000Y-127875000D01*
X105375000Y-117525000D02*
X106050000Y-117525000D01*
X115725000Y-118200000D02*
X117000000Y-118200000D01*
X119350000Y-144600000D02*
X119350000Y-143900000D01*
X118150000Y-143900000D02*
X118150000Y-144600000D01*
X96600000Y-92100000D02*
X96600000Y-91400000D01*
X95400000Y-91400000D02*
X95400000Y-92100000D01*
X119350000Y-137100000D02*
X119350000Y-136400000D01*
X118150000Y-136400000D02*
X118150000Y-137100000D01*
X103150000Y-130850000D02*
X103850000Y-130850000D01*
X103850000Y-129650000D02*
X103150000Y-129650000D01*
X103150000Y-132350000D02*
X103850000Y-132350000D01*
X103850000Y-131150000D02*
X103150000Y-131150000D01*
X115350000Y-113150000D02*
X114650000Y-113150000D01*
X114650000Y-114350000D02*
X115350000Y-114350000D01*
X119350000Y-122850000D02*
X119350000Y-122150000D01*
X118150000Y-122150000D02*
X118150000Y-122850000D01*
X106400000Y-110650000D02*
X106400000Y-111350000D01*
X107600000Y-111350000D02*
X107600000Y-110650000D01*
X86400000Y-124800000D02*
X82800000Y-124800000D01*
X86400000Y-122700000D02*
X82800000Y-122700000D01*
X84350000Y-123450000D02*
X84350000Y-124050000D01*
X84350000Y-124050000D02*
X84650000Y-123750000D01*
X84650000Y-123750000D02*
X84450000Y-123550000D01*
X84450000Y-123550000D02*
X84450000Y-123800000D01*
X84450000Y-123800000D02*
X84500000Y-123750000D01*
X84750000Y-123250000D02*
X84750000Y-124250000D01*
X84250000Y-123750000D02*
X83750000Y-123750000D01*
X84750000Y-123750000D02*
X84250000Y-123250000D01*
X84250000Y-123250000D02*
X84250000Y-124250000D01*
X84250000Y-124250000D02*
X84750000Y-123750000D01*
X93000000Y-91000000D02*
X93000000Y-90750000D01*
X93000000Y-91500000D02*
X93000000Y-91750000D01*
X93000000Y-91500000D02*
X93350000Y-91000000D01*
X93350000Y-91000000D02*
X92650000Y-91000000D01*
X92650000Y-91000000D02*
X93000000Y-91500000D01*
X93350000Y-91500000D02*
X92650000Y-91500000D01*
X92200000Y-92550000D02*
X92200000Y-90150000D01*
X93800000Y-92550000D02*
X93800000Y-90150000D01*
X92250000Y-95750000D02*
X92000000Y-95750000D01*
X92750000Y-95750000D02*
X93000000Y-95750000D01*
X92750000Y-95750000D02*
X92250000Y-95400000D01*
X92250000Y-95400000D02*
X92250000Y-96100000D01*
X92250000Y-96100000D02*
X92750000Y-95750000D01*
X92750000Y-95400000D02*
X92750000Y-96100000D01*
X93800000Y-96550000D02*
X91400000Y-96550000D01*
X93800000Y-94950000D02*
X91400000Y-94950000D01*
X88950000Y-127650000D02*
X88950000Y-127400000D01*
X88950000Y-128150000D02*
X88950000Y-128400000D01*
X88950000Y-128150000D02*
X89300000Y-127650000D01*
X89300000Y-127650000D02*
X88600000Y-127650000D01*
X88600000Y-127650000D02*
X88950000Y-128150000D01*
X89300000Y-128150000D02*
X88600000Y-128150000D01*
X88150000Y-129200000D02*
X88150000Y-126800000D01*
X89750000Y-129200000D02*
X89750000Y-126800000D01*
X98250000Y-133750000D02*
X98000000Y-133750000D01*
X98750000Y-133750000D02*
X99000000Y-133750000D01*
X98750000Y-133750000D02*
X98250000Y-133400000D01*
X98250000Y-133400000D02*
X98250000Y-134100000D01*
X98250000Y-134100000D02*
X98750000Y-133750000D01*
X98750000Y-133400000D02*
X98750000Y-134100000D01*
X99800000Y-134550000D02*
X97400000Y-134550000D01*
X99800000Y-132950000D02*
X97400000Y-132950000D01*
X89250000Y-153750000D02*
X89000000Y-153750000D01*
X89750000Y-153750000D02*
X90000000Y-153750000D01*
X89750000Y-153750000D02*
X89250000Y-153400000D01*
X89250000Y-153400000D02*
X89250000Y-154100000D01*
X89250000Y-154100000D02*
X89750000Y-153750000D01*
X89750000Y-153400000D02*
X89750000Y-154100000D01*
X90800000Y-154550000D02*
X88400000Y-154550000D01*
X90800000Y-152950000D02*
X88400000Y-152950000D01*
X112750000Y-90750000D02*
X112750000Y-90500000D01*
X112750000Y-91250000D02*
X112750000Y-91500000D01*
X112750000Y-91250000D02*
X113100000Y-90750000D01*
X113100000Y-90750000D02*
X112400000Y-90750000D01*
X112400000Y-90750000D02*
X112750000Y-91250000D01*
X113100000Y-91250000D02*
X112400000Y-91250000D01*
X111950000Y-92300000D02*
X111950000Y-89900000D01*
X113550000Y-92300000D02*
X113550000Y-89900000D01*
X116250000Y-95750000D02*
X116000000Y-95750000D01*
X116750000Y-95750000D02*
X117000000Y-95750000D01*
X116750000Y-95750000D02*
X116250000Y-95400000D01*
X116250000Y-95400000D02*
X116250000Y-96100000D01*
X116250000Y-96100000D02*
X116750000Y-95750000D01*
X116750000Y-95400000D02*
X116750000Y-96100000D01*
X117800000Y-96550000D02*
X115400000Y-96550000D01*
X117800000Y-94950000D02*
X115400000Y-94950000D01*
X128300000Y-118100000D02*
X128050000Y-118100000D01*
X128800000Y-118100000D02*
X129050000Y-118100000D01*
X128800000Y-118100000D02*
X128300000Y-117750000D01*
X128300000Y-117750000D02*
X128300000Y-118450000D01*
X128300000Y-118450000D02*
X128800000Y-118100000D01*
X128800000Y-117750000D02*
X128800000Y-118450000D01*
X129850000Y-118900000D02*
X127450000Y-118900000D01*
X129850000Y-117300000D02*
X127450000Y-117300000D01*
X130250000Y-133750000D02*
X130000000Y-133750000D01*
X130750000Y-133750000D02*
X131000000Y-133750000D01*
X130750000Y-133750000D02*
X130250000Y-133400000D01*
X130250000Y-133400000D02*
X130250000Y-134100000D01*
X130250000Y-134100000D02*
X130750000Y-133750000D01*
X130750000Y-133400000D02*
X130750000Y-134100000D01*
X131800000Y-134550000D02*
X129400000Y-134550000D01*
X131800000Y-132950000D02*
X129400000Y-132950000D01*
X113250000Y-153750000D02*
X113000000Y-153750000D01*
X113750000Y-153750000D02*
X114000000Y-153750000D01*
X113750000Y-153750000D02*
X113250000Y-153400000D01*
X113250000Y-153400000D02*
X113250000Y-154100000D01*
X113250000Y-154100000D02*
X113750000Y-153750000D01*
X113750000Y-153400000D02*
X113750000Y-154100000D01*
X114800000Y-154550000D02*
X112400000Y-154550000D01*
X114800000Y-152950000D02*
X112400000Y-152950000D01*
X125250000Y-76750000D02*
X125000000Y-76750000D01*
X125750000Y-76750000D02*
X126000000Y-76750000D01*
X125750000Y-76750000D02*
X125250000Y-76400000D01*
X125250000Y-76400000D02*
X125250000Y-77100000D01*
X125250000Y-77100000D02*
X125750000Y-76750000D01*
X125750000Y-76400000D02*
X125750000Y-77100000D01*
X126800000Y-77550000D02*
X124400000Y-77550000D01*
X126800000Y-75950000D02*
X124400000Y-75950000D01*
X135250000Y-95750000D02*
X135000000Y-95750000D01*
X135750000Y-95750000D02*
X136000000Y-95750000D01*
X135750000Y-95750000D02*
X135250000Y-95400000D01*
X135250000Y-95400000D02*
X135250000Y-96100000D01*
X135250000Y-96100000D02*
X135750000Y-95750000D01*
X135750000Y-95400000D02*
X135750000Y-96100000D01*
X136800000Y-96550000D02*
X134400000Y-96550000D01*
X136800000Y-94950000D02*
X134400000Y-94950000D01*
X139250000Y-114750000D02*
X139000000Y-114750000D01*
X139750000Y-114750000D02*
X140000000Y-114750000D01*
X139750000Y-114750000D02*
X139250000Y-114400000D01*
X139250000Y-114400000D02*
X139250000Y-115100000D01*
X139250000Y-115100000D02*
X139750000Y-114750000D01*
X139750000Y-114400000D02*
X139750000Y-115100000D01*
X140800000Y-115550000D02*
X138400000Y-115550000D01*
X140800000Y-113950000D02*
X138400000Y-113950000D01*
X149250000Y-133750000D02*
X149000000Y-133750000D01*
X149750000Y-133750000D02*
X150000000Y-133750000D01*
X149750000Y-133750000D02*
X149250000Y-133400000D01*
X149250000Y-133400000D02*
X149250000Y-134100000D01*
X149250000Y-134100000D02*
X149750000Y-133750000D01*
X149750000Y-133400000D02*
X149750000Y-134100000D01*
X150800000Y-134550000D02*
X148400000Y-134550000D01*
X150800000Y-132950000D02*
X148400000Y-132950000D01*
X137250000Y-152750000D02*
X137000000Y-152750000D01*
X137750000Y-152750000D02*
X138000000Y-152750000D01*
X137750000Y-152750000D02*
X137250000Y-152400000D01*
X137250000Y-152400000D02*
X137250000Y-153100000D01*
X137250000Y-153100000D02*
X137750000Y-152750000D01*
X137750000Y-152400000D02*
X137750000Y-153100000D01*
X138800000Y-153550000D02*
X136400000Y-153550000D01*
X138800000Y-151950000D02*
X136400000Y-151950000D01*
X157250000Y-152750000D02*
X157000000Y-152750000D01*
X157750000Y-152750000D02*
X158000000Y-152750000D01*
X157750000Y-152750000D02*
X157250000Y-152400000D01*
X157250000Y-152400000D02*
X157250000Y-153100000D01*
X157250000Y-153100000D02*
X157750000Y-152750000D01*
X157750000Y-152400000D02*
X157750000Y-153100000D01*
X158800000Y-153550000D02*
X156400000Y-153550000D01*
X158800000Y-151950000D02*
X156400000Y-151950000D01*
X144250000Y-76750000D02*
X144000000Y-76750000D01*
X144750000Y-76750000D02*
X145000000Y-76750000D01*
X144750000Y-76750000D02*
X144250000Y-76400000D01*
X144250000Y-76400000D02*
X144250000Y-77100000D01*
X144250000Y-77100000D02*
X144750000Y-76750000D01*
X144750000Y-76400000D02*
X144750000Y-77100000D01*
X145800000Y-77550000D02*
X143400000Y-77550000D01*
X145800000Y-75950000D02*
X143400000Y-75950000D01*
X154250000Y-95750000D02*
X154000000Y-95750000D01*
X154750000Y-95750000D02*
X155000000Y-95750000D01*
X154750000Y-95750000D02*
X154250000Y-95400000D01*
X154250000Y-95400000D02*
X154250000Y-96100000D01*
X154250000Y-96100000D02*
X154750000Y-95750000D01*
X154750000Y-95400000D02*
X154750000Y-96100000D01*
X155800000Y-96550000D02*
X153400000Y-96550000D01*
X155800000Y-94950000D02*
X153400000Y-94950000D01*
X158250000Y-114750000D02*
X158000000Y-114750000D01*
X158750000Y-114750000D02*
X159000000Y-114750000D01*
X158750000Y-114750000D02*
X158250000Y-114400000D01*
X158250000Y-114400000D02*
X158250000Y-115100000D01*
X158250000Y-115100000D02*
X158750000Y-114750000D01*
X158750000Y-114400000D02*
X158750000Y-115100000D01*
X159800000Y-115550000D02*
X157400000Y-115550000D01*
X159800000Y-113950000D02*
X157400000Y-113950000D01*
X168250000Y-133750000D02*
X168000000Y-133750000D01*
X168750000Y-133750000D02*
X169000000Y-133750000D01*
X168750000Y-133750000D02*
X168250000Y-133400000D01*
X168250000Y-133400000D02*
X168250000Y-134100000D01*
X168250000Y-134100000D02*
X168750000Y-133750000D01*
X168750000Y-133400000D02*
X168750000Y-134100000D01*
X169800000Y-134550000D02*
X167400000Y-134550000D01*
X169800000Y-132950000D02*
X167400000Y-132950000D01*
X163250000Y-76750000D02*
X163000000Y-76750000D01*
X163750000Y-76750000D02*
X164000000Y-76750000D01*
X163750000Y-76750000D02*
X163250000Y-76400000D01*
X163250000Y-76400000D02*
X163250000Y-77100000D01*
X163250000Y-77100000D02*
X163750000Y-76750000D01*
X163750000Y-76400000D02*
X163750000Y-77100000D01*
X164800000Y-77550000D02*
X162400000Y-77550000D01*
X164800000Y-75950000D02*
X162400000Y-75950000D01*
X173250000Y-95750000D02*
X173000000Y-95750000D01*
X173750000Y-95750000D02*
X174000000Y-95750000D01*
X173750000Y-95750000D02*
X173250000Y-95400000D01*
X173250000Y-95400000D02*
X173250000Y-96100000D01*
X173250000Y-96100000D02*
X173750000Y-95750000D01*
X173750000Y-95400000D02*
X173750000Y-96100000D01*
X174800000Y-96550000D02*
X172400000Y-96550000D01*
X174800000Y-94950000D02*
X172400000Y-94950000D01*
X178250000Y-114750000D02*
X178000000Y-114750000D01*
X178750000Y-114750000D02*
X179000000Y-114750000D01*
X178750000Y-114750000D02*
X178250000Y-114400000D01*
X178250000Y-114400000D02*
X178250000Y-115100000D01*
X178250000Y-115100000D02*
X178750000Y-114750000D01*
X178750000Y-114400000D02*
X178750000Y-115100000D01*
X179800000Y-115550000D02*
X177400000Y-115550000D01*
X179800000Y-113950000D02*
X177400000Y-113950000D01*
X187250000Y-133750000D02*
X187000000Y-133750000D01*
X187750000Y-133750000D02*
X188000000Y-133750000D01*
X187750000Y-133750000D02*
X187250000Y-133400000D01*
X187250000Y-133400000D02*
X187250000Y-134100000D01*
X187250000Y-134100000D02*
X187750000Y-133750000D01*
X187750000Y-133400000D02*
X187750000Y-134100000D01*
X188800000Y-134550000D02*
X186400000Y-134550000D01*
X188800000Y-132950000D02*
X186400000Y-132950000D01*
X194250000Y-152750000D02*
X194000000Y-152750000D01*
X194750000Y-152750000D02*
X195000000Y-152750000D01*
X194750000Y-152750000D02*
X194250000Y-152400000D01*
X194250000Y-152400000D02*
X194250000Y-153100000D01*
X194250000Y-153100000D02*
X194750000Y-152750000D01*
X194750000Y-152400000D02*
X194750000Y-153100000D01*
X195800000Y-153550000D02*
X193400000Y-153550000D01*
X195800000Y-151950000D02*
X193400000Y-151950000D01*
X182250000Y-76750000D02*
X182000000Y-76750000D01*
X182750000Y-76750000D02*
X183000000Y-76750000D01*
X182750000Y-76750000D02*
X182250000Y-76400000D01*
X182250000Y-76400000D02*
X182250000Y-77100000D01*
X182250000Y-77100000D02*
X182750000Y-76750000D01*
X182750000Y-76400000D02*
X182750000Y-77100000D01*
X183800000Y-77550000D02*
X181400000Y-77550000D01*
X183800000Y-75950000D02*
X181400000Y-75950000D01*
X192250000Y-95750000D02*
X192000000Y-95750000D01*
X192750000Y-95750000D02*
X193000000Y-95750000D01*
X192750000Y-95750000D02*
X192250000Y-95400000D01*
X192250000Y-95400000D02*
X192250000Y-96100000D01*
X192250000Y-96100000D02*
X192750000Y-95750000D01*
X192750000Y-95400000D02*
X192750000Y-96100000D01*
X193800000Y-96550000D02*
X191400000Y-96550000D01*
X193800000Y-94950000D02*
X191400000Y-94950000D01*
X197250000Y-114750000D02*
X197000000Y-114750000D01*
X197750000Y-114750000D02*
X198000000Y-114750000D01*
X197750000Y-114750000D02*
X197250000Y-114400000D01*
X197250000Y-114400000D02*
X197250000Y-115100000D01*
X197250000Y-115100000D02*
X197750000Y-114750000D01*
X197750000Y-114400000D02*
X197750000Y-115100000D01*
X198800000Y-115550000D02*
X196400000Y-115550000D01*
X198800000Y-113950000D02*
X196400000Y-113950000D01*
X205250000Y-133750000D02*
X205000000Y-133750000D01*
X205750000Y-133750000D02*
X206000000Y-133750000D01*
X205750000Y-133750000D02*
X205250000Y-133400000D01*
X205250000Y-133400000D02*
X205250000Y-134100000D01*
X205250000Y-134100000D02*
X205750000Y-133750000D01*
X205750000Y-133400000D02*
X205750000Y-134100000D01*
X206800000Y-134550000D02*
X204400000Y-134550000D01*
X206800000Y-132950000D02*
X204400000Y-132950000D01*
X245250000Y-152750000D02*
X245000000Y-152750000D01*
X245750000Y-152750000D02*
X246000000Y-152750000D01*
X245750000Y-152750000D02*
X245250000Y-152400000D01*
X245250000Y-152400000D02*
X245250000Y-153100000D01*
X245250000Y-153100000D02*
X245750000Y-152750000D01*
X245750000Y-152400000D02*
X245750000Y-153100000D01*
X246800000Y-153550000D02*
X244400000Y-153550000D01*
X246800000Y-151950000D02*
X244400000Y-151950000D01*
X201250000Y-76750000D02*
X201000000Y-76750000D01*
X201750000Y-76750000D02*
X202000000Y-76750000D01*
X201750000Y-76750000D02*
X201250000Y-76400000D01*
X201250000Y-76400000D02*
X201250000Y-77100000D01*
X201250000Y-77100000D02*
X201750000Y-76750000D01*
X201750000Y-76400000D02*
X201750000Y-77100000D01*
X202800000Y-77550000D02*
X200400000Y-77550000D01*
X202800000Y-75950000D02*
X200400000Y-75950000D01*
X211250000Y-95750000D02*
X211000000Y-95750000D01*
X211750000Y-95750000D02*
X212000000Y-95750000D01*
X211750000Y-95750000D02*
X211250000Y-95400000D01*
X211250000Y-95400000D02*
X211250000Y-96100000D01*
X211250000Y-96100000D02*
X211750000Y-95750000D01*
X211750000Y-95400000D02*
X211750000Y-96100000D01*
X212800000Y-96550000D02*
X210400000Y-96550000D01*
X212800000Y-94950000D02*
X210400000Y-94950000D01*
X215250000Y-114750000D02*
X215000000Y-114750000D01*
X215750000Y-114750000D02*
X216000000Y-114750000D01*
X215750000Y-114750000D02*
X215250000Y-114400000D01*
X215250000Y-114400000D02*
X215250000Y-115100000D01*
X215250000Y-115100000D02*
X215750000Y-114750000D01*
X215750000Y-114400000D02*
X215750000Y-115100000D01*
X216800000Y-115550000D02*
X214400000Y-115550000D01*
X216800000Y-113950000D02*
X214400000Y-113950000D01*
X225250000Y-133750000D02*
X225000000Y-133750000D01*
X225750000Y-133750000D02*
X226000000Y-133750000D01*
X225750000Y-133750000D02*
X225250000Y-133400000D01*
X225250000Y-133400000D02*
X225250000Y-134100000D01*
X225250000Y-134100000D02*
X225750000Y-133750000D01*
X225750000Y-133400000D02*
X225750000Y-134100000D01*
X226800000Y-134550000D02*
X224400000Y-134550000D01*
X226800000Y-132950000D02*
X224400000Y-132950000D01*
X284250000Y-152750000D02*
X284000000Y-152750000D01*
X284750000Y-152750000D02*
X285000000Y-152750000D01*
X284750000Y-152750000D02*
X284250000Y-152400000D01*
X284250000Y-152400000D02*
X284250000Y-153100000D01*
X284250000Y-153100000D02*
X284750000Y-152750000D01*
X284750000Y-152400000D02*
X284750000Y-153100000D01*
X285800000Y-153550000D02*
X283400000Y-153550000D01*
X285800000Y-151950000D02*
X283400000Y-151950000D01*
X220250000Y-76750000D02*
X220000000Y-76750000D01*
X220750000Y-76750000D02*
X221000000Y-76750000D01*
X220750000Y-76750000D02*
X220250000Y-76400000D01*
X220250000Y-76400000D02*
X220250000Y-77100000D01*
X220250000Y-77100000D02*
X220750000Y-76750000D01*
X220750000Y-76400000D02*
X220750000Y-77100000D01*
X221800000Y-77550000D02*
X219400000Y-77550000D01*
X221800000Y-75950000D02*
X219400000Y-75950000D01*
X230250000Y-95750000D02*
X230000000Y-95750000D01*
X230750000Y-95750000D02*
X231000000Y-95750000D01*
X230750000Y-95750000D02*
X230250000Y-95400000D01*
X230250000Y-95400000D02*
X230250000Y-96100000D01*
X230250000Y-96100000D02*
X230750000Y-95750000D01*
X230750000Y-95400000D02*
X230750000Y-96100000D01*
X231800000Y-96550000D02*
X229400000Y-96550000D01*
X231800000Y-94950000D02*
X229400000Y-94950000D01*
X234250000Y-114750000D02*
X234000000Y-114750000D01*
X234750000Y-114750000D02*
X235000000Y-114750000D01*
X234750000Y-114750000D02*
X234250000Y-114400000D01*
X234250000Y-114400000D02*
X234250000Y-115100000D01*
X234250000Y-115100000D02*
X234750000Y-114750000D01*
X234750000Y-114400000D02*
X234750000Y-115100000D01*
X235800000Y-115550000D02*
X233400000Y-115550000D01*
X235800000Y-113950000D02*
X233400000Y-113950000D01*
X244250000Y-133750000D02*
X244000000Y-133750000D01*
X244750000Y-133750000D02*
X245000000Y-133750000D01*
X244750000Y-133750000D02*
X244250000Y-133400000D01*
X244250000Y-133400000D02*
X244250000Y-134100000D01*
X244250000Y-134100000D02*
X244750000Y-133750000D01*
X244750000Y-133400000D02*
X244750000Y-134100000D01*
X245800000Y-134550000D02*
X243400000Y-134550000D01*
X245800000Y-132950000D02*
X243400000Y-132950000D01*
X303250000Y-152750000D02*
X303000000Y-152750000D01*
X303750000Y-152750000D02*
X304000000Y-152750000D01*
X303750000Y-152750000D02*
X303250000Y-152400000D01*
X303250000Y-152400000D02*
X303250000Y-153100000D01*
X303250000Y-153100000D02*
X303750000Y-152750000D01*
X303750000Y-152400000D02*
X303750000Y-153100000D01*
X304800000Y-153550000D02*
X302400000Y-153550000D01*
X304800000Y-151950000D02*
X302400000Y-151950000D01*
X239250000Y-76750000D02*
X239000000Y-76750000D01*
X239750000Y-76750000D02*
X240000000Y-76750000D01*
X239750000Y-76750000D02*
X239250000Y-76400000D01*
X239250000Y-76400000D02*
X239250000Y-77100000D01*
X239250000Y-77100000D02*
X239750000Y-76750000D01*
X239750000Y-76400000D02*
X239750000Y-77100000D01*
X240800000Y-77550000D02*
X238400000Y-77550000D01*
X240800000Y-75950000D02*
X238400000Y-75950000D01*
X249250000Y-95750000D02*
X249000000Y-95750000D01*
X249750000Y-95750000D02*
X250000000Y-95750000D01*
X249750000Y-95750000D02*
X249250000Y-95400000D01*
X249250000Y-95400000D02*
X249250000Y-96100000D01*
X249250000Y-96100000D02*
X249750000Y-95750000D01*
X249750000Y-95400000D02*
X249750000Y-96100000D01*
X250800000Y-96550000D02*
X248400000Y-96550000D01*
X250800000Y-94950000D02*
X248400000Y-94950000D01*
X253250000Y-114750000D02*
X253000000Y-114750000D01*
X253750000Y-114750000D02*
X254000000Y-114750000D01*
X253750000Y-114750000D02*
X253250000Y-114400000D01*
X253250000Y-114400000D02*
X253250000Y-115100000D01*
X253250000Y-115100000D02*
X253750000Y-114750000D01*
X253750000Y-114400000D02*
X253750000Y-115100000D01*
X254800000Y-115550000D02*
X252400000Y-115550000D01*
X254800000Y-113950000D02*
X252400000Y-113950000D01*
X263250000Y-133750000D02*
X263000000Y-133750000D01*
X263750000Y-133750000D02*
X264000000Y-133750000D01*
X263750000Y-133750000D02*
X263250000Y-133400000D01*
X263250000Y-133400000D02*
X263250000Y-134100000D01*
X263250000Y-134100000D02*
X263750000Y-133750000D01*
X263750000Y-133400000D02*
X263750000Y-134100000D01*
X264800000Y-134550000D02*
X262400000Y-134550000D01*
X264800000Y-132950000D02*
X262400000Y-132950000D01*
X325250000Y-153750000D02*
X325000000Y-153750000D01*
X325750000Y-153750000D02*
X326000000Y-153750000D01*
X325750000Y-153750000D02*
X325250000Y-153400000D01*
X325250000Y-153400000D02*
X325250000Y-154100000D01*
X325250000Y-154100000D02*
X325750000Y-153750000D01*
X325750000Y-153400000D02*
X325750000Y-154100000D01*
X326800000Y-154550000D02*
X324400000Y-154550000D01*
X326800000Y-152950000D02*
X324400000Y-152950000D01*
X258250000Y-76750000D02*
X258000000Y-76750000D01*
X258750000Y-76750000D02*
X259000000Y-76750000D01*
X258750000Y-76750000D02*
X258250000Y-76400000D01*
X258250000Y-76400000D02*
X258250000Y-77100000D01*
X258250000Y-77100000D02*
X258750000Y-76750000D01*
X258750000Y-76400000D02*
X258750000Y-77100000D01*
X259800000Y-77550000D02*
X257400000Y-77550000D01*
X259800000Y-75950000D02*
X257400000Y-75950000D01*
X268250000Y-95750000D02*
X268000000Y-95750000D01*
X268750000Y-95750000D02*
X269000000Y-95750000D01*
X268750000Y-95750000D02*
X268250000Y-95400000D01*
X268250000Y-95400000D02*
X268250000Y-96100000D01*
X268250000Y-96100000D02*
X268750000Y-95750000D01*
X268750000Y-95400000D02*
X268750000Y-96100000D01*
X269800000Y-96550000D02*
X267400000Y-96550000D01*
X269800000Y-94950000D02*
X267400000Y-94950000D01*
X272250000Y-114750000D02*
X272000000Y-114750000D01*
X272750000Y-114750000D02*
X273000000Y-114750000D01*
X272750000Y-114750000D02*
X272250000Y-114400000D01*
X272250000Y-114400000D02*
X272250000Y-115100000D01*
X272250000Y-115100000D02*
X272750000Y-114750000D01*
X272750000Y-114400000D02*
X272750000Y-115100000D01*
X273800000Y-115550000D02*
X271400000Y-115550000D01*
X273800000Y-113950000D02*
X271400000Y-113950000D01*
X282250000Y-133750000D02*
X282000000Y-133750000D01*
X282750000Y-133750000D02*
X283000000Y-133750000D01*
X282750000Y-133750000D02*
X282250000Y-133400000D01*
X282250000Y-133400000D02*
X282250000Y-134100000D01*
X282250000Y-134100000D02*
X282750000Y-133750000D01*
X282750000Y-133400000D02*
X282750000Y-134100000D01*
X283800000Y-134550000D02*
X281400000Y-134550000D01*
X283800000Y-132950000D02*
X281400000Y-132950000D01*
X349250000Y-153750000D02*
X349000000Y-153750000D01*
X349750000Y-153750000D02*
X350000000Y-153750000D01*
X349750000Y-153750000D02*
X349250000Y-153400000D01*
X349250000Y-153400000D02*
X349250000Y-154100000D01*
X349250000Y-154100000D02*
X349750000Y-153750000D01*
X349750000Y-153400000D02*
X349750000Y-154100000D01*
X350800000Y-154550000D02*
X348400000Y-154550000D01*
X350800000Y-152950000D02*
X348400000Y-152950000D01*
X277250000Y-76750000D02*
X277000000Y-76750000D01*
X277750000Y-76750000D02*
X278000000Y-76750000D01*
X277750000Y-76750000D02*
X277250000Y-76400000D01*
X277250000Y-76400000D02*
X277250000Y-77100000D01*
X277250000Y-77100000D02*
X277750000Y-76750000D01*
X277750000Y-76400000D02*
X277750000Y-77100000D01*
X278800000Y-77550000D02*
X276400000Y-77550000D01*
X278800000Y-75950000D02*
X276400000Y-75950000D01*
X286250000Y-95750000D02*
X286000000Y-95750000D01*
X286750000Y-95750000D02*
X287000000Y-95750000D01*
X286750000Y-95750000D02*
X286250000Y-95400000D01*
X286250000Y-95400000D02*
X286250000Y-96100000D01*
X286250000Y-96100000D02*
X286750000Y-95750000D01*
X286750000Y-95400000D02*
X286750000Y-96100000D01*
X287800000Y-96550000D02*
X285400000Y-96550000D01*
X287800000Y-94950000D02*
X285400000Y-94950000D01*
X292250000Y-114750000D02*
X292000000Y-114750000D01*
X292750000Y-114750000D02*
X293000000Y-114750000D01*
X292750000Y-114750000D02*
X292250000Y-114400000D01*
X292250000Y-114400000D02*
X292250000Y-115100000D01*
X292250000Y-115100000D02*
X292750000Y-114750000D01*
X292750000Y-114400000D02*
X292750000Y-115100000D01*
X293800000Y-115550000D02*
X291400000Y-115550000D01*
X293800000Y-113950000D02*
X291400000Y-113950000D01*
X301250000Y-133750000D02*
X301000000Y-133750000D01*
X301750000Y-133750000D02*
X302000000Y-133750000D01*
X301750000Y-133750000D02*
X301250000Y-133400000D01*
X301250000Y-133400000D02*
X301250000Y-134100000D01*
X301250000Y-134100000D02*
X301750000Y-133750000D01*
X301750000Y-133400000D02*
X301750000Y-134100000D01*
X302800000Y-134550000D02*
X300400000Y-134550000D01*
X302800000Y-132950000D02*
X300400000Y-132950000D01*
X297250000Y-76750000D02*
X297000000Y-76750000D01*
X297750000Y-76750000D02*
X298000000Y-76750000D01*
X297750000Y-76750000D02*
X297250000Y-76400000D01*
X297250000Y-76400000D02*
X297250000Y-77100000D01*
X297250000Y-77100000D02*
X297750000Y-76750000D01*
X297750000Y-76400000D02*
X297750000Y-77100000D01*
X298800000Y-77550000D02*
X296400000Y-77550000D01*
X298800000Y-75950000D02*
X296400000Y-75950000D01*
X306250000Y-95750000D02*
X306000000Y-95750000D01*
X306750000Y-95750000D02*
X307000000Y-95750000D01*
X306750000Y-95750000D02*
X306250000Y-95400000D01*
X306250000Y-95400000D02*
X306250000Y-96100000D01*
X306250000Y-96100000D02*
X306750000Y-95750000D01*
X306750000Y-95400000D02*
X306750000Y-96100000D01*
X307800000Y-96550000D02*
X305400000Y-96550000D01*
X307800000Y-94950000D02*
X305400000Y-94950000D01*
X310250000Y-114750000D02*
X310000000Y-114750000D01*
X310750000Y-114750000D02*
X311000000Y-114750000D01*
X310750000Y-114750000D02*
X310250000Y-114400000D01*
X310250000Y-114400000D02*
X310250000Y-115100000D01*
X310250000Y-115100000D02*
X310750000Y-114750000D01*
X310750000Y-114400000D02*
X310750000Y-115100000D01*
X311800000Y-115550000D02*
X309400000Y-115550000D01*
X311800000Y-113950000D02*
X309400000Y-113950000D01*
X337250000Y-133750000D02*
X337000000Y-133750000D01*
X337750000Y-133750000D02*
X338000000Y-133750000D01*
X337750000Y-133750000D02*
X337250000Y-133400000D01*
X337250000Y-133400000D02*
X337250000Y-134100000D01*
X337250000Y-134100000D02*
X337750000Y-133750000D01*
X337750000Y-133400000D02*
X337750000Y-134100000D01*
X338800000Y-134550000D02*
X336400000Y-134550000D01*
X338800000Y-132950000D02*
X336400000Y-132950000D01*
X316250000Y-76750000D02*
X316000000Y-76750000D01*
X316750000Y-76750000D02*
X317000000Y-76750000D01*
X316750000Y-76750000D02*
X316250000Y-76400000D01*
X316250000Y-76400000D02*
X316250000Y-77100000D01*
X316250000Y-77100000D02*
X316750000Y-76750000D01*
X316750000Y-76400000D02*
X316750000Y-77100000D01*
X317800000Y-77550000D02*
X315400000Y-77550000D01*
X317800000Y-75950000D02*
X315400000Y-75950000D01*
X326250000Y-95750000D02*
X326000000Y-95750000D01*
X326750000Y-95750000D02*
X327000000Y-95750000D01*
X326750000Y-95750000D02*
X326250000Y-95400000D01*
X326250000Y-95400000D02*
X326250000Y-96100000D01*
X326250000Y-96100000D02*
X326750000Y-95750000D01*
X326750000Y-95400000D02*
X326750000Y-96100000D01*
X327800000Y-96550000D02*
X325400000Y-96550000D01*
X327800000Y-94950000D02*
X325400000Y-94950000D01*
X342250000Y-114750000D02*
X342000000Y-114750000D01*
X342750000Y-114750000D02*
X343000000Y-114750000D01*
X342750000Y-114750000D02*
X342250000Y-114400000D01*
X342250000Y-114400000D02*
X342250000Y-115100000D01*
X342250000Y-115100000D02*
X342750000Y-114750000D01*
X342750000Y-114400000D02*
X342750000Y-115100000D01*
X343800000Y-115550000D02*
X341400000Y-115550000D01*
X343800000Y-113950000D02*
X341400000Y-113950000D01*
X354250000Y-136750000D02*
X354000000Y-136750000D01*
X354750000Y-136750000D02*
X355000000Y-136750000D01*
X354750000Y-136750000D02*
X354250000Y-136400000D01*
X354250000Y-136400000D02*
X354250000Y-137100000D01*
X354250000Y-137100000D02*
X354750000Y-136750000D01*
X354750000Y-136400000D02*
X354750000Y-137100000D01*
X355800000Y-137550000D02*
X353400000Y-137550000D01*
X355800000Y-135950000D02*
X353400000Y-135950000D01*
X329250000Y-79750000D02*
X329000000Y-79750000D01*
X329750000Y-79750000D02*
X330000000Y-79750000D01*
X329750000Y-79750000D02*
X329250000Y-79400000D01*
X329250000Y-79400000D02*
X329250000Y-80100000D01*
X329250000Y-80100000D02*
X329750000Y-79750000D01*
X329750000Y-79400000D02*
X329750000Y-80100000D01*
X330800000Y-80550000D02*
X328400000Y-80550000D01*
X330800000Y-78950000D02*
X328400000Y-78950000D01*
X352250000Y-77750000D02*
X352000000Y-77750000D01*
X352750000Y-77750000D02*
X353000000Y-77750000D01*
X352750000Y-77750000D02*
X352250000Y-77400000D01*
X352250000Y-77400000D02*
X352250000Y-78100000D01*
X352250000Y-78100000D02*
X352750000Y-77750000D01*
X352750000Y-77400000D02*
X352750000Y-78100000D01*
X353800000Y-78550000D02*
X351400000Y-78550000D01*
X353800000Y-76950000D02*
X351400000Y-76950000D01*
X349250000Y-95750000D02*
X349000000Y-95750000D01*
X349750000Y-95750000D02*
X350000000Y-95750000D01*
X349750000Y-95750000D02*
X349250000Y-95400000D01*
X349250000Y-95400000D02*
X349250000Y-96100000D01*
X349250000Y-96100000D02*
X349750000Y-95750000D01*
X349750000Y-95400000D02*
X349750000Y-96100000D01*
X350800000Y-96550000D02*
X348400000Y-96550000D01*
X350800000Y-94950000D02*
X348400000Y-94950000D01*
X94399360Y-73650820D02*
X102100640Y-73650820D01*
X94399360Y-72650060D02*
X102100640Y-72650060D01*
X102100640Y-72650060D02*
X102100640Y-81849940D01*
X102100640Y-81849940D02*
X94399360Y-81849940D01*
X94399360Y-81849940D02*
X94399360Y-72650060D01*
X139175000Y-129000000D02*
X139175000Y-128000000D01*
X137825000Y-128000000D02*
X137825000Y-129000000D01*
X96875000Y-91200000D02*
X96875000Y-92200000D01*
X98225000Y-92200000D02*
X98225000Y-91200000D01*
X98475000Y-91200000D02*
X98475000Y-92200000D01*
X99825000Y-92200000D02*
X99825000Y-91200000D01*
X84250000Y-125325000D02*
X83250000Y-125325000D01*
X83250000Y-126675000D02*
X84250000Y-126675000D01*
X142050220Y-133489890D02*
X142050220Y-130989890D01*
X142050220Y-130989890D02*
X140950220Y-130989890D01*
X140950220Y-130989890D02*
X140950220Y-133489890D01*
X140950220Y-133489890D02*
X142050220Y-133489890D01*
X140700220Y-133739890D02*
X140700220Y-130739890D01*
X142300220Y-133739890D02*
X142300220Y-130739890D01*
X142300220Y-130739890D02*
X140700220Y-130739890D01*
X142300220Y-133739890D02*
X140700220Y-133739890D01*
X139750220Y-135239890D02*
X139750220Y-129239890D01*
X143250220Y-135239890D02*
X143250220Y-129239890D01*
X143250220Y-135239890D02*
X139750220Y-135239890D01*
X143250220Y-129239890D02*
X139750220Y-129239890D01*
X121770000Y-129230000D02*
X126850000Y-129230000D01*
X118950000Y-128950000D02*
X118950000Y-130500000D01*
X119230000Y-131770000D02*
X121770000Y-131770000D01*
X121770000Y-131770000D02*
X121770000Y-129230000D01*
X126850000Y-129230000D02*
X126850000Y-134310000D01*
X126850000Y-134310000D02*
X121770000Y-134310000D01*
X118950000Y-128950000D02*
X120500000Y-128950000D01*
X119230000Y-134310000D02*
X119230000Y-131770000D01*
X121770000Y-134310000D02*
X119230000Y-134310000D01*
X124850000Y-136300000D02*
X120150000Y-136300000D01*
X124850000Y-147700000D02*
X120150000Y-147700000D01*
X124850000Y-147700000D02*
X124850000Y-136300000D01*
X120150000Y-147700000D02*
X120150000Y-136300000D01*
D12*
G36*
X318901921Y-93765042D02*
X318628490Y-93813881D01*
X318381003Y-93905304D01*
X318161317Y-94037764D01*
X317971288Y-94209712D01*
X317812774Y-94419602D01*
X317687631Y-94665886D01*
X317597716Y-94947019D01*
X317562633Y-95124200D01*
X317548367Y-95256509D01*
X317540037Y-95424722D01*
X317537506Y-95614309D01*
X317540636Y-95810737D01*
X317549291Y-95999476D01*
X317563334Y-96165993D01*
X317573147Y-96241800D01*
X317649806Y-96615401D01*
X317760907Y-96956573D01*
X317905459Y-97263499D01*
X318082475Y-97534365D01*
X318290967Y-97767354D01*
X318495914Y-97936920D01*
X318606835Y-98006393D01*
X318735750Y-98073117D01*
X318838814Y-98116508D01*
X318915922Y-98142352D01*
X318987057Y-98160700D01*
X319063966Y-98172998D01*
X319158400Y-98180698D01*
X319282106Y-98185247D01*
X319415800Y-98187674D01*
X319557039Y-98188892D01*
X319684476Y-98188559D01*
X319787520Y-98186809D01*
X319855580Y-98183778D01*
X319873000Y-98181857D01*
X319930826Y-98167414D01*
X320015639Y-98141626D01*
X320088900Y-98117043D01*
X320318096Y-98010216D01*
X320524186Y-97860227D01*
X320704106Y-97670596D01*
X320854793Y-97444840D01*
X320973182Y-97186478D01*
X321018180Y-97050053D01*
X321046601Y-96918179D01*
X321068259Y-96748539D01*
X321082792Y-96553761D01*
X321089836Y-96346474D01*
X321089328Y-96215653D01*
X320074727Y-96215653D01*
X320072679Y-96398164D01*
X320062434Y-96573866D01*
X320044569Y-96730320D01*
X320019661Y-96855087D01*
X320004553Y-96902200D01*
X319914920Y-97077374D01*
X319799176Y-97210535D01*
X319658727Y-97300326D01*
X319555500Y-97334643D01*
X319442552Y-97343300D01*
X319304568Y-97320818D01*
X319240138Y-97302885D01*
X319150358Y-97257766D01*
X319049458Y-97178585D01*
X318949619Y-97076418D01*
X318863026Y-96962342D01*
X318859404Y-96956745D01*
X318756869Y-96762064D01*
X318672680Y-96532160D01*
X318608110Y-96277989D01*
X318564435Y-96010505D01*
X318542928Y-95740665D01*
X318544865Y-95479421D01*
X318571519Y-95237730D01*
X318624165Y-95026546D01*
X318632219Y-95003965D01*
X318711162Y-94848982D01*
X318814474Y-94734872D01*
X318936812Y-94661307D01*
X319072830Y-94627959D01*
X319217182Y-94634500D01*
X319364524Y-94680600D01*
X319509510Y-94765932D01*
X319646794Y-94890167D01*
X319771032Y-95052977D01*
X319784619Y-95074776D01*
X319857542Y-95216576D01*
X319927200Y-95392315D01*
X319988013Y-95585185D01*
X320034402Y-95778378D01*
X320051930Y-95879964D01*
X320068003Y-96038773D01*
X320074727Y-96215653D01*
X321089328Y-96215653D01*
X321089030Y-96139307D01*
X321080011Y-95944888D01*
X321062417Y-95775846D01*
X321055937Y-95734969D01*
X320970514Y-95361126D01*
X320849870Y-95022742D01*
X320692975Y-94717705D01*
X320498799Y-94443904D01*
X320343465Y-94273009D01*
X320136489Y-94088330D01*
X319927221Y-93949228D01*
X319705410Y-93851108D01*
X319460800Y-93789376D01*
X319199439Y-93760332D01*
X318901921Y-93765042D01*
X318901921Y-93765042D01*
G37*
X318901921Y-93765042D02*
X318628490Y-93813881D01*
X318381003Y-93905304D01*
X318161317Y-94037764D01*
X317971288Y-94209712D01*
X317812774Y-94419602D01*
X317687631Y-94665886D01*
X317597716Y-94947019D01*
X317562633Y-95124200D01*
X317548367Y-95256509D01*
X317540037Y-95424722D01*
X317537506Y-95614309D01*
X317540636Y-95810737D01*
X317549291Y-95999476D01*
X317563334Y-96165993D01*
X317573147Y-96241800D01*
X317649806Y-96615401D01*
X317760907Y-96956573D01*
X317905459Y-97263499D01*
X318082475Y-97534365D01*
X318290967Y-97767354D01*
X318495914Y-97936920D01*
X318606835Y-98006393D01*
X318735750Y-98073117D01*
X318838814Y-98116508D01*
X318915922Y-98142352D01*
X318987057Y-98160700D01*
X319063966Y-98172998D01*
X319158400Y-98180698D01*
X319282106Y-98185247D01*
X319415800Y-98187674D01*
X319557039Y-98188892D01*
X319684476Y-98188559D01*
X319787520Y-98186809D01*
X319855580Y-98183778D01*
X319873000Y-98181857D01*
X319930826Y-98167414D01*
X320015639Y-98141626D01*
X320088900Y-98117043D01*
X320318096Y-98010216D01*
X320524186Y-97860227D01*
X320704106Y-97670596D01*
X320854793Y-97444840D01*
X320973182Y-97186478D01*
X321018180Y-97050053D01*
X321046601Y-96918179D01*
X321068259Y-96748539D01*
X321082792Y-96553761D01*
X321089836Y-96346474D01*
X321089328Y-96215653D01*
X320074727Y-96215653D01*
X320072679Y-96398164D01*
X320062434Y-96573866D01*
X320044569Y-96730320D01*
X320019661Y-96855087D01*
X320004553Y-96902200D01*
X319914920Y-97077374D01*
X319799176Y-97210535D01*
X319658727Y-97300326D01*
X319555500Y-97334643D01*
X319442552Y-97343300D01*
X319304568Y-97320818D01*
X319240138Y-97302885D01*
X319150358Y-97257766D01*
X319049458Y-97178585D01*
X318949619Y-97076418D01*
X318863026Y-96962342D01*
X318859404Y-96956745D01*
X318756869Y-96762064D01*
X318672680Y-96532160D01*
X318608110Y-96277989D01*
X318564435Y-96010505D01*
X318542928Y-95740665D01*
X318544865Y-95479421D01*
X318571519Y-95237730D01*
X318624165Y-95026546D01*
X318632219Y-95003965D01*
X318711162Y-94848982D01*
X318814474Y-94734872D01*
X318936812Y-94661307D01*
X319072830Y-94627959D01*
X319217182Y-94634500D01*
X319364524Y-94680600D01*
X319509510Y-94765932D01*
X319646794Y-94890167D01*
X319771032Y-95052977D01*
X319784619Y-95074776D01*
X319857542Y-95216576D01*
X319927200Y-95392315D01*
X319988013Y-95585185D01*
X320034402Y-95778378D01*
X320051930Y-95879964D01*
X320068003Y-96038773D01*
X320074727Y-96215653D01*
X321089328Y-96215653D01*
X321089030Y-96139307D01*
X321080011Y-95944888D01*
X321062417Y-95775846D01*
X321055937Y-95734969D01*
X320970514Y-95361126D01*
X320849870Y-95022742D01*
X320692975Y-94717705D01*
X320498799Y-94443904D01*
X320343465Y-94273009D01*
X320136489Y-94088330D01*
X319927221Y-93949228D01*
X319705410Y-93851108D01*
X319460800Y-93789376D01*
X319199439Y-93760332D01*
X318901921Y-93765042D01*
G36*
X311670260Y-93859037D02*
X311471156Y-93860222D01*
X311301719Y-93862040D01*
X311166543Y-93864447D01*
X311070223Y-93867399D01*
X311017354Y-93870850D01*
X311008400Y-93873139D01*
X311022527Y-93896455D01*
X311063631Y-93958762D01*
X311129804Y-94057263D01*
X311219136Y-94189163D01*
X311329714Y-94351666D01*
X311459630Y-94541977D01*
X311606973Y-94757300D01*
X311769832Y-94994839D01*
X311946298Y-95251798D01*
X312134460Y-95525383D01*
X312332407Y-95812796D01*
X312488600Y-96039317D01*
X312732631Y-96392836D01*
X312949599Y-96706649D01*
X313141105Y-96982990D01*
X313308754Y-97224092D01*
X313454147Y-97432188D01*
X313578887Y-97609513D01*
X313684576Y-97758299D01*
X313772817Y-97880780D01*
X313845212Y-97979189D01*
X313903364Y-98055760D01*
X313948876Y-98112727D01*
X313983349Y-98152323D01*
X314008386Y-98176782D01*
X314025590Y-98188336D01*
X314031650Y-98189964D01*
X314076672Y-98185801D01*
X314161252Y-98171056D01*
X314275715Y-98147676D01*
X314410388Y-98117602D01*
X314512937Y-98093261D01*
X314651344Y-98059196D01*
X314771561Y-98028844D01*
X314865309Y-98004356D01*
X314924308Y-97987885D01*
X314940848Y-97982019D01*
X314928260Y-97960153D01*
X314888901Y-97899721D01*
X314824938Y-97803906D01*
X314738541Y-97675892D01*
X314631878Y-97518862D01*
X314507118Y-97336000D01*
X314366431Y-97130491D01*
X314211985Y-96905516D01*
X314045949Y-96664261D01*
X313870492Y-96409908D01*
X313821386Y-96338823D01*
X312692451Y-94705100D01*
X313593436Y-94698425D01*
X314494421Y-94691751D01*
X314478294Y-94611116D01*
X314415840Y-94422253D01*
X314310468Y-94246246D01*
X314169978Y-94093020D01*
X314002167Y-93972502D01*
X313958491Y-93949448D01*
X313790855Y-93866900D01*
X312399628Y-93859722D01*
X312139091Y-93858742D01*
X311894437Y-93858529D01*
X311670260Y-93859037D01*
X311670260Y-93859037D01*
G37*
X311670260Y-93859037D02*
X311471156Y-93860222D01*
X311301719Y-93862040D01*
X311166543Y-93864447D01*
X311070223Y-93867399D01*
X311017354Y-93870850D01*
X311008400Y-93873139D01*
X311022527Y-93896455D01*
X311063631Y-93958762D01*
X311129804Y-94057263D01*
X311219136Y-94189163D01*
X311329714Y-94351666D01*
X311459630Y-94541977D01*
X311606973Y-94757300D01*
X311769832Y-94994839D01*
X311946298Y-95251798D01*
X312134460Y-95525383D01*
X312332407Y-95812796D01*
X312488600Y-96039317D01*
X312732631Y-96392836D01*
X312949599Y-96706649D01*
X313141105Y-96982990D01*
X313308754Y-97224092D01*
X313454147Y-97432188D01*
X313578887Y-97609513D01*
X313684576Y-97758299D01*
X313772817Y-97880780D01*
X313845212Y-97979189D01*
X313903364Y-98055760D01*
X313948876Y-98112727D01*
X313983349Y-98152323D01*
X314008386Y-98176782D01*
X314025590Y-98188336D01*
X314031650Y-98189964D01*
X314076672Y-98185801D01*
X314161252Y-98171056D01*
X314275715Y-98147676D01*
X314410388Y-98117602D01*
X314512937Y-98093261D01*
X314651344Y-98059196D01*
X314771561Y-98028844D01*
X314865309Y-98004356D01*
X314924308Y-97987885D01*
X314940848Y-97982019D01*
X314928260Y-97960153D01*
X314888901Y-97899721D01*
X314824938Y-97803906D01*
X314738541Y-97675892D01*
X314631878Y-97518862D01*
X314507118Y-97336000D01*
X314366431Y-97130491D01*
X314211985Y-96905516D01*
X314045949Y-96664261D01*
X313870492Y-96409908D01*
X313821386Y-96338823D01*
X312692451Y-94705100D01*
X313593436Y-94698425D01*
X314494421Y-94691751D01*
X314478294Y-94611116D01*
X314415840Y-94422253D01*
X314310468Y-94246246D01*
X314169978Y-94093020D01*
X314002167Y-93972502D01*
X313958491Y-93949448D01*
X313790855Y-93866900D01*
X312399628Y-93859722D01*
X312139091Y-93858742D01*
X311894437Y-93858529D01*
X311670260Y-93859037D01*
G36*
X322881569Y-93769706D02*
X322741335Y-93777296D01*
X322628326Y-93791653D01*
X322540000Y-93811228D01*
X322276415Y-93902861D01*
X322054124Y-94024033D01*
X321872910Y-94175000D01*
X321732557Y-94356016D01*
X321632849Y-94567339D01*
X321573570Y-94809223D01*
X321557174Y-94971800D01*
X321564476Y-95256654D01*
X321618355Y-95526732D01*
X321720022Y-95785635D01*
X321870690Y-96036963D01*
X321952262Y-96145377D01*
X322041828Y-96249955D01*
X322167752Y-96385357D01*
X322327823Y-96549346D01*
X322519831Y-96739682D01*
X322741566Y-96954127D01*
X322895600Y-97100669D01*
X323060700Y-97256839D01*
X322403897Y-97257319D01*
X321747093Y-97257800D01*
X321761010Y-97314950D01*
X321768887Y-97359839D01*
X321781122Y-97444554D01*
X321796269Y-97558454D01*
X321812884Y-97690897D01*
X321819625Y-97746750D01*
X321864324Y-98121400D01*
X323446762Y-98121400D01*
X323725106Y-98121100D01*
X323987852Y-98120237D01*
X324230693Y-98118862D01*
X324449320Y-98117027D01*
X324639425Y-98114785D01*
X324796701Y-98112188D01*
X324916837Y-98109289D01*
X324995527Y-98106139D01*
X325028462Y-98102791D01*
X325029200Y-98102203D01*
X325011765Y-98080894D01*
X324961834Y-98027439D01*
X324882970Y-97945474D01*
X324778736Y-97838638D01*
X324652696Y-97710566D01*
X324508413Y-97564896D01*
X324349449Y-97405265D01*
X324201777Y-97257653D01*
X323938967Y-96994538D01*
X323710164Y-96763147D01*
X323512525Y-96560235D01*
X323343208Y-96382558D01*
X323199369Y-96226871D01*
X323078167Y-96089929D01*
X322976759Y-95968489D01*
X322892303Y-95859305D01*
X322821955Y-95759133D01*
X322762873Y-95664728D01*
X322712216Y-95572846D01*
X322693918Y-95536569D01*
X322615585Y-95340545D01*
X322580156Y-95160077D01*
X322587518Y-94998302D01*
X322637559Y-94858360D01*
X322722084Y-94750762D01*
X322838961Y-94672286D01*
X322976110Y-94628386D01*
X323121984Y-94618141D01*
X323265037Y-94640634D01*
X323393723Y-94694943D01*
X323496493Y-94780151D01*
X323522480Y-94814483D01*
X323575196Y-94914868D01*
X323625346Y-95048287D01*
X323666373Y-95197131D01*
X323668530Y-95206750D01*
X323683968Y-95276600D01*
X324673600Y-95276600D01*
X324673600Y-95206239D01*
X324666920Y-95147609D01*
X324649308Y-95058487D01*
X324624409Y-94957044D01*
X324621375Y-94945889D01*
X324520998Y-94662163D01*
X324386219Y-94414807D01*
X324217833Y-94204707D01*
X324016635Y-94032745D01*
X323783422Y-93899807D01*
X323623498Y-93837500D01*
X323532216Y-93809238D01*
X323451395Y-93789896D01*
X323367279Y-93777772D01*
X323266111Y-93771165D01*
X323134134Y-93768375D01*
X323060700Y-93767910D01*
X322881569Y-93769706D01*
X322881569Y-93769706D01*
G37*
X322881569Y-93769706D02*
X322741335Y-93777296D01*
X322628326Y-93791653D01*
X322540000Y-93811228D01*
X322276415Y-93902861D01*
X322054124Y-94024033D01*
X321872910Y-94175000D01*
X321732557Y-94356016D01*
X321632849Y-94567339D01*
X321573570Y-94809223D01*
X321557174Y-94971800D01*
X321564476Y-95256654D01*
X321618355Y-95526732D01*
X321720022Y-95785635D01*
X321870690Y-96036963D01*
X321952262Y-96145377D01*
X322041828Y-96249955D01*
X322167752Y-96385357D01*
X322327823Y-96549346D01*
X322519831Y-96739682D01*
X322741566Y-96954127D01*
X322895600Y-97100669D01*
X323060700Y-97256839D01*
X322403897Y-97257319D01*
X321747093Y-97257800D01*
X321761010Y-97314950D01*
X321768887Y-97359839D01*
X321781122Y-97444554D01*
X321796269Y-97558454D01*
X321812884Y-97690897D01*
X321819625Y-97746750D01*
X321864324Y-98121400D01*
X323446762Y-98121400D01*
X323725106Y-98121100D01*
X323987852Y-98120237D01*
X324230693Y-98118862D01*
X324449320Y-98117027D01*
X324639425Y-98114785D01*
X324796701Y-98112188D01*
X324916837Y-98109289D01*
X324995527Y-98106139D01*
X325028462Y-98102791D01*
X325029200Y-98102203D01*
X325011765Y-98080894D01*
X324961834Y-98027439D01*
X324882970Y-97945474D01*
X324778736Y-97838638D01*
X324652696Y-97710566D01*
X324508413Y-97564896D01*
X324349449Y-97405265D01*
X324201777Y-97257653D01*
X323938967Y-96994538D01*
X323710164Y-96763147D01*
X323512525Y-96560235D01*
X323343208Y-96382558D01*
X323199369Y-96226871D01*
X323078167Y-96089929D01*
X322976759Y-95968489D01*
X322892303Y-95859305D01*
X322821955Y-95759133D01*
X322762873Y-95664728D01*
X322712216Y-95572846D01*
X322693918Y-95536569D01*
X322615585Y-95340545D01*
X322580156Y-95160077D01*
X322587518Y-94998302D01*
X322637559Y-94858360D01*
X322722084Y-94750762D01*
X322838961Y-94672286D01*
X322976110Y-94628386D01*
X323121984Y-94618141D01*
X323265037Y-94640634D01*
X323393723Y-94694943D01*
X323496493Y-94780151D01*
X323522480Y-94814483D01*
X323575196Y-94914868D01*
X323625346Y-95048287D01*
X323666373Y-95197131D01*
X323668530Y-95206750D01*
X323683968Y-95276600D01*
X324673600Y-95276600D01*
X324673600Y-95206239D01*
X324666920Y-95147609D01*
X324649308Y-95058487D01*
X324624409Y-94957044D01*
X324621375Y-94945889D01*
X324520998Y-94662163D01*
X324386219Y-94414807D01*
X324217833Y-94204707D01*
X324016635Y-94032745D01*
X323783422Y-93899807D01*
X323623498Y-93837500D01*
X323532216Y-93809238D01*
X323451395Y-93789896D01*
X323367279Y-93777772D01*
X323266111Y-93771165D01*
X323134134Y-93768375D01*
X323060700Y-93767910D01*
X322881569Y-93769706D01*
G36*
X315329302Y-93858099D02*
X315270163Y-93862939D01*
X315237540Y-93870845D01*
X315225370Y-93882150D01*
X315224800Y-93886164D01*
X315227830Y-93916359D01*
X315236612Y-93993159D01*
X315250685Y-94112753D01*
X315269591Y-94271326D01*
X315292869Y-94465067D01*
X315320059Y-94690163D01*
X315350701Y-94942800D01*
X315384335Y-95219167D01*
X315420501Y-95515449D01*
X315458740Y-95827835D01*
X315478620Y-95989921D01*
X315517721Y-96308853D01*
X315554986Y-96613517D01*
X315589956Y-96900108D01*
X315622170Y-97164825D01*
X315651169Y-97403863D01*
X315676491Y-97613419D01*
X315697678Y-97789692D01*
X315714269Y-97928876D01*
X315725804Y-98027170D01*
X315731823Y-98080770D01*
X315732620Y-98089650D01*
X315744656Y-98101029D01*
X315783982Y-98109547D01*
X315855648Y-98115519D01*
X315964703Y-98119261D01*
X316116195Y-98121089D01*
X316240315Y-98121400D01*
X316747829Y-98121400D01*
X316733679Y-98013450D01*
X316728151Y-97969620D01*
X316717029Y-97879992D01*
X316700880Y-97749192D01*
X316680275Y-97581847D01*
X316655780Y-97382582D01*
X316627966Y-97156025D01*
X316597400Y-96906801D01*
X316564652Y-96639538D01*
X316530289Y-96358861D01*
X316523735Y-96305300D01*
X316327940Y-94705100D01*
X316629946Y-94697946D01*
X316931953Y-94690793D01*
X316914434Y-94596346D01*
X316860070Y-94429567D01*
X316764131Y-94266842D01*
X316635403Y-94118896D01*
X316482672Y-93996452D01*
X316372249Y-93934474D01*
X316320490Y-93911225D01*
X316272626Y-93893855D01*
X316220025Y-93881350D01*
X316154051Y-93872696D01*
X316066072Y-93866879D01*
X315947454Y-93862887D01*
X315789561Y-93859704D01*
X315726450Y-93858643D01*
X315551382Y-93856283D01*
X315421020Y-93855991D01*
X315329302Y-93858099D01*
X315329302Y-93858099D01*
G37*
X315329302Y-93858099D02*
X315270163Y-93862939D01*
X315237540Y-93870845D01*
X315225370Y-93882150D01*
X315224800Y-93886164D01*
X315227830Y-93916359D01*
X315236612Y-93993159D01*
X315250685Y-94112753D01*
X315269591Y-94271326D01*
X315292869Y-94465067D01*
X315320059Y-94690163D01*
X315350701Y-94942800D01*
X315384335Y-95219167D01*
X315420501Y-95515449D01*
X315458740Y-95827835D01*
X315478620Y-95989921D01*
X315517721Y-96308853D01*
X315554986Y-96613517D01*
X315589956Y-96900108D01*
X315622170Y-97164825D01*
X315651169Y-97403863D01*
X315676491Y-97613419D01*
X315697678Y-97789692D01*
X315714269Y-97928876D01*
X315725804Y-98027170D01*
X315731823Y-98080770D01*
X315732620Y-98089650D01*
X315744656Y-98101029D01*
X315783982Y-98109547D01*
X315855648Y-98115519D01*
X315964703Y-98119261D01*
X316116195Y-98121089D01*
X316240315Y-98121400D01*
X316747829Y-98121400D01*
X316733679Y-98013450D01*
X316728151Y-97969620D01*
X316717029Y-97879992D01*
X316700880Y-97749192D01*
X316680275Y-97581847D01*
X316655780Y-97382582D01*
X316627966Y-97156025D01*
X316597400Y-96906801D01*
X316564652Y-96639538D01*
X316530289Y-96358861D01*
X316523735Y-96305300D01*
X316327940Y-94705100D01*
X316629946Y-94697946D01*
X316931953Y-94690793D01*
X316914434Y-94596346D01*
X316860070Y-94429567D01*
X316764131Y-94266842D01*
X316635403Y-94118896D01*
X316482672Y-93996452D01*
X316372249Y-93934474D01*
X316320490Y-93911225D01*
X316272626Y-93893855D01*
X316220025Y-93881350D01*
X316154051Y-93872696D01*
X316066072Y-93866879D01*
X315947454Y-93862887D01*
X315789561Y-93859704D01*
X315726450Y-93858643D01*
X315551382Y-93856283D01*
X315421020Y-93855991D01*
X315329302Y-93858099D01*
G36*
X319605205Y-87636528D02*
X319606596Y-87662845D01*
X319613946Y-87735852D01*
X319626813Y-87851845D01*
X319644751Y-88007119D01*
X319667317Y-88197968D01*
X319694068Y-88420690D01*
X319724559Y-88671578D01*
X319758346Y-88946928D01*
X319794986Y-89243037D01*
X319834034Y-89556198D01*
X319860444Y-89766719D01*
X319900993Y-90089560D01*
X319939666Y-90398167D01*
X319975997Y-90688788D01*
X320009521Y-90957670D01*
X320039772Y-91201059D01*
X320066287Y-91415204D01*
X320088599Y-91596349D01*
X320106245Y-91740743D01*
X320118758Y-91844631D01*
X320125673Y-91904262D01*
X320126947Y-91917450D01*
X320139188Y-91929233D01*
X320179323Y-91937936D01*
X320252536Y-91943909D01*
X320364013Y-91947502D01*
X320518938Y-91949064D01*
X320596900Y-91949200D01*
X321066800Y-91949200D01*
X321066573Y-91892050D01*
X321063432Y-91857680D01*
X321054434Y-91777190D01*
X321040099Y-91654856D01*
X321020948Y-91494956D01*
X320997501Y-91301765D01*
X320970280Y-91079562D01*
X320939804Y-90832624D01*
X320906595Y-90565228D01*
X320871172Y-90281650D01*
X320851254Y-90122873D01*
X320808849Y-89785914D01*
X320772075Y-89495495D01*
X320740332Y-89247741D01*
X320713019Y-89038778D01*
X320689534Y-88864729D01*
X320669279Y-88721719D01*
X320651650Y-88605872D01*
X320636050Y-88513314D01*
X320621875Y-88440168D01*
X320608527Y-88382559D01*
X320595403Y-88336612D01*
X320581905Y-88298451D01*
X320567430Y-88264201D01*
X320561032Y-88250301D01*
X320441809Y-88053253D01*
X320286399Y-87889753D01*
X320099795Y-87763598D01*
X319886987Y-87678585D01*
X319776459Y-87653412D01*
X319692304Y-87640539D01*
X319630293Y-87634615D01*
X319605205Y-87636528D01*
X319605205Y-87636528D01*
G37*
X319605205Y-87636528D02*
X319606596Y-87662845D01*
X319613946Y-87735852D01*
X319626813Y-87851845D01*
X319644751Y-88007119D01*
X319667317Y-88197968D01*
X319694068Y-88420690D01*
X319724559Y-88671578D01*
X319758346Y-88946928D01*
X319794986Y-89243037D01*
X319834034Y-89556198D01*
X319860444Y-89766719D01*
X319900993Y-90089560D01*
X319939666Y-90398167D01*
X319975997Y-90688788D01*
X320009521Y-90957670D01*
X320039772Y-91201059D01*
X320066287Y-91415204D01*
X320088599Y-91596349D01*
X320106245Y-91740743D01*
X320118758Y-91844631D01*
X320125673Y-91904262D01*
X320126947Y-91917450D01*
X320139188Y-91929233D01*
X320179323Y-91937936D01*
X320252536Y-91943909D01*
X320364013Y-91947502D01*
X320518938Y-91949064D01*
X320596900Y-91949200D01*
X321066800Y-91949200D01*
X321066573Y-91892050D01*
X321063432Y-91857680D01*
X321054434Y-91777190D01*
X321040099Y-91654856D01*
X321020948Y-91494956D01*
X320997501Y-91301765D01*
X320970280Y-91079562D01*
X320939804Y-90832624D01*
X320906595Y-90565228D01*
X320871172Y-90281650D01*
X320851254Y-90122873D01*
X320808849Y-89785914D01*
X320772075Y-89495495D01*
X320740332Y-89247741D01*
X320713019Y-89038778D01*
X320689534Y-88864729D01*
X320669279Y-88721719D01*
X320651650Y-88605872D01*
X320636050Y-88513314D01*
X320621875Y-88440168D01*
X320608527Y-88382559D01*
X320595403Y-88336612D01*
X320581905Y-88298451D01*
X320567430Y-88264201D01*
X320561032Y-88250301D01*
X320441809Y-88053253D01*
X320286399Y-87889753D01*
X320099795Y-87763598D01*
X319886987Y-87678585D01*
X319776459Y-87653412D01*
X319692304Y-87640539D01*
X319630293Y-87634615D01*
X319605205Y-87636528D01*
G36*
X333490534Y-87570064D02*
X333277149Y-87616386D01*
X333095963Y-87695660D01*
X332942421Y-87809580D01*
X332878502Y-87875581D01*
X332831875Y-87925632D01*
X332808860Y-87939244D01*
X332801781Y-87919999D01*
X332801600Y-87911483D01*
X332781402Y-87856346D01*
X332729628Y-87789796D01*
X332659511Y-87724351D01*
X332584285Y-87672535D01*
X332522994Y-87647868D01*
X332464580Y-87641235D01*
X332369136Y-87635853D01*
X332250429Y-87632316D01*
X332135793Y-87631199D01*
X331831935Y-87631200D01*
X331846939Y-87726450D01*
X331852951Y-87770198D01*
X331864430Y-87859068D01*
X331880713Y-87987753D01*
X331901140Y-88150944D01*
X331925048Y-88343335D01*
X331951777Y-88559618D01*
X331980664Y-88794486D01*
X332011048Y-89042631D01*
X332013939Y-89066300D01*
X332044435Y-89315415D01*
X332073505Y-89551748D01*
X332100487Y-89769992D01*
X332124718Y-89964840D01*
X332145536Y-90130984D01*
X332162278Y-90263116D01*
X332174281Y-90355930D01*
X332180884Y-90404117D01*
X332181201Y-90406150D01*
X332196466Y-90501400D01*
X333135837Y-90501400D01*
X333119222Y-90418850D01*
X333102938Y-90344388D01*
X333088170Y-90285792D01*
X333084000Y-90258528D01*
X333100226Y-90260139D01*
X333144791Y-90292737D01*
X333159916Y-90304865D01*
X333333139Y-90426721D01*
X333504198Y-90512946D01*
X333598538Y-90544258D01*
X333699608Y-90561302D01*
X333833886Y-90571485D01*
X333984873Y-90574837D01*
X334136070Y-90571387D01*
X334270979Y-90561165D01*
X334373101Y-90544199D01*
X334378195Y-90542868D01*
X334557289Y-90471308D01*
X334731511Y-90358878D01*
X334889722Y-90215123D01*
X335020785Y-90049586D01*
X335084969Y-89937247D01*
X335154769Y-89774979D01*
X335201604Y-89616068D01*
X335228751Y-89444487D01*
X335239488Y-89244208D01*
X335240000Y-89179326D01*
X335232826Y-89047548D01*
X334270825Y-89047548D01*
X334262322Y-89234578D01*
X334210315Y-89405539D01*
X334116183Y-89554162D01*
X334068361Y-89604708D01*
X333976620Y-89680609D01*
X333884515Y-89728547D01*
X333777415Y-89753148D01*
X333640690Y-89759038D01*
X333584792Y-89757598D01*
X333469490Y-89751104D01*
X333387629Y-89739112D01*
X333321866Y-89717384D01*
X333254860Y-89681680D01*
X333241892Y-89673789D01*
X333111487Y-89567743D01*
X333009207Y-89432840D01*
X332936488Y-89278086D01*
X332894762Y-89112486D01*
X332885464Y-88945046D01*
X332910028Y-88784770D01*
X332969887Y-88640664D01*
X333059479Y-88528126D01*
X333178666Y-88448054D01*
X333329405Y-88393796D01*
X333498187Y-88367707D01*
X333671503Y-88372147D01*
X333801954Y-88398556D01*
X333906909Y-88449457D01*
X334015745Y-88535233D01*
X334115861Y-88642711D01*
X334194654Y-88758715D01*
X334234442Y-88850720D01*
X334270825Y-89047548D01*
X335232826Y-89047548D01*
X335223914Y-88883856D01*
X335174082Y-88622039D01*
X335088146Y-88387582D01*
X334963750Y-88174196D01*
X334798535Y-87975589D01*
X334782800Y-87959458D01*
X334614646Y-87808439D01*
X334442521Y-87696340D01*
X334256661Y-87619371D01*
X334047299Y-87573742D01*
X333804668Y-87555661D01*
X333740674Y-87555000D01*
X333490534Y-87570064D01*
X333490534Y-87570064D01*
G37*
X333490534Y-87570064D02*
X333277149Y-87616386D01*
X333095963Y-87695660D01*
X332942421Y-87809580D01*
X332878502Y-87875581D01*
X332831875Y-87925632D01*
X332808860Y-87939244D01*
X332801781Y-87919999D01*
X332801600Y-87911483D01*
X332781402Y-87856346D01*
X332729628Y-87789796D01*
X332659511Y-87724351D01*
X332584285Y-87672535D01*
X332522994Y-87647868D01*
X332464580Y-87641235D01*
X332369136Y-87635853D01*
X332250429Y-87632316D01*
X332135793Y-87631199D01*
X331831935Y-87631200D01*
X331846939Y-87726450D01*
X331852951Y-87770198D01*
X331864430Y-87859068D01*
X331880713Y-87987753D01*
X331901140Y-88150944D01*
X331925048Y-88343335D01*
X331951777Y-88559618D01*
X331980664Y-88794486D01*
X332011048Y-89042631D01*
X332013939Y-89066300D01*
X332044435Y-89315415D01*
X332073505Y-89551748D01*
X332100487Y-89769992D01*
X332124718Y-89964840D01*
X332145536Y-90130984D01*
X332162278Y-90263116D01*
X332174281Y-90355930D01*
X332180884Y-90404117D01*
X332181201Y-90406150D01*
X332196466Y-90501400D01*
X333135837Y-90501400D01*
X333119222Y-90418850D01*
X333102938Y-90344388D01*
X333088170Y-90285792D01*
X333084000Y-90258528D01*
X333100226Y-90260139D01*
X333144791Y-90292737D01*
X333159916Y-90304865D01*
X333333139Y-90426721D01*
X333504198Y-90512946D01*
X333598538Y-90544258D01*
X333699608Y-90561302D01*
X333833886Y-90571485D01*
X333984873Y-90574837D01*
X334136070Y-90571387D01*
X334270979Y-90561165D01*
X334373101Y-90544199D01*
X334378195Y-90542868D01*
X334557289Y-90471308D01*
X334731511Y-90358878D01*
X334889722Y-90215123D01*
X335020785Y-90049586D01*
X335084969Y-89937247D01*
X335154769Y-89774979D01*
X335201604Y-89616068D01*
X335228751Y-89444487D01*
X335239488Y-89244208D01*
X335240000Y-89179326D01*
X335232826Y-89047548D01*
X334270825Y-89047548D01*
X334262322Y-89234578D01*
X334210315Y-89405539D01*
X334116183Y-89554162D01*
X334068361Y-89604708D01*
X333976620Y-89680609D01*
X333884515Y-89728547D01*
X333777415Y-89753148D01*
X333640690Y-89759038D01*
X333584792Y-89757598D01*
X333469490Y-89751104D01*
X333387629Y-89739112D01*
X333321866Y-89717384D01*
X333254860Y-89681680D01*
X333241892Y-89673789D01*
X333111487Y-89567743D01*
X333009207Y-89432840D01*
X332936488Y-89278086D01*
X332894762Y-89112486D01*
X332885464Y-88945046D01*
X332910028Y-88784770D01*
X332969887Y-88640664D01*
X333059479Y-88528126D01*
X333178666Y-88448054D01*
X333329405Y-88393796D01*
X333498187Y-88367707D01*
X333671503Y-88372147D01*
X333801954Y-88398556D01*
X333906909Y-88449457D01*
X334015745Y-88535233D01*
X334115861Y-88642711D01*
X334194654Y-88758715D01*
X334234442Y-88850720D01*
X334270825Y-89047548D01*
X335232826Y-89047548D01*
X335223914Y-88883856D01*
X335174082Y-88622039D01*
X335088146Y-88387582D01*
X334963750Y-88174196D01*
X334798535Y-87975589D01*
X334782800Y-87959458D01*
X334614646Y-87808439D01*
X334442521Y-87696340D01*
X334256661Y-87619371D01*
X334047299Y-87573742D01*
X333804668Y-87555661D01*
X333740674Y-87555000D01*
X333490534Y-87570064D01*
G36*
X328039100Y-87538717D02*
X327746456Y-87574282D01*
X327491031Y-87644376D01*
X327272388Y-87749433D01*
X327090085Y-87889889D01*
X326943684Y-88066180D01*
X326832744Y-88278741D01*
X326756826Y-88528006D01*
X326715491Y-88814412D01*
X326712813Y-88851612D01*
X326708178Y-88965274D01*
X326708565Y-89071117D01*
X326713785Y-89150235D01*
X326715931Y-89164203D01*
X326733302Y-89256800D01*
X328841502Y-89256800D01*
X328825405Y-89352050D01*
X328788127Y-89485339D01*
X328726756Y-89611967D01*
X328650498Y-89715489D01*
X328594516Y-89764511D01*
X328525634Y-89802195D01*
X328446051Y-89824380D01*
X328337283Y-89835889D01*
X328316551Y-89837031D01*
X328210168Y-89837633D01*
X328110992Y-89830163D01*
X328042895Y-89816852D01*
X327967367Y-89775332D01*
X327882611Y-89703798D01*
X327804033Y-89616662D01*
X327759700Y-89551955D01*
X327747728Y-89536592D01*
X327727814Y-89526334D01*
X327692688Y-89521103D01*
X327635078Y-89520819D01*
X327547715Y-89525401D01*
X327423329Y-89534769D01*
X327280152Y-89546682D01*
X327133577Y-89559790D01*
X327005072Y-89572608D01*
X326902981Y-89584196D01*
X326835652Y-89593615D01*
X326811659Y-89599475D01*
X326813008Y-89630916D01*
X326837921Y-89694205D01*
X326881106Y-89779381D01*
X326937273Y-89876483D01*
X327001131Y-89975549D01*
X327042167Y-90033455D01*
X327206834Y-90221577D01*
X327393166Y-90366621D01*
X327607329Y-90472500D01*
X327840097Y-90539934D01*
X327981408Y-90560481D01*
X328155059Y-90571629D01*
X328343483Y-90573464D01*
X328529113Y-90566069D01*
X328694381Y-90549531D01*
X328775700Y-90535417D01*
X329012816Y-90460659D01*
X329226065Y-90345337D01*
X329410421Y-90194102D01*
X329560854Y-90011604D01*
X329672337Y-89802493D01*
X329719410Y-89662573D01*
X329744678Y-89525485D01*
X329759097Y-89355344D01*
X329762688Y-89168723D01*
X329755471Y-88982194D01*
X329737466Y-88812328D01*
X329718259Y-88711401D01*
X329705572Y-88672600D01*
X328741024Y-88672600D01*
X327614493Y-88672600D01*
X327631016Y-88602750D01*
X327678344Y-88490659D01*
X327759432Y-88382175D01*
X327859418Y-88295622D01*
X327898772Y-88272550D01*
X328050838Y-88221736D01*
X328207783Y-88214988D01*
X328360383Y-88248470D01*
X328499415Y-88318349D01*
X328615655Y-88420790D01*
X328699879Y-88551960D01*
X328723716Y-88615450D01*
X328741024Y-88672600D01*
X329705572Y-88672600D01*
X329628755Y-88437689D01*
X329501630Y-88196988D01*
X329339203Y-87990919D01*
X329143792Y-87821101D01*
X328917715Y-87689152D01*
X328663291Y-87596691D01*
X328382837Y-87545338D01*
X328078671Y-87536711D01*
X328039100Y-87538717D01*
X328039100Y-87538717D01*
G37*
X328039100Y-87538717D02*
X327746456Y-87574282D01*
X327491031Y-87644376D01*
X327272388Y-87749433D01*
X327090085Y-87889889D01*
X326943684Y-88066180D01*
X326832744Y-88278741D01*
X326756826Y-88528006D01*
X326715491Y-88814412D01*
X326712813Y-88851612D01*
X326708178Y-88965274D01*
X326708565Y-89071117D01*
X326713785Y-89150235D01*
X326715931Y-89164203D01*
X326733302Y-89256800D01*
X328841502Y-89256800D01*
X328825405Y-89352050D01*
X328788127Y-89485339D01*
X328726756Y-89611967D01*
X328650498Y-89715489D01*
X328594516Y-89764511D01*
X328525634Y-89802195D01*
X328446051Y-89824380D01*
X328337283Y-89835889D01*
X328316551Y-89837031D01*
X328210168Y-89837633D01*
X328110992Y-89830163D01*
X328042895Y-89816852D01*
X327967367Y-89775332D01*
X327882611Y-89703798D01*
X327804033Y-89616662D01*
X327759700Y-89551955D01*
X327747728Y-89536592D01*
X327727814Y-89526334D01*
X327692688Y-89521103D01*
X327635078Y-89520819D01*
X327547715Y-89525401D01*
X327423329Y-89534769D01*
X327280152Y-89546682D01*
X327133577Y-89559790D01*
X327005072Y-89572608D01*
X326902981Y-89584196D01*
X326835652Y-89593615D01*
X326811659Y-89599475D01*
X326813008Y-89630916D01*
X326837921Y-89694205D01*
X326881106Y-89779381D01*
X326937273Y-89876483D01*
X327001131Y-89975549D01*
X327042167Y-90033455D01*
X327206834Y-90221577D01*
X327393166Y-90366621D01*
X327607329Y-90472500D01*
X327840097Y-90539934D01*
X327981408Y-90560481D01*
X328155059Y-90571629D01*
X328343483Y-90573464D01*
X328529113Y-90566069D01*
X328694381Y-90549531D01*
X328775700Y-90535417D01*
X329012816Y-90460659D01*
X329226065Y-90345337D01*
X329410421Y-90194102D01*
X329560854Y-90011604D01*
X329672337Y-89802493D01*
X329719410Y-89662573D01*
X329744678Y-89525485D01*
X329759097Y-89355344D01*
X329762688Y-89168723D01*
X329755471Y-88982194D01*
X329737466Y-88812328D01*
X329718259Y-88711401D01*
X329705572Y-88672600D01*
X328741024Y-88672600D01*
X327614493Y-88672600D01*
X327631016Y-88602750D01*
X327678344Y-88490659D01*
X327759432Y-88382175D01*
X327859418Y-88295622D01*
X327898772Y-88272550D01*
X328050838Y-88221736D01*
X328207783Y-88214988D01*
X328360383Y-88248470D01*
X328499415Y-88318349D01*
X328615655Y-88420790D01*
X328699879Y-88551960D01*
X328723716Y-88615450D01*
X328741024Y-88672600D01*
X329705572Y-88672600D01*
X329628755Y-88437689D01*
X329501630Y-88196988D01*
X329339203Y-87990919D01*
X329143792Y-87821101D01*
X328917715Y-87689152D01*
X328663291Y-87596691D01*
X328382837Y-87545338D01*
X328078671Y-87536711D01*
X328039100Y-87538717D01*
G36*
X317435934Y-87566019D02*
X317291989Y-87587824D01*
X317237494Y-87601944D01*
X317070239Y-87672068D01*
X316913209Y-87770782D01*
X316801459Y-87869869D01*
X316739818Y-87936135D01*
X316687055Y-87840817D01*
X316607666Y-87745766D01*
X316521064Y-87688350D01*
X316467430Y-87664105D01*
X316412563Y-87647789D01*
X316344844Y-87637886D01*
X316252652Y-87632880D01*
X316124369Y-87631255D01*
X316083019Y-87631200D01*
X315961261Y-87632164D01*
X315860300Y-87634802D01*
X315789645Y-87638727D01*
X315758805Y-87643554D01*
X315758200Y-87644358D01*
X315761241Y-87673837D01*
X315769896Y-87748080D01*
X315783467Y-87861446D01*
X315801256Y-88008293D01*
X315822565Y-88182980D01*
X315846695Y-88379866D01*
X315872947Y-88593309D01*
X315900624Y-88817667D01*
X315929026Y-89047298D01*
X315957456Y-89276562D01*
X315985214Y-89499816D01*
X316011603Y-89711420D01*
X316035925Y-89905730D01*
X316057479Y-90077107D01*
X316075569Y-90219908D01*
X316089496Y-90328492D01*
X316098561Y-90397217D01*
X316101685Y-90418850D01*
X316116102Y-90501400D01*
X317057637Y-90501400D01*
X317041022Y-90418850D01*
X317025140Y-90345755D01*
X317011010Y-90289068D01*
X317014610Y-90271510D01*
X317046234Y-90283515D01*
X317110143Y-90327023D01*
X317134714Y-90345349D01*
X317252399Y-90429028D01*
X317357263Y-90488688D01*
X317462867Y-90528577D01*
X317582772Y-90552946D01*
X317730537Y-90566044D01*
X317853700Y-90570678D01*
X317996869Y-90573309D01*
X318102609Y-90571744D01*
X318184214Y-90564658D01*
X318254974Y-90550724D01*
X318328180Y-90528618D01*
X318349684Y-90521218D01*
X318558283Y-90421919D01*
X318743628Y-90280175D01*
X318901123Y-90100789D01*
X319026173Y-89888564D01*
X319080167Y-89757586D01*
X319120846Y-89602498D01*
X319147771Y-89414557D01*
X319160196Y-89210015D01*
X319158743Y-89104400D01*
X318182560Y-89104400D01*
X318174368Y-89263223D01*
X318144134Y-89388791D01*
X318086119Y-89495963D01*
X317994581Y-89599597D01*
X317989276Y-89604708D01*
X317898291Y-89680570D01*
X317806401Y-89728521D01*
X317699129Y-89753145D01*
X317561997Y-89759029D01*
X317506592Y-89757598D01*
X317391364Y-89751115D01*
X317309643Y-89739164D01*
X317244152Y-89717519D01*
X317177614Y-89681957D01*
X317164569Y-89673985D01*
X317017633Y-89554389D01*
X316905829Y-89402777D01*
X316833133Y-89227254D01*
X316803519Y-89035925D01*
X316805675Y-88942082D01*
X316840933Y-88758682D01*
X316913737Y-88609154D01*
X317022789Y-88494639D01*
X317166786Y-88416276D01*
X317344427Y-88375204D01*
X317460000Y-88368915D01*
X317657006Y-88389021D01*
X317824679Y-88450256D01*
X317965315Y-88553996D01*
X318081211Y-88701616D01*
X318115101Y-88761500D01*
X318149799Y-88836403D01*
X318170205Y-88908604D01*
X318179937Y-88996493D01*
X318182560Y-89104400D01*
X319158743Y-89104400D01*
X319157376Y-89005127D01*
X319138565Y-88816145D01*
X319126428Y-88748800D01*
X319048225Y-88486518D01*
X318930379Y-88247159D01*
X318777169Y-88035445D01*
X318592875Y-87856095D01*
X318381776Y-87713831D01*
X318148154Y-87613374D01*
X318078972Y-87593300D01*
X317942821Y-87568948D01*
X317778698Y-87556403D01*
X317603953Y-87555487D01*
X317435934Y-87566019D01*
X317435934Y-87566019D01*
G37*
X317435934Y-87566019D02*
X317291989Y-87587824D01*
X317237494Y-87601944D01*
X317070239Y-87672068D01*
X316913209Y-87770782D01*
X316801459Y-87869869D01*
X316739818Y-87936135D01*
X316687055Y-87840817D01*
X316607666Y-87745766D01*
X316521064Y-87688350D01*
X316467430Y-87664105D01*
X316412563Y-87647789D01*
X316344844Y-87637886D01*
X316252652Y-87632880D01*
X316124369Y-87631255D01*
X316083019Y-87631200D01*
X315961261Y-87632164D01*
X315860300Y-87634802D01*
X315789645Y-87638727D01*
X315758805Y-87643554D01*
X315758200Y-87644358D01*
X315761241Y-87673837D01*
X315769896Y-87748080D01*
X315783467Y-87861446D01*
X315801256Y-88008293D01*
X315822565Y-88182980D01*
X315846695Y-88379866D01*
X315872947Y-88593309D01*
X315900624Y-88817667D01*
X315929026Y-89047298D01*
X315957456Y-89276562D01*
X315985214Y-89499816D01*
X316011603Y-89711420D01*
X316035925Y-89905730D01*
X316057479Y-90077107D01*
X316075569Y-90219908D01*
X316089496Y-90328492D01*
X316098561Y-90397217D01*
X316101685Y-90418850D01*
X316116102Y-90501400D01*
X317057637Y-90501400D01*
X317041022Y-90418850D01*
X317025140Y-90345755D01*
X317011010Y-90289068D01*
X317014610Y-90271510D01*
X317046234Y-90283515D01*
X317110143Y-90327023D01*
X317134714Y-90345349D01*
X317252399Y-90429028D01*
X317357263Y-90488688D01*
X317462867Y-90528577D01*
X317582772Y-90552946D01*
X317730537Y-90566044D01*
X317853700Y-90570678D01*
X317996869Y-90573309D01*
X318102609Y-90571744D01*
X318184214Y-90564658D01*
X318254974Y-90550724D01*
X318328180Y-90528618D01*
X318349684Y-90521218D01*
X318558283Y-90421919D01*
X318743628Y-90280175D01*
X318901123Y-90100789D01*
X319026173Y-89888564D01*
X319080167Y-89757586D01*
X319120846Y-89602498D01*
X319147771Y-89414557D01*
X319160196Y-89210015D01*
X319158743Y-89104400D01*
X318182560Y-89104400D01*
X318174368Y-89263223D01*
X318144134Y-89388791D01*
X318086119Y-89495963D01*
X317994581Y-89599597D01*
X317989276Y-89604708D01*
X317898291Y-89680570D01*
X317806401Y-89728521D01*
X317699129Y-89753145D01*
X317561997Y-89759029D01*
X317506592Y-89757598D01*
X317391364Y-89751115D01*
X317309643Y-89739164D01*
X317244152Y-89717519D01*
X317177614Y-89681957D01*
X317164569Y-89673985D01*
X317017633Y-89554389D01*
X316905829Y-89402777D01*
X316833133Y-89227254D01*
X316803519Y-89035925D01*
X316805675Y-88942082D01*
X316840933Y-88758682D01*
X316913737Y-88609154D01*
X317022789Y-88494639D01*
X317166786Y-88416276D01*
X317344427Y-88375204D01*
X317460000Y-88368915D01*
X317657006Y-88389021D01*
X317824679Y-88450256D01*
X317965315Y-88553996D01*
X318081211Y-88701616D01*
X318115101Y-88761500D01*
X318149799Y-88836403D01*
X318170205Y-88908604D01*
X318179937Y-88996493D01*
X318182560Y-89104400D01*
X319158743Y-89104400D01*
X319157376Y-89005127D01*
X319138565Y-88816145D01*
X319126428Y-88748800D01*
X319048225Y-88486518D01*
X318930379Y-88247159D01*
X318777169Y-88035445D01*
X318592875Y-87856095D01*
X318381776Y-87713831D01*
X318148154Y-87613374D01*
X318078972Y-87593300D01*
X317942821Y-87568948D01*
X317778698Y-87556403D01*
X317603953Y-87555487D01*
X317435934Y-87566019D01*
G36*
X306448519Y-87563854D02*
X306269189Y-87593100D01*
X306114618Y-87646757D01*
X305973143Y-87728846D01*
X305836350Y-87840396D01*
X305731600Y-87936570D01*
X305699278Y-87858539D01*
X305657825Y-87792796D01*
X305595097Y-87726639D01*
X305577463Y-87712203D01*
X305539980Y-87685359D01*
X305503132Y-87666381D01*
X305457191Y-87653624D01*
X305392431Y-87645444D01*
X305299124Y-87640198D01*
X305167542Y-87636241D01*
X305121340Y-87635112D01*
X304754712Y-87626324D01*
X304769718Y-87724012D01*
X304775705Y-87768164D01*
X304787139Y-87857460D01*
X304803364Y-87986610D01*
X304823727Y-88150327D01*
X304847572Y-88343320D01*
X304874243Y-88560301D01*
X304903085Y-88795981D01*
X304933444Y-89045072D01*
X304937570Y-89079000D01*
X304968016Y-89328849D01*
X304996991Y-89565476D01*
X305023848Y-89783674D01*
X305047940Y-89978233D01*
X305068617Y-90143945D01*
X305085234Y-90275602D01*
X305097142Y-90367994D01*
X305103693Y-90415914D01*
X305104158Y-90418850D01*
X305117902Y-90501400D01*
X306059437Y-90501400D01*
X306042822Y-90418850D01*
X306026940Y-90345755D01*
X306012810Y-90289068D01*
X306016410Y-90271510D01*
X306048034Y-90283515D01*
X306111943Y-90327023D01*
X306136514Y-90345349D01*
X306254227Y-90429090D01*
X306358915Y-90488722D01*
X306464143Y-90528475D01*
X306583477Y-90552580D01*
X306730481Y-90565269D01*
X306855500Y-90569588D01*
X307043094Y-90570039D01*
X307190462Y-90562303D01*
X307292884Y-90546648D01*
X307301795Y-90544288D01*
X307499594Y-90463038D01*
X307682147Y-90338264D01*
X307843738Y-90176340D01*
X307978653Y-89983640D01*
X308081176Y-89766537D01*
X308125046Y-89626113D01*
X308149718Y-89483618D01*
X308162380Y-89309018D01*
X308163224Y-89119520D01*
X308161918Y-89096835D01*
X307194207Y-89096835D01*
X307192475Y-89155200D01*
X307181142Y-89263915D01*
X307162065Y-89361206D01*
X307139931Y-89425554D01*
X307056985Y-89542966D01*
X306943942Y-89647982D01*
X306830664Y-89717274D01*
X306718733Y-89749611D01*
X306579722Y-89763146D01*
X306433873Y-89757557D01*
X306301426Y-89732524D01*
X306280753Y-89725991D01*
X306125656Y-89647831D01*
X305998539Y-89528050D01*
X305906561Y-89382901D01*
X305835389Y-89196354D01*
X305807633Y-89014440D01*
X305821811Y-88843161D01*
X305876437Y-88688521D01*
X305970029Y-88556524D01*
X306101102Y-88453173D01*
X306141745Y-88431437D01*
X306219207Y-88396517D01*
X306285801Y-88376925D01*
X306360480Y-88369467D01*
X306462199Y-88370950D01*
X306492845Y-88372286D01*
X306658412Y-88389331D01*
X306789868Y-88427001D01*
X306901723Y-88491199D01*
X306999354Y-88578313D01*
X307107439Y-88725343D01*
X307172570Y-88898720D01*
X307194207Y-89096835D01*
X308161918Y-89096835D01*
X308152445Y-88932331D01*
X308130234Y-88764658D01*
X308114582Y-88692267D01*
X308024814Y-88426117D01*
X307898669Y-88192431D01*
X307732611Y-87984918D01*
X307696547Y-87948217D01*
X307523816Y-87798197D01*
X307345586Y-87687525D01*
X307152260Y-87612548D01*
X306934241Y-87569608D01*
X306681931Y-87555050D01*
X306664274Y-87555000D01*
X306448519Y-87563854D01*
X306448519Y-87563854D01*
G37*
X306448519Y-87563854D02*
X306269189Y-87593100D01*
X306114618Y-87646757D01*
X305973143Y-87728846D01*
X305836350Y-87840396D01*
X305731600Y-87936570D01*
X305699278Y-87858539D01*
X305657825Y-87792796D01*
X305595097Y-87726639D01*
X305577463Y-87712203D01*
X305539980Y-87685359D01*
X305503132Y-87666381D01*
X305457191Y-87653624D01*
X305392431Y-87645444D01*
X305299124Y-87640198D01*
X305167542Y-87636241D01*
X305121340Y-87635112D01*
X304754712Y-87626324D01*
X304769718Y-87724012D01*
X304775705Y-87768164D01*
X304787139Y-87857460D01*
X304803364Y-87986610D01*
X304823727Y-88150327D01*
X304847572Y-88343320D01*
X304874243Y-88560301D01*
X304903085Y-88795981D01*
X304933444Y-89045072D01*
X304937570Y-89079000D01*
X304968016Y-89328849D01*
X304996991Y-89565476D01*
X305023848Y-89783674D01*
X305047940Y-89978233D01*
X305068617Y-90143945D01*
X305085234Y-90275602D01*
X305097142Y-90367994D01*
X305103693Y-90415914D01*
X305104158Y-90418850D01*
X305117902Y-90501400D01*
X306059437Y-90501400D01*
X306042822Y-90418850D01*
X306026940Y-90345755D01*
X306012810Y-90289068D01*
X306016410Y-90271510D01*
X306048034Y-90283515D01*
X306111943Y-90327023D01*
X306136514Y-90345349D01*
X306254227Y-90429090D01*
X306358915Y-90488722D01*
X306464143Y-90528475D01*
X306583477Y-90552580D01*
X306730481Y-90565269D01*
X306855500Y-90569588D01*
X307043094Y-90570039D01*
X307190462Y-90562303D01*
X307292884Y-90546648D01*
X307301795Y-90544288D01*
X307499594Y-90463038D01*
X307682147Y-90338264D01*
X307843738Y-90176340D01*
X307978653Y-89983640D01*
X308081176Y-89766537D01*
X308125046Y-89626113D01*
X308149718Y-89483618D01*
X308162380Y-89309018D01*
X308163224Y-89119520D01*
X308161918Y-89096835D01*
X307194207Y-89096835D01*
X307192475Y-89155200D01*
X307181142Y-89263915D01*
X307162065Y-89361206D01*
X307139931Y-89425554D01*
X307056985Y-89542966D01*
X306943942Y-89647982D01*
X306830664Y-89717274D01*
X306718733Y-89749611D01*
X306579722Y-89763146D01*
X306433873Y-89757557D01*
X306301426Y-89732524D01*
X306280753Y-89725991D01*
X306125656Y-89647831D01*
X305998539Y-89528050D01*
X305906561Y-89382901D01*
X305835389Y-89196354D01*
X305807633Y-89014440D01*
X305821811Y-88843161D01*
X305876437Y-88688521D01*
X305970029Y-88556524D01*
X306101102Y-88453173D01*
X306141745Y-88431437D01*
X306219207Y-88396517D01*
X306285801Y-88376925D01*
X306360480Y-88369467D01*
X306462199Y-88370950D01*
X306492845Y-88372286D01*
X306658412Y-88389331D01*
X306789868Y-88427001D01*
X306901723Y-88491199D01*
X306999354Y-88578313D01*
X307107439Y-88725343D01*
X307172570Y-88898720D01*
X307194207Y-89096835D01*
X308161918Y-89096835D01*
X308152445Y-88932331D01*
X308130234Y-88764658D01*
X308114582Y-88692267D01*
X308024814Y-88426117D01*
X307898669Y-88192431D01*
X307732611Y-87984918D01*
X307696547Y-87948217D01*
X307523816Y-87798197D01*
X307345586Y-87687525D01*
X307152260Y-87612548D01*
X306934241Y-87569608D01*
X306681931Y-87555050D01*
X306664274Y-87555000D01*
X306448519Y-87563854D01*
G36*
X329942842Y-85834444D02*
X329940012Y-85836121D01*
X329942025Y-85861641D01*
X329949778Y-85933256D01*
X329962743Y-86046652D01*
X329980392Y-86197512D01*
X330002196Y-86381520D01*
X330027629Y-86594361D01*
X330056161Y-86831718D01*
X330087265Y-87089276D01*
X330120412Y-87362719D01*
X330155075Y-87647731D01*
X330190726Y-87939996D01*
X330226836Y-88235198D01*
X330262878Y-88529022D01*
X330298323Y-88817151D01*
X330332643Y-89095269D01*
X330365311Y-89359062D01*
X330395798Y-89604212D01*
X330423577Y-89826404D01*
X330448119Y-90021322D01*
X330468896Y-90184651D01*
X330485380Y-90312074D01*
X330497043Y-90399275D01*
X330503357Y-90441939D01*
X330503814Y-90444250D01*
X330509605Y-90464302D01*
X330521379Y-90479012D01*
X330546136Y-90489207D01*
X330590876Y-90495714D01*
X330662599Y-90499361D01*
X330768307Y-90500976D01*
X330914999Y-90501387D01*
X330987135Y-90501400D01*
X331457702Y-90501400D01*
X331443409Y-90418850D01*
X331437977Y-90380219D01*
X331426932Y-90295469D01*
X331410812Y-90168907D01*
X331390155Y-90004839D01*
X331365498Y-89807572D01*
X331337378Y-89581413D01*
X331306332Y-89330668D01*
X331272899Y-89059646D01*
X331237614Y-88772652D01*
X331214446Y-88583700D01*
X331177900Y-88286474D01*
X331142498Y-88000736D01*
X331108819Y-87731018D01*
X331077440Y-87481853D01*
X331048939Y-87257772D01*
X331023897Y-87063307D01*
X331002889Y-86902992D01*
X330986496Y-86781356D01*
X330975295Y-86702934D01*
X330971343Y-86678700D01*
X330909559Y-86477006D01*
X330805844Y-86289279D01*
X330667666Y-86125201D01*
X330502493Y-85994455D01*
X330401300Y-85939550D01*
X330333311Y-85913905D01*
X330244008Y-85887487D01*
X330146852Y-85863314D01*
X330055300Y-85844405D01*
X329982811Y-85833775D01*
X329942842Y-85834444D01*
X329942842Y-85834444D01*
G37*
X329942842Y-85834444D02*
X329940012Y-85836121D01*
X329942025Y-85861641D01*
X329949778Y-85933256D01*
X329962743Y-86046652D01*
X329980392Y-86197512D01*
X330002196Y-86381520D01*
X330027629Y-86594361D01*
X330056161Y-86831718D01*
X330087265Y-87089276D01*
X330120412Y-87362719D01*
X330155075Y-87647731D01*
X330190726Y-87939996D01*
X330226836Y-88235198D01*
X330262878Y-88529022D01*
X330298323Y-88817151D01*
X330332643Y-89095269D01*
X330365311Y-89359062D01*
X330395798Y-89604212D01*
X330423577Y-89826404D01*
X330448119Y-90021322D01*
X330468896Y-90184651D01*
X330485380Y-90312074D01*
X330497043Y-90399275D01*
X330503357Y-90441939D01*
X330503814Y-90444250D01*
X330509605Y-90464302D01*
X330521379Y-90479012D01*
X330546136Y-90489207D01*
X330590876Y-90495714D01*
X330662599Y-90499361D01*
X330768307Y-90500976D01*
X330914999Y-90501387D01*
X330987135Y-90501400D01*
X331457702Y-90501400D01*
X331443409Y-90418850D01*
X331437977Y-90380219D01*
X331426932Y-90295469D01*
X331410812Y-90168907D01*
X331390155Y-90004839D01*
X331365498Y-89807572D01*
X331337378Y-89581413D01*
X331306332Y-89330668D01*
X331272899Y-89059646D01*
X331237614Y-88772652D01*
X331214446Y-88583700D01*
X331177900Y-88286474D01*
X331142498Y-88000736D01*
X331108819Y-87731018D01*
X331077440Y-87481853D01*
X331048939Y-87257772D01*
X331023897Y-87063307D01*
X331002889Y-86902992D01*
X330986496Y-86781356D01*
X330975295Y-86702934D01*
X330971343Y-86678700D01*
X330909559Y-86477006D01*
X330805844Y-86289279D01*
X330667666Y-86125201D01*
X330502493Y-85994455D01*
X330401300Y-85939550D01*
X330333311Y-85913905D01*
X330244008Y-85887487D01*
X330146852Y-85863314D01*
X330055300Y-85844405D01*
X329982811Y-85833775D01*
X329942842Y-85834444D01*
G36*
X323016733Y-87632204D02*
X322882002Y-87635005D01*
X322773836Y-87639285D01*
X322699873Y-87644726D01*
X322667751Y-87651009D01*
X322667000Y-87652156D01*
X322684603Y-87674092D01*
X322734672Y-87727158D01*
X322813096Y-87807232D01*
X322915766Y-87910190D01*
X323038573Y-88031909D01*
X323177407Y-88168264D01*
X323316062Y-88303391D01*
X323465681Y-88449809D01*
X323602487Y-88585869D01*
X323722446Y-88707389D01*
X323821526Y-88810190D01*
X323895692Y-88890091D01*
X323940913Y-88942912D01*
X323953474Y-88964024D01*
X323935804Y-88990607D01*
X323890736Y-89052691D01*
X323821845Y-89145510D01*
X323732706Y-89264298D01*
X323626894Y-89404290D01*
X323507983Y-89560721D01*
X323390901Y-89713999D01*
X323263041Y-89881477D01*
X323144948Y-90037056D01*
X323040211Y-90175941D01*
X322952421Y-90293332D01*
X322885168Y-90384430D01*
X322842041Y-90444439D01*
X322826788Y-90467985D01*
X322830129Y-90479060D01*
X322853371Y-90487302D01*
X322901861Y-90492966D01*
X322980949Y-90496305D01*
X323095982Y-90497575D01*
X323252309Y-90497030D01*
X323405041Y-90495525D01*
X323996481Y-90488700D01*
X324303291Y-90051162D01*
X324395250Y-89921051D01*
X324477750Y-89806279D01*
X324546281Y-89712962D01*
X324596331Y-89647216D01*
X324623390Y-89615157D01*
X324626449Y-89613012D01*
X324647375Y-89630874D01*
X324697299Y-89681345D01*
X324771305Y-89759211D01*
X324864477Y-89859262D01*
X324971897Y-89976283D01*
X325045151Y-90056900D01*
X325447505Y-90501400D01*
X326065969Y-90501400D01*
X326265182Y-90500436D01*
X326429268Y-90497643D01*
X326554594Y-90493164D01*
X326637529Y-90487144D01*
X326674441Y-90479727D01*
X326675967Y-90477154D01*
X326656976Y-90454259D01*
X326606265Y-90398959D01*
X326527595Y-90315206D01*
X326424728Y-90206952D01*
X326301425Y-90078146D01*
X326161448Y-89932740D01*
X326008557Y-89774685D01*
X325937985Y-89701968D01*
X325208470Y-88951027D01*
X325561251Y-88496538D01*
X325664589Y-88362722D01*
X325758445Y-88239885D01*
X325837936Y-88134526D01*
X325898178Y-88053139D01*
X325934286Y-88002223D01*
X325941516Y-87990694D01*
X325967588Y-87893201D01*
X325945271Y-87785515D01*
X325938655Y-87770190D01*
X325909137Y-87720212D01*
X325867775Y-87683538D01*
X325807071Y-87658238D01*
X325719527Y-87642379D01*
X325597645Y-87634029D01*
X325433926Y-87631255D01*
X325399211Y-87631200D01*
X325030098Y-87631200D01*
X324797435Y-87980450D01*
X324719319Y-88097553D01*
X324651339Y-88199167D01*
X324598349Y-88278059D01*
X324565204Y-88326996D01*
X324556390Y-88339579D01*
X324536984Y-88326933D01*
X324493601Y-88284409D01*
X324435169Y-88220833D01*
X324427894Y-88212579D01*
X324353910Y-88130713D01*
X324260173Y-88030417D01*
X324162987Y-87929048D01*
X324128741Y-87894058D01*
X324048606Y-87815474D01*
X323976428Y-87754293D01*
X323904311Y-87708348D01*
X323824357Y-87675473D01*
X323728670Y-87653502D01*
X323609351Y-87640269D01*
X323458504Y-87633609D01*
X323268232Y-87631354D01*
X323170390Y-87631199D01*
X323016733Y-87632204D01*
X323016733Y-87632204D01*
G37*
X323016733Y-87632204D02*
X322882002Y-87635005D01*
X322773836Y-87639285D01*
X322699873Y-87644726D01*
X322667751Y-87651009D01*
X322667000Y-87652156D01*
X322684603Y-87674092D01*
X322734672Y-87727158D01*
X322813096Y-87807232D01*
X322915766Y-87910190D01*
X323038573Y-88031909D01*
X323177407Y-88168264D01*
X323316062Y-88303391D01*
X323465681Y-88449809D01*
X323602487Y-88585869D01*
X323722446Y-88707389D01*
X323821526Y-88810190D01*
X323895692Y-88890091D01*
X323940913Y-88942912D01*
X323953474Y-88964024D01*
X323935804Y-88990607D01*
X323890736Y-89052691D01*
X323821845Y-89145510D01*
X323732706Y-89264298D01*
X323626894Y-89404290D01*
X323507983Y-89560721D01*
X323390901Y-89713999D01*
X323263041Y-89881477D01*
X323144948Y-90037056D01*
X323040211Y-90175941D01*
X322952421Y-90293332D01*
X322885168Y-90384430D01*
X322842041Y-90444439D01*
X322826788Y-90467985D01*
X322830129Y-90479060D01*
X322853371Y-90487302D01*
X322901861Y-90492966D01*
X322980949Y-90496305D01*
X323095982Y-90497575D01*
X323252309Y-90497030D01*
X323405041Y-90495525D01*
X323996481Y-90488700D01*
X324303291Y-90051162D01*
X324395250Y-89921051D01*
X324477750Y-89806279D01*
X324546281Y-89712962D01*
X324596331Y-89647216D01*
X324623390Y-89615157D01*
X324626449Y-89613012D01*
X324647375Y-89630874D01*
X324697299Y-89681345D01*
X324771305Y-89759211D01*
X324864477Y-89859262D01*
X324971897Y-89976283D01*
X325045151Y-90056900D01*
X325447505Y-90501400D01*
X326065969Y-90501400D01*
X326265182Y-90500436D01*
X326429268Y-90497643D01*
X326554594Y-90493164D01*
X326637529Y-90487144D01*
X326674441Y-90479727D01*
X326675967Y-90477154D01*
X326656976Y-90454259D01*
X326606265Y-90398959D01*
X326527595Y-90315206D01*
X326424728Y-90206952D01*
X326301425Y-90078146D01*
X326161448Y-89932740D01*
X326008557Y-89774685D01*
X325937985Y-89701968D01*
X325208470Y-88951027D01*
X325561251Y-88496538D01*
X325664589Y-88362722D01*
X325758445Y-88239885D01*
X325837936Y-88134526D01*
X325898178Y-88053139D01*
X325934286Y-88002223D01*
X325941516Y-87990694D01*
X325967588Y-87893201D01*
X325945271Y-87785515D01*
X325938655Y-87770190D01*
X325909137Y-87720212D01*
X325867775Y-87683538D01*
X325807071Y-87658238D01*
X325719527Y-87642379D01*
X325597645Y-87634029D01*
X325433926Y-87631255D01*
X325399211Y-87631200D01*
X325030098Y-87631200D01*
X324797435Y-87980450D01*
X324719319Y-88097553D01*
X324651339Y-88199167D01*
X324598349Y-88278059D01*
X324565204Y-88326996D01*
X324556390Y-88339579D01*
X324536984Y-88326933D01*
X324493601Y-88284409D01*
X324435169Y-88220833D01*
X324427894Y-88212579D01*
X324353910Y-88130713D01*
X324260173Y-88030417D01*
X324162987Y-87929048D01*
X324128741Y-87894058D01*
X324048606Y-87815474D01*
X323976428Y-87754293D01*
X323904311Y-87708348D01*
X323824357Y-87675473D01*
X323728670Y-87653502D01*
X323609351Y-87640269D01*
X323458504Y-87633609D01*
X323268232Y-87631354D01*
X323170390Y-87631199D01*
X323016733Y-87632204D01*
G36*
X313054332Y-87575939D02*
X312839469Y-87619003D01*
X312663888Y-87689561D01*
X312522054Y-87791193D01*
X312408431Y-87927475D01*
X312349397Y-88031604D01*
X312313828Y-88106298D01*
X312290114Y-88167644D01*
X312275881Y-88229210D01*
X312268756Y-88304563D01*
X312266366Y-88407273D01*
X312266246Y-88506950D01*
X312270288Y-88639295D01*
X312281716Y-88816461D01*
X312300061Y-89033079D01*
X312324854Y-89283781D01*
X312355629Y-89563198D01*
X312366551Y-89656850D01*
X312466311Y-90501400D01*
X313425437Y-90501400D01*
X313411466Y-90431550D01*
X313404956Y-90389330D01*
X313393274Y-90303548D01*
X313377302Y-90181082D01*
X313357920Y-90028809D01*
X313336009Y-89853604D01*
X313312452Y-89662345D01*
X313303956Y-89592677D01*
X313277205Y-89370308D01*
X313256631Y-89192047D01*
X313241800Y-89051632D01*
X313232278Y-88942804D01*
X313227632Y-88859301D01*
X313227428Y-88794863D01*
X313231233Y-88743229D01*
X313238613Y-88698139D01*
X313241178Y-88686205D01*
X313294441Y-88548665D01*
X313382408Y-88446157D01*
X313500930Y-88380985D01*
X313645855Y-88355454D01*
X313808750Y-88370957D01*
X313899346Y-88397486D01*
X313974065Y-88441069D01*
X314054349Y-88514319D01*
X314056907Y-88516942D01*
X314097517Y-88560212D01*
X314132569Y-88603171D01*
X314163046Y-88650300D01*
X314189933Y-88706085D01*
X314214213Y-88775006D01*
X314236873Y-88861548D01*
X314258894Y-88970193D01*
X314281263Y-89105423D01*
X314304963Y-89271723D01*
X314330978Y-89473575D01*
X314360293Y-89715461D01*
X314393892Y-90001865D01*
X314406179Y-90107700D01*
X314450350Y-90488700D01*
X314925952Y-90495608D01*
X315401554Y-90502517D01*
X315388834Y-90432108D01*
X315382947Y-90391389D01*
X315371761Y-90306329D01*
X315356042Y-90183026D01*
X315336554Y-90027575D01*
X315314060Y-89846075D01*
X315289324Y-89644620D01*
X315263112Y-89429309D01*
X315262214Y-89421900D01*
X315235069Y-89203218D01*
X315208084Y-88995644D01*
X315182207Y-88805757D01*
X315158381Y-88640133D01*
X315137555Y-88505349D01*
X315120672Y-88407984D01*
X315108830Y-88355100D01*
X315022118Y-88158988D01*
X314894406Y-87986210D01*
X314732180Y-87842059D01*
X314541928Y-87731828D01*
X314330137Y-87660808D01*
X314237270Y-87644074D01*
X314100639Y-87625530D01*
X314119042Y-87772823D01*
X314137445Y-87920115D01*
X314045023Y-87838968D01*
X313861553Y-87711011D01*
X313649550Y-87621677D01*
X313415354Y-87572651D01*
X313165305Y-87565615D01*
X313054332Y-87575939D01*
X313054332Y-87575939D01*
G37*
X313054332Y-87575939D02*
X312839469Y-87619003D01*
X312663888Y-87689561D01*
X312522054Y-87791193D01*
X312408431Y-87927475D01*
X312349397Y-88031604D01*
X312313828Y-88106298D01*
X312290114Y-88167644D01*
X312275881Y-88229210D01*
X312268756Y-88304563D01*
X312266366Y-88407273D01*
X312266246Y-88506950D01*
X312270288Y-88639295D01*
X312281716Y-88816461D01*
X312300061Y-89033079D01*
X312324854Y-89283781D01*
X312355629Y-89563198D01*
X312366551Y-89656850D01*
X312466311Y-90501400D01*
X313425437Y-90501400D01*
X313411466Y-90431550D01*
X313404956Y-90389330D01*
X313393274Y-90303548D01*
X313377302Y-90181082D01*
X313357920Y-90028809D01*
X313336009Y-89853604D01*
X313312452Y-89662345D01*
X313303956Y-89592677D01*
X313277205Y-89370308D01*
X313256631Y-89192047D01*
X313241800Y-89051632D01*
X313232278Y-88942804D01*
X313227632Y-88859301D01*
X313227428Y-88794863D01*
X313231233Y-88743229D01*
X313238613Y-88698139D01*
X313241178Y-88686205D01*
X313294441Y-88548665D01*
X313382408Y-88446157D01*
X313500930Y-88380985D01*
X313645855Y-88355454D01*
X313808750Y-88370957D01*
X313899346Y-88397486D01*
X313974065Y-88441069D01*
X314054349Y-88514319D01*
X314056907Y-88516942D01*
X314097517Y-88560212D01*
X314132569Y-88603171D01*
X314163046Y-88650300D01*
X314189933Y-88706085D01*
X314214213Y-88775006D01*
X314236873Y-88861548D01*
X314258894Y-88970193D01*
X314281263Y-89105423D01*
X314304963Y-89271723D01*
X314330978Y-89473575D01*
X314360293Y-89715461D01*
X314393892Y-90001865D01*
X314406179Y-90107700D01*
X314450350Y-90488700D01*
X314925952Y-90495608D01*
X315401554Y-90502517D01*
X315388834Y-90432108D01*
X315382947Y-90391389D01*
X315371761Y-90306329D01*
X315356042Y-90183026D01*
X315336554Y-90027575D01*
X315314060Y-89846075D01*
X315289324Y-89644620D01*
X315263112Y-89429309D01*
X315262214Y-89421900D01*
X315235069Y-89203218D01*
X315208084Y-88995644D01*
X315182207Y-88805757D01*
X315158381Y-88640133D01*
X315137555Y-88505349D01*
X315120672Y-88407984D01*
X315108830Y-88355100D01*
X315022118Y-88158988D01*
X314894406Y-87986210D01*
X314732180Y-87842059D01*
X314541928Y-87731828D01*
X314330137Y-87660808D01*
X314237270Y-87644074D01*
X314100639Y-87625530D01*
X314119042Y-87772823D01*
X314137445Y-87920115D01*
X314045023Y-87838968D01*
X313861553Y-87711011D01*
X313649550Y-87621677D01*
X313415354Y-87572651D01*
X313165305Y-87565615D01*
X313054332Y-87575939D01*
G36*
X310253619Y-85837713D02*
X310252543Y-85838591D01*
X310253757Y-85864868D01*
X310260736Y-85936908D01*
X310272946Y-86050065D01*
X310289849Y-86199695D01*
X310310911Y-86381151D01*
X310335593Y-86589790D01*
X310363361Y-86820965D01*
X310393678Y-87070032D01*
X310410043Y-87203212D01*
X310441698Y-87460708D01*
X310471382Y-87703528D01*
X310498526Y-87926902D01*
X310522556Y-88126061D01*
X310542901Y-88296237D01*
X310558990Y-88432660D01*
X310570251Y-88530561D01*
X310576112Y-88585171D01*
X310576839Y-88594708D01*
X310559702Y-88588396D01*
X310511819Y-88550605D01*
X310438269Y-88485870D01*
X310344130Y-88398731D01*
X310234480Y-88293723D01*
X310176550Y-88237046D01*
X310001971Y-88068456D01*
X309851987Y-87934166D01*
X309717650Y-87830328D01*
X309590009Y-87753091D01*
X309460116Y-87698608D01*
X309319020Y-87663028D01*
X309157772Y-87642504D01*
X308967422Y-87633186D01*
X308767864Y-87631200D01*
X308627095Y-87632298D01*
X308505913Y-87635342D01*
X308412615Y-87639951D01*
X308355501Y-87645745D01*
X308341400Y-87650715D01*
X308359321Y-87671944D01*
X308410319Y-87723749D01*
X308490252Y-87802137D01*
X308594977Y-87903112D01*
X308720351Y-88022680D01*
X308862231Y-88156844D01*
X309014500Y-88299766D01*
X309168661Y-88444568D01*
X309310398Y-88578894D01*
X309435565Y-88698722D01*
X309540016Y-88800030D01*
X309619602Y-88878798D01*
X309670178Y-88931003D01*
X309687600Y-88952547D01*
X309671816Y-88976587D01*
X309626832Y-89035077D01*
X309556207Y-89123638D01*
X309463498Y-89237891D01*
X309352262Y-89373456D01*
X309226056Y-89525955D01*
X309088437Y-89691009D01*
X309065300Y-89718643D01*
X308926206Y-89885188D01*
X308797940Y-90039743D01*
X308684058Y-90177949D01*
X308588112Y-90295452D01*
X308513658Y-90387895D01*
X308464249Y-90450920D01*
X308443439Y-90480172D01*
X308443000Y-90481446D01*
X308467228Y-90487076D01*
X308535223Y-90492090D01*
X308639956Y-90496254D01*
X308774394Y-90499329D01*
X308931509Y-90501081D01*
X309037154Y-90501400D01*
X309631307Y-90501400D01*
X310131832Y-89904500D01*
X310256659Y-89756311D01*
X310371279Y-89621530D01*
X310471584Y-89504884D01*
X310553465Y-89411103D01*
X310612817Y-89344915D01*
X310645530Y-89311048D01*
X310650356Y-89307600D01*
X310658634Y-89331618D01*
X310671779Y-89398865D01*
X310688645Y-89502125D01*
X310708082Y-89634183D01*
X310728944Y-89787824D01*
X310738234Y-89860050D01*
X310759320Y-90024181D01*
X310779055Y-90173033D01*
X310796330Y-90298601D01*
X310810034Y-90392883D01*
X310819057Y-90447875D01*
X310821069Y-90456950D01*
X310829732Y-90472679D01*
X310849817Y-90484219D01*
X310888234Y-90492207D01*
X310951897Y-90497280D01*
X311047716Y-90500074D01*
X311182604Y-90501228D01*
X311303363Y-90501400D01*
X311772702Y-90501400D01*
X311758519Y-90418850D01*
X311753121Y-90380555D01*
X311742015Y-90296033D01*
X311725731Y-90169471D01*
X311704796Y-90005057D01*
X311679740Y-89806979D01*
X311651091Y-89579425D01*
X311619378Y-89326584D01*
X311585129Y-89052642D01*
X311548872Y-88761788D01*
X311515679Y-88494800D01*
X311477707Y-88191552D01*
X311440689Y-87900841D01*
X311405208Y-87626942D01*
X311371846Y-87374133D01*
X311341186Y-87146688D01*
X311313809Y-86948883D01*
X311290300Y-86784994D01*
X311271240Y-86659297D01*
X311257212Y-86576068D01*
X311249601Y-86541674D01*
X311157605Y-86344613D01*
X311024392Y-86169633D01*
X310857768Y-86025479D01*
X310715060Y-85942613D01*
X310642853Y-85914377D01*
X310550887Y-85886421D01*
X310452572Y-85861760D01*
X310361317Y-85843412D01*
X310290529Y-85834391D01*
X310253619Y-85837713D01*
X310253619Y-85837713D01*
G37*
X310253619Y-85837713D02*
X310252543Y-85838591D01*
X310253757Y-85864868D01*
X310260736Y-85936908D01*
X310272946Y-86050065D01*
X310289849Y-86199695D01*
X310310911Y-86381151D01*
X310335593Y-86589790D01*
X310363361Y-86820965D01*
X310393678Y-87070032D01*
X310410043Y-87203212D01*
X310441698Y-87460708D01*
X310471382Y-87703528D01*
X310498526Y-87926902D01*
X310522556Y-88126061D01*
X310542901Y-88296237D01*
X310558990Y-88432660D01*
X310570251Y-88530561D01*
X310576112Y-88585171D01*
X310576839Y-88594708D01*
X310559702Y-88588396D01*
X310511819Y-88550605D01*
X310438269Y-88485870D01*
X310344130Y-88398731D01*
X310234480Y-88293723D01*
X310176550Y-88237046D01*
X310001971Y-88068456D01*
X309851987Y-87934166D01*
X309717650Y-87830328D01*
X309590009Y-87753091D01*
X309460116Y-87698608D01*
X309319020Y-87663028D01*
X309157772Y-87642504D01*
X308967422Y-87633186D01*
X308767864Y-87631200D01*
X308627095Y-87632298D01*
X308505913Y-87635342D01*
X308412615Y-87639951D01*
X308355501Y-87645745D01*
X308341400Y-87650715D01*
X308359321Y-87671944D01*
X308410319Y-87723749D01*
X308490252Y-87802137D01*
X308594977Y-87903112D01*
X308720351Y-88022680D01*
X308862231Y-88156844D01*
X309014500Y-88299766D01*
X309168661Y-88444568D01*
X309310398Y-88578894D01*
X309435565Y-88698722D01*
X309540016Y-88800030D01*
X309619602Y-88878798D01*
X309670178Y-88931003D01*
X309687600Y-88952547D01*
X309671816Y-88976587D01*
X309626832Y-89035077D01*
X309556207Y-89123638D01*
X309463498Y-89237891D01*
X309352262Y-89373456D01*
X309226056Y-89525955D01*
X309088437Y-89691009D01*
X309065300Y-89718643D01*
X308926206Y-89885188D01*
X308797940Y-90039743D01*
X308684058Y-90177949D01*
X308588112Y-90295452D01*
X308513658Y-90387895D01*
X308464249Y-90450920D01*
X308443439Y-90480172D01*
X308443000Y-90481446D01*
X308467228Y-90487076D01*
X308535223Y-90492090D01*
X308639956Y-90496254D01*
X308774394Y-90499329D01*
X308931509Y-90501081D01*
X309037154Y-90501400D01*
X309631307Y-90501400D01*
X310131832Y-89904500D01*
X310256659Y-89756311D01*
X310371279Y-89621530D01*
X310471584Y-89504884D01*
X310553465Y-89411103D01*
X310612817Y-89344915D01*
X310645530Y-89311048D01*
X310650356Y-89307600D01*
X310658634Y-89331618D01*
X310671779Y-89398865D01*
X310688645Y-89502125D01*
X310708082Y-89634183D01*
X310728944Y-89787824D01*
X310738234Y-89860050D01*
X310759320Y-90024181D01*
X310779055Y-90173033D01*
X310796330Y-90298601D01*
X310810034Y-90392883D01*
X310819057Y-90447875D01*
X310821069Y-90456950D01*
X310829732Y-90472679D01*
X310849817Y-90484219D01*
X310888234Y-90492207D01*
X310951897Y-90497280D01*
X311047716Y-90500074D01*
X311182604Y-90501228D01*
X311303363Y-90501400D01*
X311772702Y-90501400D01*
X311758519Y-90418850D01*
X311753121Y-90380555D01*
X311742015Y-90296033D01*
X311725731Y-90169471D01*
X311704796Y-90005057D01*
X311679740Y-89806979D01*
X311651091Y-89579425D01*
X311619378Y-89326584D01*
X311585129Y-89052642D01*
X311548872Y-88761788D01*
X311515679Y-88494800D01*
X311477707Y-88191552D01*
X311440689Y-87900841D01*
X311405208Y-87626942D01*
X311371846Y-87374133D01*
X311341186Y-87146688D01*
X311313809Y-86948883D01*
X311290300Y-86784994D01*
X311271240Y-86659297D01*
X311257212Y-86576068D01*
X311249601Y-86541674D01*
X311157605Y-86344613D01*
X311024392Y-86169633D01*
X310857768Y-86025479D01*
X310715060Y-85942613D01*
X310642853Y-85914377D01*
X310550887Y-85886421D01*
X310452572Y-85861760D01*
X310361317Y-85843412D01*
X310290529Y-85834391D01*
X310253619Y-85837713D01*
G36*
X319817504Y-85918692D02*
X319672755Y-85973099D01*
X319549051Y-86064960D01*
X319533406Y-86081486D01*
X319443310Y-86213163D01*
X319397922Y-86351891D01*
X319392931Y-86491391D01*
X319424024Y-86625387D01*
X319486889Y-86747601D01*
X319577214Y-86851756D01*
X319690686Y-86931575D01*
X319822994Y-86980781D01*
X319969826Y-86993097D01*
X320126868Y-86962244D01*
X320136214Y-86958993D01*
X320270089Y-86886932D01*
X320372380Y-86783151D01*
X320441953Y-86656592D01*
X320477675Y-86516197D01*
X320478411Y-86370910D01*
X320443028Y-86229672D01*
X320370390Y-86101427D01*
X320259363Y-85995117D01*
X320258532Y-85994530D01*
X320122342Y-85927975D01*
X319971349Y-85903173D01*
X319817504Y-85918692D01*
X319817504Y-85918692D01*
G37*
X319817504Y-85918692D02*
X319672755Y-85973099D01*
X319549051Y-86064960D01*
X319533406Y-86081486D01*
X319443310Y-86213163D01*
X319397922Y-86351891D01*
X319392931Y-86491391D01*
X319424024Y-86625387D01*
X319486889Y-86747601D01*
X319577214Y-86851756D01*
X319690686Y-86931575D01*
X319822994Y-86980781D01*
X319969826Y-86993097D01*
X320126868Y-86962244D01*
X320136214Y-86958993D01*
X320270089Y-86886932D01*
X320372380Y-86783151D01*
X320441953Y-86656592D01*
X320477675Y-86516197D01*
X320478411Y-86370910D01*
X320443028Y-86229672D01*
X320370390Y-86101427D01*
X320259363Y-85995117D01*
X320258532Y-85994530D01*
X320122342Y-85927975D01*
X319971349Y-85903173D01*
X319817504Y-85918692D01*
D13*
X111480000Y-95640000D02*
X108820000Y-95640000D01*
X108820000Y-95640000D02*
X108820000Y-92860000D01*
X108820000Y-92860000D02*
X111480000Y-92860000D01*
X111480000Y-92860000D02*
X111480000Y-95640000D01*
X112750000Y-95640000D02*
X114140000Y-95640000D01*
X114140000Y-95640000D02*
X114140000Y-94250000D01*
D11*
X111311905Y-114702381D02*
X111311905Y-115511905D01*
X111264286Y-115607143D01*
X111216667Y-115654762D01*
X111121429Y-115702381D01*
X110930952Y-115702381D01*
X110835714Y-115654762D01*
X110788095Y-115607143D01*
X110740476Y-115511905D01*
X110740476Y-114702381D01*
X109740476Y-115702381D02*
X110311905Y-115702381D01*
X110026191Y-115702381D02*
X110026191Y-114702381D01*
X110121429Y-114845238D01*
X110216667Y-114940476D01*
X110311905Y-114988095D01*
X121007143Y-144083334D02*
X121054762Y-144035715D01*
X121102381Y-143892858D01*
X121102381Y-143797620D01*
X121054762Y-143654762D01*
X120959524Y-143559524D01*
X120864286Y-143511905D01*
X120673810Y-143464286D01*
X120530952Y-143464286D01*
X120340476Y-143511905D01*
X120245238Y-143559524D01*
X120150000Y-143654762D01*
X120102381Y-143797620D01*
X120102381Y-143892858D01*
X120150000Y-144035715D01*
X120197619Y-144083334D01*
X121102381Y-145035715D02*
X121102381Y-144464286D01*
X121102381Y-144750000D02*
X120102381Y-144750000D01*
X120245238Y-144654762D01*
X120340476Y-144559524D01*
X120388095Y-144464286D01*
X98257143Y-91583334D02*
X98304762Y-91535715D01*
X98352381Y-91392858D01*
X98352381Y-91297620D01*
X98304762Y-91154762D01*
X98209524Y-91059524D01*
X98114286Y-91011905D01*
X97923810Y-90964286D01*
X97780952Y-90964286D01*
X97590476Y-91011905D01*
X97495238Y-91059524D01*
X97400000Y-91154762D01*
X97352381Y-91297620D01*
X97352381Y-91392858D01*
X97400000Y-91535715D01*
X97447619Y-91583334D01*
X97447619Y-91964286D02*
X97400000Y-92011905D01*
X97352381Y-92107143D01*
X97352381Y-92345239D01*
X97400000Y-92440477D01*
X97447619Y-92488096D01*
X97542857Y-92535715D01*
X97638095Y-92535715D01*
X97780952Y-92488096D01*
X98352381Y-91916667D01*
X98352381Y-92535715D01*
X121007143Y-136583334D02*
X121054762Y-136535715D01*
X121102381Y-136392858D01*
X121102381Y-136297620D01*
X121054762Y-136154762D01*
X120959524Y-136059524D01*
X120864286Y-136011905D01*
X120673810Y-135964286D01*
X120530952Y-135964286D01*
X120340476Y-136011905D01*
X120245238Y-136059524D01*
X120150000Y-136154762D01*
X120102381Y-136297620D01*
X120102381Y-136392858D01*
X120150000Y-136535715D01*
X120197619Y-136583334D01*
X120102381Y-136916667D02*
X120102381Y-137535715D01*
X120483333Y-137202381D01*
X120483333Y-137345239D01*
X120530952Y-137440477D01*
X120578571Y-137488096D01*
X120673810Y-137535715D01*
X120911905Y-137535715D01*
X121007143Y-137488096D01*
X121054762Y-137440477D01*
X121102381Y-137345239D01*
X121102381Y-137059524D01*
X121054762Y-136964286D01*
X121007143Y-136916667D01*
X103666666Y-132507143D02*
X103714285Y-132554762D01*
X103857142Y-132602381D01*
X103952380Y-132602381D01*
X104095238Y-132554762D01*
X104190476Y-132459524D01*
X104238095Y-132364286D01*
X104285714Y-132173810D01*
X104285714Y-132030952D01*
X104238095Y-131840476D01*
X104190476Y-131745238D01*
X104095238Y-131650000D01*
X103952380Y-131602381D01*
X103857142Y-131602381D01*
X103714285Y-131650000D01*
X103666666Y-131697619D01*
X102809523Y-131935714D02*
X102809523Y-132602381D01*
X103047619Y-131554762D02*
X103285714Y-132269048D01*
X102666666Y-132269048D01*
X103666666Y-134007143D02*
X103714285Y-134054762D01*
X103857142Y-134102381D01*
X103952380Y-134102381D01*
X104095238Y-134054762D01*
X104190476Y-133959524D01*
X104238095Y-133864286D01*
X104285714Y-133673810D01*
X104285714Y-133530952D01*
X104238095Y-133340476D01*
X104190476Y-133245238D01*
X104095238Y-133150000D01*
X103952380Y-133102381D01*
X103857142Y-133102381D01*
X103714285Y-133150000D01*
X103666666Y-133197619D01*
X102761904Y-133102381D02*
X103238095Y-133102381D01*
X103285714Y-133578571D01*
X103238095Y-133530952D01*
X103142857Y-133483333D01*
X102904761Y-133483333D01*
X102809523Y-133530952D01*
X102761904Y-133578571D01*
X102714285Y-133673810D01*
X102714285Y-133911905D01*
X102761904Y-134007143D01*
X102809523Y-134054762D01*
X102904761Y-134102381D01*
X103142857Y-134102381D01*
X103238095Y-134054762D01*
X103285714Y-134007143D01*
X115166666Y-112207143D02*
X115214285Y-112254762D01*
X115357142Y-112302381D01*
X115452380Y-112302381D01*
X115595238Y-112254762D01*
X115690476Y-112159524D01*
X115738095Y-112064286D01*
X115785714Y-111873810D01*
X115785714Y-111730952D01*
X115738095Y-111540476D01*
X115690476Y-111445238D01*
X115595238Y-111350000D01*
X115452380Y-111302381D01*
X115357142Y-111302381D01*
X115214285Y-111350000D01*
X115166666Y-111397619D01*
X114309523Y-111302381D02*
X114500000Y-111302381D01*
X114595238Y-111350000D01*
X114642857Y-111397619D01*
X114738095Y-111540476D01*
X114785714Y-111730952D01*
X114785714Y-112111905D01*
X114738095Y-112207143D01*
X114690476Y-112254762D01*
X114595238Y-112302381D01*
X114404761Y-112302381D01*
X114309523Y-112254762D01*
X114261904Y-112207143D01*
X114214285Y-112111905D01*
X114214285Y-111873810D01*
X114261904Y-111778571D01*
X114309523Y-111730952D01*
X114404761Y-111683333D01*
X114595238Y-111683333D01*
X114690476Y-111730952D01*
X114738095Y-111778571D01*
X114785714Y-111873810D01*
X121007143Y-122333334D02*
X121054762Y-122285715D01*
X121102381Y-122142858D01*
X121102381Y-122047620D01*
X121054762Y-121904762D01*
X120959524Y-121809524D01*
X120864286Y-121761905D01*
X120673810Y-121714286D01*
X120530952Y-121714286D01*
X120340476Y-121761905D01*
X120245238Y-121809524D01*
X120150000Y-121904762D01*
X120102381Y-122047620D01*
X120102381Y-122142858D01*
X120150000Y-122285715D01*
X120197619Y-122333334D01*
X120102381Y-122666667D02*
X120102381Y-123333334D01*
X121102381Y-122904762D01*
X105457143Y-110833334D02*
X105504762Y-110785715D01*
X105552381Y-110642858D01*
X105552381Y-110547620D01*
X105504762Y-110404762D01*
X105409524Y-110309524D01*
X105314286Y-110261905D01*
X105123810Y-110214286D01*
X104980952Y-110214286D01*
X104790476Y-110261905D01*
X104695238Y-110309524D01*
X104600000Y-110404762D01*
X104552381Y-110547620D01*
X104552381Y-110642858D01*
X104600000Y-110785715D01*
X104647619Y-110833334D01*
X104980952Y-111404762D02*
X104933333Y-111309524D01*
X104885714Y-111261905D01*
X104790476Y-111214286D01*
X104742857Y-111214286D01*
X104647619Y-111261905D01*
X104600000Y-111309524D01*
X104552381Y-111404762D01*
X104552381Y-111595239D01*
X104600000Y-111690477D01*
X104647619Y-111738096D01*
X104742857Y-111785715D01*
X104790476Y-111785715D01*
X104885714Y-111738096D01*
X104933333Y-111690477D01*
X104980952Y-111595239D01*
X104980952Y-111404762D01*
X105028571Y-111309524D01*
X105076190Y-111261905D01*
X105171429Y-111214286D01*
X105361905Y-111214286D01*
X105457143Y-111261905D01*
X105504762Y-111309524D01*
X105552381Y-111404762D01*
X105552381Y-111595239D01*
X105504762Y-111690477D01*
X105457143Y-111738096D01*
X105361905Y-111785715D01*
X105171429Y-111785715D01*
X105076190Y-111738096D01*
X105028571Y-111690477D01*
X104980952Y-111595239D01*
X84988095Y-122202381D02*
X84988095Y-121202381D01*
X84750000Y-121202381D01*
X84607142Y-121250000D01*
X84511904Y-121345238D01*
X84464285Y-121440476D01*
X84416666Y-121630952D01*
X84416666Y-121773810D01*
X84464285Y-121964286D01*
X84511904Y-122059524D01*
X84607142Y-122154762D01*
X84750000Y-122202381D01*
X84988095Y-122202381D01*
X83464285Y-122202381D02*
X84035714Y-122202381D01*
X83750000Y-122202381D02*
X83750000Y-121202381D01*
X83845238Y-121345238D01*
X83940476Y-121440476D01*
X84035714Y-121488095D01*
X95302381Y-90511905D02*
X94302381Y-90511905D01*
X94302381Y-90750000D01*
X94350000Y-90892858D01*
X94445238Y-90988096D01*
X94540476Y-91035715D01*
X94730952Y-91083334D01*
X94873810Y-91083334D01*
X95064286Y-91035715D01*
X95159524Y-90988096D01*
X95254762Y-90892858D01*
X95302381Y-90750000D01*
X95302381Y-90511905D01*
X94397619Y-91464286D02*
X94350000Y-91511905D01*
X94302381Y-91607143D01*
X94302381Y-91845239D01*
X94350000Y-91940477D01*
X94397619Y-91988096D01*
X94492857Y-92035715D01*
X94588095Y-92035715D01*
X94730952Y-91988096D01*
X95302381Y-91416667D01*
X95302381Y-92035715D01*
X93238095Y-94352381D02*
X93238095Y-93352381D01*
X93000000Y-93352381D01*
X92857142Y-93400000D01*
X92761904Y-93495238D01*
X92714285Y-93590476D01*
X92666666Y-93780952D01*
X92666666Y-93923810D01*
X92714285Y-94114286D01*
X92761904Y-94209524D01*
X92857142Y-94304762D01*
X93000000Y-94352381D01*
X93238095Y-94352381D01*
X92333333Y-93352381D02*
X91714285Y-93352381D01*
X92047619Y-93733333D01*
X91904761Y-93733333D01*
X91809523Y-93780952D01*
X91761904Y-93828571D01*
X91714285Y-93923810D01*
X91714285Y-94161905D01*
X91761904Y-94257143D01*
X91809523Y-94304762D01*
X91904761Y-94352381D01*
X92190476Y-94352381D01*
X92285714Y-94304762D01*
X92333333Y-94257143D01*
X91252381Y-127161905D02*
X90252381Y-127161905D01*
X90252381Y-127400000D01*
X90300000Y-127542858D01*
X90395238Y-127638096D01*
X90490476Y-127685715D01*
X90680952Y-127733334D01*
X90823810Y-127733334D01*
X91014286Y-127685715D01*
X91109524Y-127638096D01*
X91204762Y-127542858D01*
X91252381Y-127400000D01*
X91252381Y-127161905D01*
X90585714Y-128590477D02*
X91252381Y-128590477D01*
X90204762Y-128352381D02*
X90919048Y-128114286D01*
X90919048Y-128733334D01*
X99238095Y-132352381D02*
X99238095Y-131352381D01*
X99000000Y-131352381D01*
X98857142Y-131400000D01*
X98761904Y-131495238D01*
X98714285Y-131590476D01*
X98666666Y-131780952D01*
X98666666Y-131923810D01*
X98714285Y-132114286D01*
X98761904Y-132209524D01*
X98857142Y-132304762D01*
X99000000Y-132352381D01*
X99238095Y-132352381D01*
X97761904Y-131352381D02*
X98238095Y-131352381D01*
X98285714Y-131828571D01*
X98238095Y-131780952D01*
X98142857Y-131733333D01*
X97904761Y-131733333D01*
X97809523Y-131780952D01*
X97761904Y-131828571D01*
X97714285Y-131923810D01*
X97714285Y-132161905D01*
X97761904Y-132257143D01*
X97809523Y-132304762D01*
X97904761Y-132352381D01*
X98142857Y-132352381D01*
X98238095Y-132304762D01*
X98285714Y-132257143D01*
X90238095Y-152352381D02*
X90238095Y-151352381D01*
X90000000Y-151352381D01*
X89857142Y-151400000D01*
X89761904Y-151495238D01*
X89714285Y-151590476D01*
X89666666Y-151780952D01*
X89666666Y-151923810D01*
X89714285Y-152114286D01*
X89761904Y-152209524D01*
X89857142Y-152304762D01*
X90000000Y-152352381D01*
X90238095Y-152352381D01*
X88809523Y-151352381D02*
X89000000Y-151352381D01*
X89095238Y-151400000D01*
X89142857Y-151447619D01*
X89238095Y-151590476D01*
X89285714Y-151780952D01*
X89285714Y-152161905D01*
X89238095Y-152257143D01*
X89190476Y-152304762D01*
X89095238Y-152352381D01*
X88904761Y-152352381D01*
X88809523Y-152304762D01*
X88761904Y-152257143D01*
X88714285Y-152161905D01*
X88714285Y-151923810D01*
X88761904Y-151828571D01*
X88809523Y-151780952D01*
X88904761Y-151733333D01*
X89095238Y-151733333D01*
X89190476Y-151780952D01*
X89238095Y-151828571D01*
X89285714Y-151923810D01*
X115052381Y-90261905D02*
X114052381Y-90261905D01*
X114052381Y-90500000D01*
X114100000Y-90642858D01*
X114195238Y-90738096D01*
X114290476Y-90785715D01*
X114480952Y-90833334D01*
X114623810Y-90833334D01*
X114814286Y-90785715D01*
X114909524Y-90738096D01*
X115004762Y-90642858D01*
X115052381Y-90500000D01*
X115052381Y-90261905D01*
X114052381Y-91166667D02*
X114052381Y-91833334D01*
X115052381Y-91404762D01*
X117238095Y-94352381D02*
X117238095Y-93352381D01*
X117000000Y-93352381D01*
X116857142Y-93400000D01*
X116761904Y-93495238D01*
X116714285Y-93590476D01*
X116666666Y-93780952D01*
X116666666Y-93923810D01*
X116714285Y-94114286D01*
X116761904Y-94209524D01*
X116857142Y-94304762D01*
X117000000Y-94352381D01*
X117238095Y-94352381D01*
X116095238Y-93780952D02*
X116190476Y-93733333D01*
X116238095Y-93685714D01*
X116285714Y-93590476D01*
X116285714Y-93542857D01*
X116238095Y-93447619D01*
X116190476Y-93400000D01*
X116095238Y-93352381D01*
X115904761Y-93352381D01*
X115809523Y-93400000D01*
X115761904Y-93447619D01*
X115714285Y-93542857D01*
X115714285Y-93590476D01*
X115761904Y-93685714D01*
X115809523Y-93733333D01*
X115904761Y-93780952D01*
X116095238Y-93780952D01*
X116190476Y-93828571D01*
X116238095Y-93876190D01*
X116285714Y-93971429D01*
X116285714Y-94161905D01*
X116238095Y-94257143D01*
X116190476Y-94304762D01*
X116095238Y-94352381D01*
X115904761Y-94352381D01*
X115809523Y-94304762D01*
X115761904Y-94257143D01*
X115714285Y-94161905D01*
X115714285Y-93971429D01*
X115761904Y-93876190D01*
X115809523Y-93828571D01*
X115904761Y-93780952D01*
X129288095Y-116702381D02*
X129288095Y-115702381D01*
X129050000Y-115702381D01*
X128907142Y-115750000D01*
X128811904Y-115845238D01*
X128764285Y-115940476D01*
X128716666Y-116130952D01*
X128716666Y-116273810D01*
X128764285Y-116464286D01*
X128811904Y-116559524D01*
X128907142Y-116654762D01*
X129050000Y-116702381D01*
X129288095Y-116702381D01*
X128240476Y-116702381D02*
X128050000Y-116702381D01*
X127954761Y-116654762D01*
X127907142Y-116607143D01*
X127811904Y-116464286D01*
X127764285Y-116273810D01*
X127764285Y-115892857D01*
X127811904Y-115797619D01*
X127859523Y-115750000D01*
X127954761Y-115702381D01*
X128145238Y-115702381D01*
X128240476Y-115750000D01*
X128288095Y-115797619D01*
X128335714Y-115892857D01*
X128335714Y-116130952D01*
X128288095Y-116226190D01*
X128240476Y-116273810D01*
X128145238Y-116321429D01*
X127954761Y-116321429D01*
X127859523Y-116273810D01*
X127811904Y-116226190D01*
X127764285Y-116130952D01*
X131714286Y-132352381D02*
X131714286Y-131352381D01*
X131476191Y-131352381D01*
X131333333Y-131400000D01*
X131238095Y-131495238D01*
X131190476Y-131590476D01*
X131142857Y-131780952D01*
X131142857Y-131923810D01*
X131190476Y-132114286D01*
X131238095Y-132209524D01*
X131333333Y-132304762D01*
X131476191Y-132352381D01*
X131714286Y-132352381D01*
X130190476Y-132352381D02*
X130761905Y-132352381D01*
X130476191Y-132352381D02*
X130476191Y-131352381D01*
X130571429Y-131495238D01*
X130666667Y-131590476D01*
X130761905Y-131638095D01*
X129571429Y-131352381D02*
X129476190Y-131352381D01*
X129380952Y-131400000D01*
X129333333Y-131447619D01*
X129285714Y-131542857D01*
X129238095Y-131733333D01*
X129238095Y-131971429D01*
X129285714Y-132161905D01*
X129333333Y-132257143D01*
X129380952Y-132304762D01*
X129476190Y-132352381D01*
X129571429Y-132352381D01*
X129666667Y-132304762D01*
X129714286Y-132257143D01*
X129761905Y-132161905D01*
X129809524Y-131971429D01*
X129809524Y-131733333D01*
X129761905Y-131542857D01*
X129714286Y-131447619D01*
X129666667Y-131400000D01*
X129571429Y-131352381D01*
X114714286Y-152352381D02*
X114714286Y-151352381D01*
X114476191Y-151352381D01*
X114333333Y-151400000D01*
X114238095Y-151495238D01*
X114190476Y-151590476D01*
X114142857Y-151780952D01*
X114142857Y-151923810D01*
X114190476Y-152114286D01*
X114238095Y-152209524D01*
X114333333Y-152304762D01*
X114476191Y-152352381D01*
X114714286Y-152352381D01*
X113190476Y-152352381D02*
X113761905Y-152352381D01*
X113476191Y-152352381D02*
X113476191Y-151352381D01*
X113571429Y-151495238D01*
X113666667Y-151590476D01*
X113761905Y-151638095D01*
X112238095Y-152352381D02*
X112809524Y-152352381D01*
X112523810Y-152352381D02*
X112523810Y-151352381D01*
X112619048Y-151495238D01*
X112714286Y-151590476D01*
X112809524Y-151638095D01*
X126714286Y-75352381D02*
X126714286Y-74352381D01*
X126476191Y-74352381D01*
X126333333Y-74400000D01*
X126238095Y-74495238D01*
X126190476Y-74590476D01*
X126142857Y-74780952D01*
X126142857Y-74923810D01*
X126190476Y-75114286D01*
X126238095Y-75209524D01*
X126333333Y-75304762D01*
X126476191Y-75352381D01*
X126714286Y-75352381D01*
X125190476Y-75352381D02*
X125761905Y-75352381D01*
X125476191Y-75352381D02*
X125476191Y-74352381D01*
X125571429Y-74495238D01*
X125666667Y-74590476D01*
X125761905Y-74638095D01*
X124809524Y-74447619D02*
X124761905Y-74400000D01*
X124666667Y-74352381D01*
X124428571Y-74352381D01*
X124333333Y-74400000D01*
X124285714Y-74447619D01*
X124238095Y-74542857D01*
X124238095Y-74638095D01*
X124285714Y-74780952D01*
X124857143Y-75352381D01*
X124238095Y-75352381D01*
X136714286Y-94352381D02*
X136714286Y-93352381D01*
X136476191Y-93352381D01*
X136333333Y-93400000D01*
X136238095Y-93495238D01*
X136190476Y-93590476D01*
X136142857Y-93780952D01*
X136142857Y-93923810D01*
X136190476Y-94114286D01*
X136238095Y-94209524D01*
X136333333Y-94304762D01*
X136476191Y-94352381D01*
X136714286Y-94352381D01*
X135190476Y-94352381D02*
X135761905Y-94352381D01*
X135476191Y-94352381D02*
X135476191Y-93352381D01*
X135571429Y-93495238D01*
X135666667Y-93590476D01*
X135761905Y-93638095D01*
X134857143Y-93352381D02*
X134238095Y-93352381D01*
X134571429Y-93733333D01*
X134428571Y-93733333D01*
X134333333Y-93780952D01*
X134285714Y-93828571D01*
X134238095Y-93923810D01*
X134238095Y-94161905D01*
X134285714Y-94257143D01*
X134333333Y-94304762D01*
X134428571Y-94352381D01*
X134714286Y-94352381D01*
X134809524Y-94304762D01*
X134857143Y-94257143D01*
X140714286Y-113352381D02*
X140714286Y-112352381D01*
X140476191Y-112352381D01*
X140333333Y-112400000D01*
X140238095Y-112495238D01*
X140190476Y-112590476D01*
X140142857Y-112780952D01*
X140142857Y-112923810D01*
X140190476Y-113114286D01*
X140238095Y-113209524D01*
X140333333Y-113304762D01*
X140476191Y-113352381D01*
X140714286Y-113352381D01*
X139190476Y-113352381D02*
X139761905Y-113352381D01*
X139476191Y-113352381D02*
X139476191Y-112352381D01*
X139571429Y-112495238D01*
X139666667Y-112590476D01*
X139761905Y-112638095D01*
X138333333Y-112685714D02*
X138333333Y-113352381D01*
X138571429Y-112304762D02*
X138809524Y-113019048D01*
X138190476Y-113019048D01*
X150714286Y-132352381D02*
X150714286Y-131352381D01*
X150476191Y-131352381D01*
X150333333Y-131400000D01*
X150238095Y-131495238D01*
X150190476Y-131590476D01*
X150142857Y-131780952D01*
X150142857Y-131923810D01*
X150190476Y-132114286D01*
X150238095Y-132209524D01*
X150333333Y-132304762D01*
X150476191Y-132352381D01*
X150714286Y-132352381D01*
X149190476Y-132352381D02*
X149761905Y-132352381D01*
X149476191Y-132352381D02*
X149476191Y-131352381D01*
X149571429Y-131495238D01*
X149666667Y-131590476D01*
X149761905Y-131638095D01*
X148285714Y-131352381D02*
X148761905Y-131352381D01*
X148809524Y-131828571D01*
X148761905Y-131780952D01*
X148666667Y-131733333D01*
X148428571Y-131733333D01*
X148333333Y-131780952D01*
X148285714Y-131828571D01*
X148238095Y-131923810D01*
X148238095Y-132161905D01*
X148285714Y-132257143D01*
X148333333Y-132304762D01*
X148428571Y-132352381D01*
X148666667Y-132352381D01*
X148761905Y-132304762D01*
X148809524Y-132257143D01*
X138714286Y-151352381D02*
X138714286Y-150352381D01*
X138476191Y-150352381D01*
X138333333Y-150400000D01*
X138238095Y-150495238D01*
X138190476Y-150590476D01*
X138142857Y-150780952D01*
X138142857Y-150923810D01*
X138190476Y-151114286D01*
X138238095Y-151209524D01*
X138333333Y-151304762D01*
X138476191Y-151352381D01*
X138714286Y-151352381D01*
X137190476Y-151352381D02*
X137761905Y-151352381D01*
X137476191Y-151352381D02*
X137476191Y-150352381D01*
X137571429Y-150495238D01*
X137666667Y-150590476D01*
X137761905Y-150638095D01*
X136333333Y-150352381D02*
X136523810Y-150352381D01*
X136619048Y-150400000D01*
X136666667Y-150447619D01*
X136761905Y-150590476D01*
X136809524Y-150780952D01*
X136809524Y-151161905D01*
X136761905Y-151257143D01*
X136714286Y-151304762D01*
X136619048Y-151352381D01*
X136428571Y-151352381D01*
X136333333Y-151304762D01*
X136285714Y-151257143D01*
X136238095Y-151161905D01*
X136238095Y-150923810D01*
X136285714Y-150828571D01*
X136333333Y-150780952D01*
X136428571Y-150733333D01*
X136619048Y-150733333D01*
X136714286Y-150780952D01*
X136761905Y-150828571D01*
X136809524Y-150923810D01*
X158714286Y-151352381D02*
X158714286Y-150352381D01*
X158476191Y-150352381D01*
X158333333Y-150400000D01*
X158238095Y-150495238D01*
X158190476Y-150590476D01*
X158142857Y-150780952D01*
X158142857Y-150923810D01*
X158190476Y-151114286D01*
X158238095Y-151209524D01*
X158333333Y-151304762D01*
X158476191Y-151352381D01*
X158714286Y-151352381D01*
X157190476Y-151352381D02*
X157761905Y-151352381D01*
X157476191Y-151352381D02*
X157476191Y-150352381D01*
X157571429Y-150495238D01*
X157666667Y-150590476D01*
X157761905Y-150638095D01*
X156857143Y-150352381D02*
X156190476Y-150352381D01*
X156619048Y-151352381D01*
X145714286Y-75352381D02*
X145714286Y-74352381D01*
X145476191Y-74352381D01*
X145333333Y-74400000D01*
X145238095Y-74495238D01*
X145190476Y-74590476D01*
X145142857Y-74780952D01*
X145142857Y-74923810D01*
X145190476Y-75114286D01*
X145238095Y-75209524D01*
X145333333Y-75304762D01*
X145476191Y-75352381D01*
X145714286Y-75352381D01*
X144190476Y-75352381D02*
X144761905Y-75352381D01*
X144476191Y-75352381D02*
X144476191Y-74352381D01*
X144571429Y-74495238D01*
X144666667Y-74590476D01*
X144761905Y-74638095D01*
X143619048Y-74780952D02*
X143714286Y-74733333D01*
X143761905Y-74685714D01*
X143809524Y-74590476D01*
X143809524Y-74542857D01*
X143761905Y-74447619D01*
X143714286Y-74400000D01*
X143619048Y-74352381D01*
X143428571Y-74352381D01*
X143333333Y-74400000D01*
X143285714Y-74447619D01*
X143238095Y-74542857D01*
X143238095Y-74590476D01*
X143285714Y-74685714D01*
X143333333Y-74733333D01*
X143428571Y-74780952D01*
X143619048Y-74780952D01*
X143714286Y-74828571D01*
X143761905Y-74876190D01*
X143809524Y-74971429D01*
X143809524Y-75161905D01*
X143761905Y-75257143D01*
X143714286Y-75304762D01*
X143619048Y-75352381D01*
X143428571Y-75352381D01*
X143333333Y-75304762D01*
X143285714Y-75257143D01*
X143238095Y-75161905D01*
X143238095Y-74971429D01*
X143285714Y-74876190D01*
X143333333Y-74828571D01*
X143428571Y-74780952D01*
X155714286Y-94352381D02*
X155714286Y-93352381D01*
X155476191Y-93352381D01*
X155333333Y-93400000D01*
X155238095Y-93495238D01*
X155190476Y-93590476D01*
X155142857Y-93780952D01*
X155142857Y-93923810D01*
X155190476Y-94114286D01*
X155238095Y-94209524D01*
X155333333Y-94304762D01*
X155476191Y-94352381D01*
X155714286Y-94352381D01*
X154190476Y-94352381D02*
X154761905Y-94352381D01*
X154476191Y-94352381D02*
X154476191Y-93352381D01*
X154571429Y-93495238D01*
X154666667Y-93590476D01*
X154761905Y-93638095D01*
X153714286Y-94352381D02*
X153523810Y-94352381D01*
X153428571Y-94304762D01*
X153380952Y-94257143D01*
X153285714Y-94114286D01*
X153238095Y-93923810D01*
X153238095Y-93542857D01*
X153285714Y-93447619D01*
X153333333Y-93400000D01*
X153428571Y-93352381D01*
X153619048Y-93352381D01*
X153714286Y-93400000D01*
X153761905Y-93447619D01*
X153809524Y-93542857D01*
X153809524Y-93780952D01*
X153761905Y-93876190D01*
X153714286Y-93923810D01*
X153619048Y-93971429D01*
X153428571Y-93971429D01*
X153333333Y-93923810D01*
X153285714Y-93876190D01*
X153238095Y-93780952D01*
X159714286Y-113352381D02*
X159714286Y-112352381D01*
X159476191Y-112352381D01*
X159333333Y-112400000D01*
X159238095Y-112495238D01*
X159190476Y-112590476D01*
X159142857Y-112780952D01*
X159142857Y-112923810D01*
X159190476Y-113114286D01*
X159238095Y-113209524D01*
X159333333Y-113304762D01*
X159476191Y-113352381D01*
X159714286Y-113352381D01*
X158761905Y-112447619D02*
X158714286Y-112400000D01*
X158619048Y-112352381D01*
X158380952Y-112352381D01*
X158285714Y-112400000D01*
X158238095Y-112447619D01*
X158190476Y-112542857D01*
X158190476Y-112638095D01*
X158238095Y-112780952D01*
X158809524Y-113352381D01*
X158190476Y-113352381D01*
X157571429Y-112352381D02*
X157476190Y-112352381D01*
X157380952Y-112400000D01*
X157333333Y-112447619D01*
X157285714Y-112542857D01*
X157238095Y-112733333D01*
X157238095Y-112971429D01*
X157285714Y-113161905D01*
X157333333Y-113257143D01*
X157380952Y-113304762D01*
X157476190Y-113352381D01*
X157571429Y-113352381D01*
X157666667Y-113304762D01*
X157714286Y-113257143D01*
X157761905Y-113161905D01*
X157809524Y-112971429D01*
X157809524Y-112733333D01*
X157761905Y-112542857D01*
X157714286Y-112447619D01*
X157666667Y-112400000D01*
X157571429Y-112352381D01*
X169714286Y-132352381D02*
X169714286Y-131352381D01*
X169476191Y-131352381D01*
X169333333Y-131400000D01*
X169238095Y-131495238D01*
X169190476Y-131590476D01*
X169142857Y-131780952D01*
X169142857Y-131923810D01*
X169190476Y-132114286D01*
X169238095Y-132209524D01*
X169333333Y-132304762D01*
X169476191Y-132352381D01*
X169714286Y-132352381D01*
X168761905Y-131447619D02*
X168714286Y-131400000D01*
X168619048Y-131352381D01*
X168380952Y-131352381D01*
X168285714Y-131400000D01*
X168238095Y-131447619D01*
X168190476Y-131542857D01*
X168190476Y-131638095D01*
X168238095Y-131780952D01*
X168809524Y-132352381D01*
X168190476Y-132352381D01*
X167238095Y-132352381D02*
X167809524Y-132352381D01*
X167523810Y-132352381D02*
X167523810Y-131352381D01*
X167619048Y-131495238D01*
X167714286Y-131590476D01*
X167809524Y-131638095D01*
X164714286Y-75352381D02*
X164714286Y-74352381D01*
X164476191Y-74352381D01*
X164333333Y-74400000D01*
X164238095Y-74495238D01*
X164190476Y-74590476D01*
X164142857Y-74780952D01*
X164142857Y-74923810D01*
X164190476Y-75114286D01*
X164238095Y-75209524D01*
X164333333Y-75304762D01*
X164476191Y-75352381D01*
X164714286Y-75352381D01*
X163761905Y-74447619D02*
X163714286Y-74400000D01*
X163619048Y-74352381D01*
X163380952Y-74352381D01*
X163285714Y-74400000D01*
X163238095Y-74447619D01*
X163190476Y-74542857D01*
X163190476Y-74638095D01*
X163238095Y-74780952D01*
X163809524Y-75352381D01*
X163190476Y-75352381D01*
X162809524Y-74447619D02*
X162761905Y-74400000D01*
X162666667Y-74352381D01*
X162428571Y-74352381D01*
X162333333Y-74400000D01*
X162285714Y-74447619D01*
X162238095Y-74542857D01*
X162238095Y-74638095D01*
X162285714Y-74780952D01*
X162857143Y-75352381D01*
X162238095Y-75352381D01*
X174714286Y-94352381D02*
X174714286Y-93352381D01*
X174476191Y-93352381D01*
X174333333Y-93400000D01*
X174238095Y-93495238D01*
X174190476Y-93590476D01*
X174142857Y-93780952D01*
X174142857Y-93923810D01*
X174190476Y-94114286D01*
X174238095Y-94209524D01*
X174333333Y-94304762D01*
X174476191Y-94352381D01*
X174714286Y-94352381D01*
X173761905Y-93447619D02*
X173714286Y-93400000D01*
X173619048Y-93352381D01*
X173380952Y-93352381D01*
X173285714Y-93400000D01*
X173238095Y-93447619D01*
X173190476Y-93542857D01*
X173190476Y-93638095D01*
X173238095Y-93780952D01*
X173809524Y-94352381D01*
X173190476Y-94352381D01*
X172857143Y-93352381D02*
X172238095Y-93352381D01*
X172571429Y-93733333D01*
X172428571Y-93733333D01*
X172333333Y-93780952D01*
X172285714Y-93828571D01*
X172238095Y-93923810D01*
X172238095Y-94161905D01*
X172285714Y-94257143D01*
X172333333Y-94304762D01*
X172428571Y-94352381D01*
X172714286Y-94352381D01*
X172809524Y-94304762D01*
X172857143Y-94257143D01*
X179714286Y-113352381D02*
X179714286Y-112352381D01*
X179476191Y-112352381D01*
X179333333Y-112400000D01*
X179238095Y-112495238D01*
X179190476Y-112590476D01*
X179142857Y-112780952D01*
X179142857Y-112923810D01*
X179190476Y-113114286D01*
X179238095Y-113209524D01*
X179333333Y-113304762D01*
X179476191Y-113352381D01*
X179714286Y-113352381D01*
X178761905Y-112447619D02*
X178714286Y-112400000D01*
X178619048Y-112352381D01*
X178380952Y-112352381D01*
X178285714Y-112400000D01*
X178238095Y-112447619D01*
X178190476Y-112542857D01*
X178190476Y-112638095D01*
X178238095Y-112780952D01*
X178809524Y-113352381D01*
X178190476Y-113352381D01*
X177333333Y-112685714D02*
X177333333Y-113352381D01*
X177571429Y-112304762D02*
X177809524Y-113019048D01*
X177190476Y-113019048D01*
X188714286Y-132352381D02*
X188714286Y-131352381D01*
X188476191Y-131352381D01*
X188333333Y-131400000D01*
X188238095Y-131495238D01*
X188190476Y-131590476D01*
X188142857Y-131780952D01*
X188142857Y-131923810D01*
X188190476Y-132114286D01*
X188238095Y-132209524D01*
X188333333Y-132304762D01*
X188476191Y-132352381D01*
X188714286Y-132352381D01*
X187761905Y-131447619D02*
X187714286Y-131400000D01*
X187619048Y-131352381D01*
X187380952Y-131352381D01*
X187285714Y-131400000D01*
X187238095Y-131447619D01*
X187190476Y-131542857D01*
X187190476Y-131638095D01*
X187238095Y-131780952D01*
X187809524Y-132352381D01*
X187190476Y-132352381D01*
X186285714Y-131352381D02*
X186761905Y-131352381D01*
X186809524Y-131828571D01*
X186761905Y-131780952D01*
X186666667Y-131733333D01*
X186428571Y-131733333D01*
X186333333Y-131780952D01*
X186285714Y-131828571D01*
X186238095Y-131923810D01*
X186238095Y-132161905D01*
X186285714Y-132257143D01*
X186333333Y-132304762D01*
X186428571Y-132352381D01*
X186666667Y-132352381D01*
X186761905Y-132304762D01*
X186809524Y-132257143D01*
X195714286Y-151352381D02*
X195714286Y-150352381D01*
X195476191Y-150352381D01*
X195333333Y-150400000D01*
X195238095Y-150495238D01*
X195190476Y-150590476D01*
X195142857Y-150780952D01*
X195142857Y-150923810D01*
X195190476Y-151114286D01*
X195238095Y-151209524D01*
X195333333Y-151304762D01*
X195476191Y-151352381D01*
X195714286Y-151352381D01*
X194761905Y-150447619D02*
X194714286Y-150400000D01*
X194619048Y-150352381D01*
X194380952Y-150352381D01*
X194285714Y-150400000D01*
X194238095Y-150447619D01*
X194190476Y-150542857D01*
X194190476Y-150638095D01*
X194238095Y-150780952D01*
X194809524Y-151352381D01*
X194190476Y-151352381D01*
X193333333Y-150352381D02*
X193523810Y-150352381D01*
X193619048Y-150400000D01*
X193666667Y-150447619D01*
X193761905Y-150590476D01*
X193809524Y-150780952D01*
X193809524Y-151161905D01*
X193761905Y-151257143D01*
X193714286Y-151304762D01*
X193619048Y-151352381D01*
X193428571Y-151352381D01*
X193333333Y-151304762D01*
X193285714Y-151257143D01*
X193238095Y-151161905D01*
X193238095Y-150923810D01*
X193285714Y-150828571D01*
X193333333Y-150780952D01*
X193428571Y-150733333D01*
X193619048Y-150733333D01*
X193714286Y-150780952D01*
X193761905Y-150828571D01*
X193809524Y-150923810D01*
X183714286Y-75352381D02*
X183714286Y-74352381D01*
X183476191Y-74352381D01*
X183333333Y-74400000D01*
X183238095Y-74495238D01*
X183190476Y-74590476D01*
X183142857Y-74780952D01*
X183142857Y-74923810D01*
X183190476Y-75114286D01*
X183238095Y-75209524D01*
X183333333Y-75304762D01*
X183476191Y-75352381D01*
X183714286Y-75352381D01*
X182761905Y-74447619D02*
X182714286Y-74400000D01*
X182619048Y-74352381D01*
X182380952Y-74352381D01*
X182285714Y-74400000D01*
X182238095Y-74447619D01*
X182190476Y-74542857D01*
X182190476Y-74638095D01*
X182238095Y-74780952D01*
X182809524Y-75352381D01*
X182190476Y-75352381D01*
X181857143Y-74352381D02*
X181190476Y-74352381D01*
X181619048Y-75352381D01*
X193714286Y-94352381D02*
X193714286Y-93352381D01*
X193476191Y-93352381D01*
X193333333Y-93400000D01*
X193238095Y-93495238D01*
X193190476Y-93590476D01*
X193142857Y-93780952D01*
X193142857Y-93923810D01*
X193190476Y-94114286D01*
X193238095Y-94209524D01*
X193333333Y-94304762D01*
X193476191Y-94352381D01*
X193714286Y-94352381D01*
X192761905Y-93447619D02*
X192714286Y-93400000D01*
X192619048Y-93352381D01*
X192380952Y-93352381D01*
X192285714Y-93400000D01*
X192238095Y-93447619D01*
X192190476Y-93542857D01*
X192190476Y-93638095D01*
X192238095Y-93780952D01*
X192809524Y-94352381D01*
X192190476Y-94352381D01*
X191619048Y-93780952D02*
X191714286Y-93733333D01*
X191761905Y-93685714D01*
X191809524Y-93590476D01*
X191809524Y-93542857D01*
X191761905Y-93447619D01*
X191714286Y-93400000D01*
X191619048Y-93352381D01*
X191428571Y-93352381D01*
X191333333Y-93400000D01*
X191285714Y-93447619D01*
X191238095Y-93542857D01*
X191238095Y-93590476D01*
X191285714Y-93685714D01*
X191333333Y-93733333D01*
X191428571Y-93780952D01*
X191619048Y-93780952D01*
X191714286Y-93828571D01*
X191761905Y-93876190D01*
X191809524Y-93971429D01*
X191809524Y-94161905D01*
X191761905Y-94257143D01*
X191714286Y-94304762D01*
X191619048Y-94352381D01*
X191428571Y-94352381D01*
X191333333Y-94304762D01*
X191285714Y-94257143D01*
X191238095Y-94161905D01*
X191238095Y-93971429D01*
X191285714Y-93876190D01*
X191333333Y-93828571D01*
X191428571Y-93780952D01*
X198714286Y-113352381D02*
X198714286Y-112352381D01*
X198476191Y-112352381D01*
X198333333Y-112400000D01*
X198238095Y-112495238D01*
X198190476Y-112590476D01*
X198142857Y-112780952D01*
X198142857Y-112923810D01*
X198190476Y-113114286D01*
X198238095Y-113209524D01*
X198333333Y-113304762D01*
X198476191Y-113352381D01*
X198714286Y-113352381D01*
X197761905Y-112447619D02*
X197714286Y-112400000D01*
X197619048Y-112352381D01*
X197380952Y-112352381D01*
X197285714Y-112400000D01*
X197238095Y-112447619D01*
X197190476Y-112542857D01*
X197190476Y-112638095D01*
X197238095Y-112780952D01*
X197809524Y-113352381D01*
X197190476Y-113352381D01*
X196714286Y-113352381D02*
X196523810Y-113352381D01*
X196428571Y-113304762D01*
X196380952Y-113257143D01*
X196285714Y-113114286D01*
X196238095Y-112923810D01*
X196238095Y-112542857D01*
X196285714Y-112447619D01*
X196333333Y-112400000D01*
X196428571Y-112352381D01*
X196619048Y-112352381D01*
X196714286Y-112400000D01*
X196761905Y-112447619D01*
X196809524Y-112542857D01*
X196809524Y-112780952D01*
X196761905Y-112876190D01*
X196714286Y-112923810D01*
X196619048Y-112971429D01*
X196428571Y-112971429D01*
X196333333Y-112923810D01*
X196285714Y-112876190D01*
X196238095Y-112780952D01*
X206714286Y-132352381D02*
X206714286Y-131352381D01*
X206476191Y-131352381D01*
X206333333Y-131400000D01*
X206238095Y-131495238D01*
X206190476Y-131590476D01*
X206142857Y-131780952D01*
X206142857Y-131923810D01*
X206190476Y-132114286D01*
X206238095Y-132209524D01*
X206333333Y-132304762D01*
X206476191Y-132352381D01*
X206714286Y-132352381D01*
X205809524Y-131352381D02*
X205190476Y-131352381D01*
X205523810Y-131733333D01*
X205380952Y-131733333D01*
X205285714Y-131780952D01*
X205238095Y-131828571D01*
X205190476Y-131923810D01*
X205190476Y-132161905D01*
X205238095Y-132257143D01*
X205285714Y-132304762D01*
X205380952Y-132352381D01*
X205666667Y-132352381D01*
X205761905Y-132304762D01*
X205809524Y-132257143D01*
X204571429Y-131352381D02*
X204476190Y-131352381D01*
X204380952Y-131400000D01*
X204333333Y-131447619D01*
X204285714Y-131542857D01*
X204238095Y-131733333D01*
X204238095Y-131971429D01*
X204285714Y-132161905D01*
X204333333Y-132257143D01*
X204380952Y-132304762D01*
X204476190Y-132352381D01*
X204571429Y-132352381D01*
X204666667Y-132304762D01*
X204714286Y-132257143D01*
X204761905Y-132161905D01*
X204809524Y-131971429D01*
X204809524Y-131733333D01*
X204761905Y-131542857D01*
X204714286Y-131447619D01*
X204666667Y-131400000D01*
X204571429Y-131352381D01*
X246714286Y-151352381D02*
X246714286Y-150352381D01*
X246476191Y-150352381D01*
X246333333Y-150400000D01*
X246238095Y-150495238D01*
X246190476Y-150590476D01*
X246142857Y-150780952D01*
X246142857Y-150923810D01*
X246190476Y-151114286D01*
X246238095Y-151209524D01*
X246333333Y-151304762D01*
X246476191Y-151352381D01*
X246714286Y-151352381D01*
X245809524Y-150352381D02*
X245190476Y-150352381D01*
X245523810Y-150733333D01*
X245380952Y-150733333D01*
X245285714Y-150780952D01*
X245238095Y-150828571D01*
X245190476Y-150923810D01*
X245190476Y-151161905D01*
X245238095Y-151257143D01*
X245285714Y-151304762D01*
X245380952Y-151352381D01*
X245666667Y-151352381D01*
X245761905Y-151304762D01*
X245809524Y-151257143D01*
X244238095Y-151352381D02*
X244809524Y-151352381D01*
X244523810Y-151352381D02*
X244523810Y-150352381D01*
X244619048Y-150495238D01*
X244714286Y-150590476D01*
X244809524Y-150638095D01*
X202714286Y-75352381D02*
X202714286Y-74352381D01*
X202476191Y-74352381D01*
X202333333Y-74400000D01*
X202238095Y-74495238D01*
X202190476Y-74590476D01*
X202142857Y-74780952D01*
X202142857Y-74923810D01*
X202190476Y-75114286D01*
X202238095Y-75209524D01*
X202333333Y-75304762D01*
X202476191Y-75352381D01*
X202714286Y-75352381D01*
X201809524Y-74352381D02*
X201190476Y-74352381D01*
X201523810Y-74733333D01*
X201380952Y-74733333D01*
X201285714Y-74780952D01*
X201238095Y-74828571D01*
X201190476Y-74923810D01*
X201190476Y-75161905D01*
X201238095Y-75257143D01*
X201285714Y-75304762D01*
X201380952Y-75352381D01*
X201666667Y-75352381D01*
X201761905Y-75304762D01*
X201809524Y-75257143D01*
X200809524Y-74447619D02*
X200761905Y-74400000D01*
X200666667Y-74352381D01*
X200428571Y-74352381D01*
X200333333Y-74400000D01*
X200285714Y-74447619D01*
X200238095Y-74542857D01*
X200238095Y-74638095D01*
X200285714Y-74780952D01*
X200857143Y-75352381D01*
X200238095Y-75352381D01*
X212714286Y-94352381D02*
X212714286Y-93352381D01*
X212476191Y-93352381D01*
X212333333Y-93400000D01*
X212238095Y-93495238D01*
X212190476Y-93590476D01*
X212142857Y-93780952D01*
X212142857Y-93923810D01*
X212190476Y-94114286D01*
X212238095Y-94209524D01*
X212333333Y-94304762D01*
X212476191Y-94352381D01*
X212714286Y-94352381D01*
X211809524Y-93352381D02*
X211190476Y-93352381D01*
X211523810Y-93733333D01*
X211380952Y-93733333D01*
X211285714Y-93780952D01*
X211238095Y-93828571D01*
X211190476Y-93923810D01*
X211190476Y-94161905D01*
X211238095Y-94257143D01*
X211285714Y-94304762D01*
X211380952Y-94352381D01*
X211666667Y-94352381D01*
X211761905Y-94304762D01*
X211809524Y-94257143D01*
X210857143Y-93352381D02*
X210238095Y-93352381D01*
X210571429Y-93733333D01*
X210428571Y-93733333D01*
X210333333Y-93780952D01*
X210285714Y-93828571D01*
X210238095Y-93923810D01*
X210238095Y-94161905D01*
X210285714Y-94257143D01*
X210333333Y-94304762D01*
X210428571Y-94352381D01*
X210714286Y-94352381D01*
X210809524Y-94304762D01*
X210857143Y-94257143D01*
X216714286Y-113352381D02*
X216714286Y-112352381D01*
X216476191Y-112352381D01*
X216333333Y-112400000D01*
X216238095Y-112495238D01*
X216190476Y-112590476D01*
X216142857Y-112780952D01*
X216142857Y-112923810D01*
X216190476Y-113114286D01*
X216238095Y-113209524D01*
X216333333Y-113304762D01*
X216476191Y-113352381D01*
X216714286Y-113352381D01*
X215809524Y-112352381D02*
X215190476Y-112352381D01*
X215523810Y-112733333D01*
X215380952Y-112733333D01*
X215285714Y-112780952D01*
X215238095Y-112828571D01*
X215190476Y-112923810D01*
X215190476Y-113161905D01*
X215238095Y-113257143D01*
X215285714Y-113304762D01*
X215380952Y-113352381D01*
X215666667Y-113352381D01*
X215761905Y-113304762D01*
X215809524Y-113257143D01*
X214333333Y-112685714D02*
X214333333Y-113352381D01*
X214571429Y-112304762D02*
X214809524Y-113019048D01*
X214190476Y-113019048D01*
X226714286Y-132352381D02*
X226714286Y-131352381D01*
X226476191Y-131352381D01*
X226333333Y-131400000D01*
X226238095Y-131495238D01*
X226190476Y-131590476D01*
X226142857Y-131780952D01*
X226142857Y-131923810D01*
X226190476Y-132114286D01*
X226238095Y-132209524D01*
X226333333Y-132304762D01*
X226476191Y-132352381D01*
X226714286Y-132352381D01*
X225809524Y-131352381D02*
X225190476Y-131352381D01*
X225523810Y-131733333D01*
X225380952Y-131733333D01*
X225285714Y-131780952D01*
X225238095Y-131828571D01*
X225190476Y-131923810D01*
X225190476Y-132161905D01*
X225238095Y-132257143D01*
X225285714Y-132304762D01*
X225380952Y-132352381D01*
X225666667Y-132352381D01*
X225761905Y-132304762D01*
X225809524Y-132257143D01*
X224285714Y-131352381D02*
X224761905Y-131352381D01*
X224809524Y-131828571D01*
X224761905Y-131780952D01*
X224666667Y-131733333D01*
X224428571Y-131733333D01*
X224333333Y-131780952D01*
X224285714Y-131828571D01*
X224238095Y-131923810D01*
X224238095Y-132161905D01*
X224285714Y-132257143D01*
X224333333Y-132304762D01*
X224428571Y-132352381D01*
X224666667Y-132352381D01*
X224761905Y-132304762D01*
X224809524Y-132257143D01*
X285714286Y-151352381D02*
X285714286Y-150352381D01*
X285476191Y-150352381D01*
X285333333Y-150400000D01*
X285238095Y-150495238D01*
X285190476Y-150590476D01*
X285142857Y-150780952D01*
X285142857Y-150923810D01*
X285190476Y-151114286D01*
X285238095Y-151209524D01*
X285333333Y-151304762D01*
X285476191Y-151352381D01*
X285714286Y-151352381D01*
X284809524Y-150352381D02*
X284190476Y-150352381D01*
X284523810Y-150733333D01*
X284380952Y-150733333D01*
X284285714Y-150780952D01*
X284238095Y-150828571D01*
X284190476Y-150923810D01*
X284190476Y-151161905D01*
X284238095Y-151257143D01*
X284285714Y-151304762D01*
X284380952Y-151352381D01*
X284666667Y-151352381D01*
X284761905Y-151304762D01*
X284809524Y-151257143D01*
X283333333Y-150352381D02*
X283523810Y-150352381D01*
X283619048Y-150400000D01*
X283666667Y-150447619D01*
X283761905Y-150590476D01*
X283809524Y-150780952D01*
X283809524Y-151161905D01*
X283761905Y-151257143D01*
X283714286Y-151304762D01*
X283619048Y-151352381D01*
X283428571Y-151352381D01*
X283333333Y-151304762D01*
X283285714Y-151257143D01*
X283238095Y-151161905D01*
X283238095Y-150923810D01*
X283285714Y-150828571D01*
X283333333Y-150780952D01*
X283428571Y-150733333D01*
X283619048Y-150733333D01*
X283714286Y-150780952D01*
X283761905Y-150828571D01*
X283809524Y-150923810D01*
X221714286Y-75352381D02*
X221714286Y-74352381D01*
X221476191Y-74352381D01*
X221333333Y-74400000D01*
X221238095Y-74495238D01*
X221190476Y-74590476D01*
X221142857Y-74780952D01*
X221142857Y-74923810D01*
X221190476Y-75114286D01*
X221238095Y-75209524D01*
X221333333Y-75304762D01*
X221476191Y-75352381D01*
X221714286Y-75352381D01*
X220809524Y-74352381D02*
X220190476Y-74352381D01*
X220523810Y-74733333D01*
X220380952Y-74733333D01*
X220285714Y-74780952D01*
X220238095Y-74828571D01*
X220190476Y-74923810D01*
X220190476Y-75161905D01*
X220238095Y-75257143D01*
X220285714Y-75304762D01*
X220380952Y-75352381D01*
X220666667Y-75352381D01*
X220761905Y-75304762D01*
X220809524Y-75257143D01*
X219857143Y-74352381D02*
X219190476Y-74352381D01*
X219619048Y-75352381D01*
X231714286Y-94352381D02*
X231714286Y-93352381D01*
X231476191Y-93352381D01*
X231333333Y-93400000D01*
X231238095Y-93495238D01*
X231190476Y-93590476D01*
X231142857Y-93780952D01*
X231142857Y-93923810D01*
X231190476Y-94114286D01*
X231238095Y-94209524D01*
X231333333Y-94304762D01*
X231476191Y-94352381D01*
X231714286Y-94352381D01*
X230809524Y-93352381D02*
X230190476Y-93352381D01*
X230523810Y-93733333D01*
X230380952Y-93733333D01*
X230285714Y-93780952D01*
X230238095Y-93828571D01*
X230190476Y-93923810D01*
X230190476Y-94161905D01*
X230238095Y-94257143D01*
X230285714Y-94304762D01*
X230380952Y-94352381D01*
X230666667Y-94352381D01*
X230761905Y-94304762D01*
X230809524Y-94257143D01*
X229619048Y-93780952D02*
X229714286Y-93733333D01*
X229761905Y-93685714D01*
X229809524Y-93590476D01*
X229809524Y-93542857D01*
X229761905Y-93447619D01*
X229714286Y-93400000D01*
X229619048Y-93352381D01*
X229428571Y-93352381D01*
X229333333Y-93400000D01*
X229285714Y-93447619D01*
X229238095Y-93542857D01*
X229238095Y-93590476D01*
X229285714Y-93685714D01*
X229333333Y-93733333D01*
X229428571Y-93780952D01*
X229619048Y-93780952D01*
X229714286Y-93828571D01*
X229761905Y-93876190D01*
X229809524Y-93971429D01*
X229809524Y-94161905D01*
X229761905Y-94257143D01*
X229714286Y-94304762D01*
X229619048Y-94352381D01*
X229428571Y-94352381D01*
X229333333Y-94304762D01*
X229285714Y-94257143D01*
X229238095Y-94161905D01*
X229238095Y-93971429D01*
X229285714Y-93876190D01*
X229333333Y-93828571D01*
X229428571Y-93780952D01*
X235714286Y-113352381D02*
X235714286Y-112352381D01*
X235476191Y-112352381D01*
X235333333Y-112400000D01*
X235238095Y-112495238D01*
X235190476Y-112590476D01*
X235142857Y-112780952D01*
X235142857Y-112923810D01*
X235190476Y-113114286D01*
X235238095Y-113209524D01*
X235333333Y-113304762D01*
X235476191Y-113352381D01*
X235714286Y-113352381D01*
X234809524Y-112352381D02*
X234190476Y-112352381D01*
X234523810Y-112733333D01*
X234380952Y-112733333D01*
X234285714Y-112780952D01*
X234238095Y-112828571D01*
X234190476Y-112923810D01*
X234190476Y-113161905D01*
X234238095Y-113257143D01*
X234285714Y-113304762D01*
X234380952Y-113352381D01*
X234666667Y-113352381D01*
X234761905Y-113304762D01*
X234809524Y-113257143D01*
X233714286Y-113352381D02*
X233523810Y-113352381D01*
X233428571Y-113304762D01*
X233380952Y-113257143D01*
X233285714Y-113114286D01*
X233238095Y-112923810D01*
X233238095Y-112542857D01*
X233285714Y-112447619D01*
X233333333Y-112400000D01*
X233428571Y-112352381D01*
X233619048Y-112352381D01*
X233714286Y-112400000D01*
X233761905Y-112447619D01*
X233809524Y-112542857D01*
X233809524Y-112780952D01*
X233761905Y-112876190D01*
X233714286Y-112923810D01*
X233619048Y-112971429D01*
X233428571Y-112971429D01*
X233333333Y-112923810D01*
X233285714Y-112876190D01*
X233238095Y-112780952D01*
X245714286Y-132352381D02*
X245714286Y-131352381D01*
X245476191Y-131352381D01*
X245333333Y-131400000D01*
X245238095Y-131495238D01*
X245190476Y-131590476D01*
X245142857Y-131780952D01*
X245142857Y-131923810D01*
X245190476Y-132114286D01*
X245238095Y-132209524D01*
X245333333Y-132304762D01*
X245476191Y-132352381D01*
X245714286Y-132352381D01*
X244285714Y-131685714D02*
X244285714Y-132352381D01*
X244523810Y-131304762D02*
X244761905Y-132019048D01*
X244142857Y-132019048D01*
X243571429Y-131352381D02*
X243476190Y-131352381D01*
X243380952Y-131400000D01*
X243333333Y-131447619D01*
X243285714Y-131542857D01*
X243238095Y-131733333D01*
X243238095Y-131971429D01*
X243285714Y-132161905D01*
X243333333Y-132257143D01*
X243380952Y-132304762D01*
X243476190Y-132352381D01*
X243571429Y-132352381D01*
X243666667Y-132304762D01*
X243714286Y-132257143D01*
X243761905Y-132161905D01*
X243809524Y-131971429D01*
X243809524Y-131733333D01*
X243761905Y-131542857D01*
X243714286Y-131447619D01*
X243666667Y-131400000D01*
X243571429Y-131352381D01*
X304714286Y-151352381D02*
X304714286Y-150352381D01*
X304476191Y-150352381D01*
X304333333Y-150400000D01*
X304238095Y-150495238D01*
X304190476Y-150590476D01*
X304142857Y-150780952D01*
X304142857Y-150923810D01*
X304190476Y-151114286D01*
X304238095Y-151209524D01*
X304333333Y-151304762D01*
X304476191Y-151352381D01*
X304714286Y-151352381D01*
X303285714Y-150685714D02*
X303285714Y-151352381D01*
X303523810Y-150304762D02*
X303761905Y-151019048D01*
X303142857Y-151019048D01*
X302238095Y-151352381D02*
X302809524Y-151352381D01*
X302523810Y-151352381D02*
X302523810Y-150352381D01*
X302619048Y-150495238D01*
X302714286Y-150590476D01*
X302809524Y-150638095D01*
X240714286Y-75352381D02*
X240714286Y-74352381D01*
X240476191Y-74352381D01*
X240333333Y-74400000D01*
X240238095Y-74495238D01*
X240190476Y-74590476D01*
X240142857Y-74780952D01*
X240142857Y-74923810D01*
X240190476Y-75114286D01*
X240238095Y-75209524D01*
X240333333Y-75304762D01*
X240476191Y-75352381D01*
X240714286Y-75352381D01*
X239285714Y-74685714D02*
X239285714Y-75352381D01*
X239523810Y-74304762D02*
X239761905Y-75019048D01*
X239142857Y-75019048D01*
X238809524Y-74447619D02*
X238761905Y-74400000D01*
X238666667Y-74352381D01*
X238428571Y-74352381D01*
X238333333Y-74400000D01*
X238285714Y-74447619D01*
X238238095Y-74542857D01*
X238238095Y-74638095D01*
X238285714Y-74780952D01*
X238857143Y-75352381D01*
X238238095Y-75352381D01*
X250714286Y-94352381D02*
X250714286Y-93352381D01*
X250476191Y-93352381D01*
X250333333Y-93400000D01*
X250238095Y-93495238D01*
X250190476Y-93590476D01*
X250142857Y-93780952D01*
X250142857Y-93923810D01*
X250190476Y-94114286D01*
X250238095Y-94209524D01*
X250333333Y-94304762D01*
X250476191Y-94352381D01*
X250714286Y-94352381D01*
X249285714Y-93685714D02*
X249285714Y-94352381D01*
X249523810Y-93304762D02*
X249761905Y-94019048D01*
X249142857Y-94019048D01*
X248857143Y-93352381D02*
X248238095Y-93352381D01*
X248571429Y-93733333D01*
X248428571Y-93733333D01*
X248333333Y-93780952D01*
X248285714Y-93828571D01*
X248238095Y-93923810D01*
X248238095Y-94161905D01*
X248285714Y-94257143D01*
X248333333Y-94304762D01*
X248428571Y-94352381D01*
X248714286Y-94352381D01*
X248809524Y-94304762D01*
X248857143Y-94257143D01*
X254714286Y-113352381D02*
X254714286Y-112352381D01*
X254476191Y-112352381D01*
X254333333Y-112400000D01*
X254238095Y-112495238D01*
X254190476Y-112590476D01*
X254142857Y-112780952D01*
X254142857Y-112923810D01*
X254190476Y-113114286D01*
X254238095Y-113209524D01*
X254333333Y-113304762D01*
X254476191Y-113352381D01*
X254714286Y-113352381D01*
X253285714Y-112685714D02*
X253285714Y-113352381D01*
X253523810Y-112304762D02*
X253761905Y-113019048D01*
X253142857Y-113019048D01*
X252333333Y-112685714D02*
X252333333Y-113352381D01*
X252571429Y-112304762D02*
X252809524Y-113019048D01*
X252190476Y-113019048D01*
X264714286Y-132352381D02*
X264714286Y-131352381D01*
X264476191Y-131352381D01*
X264333333Y-131400000D01*
X264238095Y-131495238D01*
X264190476Y-131590476D01*
X264142857Y-131780952D01*
X264142857Y-131923810D01*
X264190476Y-132114286D01*
X264238095Y-132209524D01*
X264333333Y-132304762D01*
X264476191Y-132352381D01*
X264714286Y-132352381D01*
X263285714Y-131685714D02*
X263285714Y-132352381D01*
X263523810Y-131304762D02*
X263761905Y-132019048D01*
X263142857Y-132019048D01*
X262285714Y-131352381D02*
X262761905Y-131352381D01*
X262809524Y-131828571D01*
X262761905Y-131780952D01*
X262666667Y-131733333D01*
X262428571Y-131733333D01*
X262333333Y-131780952D01*
X262285714Y-131828571D01*
X262238095Y-131923810D01*
X262238095Y-132161905D01*
X262285714Y-132257143D01*
X262333333Y-132304762D01*
X262428571Y-132352381D01*
X262666667Y-132352381D01*
X262761905Y-132304762D01*
X262809524Y-132257143D01*
X326714286Y-152352381D02*
X326714286Y-151352381D01*
X326476191Y-151352381D01*
X326333333Y-151400000D01*
X326238095Y-151495238D01*
X326190476Y-151590476D01*
X326142857Y-151780952D01*
X326142857Y-151923810D01*
X326190476Y-152114286D01*
X326238095Y-152209524D01*
X326333333Y-152304762D01*
X326476191Y-152352381D01*
X326714286Y-152352381D01*
X325285714Y-151685714D02*
X325285714Y-152352381D01*
X325523810Y-151304762D02*
X325761905Y-152019048D01*
X325142857Y-152019048D01*
X324333333Y-151352381D02*
X324523810Y-151352381D01*
X324619048Y-151400000D01*
X324666667Y-151447619D01*
X324761905Y-151590476D01*
X324809524Y-151780952D01*
X324809524Y-152161905D01*
X324761905Y-152257143D01*
X324714286Y-152304762D01*
X324619048Y-152352381D01*
X324428571Y-152352381D01*
X324333333Y-152304762D01*
X324285714Y-152257143D01*
X324238095Y-152161905D01*
X324238095Y-151923810D01*
X324285714Y-151828571D01*
X324333333Y-151780952D01*
X324428571Y-151733333D01*
X324619048Y-151733333D01*
X324714286Y-151780952D01*
X324761905Y-151828571D01*
X324809524Y-151923810D01*
X259714286Y-75352381D02*
X259714286Y-74352381D01*
X259476191Y-74352381D01*
X259333333Y-74400000D01*
X259238095Y-74495238D01*
X259190476Y-74590476D01*
X259142857Y-74780952D01*
X259142857Y-74923810D01*
X259190476Y-75114286D01*
X259238095Y-75209524D01*
X259333333Y-75304762D01*
X259476191Y-75352381D01*
X259714286Y-75352381D01*
X258285714Y-74685714D02*
X258285714Y-75352381D01*
X258523810Y-74304762D02*
X258761905Y-75019048D01*
X258142857Y-75019048D01*
X257857143Y-74352381D02*
X257190476Y-74352381D01*
X257619048Y-75352381D01*
X269714286Y-94352381D02*
X269714286Y-93352381D01*
X269476191Y-93352381D01*
X269333333Y-93400000D01*
X269238095Y-93495238D01*
X269190476Y-93590476D01*
X269142857Y-93780952D01*
X269142857Y-93923810D01*
X269190476Y-94114286D01*
X269238095Y-94209524D01*
X269333333Y-94304762D01*
X269476191Y-94352381D01*
X269714286Y-94352381D01*
X268285714Y-93685714D02*
X268285714Y-94352381D01*
X268523810Y-93304762D02*
X268761905Y-94019048D01*
X268142857Y-94019048D01*
X267619048Y-93780952D02*
X267714286Y-93733333D01*
X267761905Y-93685714D01*
X267809524Y-93590476D01*
X267809524Y-93542857D01*
X267761905Y-93447619D01*
X267714286Y-93400000D01*
X267619048Y-93352381D01*
X267428571Y-93352381D01*
X267333333Y-93400000D01*
X267285714Y-93447619D01*
X267238095Y-93542857D01*
X267238095Y-93590476D01*
X267285714Y-93685714D01*
X267333333Y-93733333D01*
X267428571Y-93780952D01*
X267619048Y-93780952D01*
X267714286Y-93828571D01*
X267761905Y-93876190D01*
X267809524Y-93971429D01*
X267809524Y-94161905D01*
X267761905Y-94257143D01*
X267714286Y-94304762D01*
X267619048Y-94352381D01*
X267428571Y-94352381D01*
X267333333Y-94304762D01*
X267285714Y-94257143D01*
X267238095Y-94161905D01*
X267238095Y-93971429D01*
X267285714Y-93876190D01*
X267333333Y-93828571D01*
X267428571Y-93780952D01*
X273714286Y-113352381D02*
X273714286Y-112352381D01*
X273476191Y-112352381D01*
X273333333Y-112400000D01*
X273238095Y-112495238D01*
X273190476Y-112590476D01*
X273142857Y-112780952D01*
X273142857Y-112923810D01*
X273190476Y-113114286D01*
X273238095Y-113209524D01*
X273333333Y-113304762D01*
X273476191Y-113352381D01*
X273714286Y-113352381D01*
X272285714Y-112685714D02*
X272285714Y-113352381D01*
X272523810Y-112304762D02*
X272761905Y-113019048D01*
X272142857Y-113019048D01*
X271714286Y-113352381D02*
X271523810Y-113352381D01*
X271428571Y-113304762D01*
X271380952Y-113257143D01*
X271285714Y-113114286D01*
X271238095Y-112923810D01*
X271238095Y-112542857D01*
X271285714Y-112447619D01*
X271333333Y-112400000D01*
X271428571Y-112352381D01*
X271619048Y-112352381D01*
X271714286Y-112400000D01*
X271761905Y-112447619D01*
X271809524Y-112542857D01*
X271809524Y-112780952D01*
X271761905Y-112876190D01*
X271714286Y-112923810D01*
X271619048Y-112971429D01*
X271428571Y-112971429D01*
X271333333Y-112923810D01*
X271285714Y-112876190D01*
X271238095Y-112780952D01*
X283714286Y-132352381D02*
X283714286Y-131352381D01*
X283476191Y-131352381D01*
X283333333Y-131400000D01*
X283238095Y-131495238D01*
X283190476Y-131590476D01*
X283142857Y-131780952D01*
X283142857Y-131923810D01*
X283190476Y-132114286D01*
X283238095Y-132209524D01*
X283333333Y-132304762D01*
X283476191Y-132352381D01*
X283714286Y-132352381D01*
X282238095Y-131352381D02*
X282714286Y-131352381D01*
X282761905Y-131828571D01*
X282714286Y-131780952D01*
X282619048Y-131733333D01*
X282380952Y-131733333D01*
X282285714Y-131780952D01*
X282238095Y-131828571D01*
X282190476Y-131923810D01*
X282190476Y-132161905D01*
X282238095Y-132257143D01*
X282285714Y-132304762D01*
X282380952Y-132352381D01*
X282619048Y-132352381D01*
X282714286Y-132304762D01*
X282761905Y-132257143D01*
X281571429Y-131352381D02*
X281476190Y-131352381D01*
X281380952Y-131400000D01*
X281333333Y-131447619D01*
X281285714Y-131542857D01*
X281238095Y-131733333D01*
X281238095Y-131971429D01*
X281285714Y-132161905D01*
X281333333Y-132257143D01*
X281380952Y-132304762D01*
X281476190Y-132352381D01*
X281571429Y-132352381D01*
X281666667Y-132304762D01*
X281714286Y-132257143D01*
X281761905Y-132161905D01*
X281809524Y-131971429D01*
X281809524Y-131733333D01*
X281761905Y-131542857D01*
X281714286Y-131447619D01*
X281666667Y-131400000D01*
X281571429Y-131352381D01*
X350714286Y-152352381D02*
X350714286Y-151352381D01*
X350476191Y-151352381D01*
X350333333Y-151400000D01*
X350238095Y-151495238D01*
X350190476Y-151590476D01*
X350142857Y-151780952D01*
X350142857Y-151923810D01*
X350190476Y-152114286D01*
X350238095Y-152209524D01*
X350333333Y-152304762D01*
X350476191Y-152352381D01*
X350714286Y-152352381D01*
X349238095Y-151352381D02*
X349714286Y-151352381D01*
X349761905Y-151828571D01*
X349714286Y-151780952D01*
X349619048Y-151733333D01*
X349380952Y-151733333D01*
X349285714Y-151780952D01*
X349238095Y-151828571D01*
X349190476Y-151923810D01*
X349190476Y-152161905D01*
X349238095Y-152257143D01*
X349285714Y-152304762D01*
X349380952Y-152352381D01*
X349619048Y-152352381D01*
X349714286Y-152304762D01*
X349761905Y-152257143D01*
X348238095Y-152352381D02*
X348809524Y-152352381D01*
X348523810Y-152352381D02*
X348523810Y-151352381D01*
X348619048Y-151495238D01*
X348714286Y-151590476D01*
X348809524Y-151638095D01*
X278714286Y-75352381D02*
X278714286Y-74352381D01*
X278476191Y-74352381D01*
X278333333Y-74400000D01*
X278238095Y-74495238D01*
X278190476Y-74590476D01*
X278142857Y-74780952D01*
X278142857Y-74923810D01*
X278190476Y-75114286D01*
X278238095Y-75209524D01*
X278333333Y-75304762D01*
X278476191Y-75352381D01*
X278714286Y-75352381D01*
X277238095Y-74352381D02*
X277714286Y-74352381D01*
X277761905Y-74828571D01*
X277714286Y-74780952D01*
X277619048Y-74733333D01*
X277380952Y-74733333D01*
X277285714Y-74780952D01*
X277238095Y-74828571D01*
X277190476Y-74923810D01*
X277190476Y-75161905D01*
X277238095Y-75257143D01*
X277285714Y-75304762D01*
X277380952Y-75352381D01*
X277619048Y-75352381D01*
X277714286Y-75304762D01*
X277761905Y-75257143D01*
X276809524Y-74447619D02*
X276761905Y-74400000D01*
X276666667Y-74352381D01*
X276428571Y-74352381D01*
X276333333Y-74400000D01*
X276285714Y-74447619D01*
X276238095Y-74542857D01*
X276238095Y-74638095D01*
X276285714Y-74780952D01*
X276857143Y-75352381D01*
X276238095Y-75352381D01*
X287714286Y-94352381D02*
X287714286Y-93352381D01*
X287476191Y-93352381D01*
X287333333Y-93400000D01*
X287238095Y-93495238D01*
X287190476Y-93590476D01*
X287142857Y-93780952D01*
X287142857Y-93923810D01*
X287190476Y-94114286D01*
X287238095Y-94209524D01*
X287333333Y-94304762D01*
X287476191Y-94352381D01*
X287714286Y-94352381D01*
X286238095Y-93352381D02*
X286714286Y-93352381D01*
X286761905Y-93828571D01*
X286714286Y-93780952D01*
X286619048Y-93733333D01*
X286380952Y-93733333D01*
X286285714Y-93780952D01*
X286238095Y-93828571D01*
X286190476Y-93923810D01*
X286190476Y-94161905D01*
X286238095Y-94257143D01*
X286285714Y-94304762D01*
X286380952Y-94352381D01*
X286619048Y-94352381D01*
X286714286Y-94304762D01*
X286761905Y-94257143D01*
X285857143Y-93352381D02*
X285238095Y-93352381D01*
X285571429Y-93733333D01*
X285428571Y-93733333D01*
X285333333Y-93780952D01*
X285285714Y-93828571D01*
X285238095Y-93923810D01*
X285238095Y-94161905D01*
X285285714Y-94257143D01*
X285333333Y-94304762D01*
X285428571Y-94352381D01*
X285714286Y-94352381D01*
X285809524Y-94304762D01*
X285857143Y-94257143D01*
X293714286Y-113352381D02*
X293714286Y-112352381D01*
X293476191Y-112352381D01*
X293333333Y-112400000D01*
X293238095Y-112495238D01*
X293190476Y-112590476D01*
X293142857Y-112780952D01*
X293142857Y-112923810D01*
X293190476Y-113114286D01*
X293238095Y-113209524D01*
X293333333Y-113304762D01*
X293476191Y-113352381D01*
X293714286Y-113352381D01*
X292238095Y-112352381D02*
X292714286Y-112352381D01*
X292761905Y-112828571D01*
X292714286Y-112780952D01*
X292619048Y-112733333D01*
X292380952Y-112733333D01*
X292285714Y-112780952D01*
X292238095Y-112828571D01*
X292190476Y-112923810D01*
X292190476Y-113161905D01*
X292238095Y-113257143D01*
X292285714Y-113304762D01*
X292380952Y-113352381D01*
X292619048Y-113352381D01*
X292714286Y-113304762D01*
X292761905Y-113257143D01*
X291333333Y-112685714D02*
X291333333Y-113352381D01*
X291571429Y-112304762D02*
X291809524Y-113019048D01*
X291190476Y-113019048D01*
X302714286Y-132352381D02*
X302714286Y-131352381D01*
X302476191Y-131352381D01*
X302333333Y-131400000D01*
X302238095Y-131495238D01*
X302190476Y-131590476D01*
X302142857Y-131780952D01*
X302142857Y-131923810D01*
X302190476Y-132114286D01*
X302238095Y-132209524D01*
X302333333Y-132304762D01*
X302476191Y-132352381D01*
X302714286Y-132352381D01*
X301238095Y-131352381D02*
X301714286Y-131352381D01*
X301761905Y-131828571D01*
X301714286Y-131780952D01*
X301619048Y-131733333D01*
X301380952Y-131733333D01*
X301285714Y-131780952D01*
X301238095Y-131828571D01*
X301190476Y-131923810D01*
X301190476Y-132161905D01*
X301238095Y-132257143D01*
X301285714Y-132304762D01*
X301380952Y-132352381D01*
X301619048Y-132352381D01*
X301714286Y-132304762D01*
X301761905Y-132257143D01*
X300285714Y-131352381D02*
X300761905Y-131352381D01*
X300809524Y-131828571D01*
X300761905Y-131780952D01*
X300666667Y-131733333D01*
X300428571Y-131733333D01*
X300333333Y-131780952D01*
X300285714Y-131828571D01*
X300238095Y-131923810D01*
X300238095Y-132161905D01*
X300285714Y-132257143D01*
X300333333Y-132304762D01*
X300428571Y-132352381D01*
X300666667Y-132352381D01*
X300761905Y-132304762D01*
X300809524Y-132257143D01*
X298714286Y-75352381D02*
X298714286Y-74352381D01*
X298476191Y-74352381D01*
X298333333Y-74400000D01*
X298238095Y-74495238D01*
X298190476Y-74590476D01*
X298142857Y-74780952D01*
X298142857Y-74923810D01*
X298190476Y-75114286D01*
X298238095Y-75209524D01*
X298333333Y-75304762D01*
X298476191Y-75352381D01*
X298714286Y-75352381D01*
X297238095Y-74352381D02*
X297714286Y-74352381D01*
X297761905Y-74828571D01*
X297714286Y-74780952D01*
X297619048Y-74733333D01*
X297380952Y-74733333D01*
X297285714Y-74780952D01*
X297238095Y-74828571D01*
X297190476Y-74923810D01*
X297190476Y-75161905D01*
X297238095Y-75257143D01*
X297285714Y-75304762D01*
X297380952Y-75352381D01*
X297619048Y-75352381D01*
X297714286Y-75304762D01*
X297761905Y-75257143D01*
X296333333Y-74352381D02*
X296523810Y-74352381D01*
X296619048Y-74400000D01*
X296666667Y-74447619D01*
X296761905Y-74590476D01*
X296809524Y-74780952D01*
X296809524Y-75161905D01*
X296761905Y-75257143D01*
X296714286Y-75304762D01*
X296619048Y-75352381D01*
X296428571Y-75352381D01*
X296333333Y-75304762D01*
X296285714Y-75257143D01*
X296238095Y-75161905D01*
X296238095Y-74923810D01*
X296285714Y-74828571D01*
X296333333Y-74780952D01*
X296428571Y-74733333D01*
X296619048Y-74733333D01*
X296714286Y-74780952D01*
X296761905Y-74828571D01*
X296809524Y-74923810D01*
X307714286Y-94352381D02*
X307714286Y-93352381D01*
X307476191Y-93352381D01*
X307333333Y-93400000D01*
X307238095Y-93495238D01*
X307190476Y-93590476D01*
X307142857Y-93780952D01*
X307142857Y-93923810D01*
X307190476Y-94114286D01*
X307238095Y-94209524D01*
X307333333Y-94304762D01*
X307476191Y-94352381D01*
X307714286Y-94352381D01*
X306238095Y-93352381D02*
X306714286Y-93352381D01*
X306761905Y-93828571D01*
X306714286Y-93780952D01*
X306619048Y-93733333D01*
X306380952Y-93733333D01*
X306285714Y-93780952D01*
X306238095Y-93828571D01*
X306190476Y-93923810D01*
X306190476Y-94161905D01*
X306238095Y-94257143D01*
X306285714Y-94304762D01*
X306380952Y-94352381D01*
X306619048Y-94352381D01*
X306714286Y-94304762D01*
X306761905Y-94257143D01*
X305857143Y-93352381D02*
X305190476Y-93352381D01*
X305619048Y-94352381D01*
X311714286Y-113352381D02*
X311714286Y-112352381D01*
X311476191Y-112352381D01*
X311333333Y-112400000D01*
X311238095Y-112495238D01*
X311190476Y-112590476D01*
X311142857Y-112780952D01*
X311142857Y-112923810D01*
X311190476Y-113114286D01*
X311238095Y-113209524D01*
X311333333Y-113304762D01*
X311476191Y-113352381D01*
X311714286Y-113352381D01*
X310238095Y-112352381D02*
X310714286Y-112352381D01*
X310761905Y-112828571D01*
X310714286Y-112780952D01*
X310619048Y-112733333D01*
X310380952Y-112733333D01*
X310285714Y-112780952D01*
X310238095Y-112828571D01*
X310190476Y-112923810D01*
X310190476Y-113161905D01*
X310238095Y-113257143D01*
X310285714Y-113304762D01*
X310380952Y-113352381D01*
X310619048Y-113352381D01*
X310714286Y-113304762D01*
X310761905Y-113257143D01*
X309619048Y-112780952D02*
X309714286Y-112733333D01*
X309761905Y-112685714D01*
X309809524Y-112590476D01*
X309809524Y-112542857D01*
X309761905Y-112447619D01*
X309714286Y-112400000D01*
X309619048Y-112352381D01*
X309428571Y-112352381D01*
X309333333Y-112400000D01*
X309285714Y-112447619D01*
X309238095Y-112542857D01*
X309238095Y-112590476D01*
X309285714Y-112685714D01*
X309333333Y-112733333D01*
X309428571Y-112780952D01*
X309619048Y-112780952D01*
X309714286Y-112828571D01*
X309761905Y-112876190D01*
X309809524Y-112971429D01*
X309809524Y-113161905D01*
X309761905Y-113257143D01*
X309714286Y-113304762D01*
X309619048Y-113352381D01*
X309428571Y-113352381D01*
X309333333Y-113304762D01*
X309285714Y-113257143D01*
X309238095Y-113161905D01*
X309238095Y-112971429D01*
X309285714Y-112876190D01*
X309333333Y-112828571D01*
X309428571Y-112780952D01*
X338714286Y-132352381D02*
X338714286Y-131352381D01*
X338476191Y-131352381D01*
X338333333Y-131400000D01*
X338238095Y-131495238D01*
X338190476Y-131590476D01*
X338142857Y-131780952D01*
X338142857Y-131923810D01*
X338190476Y-132114286D01*
X338238095Y-132209524D01*
X338333333Y-132304762D01*
X338476191Y-132352381D01*
X338714286Y-132352381D01*
X337238095Y-131352381D02*
X337714286Y-131352381D01*
X337761905Y-131828571D01*
X337714286Y-131780952D01*
X337619048Y-131733333D01*
X337380952Y-131733333D01*
X337285714Y-131780952D01*
X337238095Y-131828571D01*
X337190476Y-131923810D01*
X337190476Y-132161905D01*
X337238095Y-132257143D01*
X337285714Y-132304762D01*
X337380952Y-132352381D01*
X337619048Y-132352381D01*
X337714286Y-132304762D01*
X337761905Y-132257143D01*
X336714286Y-132352381D02*
X336523810Y-132352381D01*
X336428571Y-132304762D01*
X336380952Y-132257143D01*
X336285714Y-132114286D01*
X336238095Y-131923810D01*
X336238095Y-131542857D01*
X336285714Y-131447619D01*
X336333333Y-131400000D01*
X336428571Y-131352381D01*
X336619048Y-131352381D01*
X336714286Y-131400000D01*
X336761905Y-131447619D01*
X336809524Y-131542857D01*
X336809524Y-131780952D01*
X336761905Y-131876190D01*
X336714286Y-131923810D01*
X336619048Y-131971429D01*
X336428571Y-131971429D01*
X336333333Y-131923810D01*
X336285714Y-131876190D01*
X336238095Y-131780952D01*
X317714286Y-75352381D02*
X317714286Y-74352381D01*
X317476191Y-74352381D01*
X317333333Y-74400000D01*
X317238095Y-74495238D01*
X317190476Y-74590476D01*
X317142857Y-74780952D01*
X317142857Y-74923810D01*
X317190476Y-75114286D01*
X317238095Y-75209524D01*
X317333333Y-75304762D01*
X317476191Y-75352381D01*
X317714286Y-75352381D01*
X316285714Y-74352381D02*
X316476191Y-74352381D01*
X316571429Y-74400000D01*
X316619048Y-74447619D01*
X316714286Y-74590476D01*
X316761905Y-74780952D01*
X316761905Y-75161905D01*
X316714286Y-75257143D01*
X316666667Y-75304762D01*
X316571429Y-75352381D01*
X316380952Y-75352381D01*
X316285714Y-75304762D01*
X316238095Y-75257143D01*
X316190476Y-75161905D01*
X316190476Y-74923810D01*
X316238095Y-74828571D01*
X316285714Y-74780952D01*
X316380952Y-74733333D01*
X316571429Y-74733333D01*
X316666667Y-74780952D01*
X316714286Y-74828571D01*
X316761905Y-74923810D01*
X315571429Y-74352381D02*
X315476190Y-74352381D01*
X315380952Y-74400000D01*
X315333333Y-74447619D01*
X315285714Y-74542857D01*
X315238095Y-74733333D01*
X315238095Y-74971429D01*
X315285714Y-75161905D01*
X315333333Y-75257143D01*
X315380952Y-75304762D01*
X315476190Y-75352381D01*
X315571429Y-75352381D01*
X315666667Y-75304762D01*
X315714286Y-75257143D01*
X315761905Y-75161905D01*
X315809524Y-74971429D01*
X315809524Y-74733333D01*
X315761905Y-74542857D01*
X315714286Y-74447619D01*
X315666667Y-74400000D01*
X315571429Y-74352381D01*
X327714286Y-94352381D02*
X327714286Y-93352381D01*
X327476191Y-93352381D01*
X327333333Y-93400000D01*
X327238095Y-93495238D01*
X327190476Y-93590476D01*
X327142857Y-93780952D01*
X327142857Y-93923810D01*
X327190476Y-94114286D01*
X327238095Y-94209524D01*
X327333333Y-94304762D01*
X327476191Y-94352381D01*
X327714286Y-94352381D01*
X326285714Y-93352381D02*
X326476191Y-93352381D01*
X326571429Y-93400000D01*
X326619048Y-93447619D01*
X326714286Y-93590476D01*
X326761905Y-93780952D01*
X326761905Y-94161905D01*
X326714286Y-94257143D01*
X326666667Y-94304762D01*
X326571429Y-94352381D01*
X326380952Y-94352381D01*
X326285714Y-94304762D01*
X326238095Y-94257143D01*
X326190476Y-94161905D01*
X326190476Y-93923810D01*
X326238095Y-93828571D01*
X326285714Y-93780952D01*
X326380952Y-93733333D01*
X326571429Y-93733333D01*
X326666667Y-93780952D01*
X326714286Y-93828571D01*
X326761905Y-93923810D01*
X325238095Y-94352381D02*
X325809524Y-94352381D01*
X325523810Y-94352381D02*
X325523810Y-93352381D01*
X325619048Y-93495238D01*
X325714286Y-93590476D01*
X325809524Y-93638095D01*
X343714286Y-113352381D02*
X343714286Y-112352381D01*
X343476191Y-112352381D01*
X343333333Y-112400000D01*
X343238095Y-112495238D01*
X343190476Y-112590476D01*
X343142857Y-112780952D01*
X343142857Y-112923810D01*
X343190476Y-113114286D01*
X343238095Y-113209524D01*
X343333333Y-113304762D01*
X343476191Y-113352381D01*
X343714286Y-113352381D01*
X342285714Y-112352381D02*
X342476191Y-112352381D01*
X342571429Y-112400000D01*
X342619048Y-112447619D01*
X342714286Y-112590476D01*
X342761905Y-112780952D01*
X342761905Y-113161905D01*
X342714286Y-113257143D01*
X342666667Y-113304762D01*
X342571429Y-113352381D01*
X342380952Y-113352381D01*
X342285714Y-113304762D01*
X342238095Y-113257143D01*
X342190476Y-113161905D01*
X342190476Y-112923810D01*
X342238095Y-112828571D01*
X342285714Y-112780952D01*
X342380952Y-112733333D01*
X342571429Y-112733333D01*
X342666667Y-112780952D01*
X342714286Y-112828571D01*
X342761905Y-112923810D01*
X341809524Y-112447619D02*
X341761905Y-112400000D01*
X341666667Y-112352381D01*
X341428571Y-112352381D01*
X341333333Y-112400000D01*
X341285714Y-112447619D01*
X341238095Y-112542857D01*
X341238095Y-112638095D01*
X341285714Y-112780952D01*
X341857143Y-113352381D01*
X341238095Y-113352381D01*
X355714286Y-135352381D02*
X355714286Y-134352381D01*
X355476191Y-134352381D01*
X355333333Y-134400000D01*
X355238095Y-134495238D01*
X355190476Y-134590476D01*
X355142857Y-134780952D01*
X355142857Y-134923810D01*
X355190476Y-135114286D01*
X355238095Y-135209524D01*
X355333333Y-135304762D01*
X355476191Y-135352381D01*
X355714286Y-135352381D01*
X354285714Y-134352381D02*
X354476191Y-134352381D01*
X354571429Y-134400000D01*
X354619048Y-134447619D01*
X354714286Y-134590476D01*
X354761905Y-134780952D01*
X354761905Y-135161905D01*
X354714286Y-135257143D01*
X354666667Y-135304762D01*
X354571429Y-135352381D01*
X354380952Y-135352381D01*
X354285714Y-135304762D01*
X354238095Y-135257143D01*
X354190476Y-135161905D01*
X354190476Y-134923810D01*
X354238095Y-134828571D01*
X354285714Y-134780952D01*
X354380952Y-134733333D01*
X354571429Y-134733333D01*
X354666667Y-134780952D01*
X354714286Y-134828571D01*
X354761905Y-134923810D01*
X353857143Y-134352381D02*
X353238095Y-134352381D01*
X353571429Y-134733333D01*
X353428571Y-134733333D01*
X353333333Y-134780952D01*
X353285714Y-134828571D01*
X353238095Y-134923810D01*
X353238095Y-135161905D01*
X353285714Y-135257143D01*
X353333333Y-135304762D01*
X353428571Y-135352381D01*
X353714286Y-135352381D01*
X353809524Y-135304762D01*
X353857143Y-135257143D01*
X330714286Y-78352381D02*
X330714286Y-77352381D01*
X330476191Y-77352381D01*
X330333333Y-77400000D01*
X330238095Y-77495238D01*
X330190476Y-77590476D01*
X330142857Y-77780952D01*
X330142857Y-77923810D01*
X330190476Y-78114286D01*
X330238095Y-78209524D01*
X330333333Y-78304762D01*
X330476191Y-78352381D01*
X330714286Y-78352381D01*
X329285714Y-77352381D02*
X329476191Y-77352381D01*
X329571429Y-77400000D01*
X329619048Y-77447619D01*
X329714286Y-77590476D01*
X329761905Y-77780952D01*
X329761905Y-78161905D01*
X329714286Y-78257143D01*
X329666667Y-78304762D01*
X329571429Y-78352381D01*
X329380952Y-78352381D01*
X329285714Y-78304762D01*
X329238095Y-78257143D01*
X329190476Y-78161905D01*
X329190476Y-77923810D01*
X329238095Y-77828571D01*
X329285714Y-77780952D01*
X329380952Y-77733333D01*
X329571429Y-77733333D01*
X329666667Y-77780952D01*
X329714286Y-77828571D01*
X329761905Y-77923810D01*
X328333333Y-77685714D02*
X328333333Y-78352381D01*
X328571429Y-77304762D02*
X328809524Y-78019048D01*
X328190476Y-78019048D01*
X353714286Y-76352381D02*
X353714286Y-75352381D01*
X353476191Y-75352381D01*
X353333333Y-75400000D01*
X353238095Y-75495238D01*
X353190476Y-75590476D01*
X353142857Y-75780952D01*
X353142857Y-75923810D01*
X353190476Y-76114286D01*
X353238095Y-76209524D01*
X353333333Y-76304762D01*
X353476191Y-76352381D01*
X353714286Y-76352381D01*
X352285714Y-75352381D02*
X352476191Y-75352381D01*
X352571429Y-75400000D01*
X352619048Y-75447619D01*
X352714286Y-75590476D01*
X352761905Y-75780952D01*
X352761905Y-76161905D01*
X352714286Y-76257143D01*
X352666667Y-76304762D01*
X352571429Y-76352381D01*
X352380952Y-76352381D01*
X352285714Y-76304762D01*
X352238095Y-76257143D01*
X352190476Y-76161905D01*
X352190476Y-75923810D01*
X352238095Y-75828571D01*
X352285714Y-75780952D01*
X352380952Y-75733333D01*
X352571429Y-75733333D01*
X352666667Y-75780952D01*
X352714286Y-75828571D01*
X352761905Y-75923810D01*
X351285714Y-75352381D02*
X351761905Y-75352381D01*
X351809524Y-75828571D01*
X351761905Y-75780952D01*
X351666667Y-75733333D01*
X351428571Y-75733333D01*
X351333333Y-75780952D01*
X351285714Y-75828571D01*
X351238095Y-75923810D01*
X351238095Y-76161905D01*
X351285714Y-76257143D01*
X351333333Y-76304762D01*
X351428571Y-76352381D01*
X351666667Y-76352381D01*
X351761905Y-76304762D01*
X351809524Y-76257143D01*
X350714286Y-94352381D02*
X350714286Y-93352381D01*
X350476191Y-93352381D01*
X350333333Y-93400000D01*
X350238095Y-93495238D01*
X350190476Y-93590476D01*
X350142857Y-93780952D01*
X350142857Y-93923810D01*
X350190476Y-94114286D01*
X350238095Y-94209524D01*
X350333333Y-94304762D01*
X350476191Y-94352381D01*
X350714286Y-94352381D01*
X349285714Y-93352381D02*
X349476191Y-93352381D01*
X349571429Y-93400000D01*
X349619048Y-93447619D01*
X349714286Y-93590476D01*
X349761905Y-93780952D01*
X349761905Y-94161905D01*
X349714286Y-94257143D01*
X349666667Y-94304762D01*
X349571429Y-94352381D01*
X349380952Y-94352381D01*
X349285714Y-94304762D01*
X349238095Y-94257143D01*
X349190476Y-94161905D01*
X349190476Y-93923810D01*
X349238095Y-93828571D01*
X349285714Y-93780952D01*
X349380952Y-93733333D01*
X349571429Y-93733333D01*
X349666667Y-93780952D01*
X349714286Y-93828571D01*
X349761905Y-93923810D01*
X348333333Y-93352381D02*
X348523810Y-93352381D01*
X348619048Y-93400000D01*
X348666667Y-93447619D01*
X348761905Y-93590476D01*
X348809524Y-93780952D01*
X348809524Y-94161905D01*
X348761905Y-94257143D01*
X348714286Y-94304762D01*
X348619048Y-94352381D01*
X348428571Y-94352381D01*
X348333333Y-94304762D01*
X348285714Y-94257143D01*
X348238095Y-94161905D01*
X348238095Y-93923810D01*
X348285714Y-93828571D01*
X348333333Y-93780952D01*
X348428571Y-93733333D01*
X348619048Y-93733333D01*
X348714286Y-93780952D01*
X348761905Y-93828571D01*
X348809524Y-93923810D01*
X105603561Y-76511905D02*
X104603561Y-76511905D01*
X104603561Y-76892858D01*
X104651180Y-76988096D01*
X104698799Y-77035715D01*
X104794037Y-77083334D01*
X104936894Y-77083334D01*
X105032132Y-77035715D01*
X105079751Y-76988096D01*
X105127370Y-76892858D01*
X105127370Y-76511905D01*
X105603561Y-78035715D02*
X105603561Y-77464286D01*
X105603561Y-77750000D02*
X104603561Y-77750000D01*
X104746418Y-77654762D01*
X104841656Y-77559524D01*
X104889275Y-77464286D01*
X137052381Y-128333334D02*
X136576190Y-128000000D01*
X137052381Y-127761905D02*
X136052381Y-127761905D01*
X136052381Y-128142858D01*
X136100000Y-128238096D01*
X136147619Y-128285715D01*
X136242857Y-128333334D01*
X136385714Y-128333334D01*
X136480952Y-128285715D01*
X136528571Y-128238096D01*
X136576190Y-128142858D01*
X136576190Y-127761905D01*
X137052381Y-129285715D02*
X137052381Y-128714286D01*
X137052381Y-129000000D02*
X136052381Y-129000000D01*
X136195238Y-128904762D01*
X136290476Y-128809524D01*
X136338095Y-128714286D01*
X99902381Y-91533334D02*
X99426190Y-91200000D01*
X99902381Y-90961905D02*
X98902381Y-90961905D01*
X98902381Y-91342858D01*
X98950000Y-91438096D01*
X98997619Y-91485715D01*
X99092857Y-91533334D01*
X99235714Y-91533334D01*
X99330952Y-91485715D01*
X99378571Y-91438096D01*
X99426190Y-91342858D01*
X99426190Y-90961905D01*
X98997619Y-91914286D02*
X98950000Y-91961905D01*
X98902381Y-92057143D01*
X98902381Y-92295239D01*
X98950000Y-92390477D01*
X98997619Y-92438096D01*
X99092857Y-92485715D01*
X99188095Y-92485715D01*
X99330952Y-92438096D01*
X99902381Y-91866667D01*
X99902381Y-92485715D01*
X101502381Y-91533334D02*
X101026190Y-91200000D01*
X101502381Y-90961905D02*
X100502381Y-90961905D01*
X100502381Y-91342858D01*
X100550000Y-91438096D01*
X100597619Y-91485715D01*
X100692857Y-91533334D01*
X100835714Y-91533334D01*
X100930952Y-91485715D01*
X100978571Y-91438096D01*
X101026190Y-91342858D01*
X101026190Y-90961905D01*
X100502381Y-91866667D02*
X100502381Y-92485715D01*
X100883333Y-92152381D01*
X100883333Y-92295239D01*
X100930952Y-92390477D01*
X100978571Y-92438096D01*
X101073810Y-92485715D01*
X101311905Y-92485715D01*
X101407143Y-92438096D01*
X101454762Y-92390477D01*
X101502381Y-92295239D01*
X101502381Y-92009524D01*
X101454762Y-91914286D01*
X101407143Y-91866667D01*
X83916666Y-128352381D02*
X84250000Y-127876190D01*
X84488095Y-128352381D02*
X84488095Y-127352381D01*
X84107142Y-127352381D01*
X84011904Y-127400000D01*
X83964285Y-127447619D01*
X83916666Y-127542857D01*
X83916666Y-127685714D01*
X83964285Y-127780952D01*
X84011904Y-127828571D01*
X84107142Y-127876190D01*
X84488095Y-127876190D01*
X83059523Y-127685714D02*
X83059523Y-128352381D01*
X83297619Y-127304762D02*
X83535714Y-128019048D01*
X82916666Y-128019048D01*
X144504982Y-130906557D02*
X144552601Y-131049414D01*
X144552601Y-131287510D01*
X144504982Y-131382748D01*
X144457363Y-131430367D01*
X144362125Y-131477986D01*
X144266887Y-131477986D01*
X144171649Y-131430367D01*
X144124030Y-131382748D01*
X144076410Y-131287510D01*
X144028791Y-131097033D01*
X143981172Y-131001795D01*
X143933553Y-130954176D01*
X143838315Y-130906557D01*
X143743077Y-130906557D01*
X143647839Y-130954176D01*
X143600220Y-131001795D01*
X143552601Y-131097033D01*
X143552601Y-131335129D01*
X143600220Y-131477986D01*
X143552601Y-131811319D02*
X144552601Y-132049414D01*
X143838315Y-132239891D01*
X144552601Y-132430367D01*
X143552601Y-132668462D01*
X144552601Y-133573224D02*
X144552601Y-133001795D01*
X144552601Y-133287509D02*
X143552601Y-133287509D01*
X143695458Y-133192271D01*
X143790696Y-133097033D01*
X143838315Y-133001795D01*
X114852381Y-129738095D02*
X115661905Y-129738095D01*
X115757143Y-129785714D01*
X115804762Y-129833333D01*
X115852381Y-129928571D01*
X115852381Y-130119048D01*
X115804762Y-130214286D01*
X115757143Y-130261905D01*
X115661905Y-130309524D01*
X114852381Y-130309524D01*
X114947619Y-130738095D02*
X114900000Y-130785714D01*
X114852381Y-130880952D01*
X114852381Y-131119048D01*
X114900000Y-131214286D01*
X114947619Y-131261905D01*
X115042857Y-131309524D01*
X115138095Y-131309524D01*
X115280952Y-131261905D01*
X115852381Y-130690476D01*
X115852381Y-131309524D01*
X121976190Y-141523809D02*
X122452381Y-141523809D01*
X121452381Y-141190476D02*
X121976190Y-141523809D01*
X121452381Y-141857143D01*
X122452381Y-142714286D02*
X122452381Y-142142857D01*
X122452381Y-142428571D02*
X121452381Y-142428571D01*
X121595238Y-142333333D01*
X121690476Y-142238095D01*
X121738095Y-142142857D01*
X114773810Y-96702381D02*
X114773810Y-95702381D01*
X114392857Y-95702381D01*
X114297619Y-95750000D01*
X114250000Y-95797619D01*
X114202381Y-95892857D01*
X114202381Y-96035714D01*
X114250000Y-96130952D01*
X114297619Y-96178571D01*
X114392857Y-96226190D01*
X114773810Y-96226190D01*
X113440476Y-96178571D02*
X113297619Y-96226190D01*
X113250000Y-96273810D01*
X113202381Y-96369048D01*
X113202381Y-96511905D01*
X113250000Y-96607143D01*
X113297619Y-96654762D01*
X113392857Y-96702381D01*
X113773810Y-96702381D01*
X113773810Y-95702381D01*
X113440476Y-95702381D01*
X113345238Y-95750000D01*
X113297619Y-95797619D01*
X113250000Y-95892857D01*
X113250000Y-95988095D01*
X113297619Y-96083333D01*
X113345238Y-96130952D01*
X113440476Y-96178571D01*
X113773810Y-96178571D01*
X112583334Y-95702381D02*
X112488095Y-95702381D01*
X112392857Y-95750000D01*
X112345238Y-95797619D01*
X112297619Y-95892857D01*
X112250000Y-96083333D01*
X112250000Y-96321429D01*
X112297619Y-96511905D01*
X112345238Y-96607143D01*
X112392857Y-96654762D01*
X112488095Y-96702381D01*
X112583334Y-96702381D01*
X112678572Y-96654762D01*
X112726191Y-96607143D01*
X112773810Y-96511905D01*
X112821429Y-96321429D01*
X112821429Y-96083333D01*
X112773810Y-95892857D01*
X112726191Y-95797619D01*
X112678572Y-95750000D01*
X112583334Y-95702381D01*
X111059524Y-96702381D02*
X111059524Y-95702381D01*
X110678571Y-95702381D01*
X110583333Y-95750000D01*
X110535714Y-95797619D01*
X110488095Y-95892857D01*
X110488095Y-96035714D01*
X110535714Y-96130952D01*
X110583333Y-96178571D01*
X110678571Y-96226190D01*
X111059524Y-96226190D01*
X109726190Y-96178571D02*
X110059524Y-96178571D01*
X110059524Y-96702381D02*
X110059524Y-95702381D01*
X109583333Y-95702381D01*
X109297619Y-95702381D02*
X108630952Y-95702381D01*
X109059524Y-96702381D01*
%LPC*%
D14*
X105200000Y-103300000D03*
D15*
X91182500Y-120110000D03*
X93722500Y-126460000D03*
D16*
X116250000Y-118700000D03*
X116250000Y-119500000D03*
X116250000Y-120300000D03*
X116250000Y-121100000D03*
X116250000Y-121900000D03*
X116250000Y-122700000D03*
X116250000Y-123500000D03*
X116250000Y-124300000D03*
X116250000Y-125100000D03*
X116250000Y-125900000D03*
X116250000Y-126700000D03*
D17*
X114550000Y-128400000D03*
X113750000Y-128400000D03*
X112950000Y-128400000D03*
X112150000Y-128400000D03*
X111350000Y-128400000D03*
X110550000Y-128400000D03*
X109750000Y-128400000D03*
X108950000Y-128400000D03*
X108150000Y-128400000D03*
X107350000Y-128400000D03*
X106550000Y-128400000D03*
D16*
X104850000Y-126700000D03*
X104850000Y-125900000D03*
X104850000Y-125100000D03*
X104850000Y-124300000D03*
X104850000Y-123500000D03*
X104850000Y-122700000D03*
X104850000Y-121900000D03*
X104850000Y-121100000D03*
X104850000Y-120300000D03*
X104850000Y-119500000D03*
X104850000Y-118700000D03*
D17*
X106550000Y-117000000D03*
X107350000Y-117000000D03*
X108150000Y-117000000D03*
X108950000Y-117000000D03*
X109750000Y-117000000D03*
X110550000Y-117000000D03*
X111350000Y-117000000D03*
X112150000Y-117000000D03*
X112950000Y-117000000D03*
X113750000Y-117000000D03*
X114550000Y-117000000D03*
D18*
X118750000Y-145200000D03*
X118750000Y-143300000D03*
X96000000Y-92700000D03*
X96000000Y-90800000D03*
X118750000Y-137700000D03*
X118750000Y-135800000D03*
D19*
X102550000Y-130250000D03*
X104450000Y-130250000D03*
X102550000Y-131750000D03*
X104450000Y-131750000D03*
X115950000Y-113750000D03*
X114050000Y-113750000D03*
D18*
X118750000Y-123450000D03*
X118750000Y-121550000D03*
X107000000Y-110050000D03*
X107000000Y-111950000D03*
D20*
X82830140Y-123750000D03*
X85669860Y-123750000D03*
D21*
X93000000Y-92305000D03*
X93000000Y-90195000D03*
D22*
X93555000Y-95750000D03*
X91445000Y-95750000D03*
D21*
X88950000Y-128955000D03*
X88950000Y-126845000D03*
D22*
X99555000Y-133750000D03*
X97445000Y-133750000D03*
X90555000Y-153750000D03*
X88445000Y-153750000D03*
D21*
X112750000Y-92055000D03*
X112750000Y-89945000D03*
D22*
X117555000Y-95750000D03*
X115445000Y-95750000D03*
X129605000Y-118100000D03*
X127495000Y-118100000D03*
X131555000Y-133750000D03*
X129445000Y-133750000D03*
X114555000Y-153750000D03*
X112445000Y-153750000D03*
X126555000Y-76750000D03*
X124445000Y-76750000D03*
X136555000Y-95750000D03*
X134445000Y-95750000D03*
X140555000Y-114750000D03*
X138445000Y-114750000D03*
X150555000Y-133750000D03*
X148445000Y-133750000D03*
X138555000Y-152750000D03*
X136445000Y-152750000D03*
X158555000Y-152750000D03*
X156445000Y-152750000D03*
X145555000Y-76750000D03*
X143445000Y-76750000D03*
X155555000Y-95750000D03*
X153445000Y-95750000D03*
X159555000Y-114750000D03*
X157445000Y-114750000D03*
X169555000Y-133750000D03*
X167445000Y-133750000D03*
X164555000Y-76750000D03*
X162445000Y-76750000D03*
X174555000Y-95750000D03*
X172445000Y-95750000D03*
X179555000Y-114750000D03*
X177445000Y-114750000D03*
X188555000Y-133750000D03*
X186445000Y-133750000D03*
X195555000Y-152750000D03*
X193445000Y-152750000D03*
X183555000Y-76750000D03*
X181445000Y-76750000D03*
X193555000Y-95750000D03*
X191445000Y-95750000D03*
X198555000Y-114750000D03*
X196445000Y-114750000D03*
X206555000Y-133750000D03*
X204445000Y-133750000D03*
X246555000Y-152750000D03*
X244445000Y-152750000D03*
X202555000Y-76750000D03*
X200445000Y-76750000D03*
X212555000Y-95750000D03*
X210445000Y-95750000D03*
X216555000Y-114750000D03*
X214445000Y-114750000D03*
X226555000Y-133750000D03*
X224445000Y-133750000D03*
X285555000Y-152750000D03*
X283445000Y-152750000D03*
X221555000Y-76750000D03*
X219445000Y-76750000D03*
X231555000Y-95750000D03*
X229445000Y-95750000D03*
X235555000Y-114750000D03*
X233445000Y-114750000D03*
X245555000Y-133750000D03*
X243445000Y-133750000D03*
X304555000Y-152750000D03*
X302445000Y-152750000D03*
X240555000Y-76750000D03*
X238445000Y-76750000D03*
X250555000Y-95750000D03*
X248445000Y-95750000D03*
X254555000Y-114750000D03*
X252445000Y-114750000D03*
X264555000Y-133750000D03*
X262445000Y-133750000D03*
X326555000Y-153750000D03*
X324445000Y-153750000D03*
X259555000Y-76750000D03*
X257445000Y-76750000D03*
X269555000Y-95750000D03*
X267445000Y-95750000D03*
X273555000Y-114750000D03*
X271445000Y-114750000D03*
X283555000Y-133750000D03*
X281445000Y-133750000D03*
X350555000Y-153750000D03*
X348445000Y-153750000D03*
X278555000Y-76750000D03*
X276445000Y-76750000D03*
X287555000Y-95750000D03*
X285445000Y-95750000D03*
X293555000Y-114750000D03*
X291445000Y-114750000D03*
X302555000Y-133750000D03*
X300445000Y-133750000D03*
X298555000Y-76750000D03*
X296445000Y-76750000D03*
X307555000Y-95750000D03*
X305445000Y-95750000D03*
X311555000Y-114750000D03*
X309445000Y-114750000D03*
X338555000Y-133750000D03*
X336445000Y-133750000D03*
X317555000Y-76750000D03*
X315445000Y-76750000D03*
X327555000Y-95750000D03*
X325445000Y-95750000D03*
X343555000Y-114750000D03*
X341445000Y-114750000D03*
X355555000Y-136750000D03*
X353445000Y-136750000D03*
X330555000Y-79750000D03*
X328445000Y-79750000D03*
X353555000Y-77750000D03*
X351445000Y-77750000D03*
X350555000Y-95750000D03*
X348445000Y-95750000D03*
D23*
X96649800Y-80699320D03*
X97449900Y-80699320D03*
X98250000Y-80699320D03*
X99050100Y-80699320D03*
X99850200Y-80699320D03*
D24*
X93799920Y-80600260D03*
X93799920Y-75101160D03*
X102700080Y-80600260D03*
X102700080Y-75101160D03*
D25*
X96050360Y-78100900D03*
X100449640Y-78100900D03*
D26*
X138500000Y-127400000D03*
X138500000Y-129600000D03*
X97550000Y-92800000D03*
X97550000Y-90600000D03*
X99150000Y-92800000D03*
X99150000Y-90600000D03*
D27*
X82650000Y-126000000D03*
X84850000Y-126000000D03*
D28*
X141502320Y-136852430D03*
X141497680Y-127647570D03*
D15*
X96421300Y-98520000D03*
X90071300Y-101060000D03*
X103565000Y-136620000D03*
X97215000Y-139160000D03*
X94040000Y-155670000D03*
X87690000Y-158210000D03*
X117852500Y-155670000D03*
X111502500Y-158210000D03*
X141665000Y-155670000D03*
X135315000Y-158210000D03*
X198815000Y-155670000D03*
X192465000Y-158210000D03*
X251203000Y-155670000D03*
X244853000Y-158210000D03*
X308353000Y-155670000D03*
X302003000Y-158210000D03*
X332165000Y-155670000D03*
X325815000Y-158210000D03*
X355978000Y-155670000D03*
X349628000Y-158210000D03*
X341690000Y-136620000D03*
X335340000Y-139160000D03*
X346453000Y-117570000D03*
X340103000Y-120110000D03*
X96421300Y-155670000D03*
X90071300Y-158210000D03*
X144046300Y-155670000D03*
X137696300Y-158210000D03*
X225009000Y-155670000D03*
X218659000Y-158210000D03*
X225009000Y-155670000D03*
X218659000Y-158210000D03*
X296446000Y-155670000D03*
X290096000Y-158210000D03*
X305971000Y-155670000D03*
X299621000Y-158210000D03*
X353596000Y-155670000D03*
X347246000Y-158210000D03*
X332165000Y-136620000D03*
X325815000Y-139160000D03*
X348834000Y-79470000D03*
X342484000Y-82010000D03*
D29*
X120500000Y-130500000D03*
D30*
X120500000Y-133040000D03*
X123040000Y-130500000D03*
X123040000Y-133040000D03*
X125580000Y-130500000D03*
X125580000Y-133040000D03*
D31*
X122500000Y-138250000D03*
X122500000Y-145750000D03*
D15*
X353596000Y-98520000D03*
X347246000Y-101060000D03*
D32*
X82250000Y-131900000D03*
X363000000Y-131900000D03*
D33*
X208200000Y-122400000D03*
X340050000Y-103300000D03*
X270500000Y-160600000D03*
D15*
X105628800Y-89630000D03*
X111978800Y-87090000D03*
X329784000Y-155670000D03*
X323434000Y-158210000D03*
X120233800Y-155670000D03*
X113883800Y-158210000D03*
X358359000Y-79470000D03*
X352009000Y-82010000D03*
X339309000Y-79470000D03*
X332959000Y-82010000D03*
X358359000Y-136620000D03*
X352009000Y-139160000D03*
X329784000Y-98520000D03*
X323434000Y-101060000D03*
X320259000Y-79470000D03*
X313909000Y-82010000D03*
X315496000Y-117570000D03*
X309146000Y-120110000D03*
X310734000Y-98520000D03*
X304384000Y-101060000D03*
X301209000Y-79470000D03*
X294859000Y-82010000D03*
X305971000Y-136620000D03*
X299621000Y-139160000D03*
X296446000Y-117570000D03*
X290096000Y-120110000D03*
X291684000Y-98520000D03*
X285334000Y-101060000D03*
X282159000Y-79470000D03*
X275809000Y-82010000D03*
X286921000Y-136620000D03*
X280571000Y-139160000D03*
X277396000Y-117570000D03*
X271046000Y-120110000D03*
X272634000Y-98520000D03*
X266284000Y-101060000D03*
X263109000Y-79470000D03*
X256759000Y-82010000D03*
X267871000Y-136620000D03*
X261521000Y-139160000D03*
X258346000Y-117570000D03*
X251996000Y-120110000D03*
X253584000Y-98520000D03*
X247234000Y-101060000D03*
X244059000Y-79470000D03*
X237709000Y-82010000D03*
X248821000Y-136620000D03*
X242471000Y-139160000D03*
X234534000Y-98520000D03*
X228184000Y-101060000D03*
X225009000Y-79470000D03*
X218659000Y-82010000D03*
X286921000Y-155670000D03*
X280571000Y-158210000D03*
X229771000Y-136620000D03*
X223421000Y-139160000D03*
X220246000Y-117570000D03*
X213896000Y-120110000D03*
X215484000Y-98520000D03*
X209134000Y-101060000D03*
X205959000Y-79470000D03*
X199609000Y-82010000D03*
X210721000Y-136620000D03*
X204371000Y-139160000D03*
X201196000Y-117570000D03*
X194846000Y-120110000D03*
X196434000Y-98520000D03*
X190084000Y-101060000D03*
X186909000Y-79470000D03*
X180559000Y-82010000D03*
X191671000Y-136620000D03*
X185321000Y-139160000D03*
X182146000Y-117570000D03*
X175796000Y-120110000D03*
X177384000Y-98520000D03*
X171034000Y-101060000D03*
X167859000Y-79470000D03*
X161509000Y-82010000D03*
X172621000Y-136620000D03*
X166271000Y-139160000D03*
X163096300Y-117570000D03*
X156746300Y-120110000D03*
X158333800Y-98520000D03*
X151983800Y-101060000D03*
X148808800Y-79470000D03*
X142458800Y-82010000D03*
X163096300Y-155670000D03*
X156746300Y-158210000D03*
X153571300Y-136620000D03*
X147221300Y-139160000D03*
X144046300Y-117570000D03*
X137696300Y-120110000D03*
X139283800Y-98520000D03*
X132933800Y-101060000D03*
X129758800Y-79470000D03*
X123408800Y-82010000D03*
X134521300Y-136620000D03*
X128171300Y-139160000D03*
X127536300Y-125190000D03*
X124996300Y-118840000D03*
X120233800Y-98520000D03*
X113883800Y-101060000D03*
X86578800Y-89630000D03*
X92928800Y-87090000D03*
X239296000Y-117570000D03*
X232946000Y-120110000D03*
D34*
X112750000Y-94250000D03*
D35*
X110210000Y-94250000D03*
M02*
