M48
;DRILL file {KiCad 4.0.5} date 01/22/17 22:08:42
;FORMAT={2:4/ absolute / inch / suppress trailing zeros}
FMAT,2
INCH,LZ
T1C0.035
T2C0.067
T3C0.120
T4C0.157
%
G90
G05
M72
T1
X037815Y-030748
X039547Y-030748
T2
X033086Y-033287
X034024Y-063287
X034961Y-040787
X034961Y-063287
X037086Y-033287
X037774Y-055787
X037899Y-046287
X037899Y-050287
X038024Y-063287
X038961Y-040787
X038961Y-063287
X040586Y-033287
X041774Y-055787
X043399Y-063287
X044336Y-040787
X044336Y-063287
X044586Y-033287
X047399Y-063287
X048086Y-033287
X048211Y-046287
X048211Y-050287
X048336Y-040787
X048336Y-063287
X049961Y-055787
X051836Y-040787
X052086Y-033287
X052774Y-063287
X053711Y-048287
X053711Y-063287
X053961Y-055787
X055586Y-033287
X055836Y-040787
X056774Y-063287
X057461Y-055787
X057711Y-048287
X057711Y-063287
X059336Y-040787
X059586Y-033287
X061211Y-048287
X061211Y-063287
X061461Y-055787
X063086Y-033287
X063336Y-040787
X064961Y-055787
X065211Y-048287
X065211Y-063287
X066836Y-040787
X067086Y-033287
X068711Y-048287
X068961Y-055787
X070586Y-033287
X070836Y-040787
X072461Y-055787
X072711Y-048287
X074336Y-040787
X074586Y-033287
X075274Y-063287
X076211Y-048287
X076461Y-055787
X078086Y-033287
X078336Y-040787
X079274Y-063287
X079961Y-055787
X080211Y-048287
X081836Y-040787
X082086Y-033287
X083711Y-048287
X083961Y-055787
X085586Y-033287
X085586Y-063287
X085586Y-063287
X085836Y-040787
X087461Y-055787
X087711Y-048287
X089336Y-040787
X089586Y-033287
X089586Y-063287
X089586Y-063287
X091211Y-048287
X091461Y-055787
X093086Y-033287
X093336Y-040787
X094961Y-055787
X095211Y-048287
X095899Y-063287
X096836Y-040787
X097086Y-033287
X098711Y-048287
X098961Y-055787
X099899Y-063287
X100586Y-033287
X100836Y-040787
X102461Y-055787
X102711Y-048287
X104336Y-040787
X104586Y-033287
X106211Y-048287
X106461Y-055787
X108086Y-033287
X108336Y-040787
X109961Y-055787
X109961Y-063287
X110211Y-048287
X111836Y-040787
X112086Y-033287
X113711Y-048287
X113711Y-063287
X113961Y-055787
X113961Y-063287
X115586Y-033287
X115836Y-040787
X117461Y-055787
X117461Y-063287
X117711Y-048287
X117711Y-063287
X118399Y-063287
X119336Y-040787
X119586Y-033287
X121211Y-048287
X121461Y-055787
X121461Y-063287
X122399Y-063287
X123086Y-033287
X123336Y-040787
X125211Y-048287
X126836Y-040787
X126836Y-063287
X127086Y-033287
X127774Y-055787
X127774Y-063287
X130586Y-033287
X130836Y-040787
X130836Y-063287
X131524Y-055787
X131774Y-055787
X131774Y-063287
X133399Y-048287
X134336Y-033287
X134586Y-033287
X135524Y-055787
X136211Y-040787
X136211Y-063287
X137149Y-063287
X137399Y-048287
X138086Y-033287
X138086Y-055787
X138336Y-033287
X140211Y-040787
X140211Y-063287
X141149Y-063287
X142086Y-033287
X142086Y-055787
T3
X035074Y-053037
X044474Y-053037
X065074Y-060537
X067886Y-060537
X072574Y-060537
X081974Y-060537
X093199Y-060537
X102599Y-060537
X107286Y-060537
X110099Y-060537
X128824Y-053037
X130699Y-045537
X131636Y-030537
X138224Y-053037
X140099Y-045537
X141036Y-030537
T4
X035074Y-059037
X035086Y-033287
X036024Y-063287
X036961Y-040787
X036961Y-063287
X037899Y-048287
X039774Y-055787
X042586Y-033287
X044474Y-059037
X045399Y-063287
X046336Y-040787
X046336Y-063287
X048211Y-048287
X050086Y-033287
X051961Y-055787
X053836Y-040787
X054774Y-063287
X055711Y-048287
X055711Y-063287
X057586Y-033287
X059461Y-055787
X061336Y-040787
X063211Y-048287
X063211Y-063287
X065074Y-066537
X065086Y-033287
X066961Y-055787
X067886Y-066537
X068836Y-040787
X070711Y-048287
X072574Y-066537
X072586Y-033287
X074461Y-055787
X076336Y-040787
X077274Y-063287
X078211Y-048287
X080086Y-033287
X081961Y-055787
X081974Y-066537
X083836Y-040787
X085711Y-048287
X087586Y-033287
X087586Y-063287
X087586Y-063287
X089461Y-055787
X091336Y-040787
X093199Y-066537
X093211Y-048287
X095086Y-033287
X096961Y-055787
X097899Y-063287
X098836Y-040787
X100711Y-048287
X102586Y-033287
X102599Y-066537
X104461Y-055787
X106336Y-040787
X107286Y-066537
X108211Y-048287
X110086Y-033287
X110099Y-066537
X111961Y-055787
X111961Y-063287
X113836Y-040787
X115711Y-048287
X115711Y-063287
X117586Y-033287
X119461Y-055787
X119461Y-063287
X120399Y-063287
X121336Y-040787
X123211Y-048287
X125086Y-033287
X128824Y-059037
X128836Y-040787
X128836Y-063287
X129774Y-055787
X129774Y-063287
X130699Y-051537
X131636Y-036537
X132586Y-033287
X133524Y-055787
X135399Y-048287
X136336Y-033287
X138211Y-040787
X138211Y-063287
X138224Y-059037
X139149Y-063287
X140086Y-033287
X140086Y-055787
X140099Y-051537
X141036Y-036537
T0
M30
