G04 #@! TF.FileFunction,Legend,Top*
%FSLAX46Y46*%
G04 Gerber Fmt 4.6, Leading zero omitted, Abs format (unit mm)*
G04 Created by KiCad (PCBNEW 4.0.5) date 01/22/17 22:08:40*
%MOMM*%
%LPD*%
G01*
G04 APERTURE LIST*
%ADD10C,0.100000*%
%ADD11C,0.010000*%
%ADD12C,0.381000*%
%ADD13C,0.203200*%
%ADD14C,7.401300*%
%ADD15C,2.686000*%
%ADD16C,1.299160*%
%ADD17R,2.127200X2.127200*%
%ADD18O,2.127200X2.127200*%
%ADD19O,10.399980X5.401260*%
%ADD20C,7.400240*%
%ADD21R,2.100000X2.100000*%
%ADD22O,2.100000X2.100000*%
G04 APERTURE END LIST*
D10*
D11*
G36*
X127598079Y-94765042D02*
X127871510Y-94813881D01*
X128118997Y-94905304D01*
X128338683Y-95037764D01*
X128528712Y-95209712D01*
X128687226Y-95419602D01*
X128812369Y-95665886D01*
X128902284Y-95947019D01*
X128937367Y-96124200D01*
X128951633Y-96256509D01*
X128959963Y-96424722D01*
X128962494Y-96614309D01*
X128959364Y-96810737D01*
X128950709Y-96999476D01*
X128936666Y-97165993D01*
X128926853Y-97241800D01*
X128850194Y-97615401D01*
X128739093Y-97956573D01*
X128594541Y-98263499D01*
X128417525Y-98534365D01*
X128209033Y-98767354D01*
X128004086Y-98936920D01*
X127893165Y-99006393D01*
X127764250Y-99073117D01*
X127661186Y-99116508D01*
X127584078Y-99142352D01*
X127512943Y-99160700D01*
X127436034Y-99172998D01*
X127341600Y-99180698D01*
X127217894Y-99185247D01*
X127084200Y-99187674D01*
X126942961Y-99188892D01*
X126815524Y-99188559D01*
X126712480Y-99186809D01*
X126644420Y-99183778D01*
X126627000Y-99181857D01*
X126569174Y-99167414D01*
X126484361Y-99141626D01*
X126411100Y-99117043D01*
X126181904Y-99010216D01*
X125975814Y-98860227D01*
X125795894Y-98670596D01*
X125645207Y-98444840D01*
X125526818Y-98186478D01*
X125481820Y-98050053D01*
X125453399Y-97918179D01*
X125431741Y-97748539D01*
X125417208Y-97553761D01*
X125410164Y-97346474D01*
X125410672Y-97215653D01*
X126425273Y-97215653D01*
X126427321Y-97398164D01*
X126437566Y-97573866D01*
X126455431Y-97730320D01*
X126480339Y-97855087D01*
X126495447Y-97902200D01*
X126585080Y-98077374D01*
X126700824Y-98210535D01*
X126841273Y-98300326D01*
X126944500Y-98334643D01*
X127057448Y-98343300D01*
X127195432Y-98320818D01*
X127259862Y-98302885D01*
X127349642Y-98257766D01*
X127450542Y-98178585D01*
X127550381Y-98076418D01*
X127636974Y-97962342D01*
X127640596Y-97956745D01*
X127743131Y-97762064D01*
X127827320Y-97532160D01*
X127891890Y-97277989D01*
X127935565Y-97010505D01*
X127957072Y-96740665D01*
X127955135Y-96479421D01*
X127928481Y-96237730D01*
X127875835Y-96026546D01*
X127867781Y-96003965D01*
X127788838Y-95848982D01*
X127685526Y-95734872D01*
X127563188Y-95661307D01*
X127427170Y-95627959D01*
X127282818Y-95634500D01*
X127135476Y-95680600D01*
X126990490Y-95765932D01*
X126853206Y-95890167D01*
X126728968Y-96052977D01*
X126715381Y-96074776D01*
X126642458Y-96216576D01*
X126572800Y-96392315D01*
X126511987Y-96585185D01*
X126465598Y-96778378D01*
X126448070Y-96879964D01*
X126431997Y-97038773D01*
X126425273Y-97215653D01*
X125410672Y-97215653D01*
X125410970Y-97139307D01*
X125419989Y-96944888D01*
X125437583Y-96775846D01*
X125444063Y-96734969D01*
X125529486Y-96361126D01*
X125650130Y-96022742D01*
X125807025Y-95717705D01*
X126001201Y-95443904D01*
X126156535Y-95273009D01*
X126363511Y-95088330D01*
X126572779Y-94949228D01*
X126794590Y-94851108D01*
X127039200Y-94789376D01*
X127300561Y-94760332D01*
X127598079Y-94765042D01*
X127598079Y-94765042D01*
G37*
X127598079Y-94765042D02*
X127871510Y-94813881D01*
X128118997Y-94905304D01*
X128338683Y-95037764D01*
X128528712Y-95209712D01*
X128687226Y-95419602D01*
X128812369Y-95665886D01*
X128902284Y-95947019D01*
X128937367Y-96124200D01*
X128951633Y-96256509D01*
X128959963Y-96424722D01*
X128962494Y-96614309D01*
X128959364Y-96810737D01*
X128950709Y-96999476D01*
X128936666Y-97165993D01*
X128926853Y-97241800D01*
X128850194Y-97615401D01*
X128739093Y-97956573D01*
X128594541Y-98263499D01*
X128417525Y-98534365D01*
X128209033Y-98767354D01*
X128004086Y-98936920D01*
X127893165Y-99006393D01*
X127764250Y-99073117D01*
X127661186Y-99116508D01*
X127584078Y-99142352D01*
X127512943Y-99160700D01*
X127436034Y-99172998D01*
X127341600Y-99180698D01*
X127217894Y-99185247D01*
X127084200Y-99187674D01*
X126942961Y-99188892D01*
X126815524Y-99188559D01*
X126712480Y-99186809D01*
X126644420Y-99183778D01*
X126627000Y-99181857D01*
X126569174Y-99167414D01*
X126484361Y-99141626D01*
X126411100Y-99117043D01*
X126181904Y-99010216D01*
X125975814Y-98860227D01*
X125795894Y-98670596D01*
X125645207Y-98444840D01*
X125526818Y-98186478D01*
X125481820Y-98050053D01*
X125453399Y-97918179D01*
X125431741Y-97748539D01*
X125417208Y-97553761D01*
X125410164Y-97346474D01*
X125410672Y-97215653D01*
X126425273Y-97215653D01*
X126427321Y-97398164D01*
X126437566Y-97573866D01*
X126455431Y-97730320D01*
X126480339Y-97855087D01*
X126495447Y-97902200D01*
X126585080Y-98077374D01*
X126700824Y-98210535D01*
X126841273Y-98300326D01*
X126944500Y-98334643D01*
X127057448Y-98343300D01*
X127195432Y-98320818D01*
X127259862Y-98302885D01*
X127349642Y-98257766D01*
X127450542Y-98178585D01*
X127550381Y-98076418D01*
X127636974Y-97962342D01*
X127640596Y-97956745D01*
X127743131Y-97762064D01*
X127827320Y-97532160D01*
X127891890Y-97277989D01*
X127935565Y-97010505D01*
X127957072Y-96740665D01*
X127955135Y-96479421D01*
X127928481Y-96237730D01*
X127875835Y-96026546D01*
X127867781Y-96003965D01*
X127788838Y-95848982D01*
X127685526Y-95734872D01*
X127563188Y-95661307D01*
X127427170Y-95627959D01*
X127282818Y-95634500D01*
X127135476Y-95680600D01*
X126990490Y-95765932D01*
X126853206Y-95890167D01*
X126728968Y-96052977D01*
X126715381Y-96074776D01*
X126642458Y-96216576D01*
X126572800Y-96392315D01*
X126511987Y-96585185D01*
X126465598Y-96778378D01*
X126448070Y-96879964D01*
X126431997Y-97038773D01*
X126425273Y-97215653D01*
X125410672Y-97215653D01*
X125410970Y-97139307D01*
X125419989Y-96944888D01*
X125437583Y-96775846D01*
X125444063Y-96734969D01*
X125529486Y-96361126D01*
X125650130Y-96022742D01*
X125807025Y-95717705D01*
X126001201Y-95443904D01*
X126156535Y-95273009D01*
X126363511Y-95088330D01*
X126572779Y-94949228D01*
X126794590Y-94851108D01*
X127039200Y-94789376D01*
X127300561Y-94760332D01*
X127598079Y-94765042D01*
G36*
X134829740Y-94859037D02*
X135028844Y-94860222D01*
X135198281Y-94862040D01*
X135333457Y-94864447D01*
X135429777Y-94867399D01*
X135482646Y-94870850D01*
X135491600Y-94873139D01*
X135477473Y-94896455D01*
X135436369Y-94958762D01*
X135370196Y-95057263D01*
X135280864Y-95189163D01*
X135170286Y-95351666D01*
X135040370Y-95541977D01*
X134893027Y-95757300D01*
X134730168Y-95994839D01*
X134553702Y-96251798D01*
X134365540Y-96525383D01*
X134167593Y-96812796D01*
X134011400Y-97039317D01*
X133767369Y-97392836D01*
X133550401Y-97706649D01*
X133358895Y-97982990D01*
X133191246Y-98224092D01*
X133045853Y-98432188D01*
X132921113Y-98609513D01*
X132815424Y-98758299D01*
X132727183Y-98880780D01*
X132654788Y-98979189D01*
X132596636Y-99055760D01*
X132551124Y-99112727D01*
X132516651Y-99152323D01*
X132491614Y-99176782D01*
X132474410Y-99188336D01*
X132468350Y-99189964D01*
X132423328Y-99185801D01*
X132338748Y-99171056D01*
X132224285Y-99147676D01*
X132089612Y-99117602D01*
X131987063Y-99093261D01*
X131848656Y-99059196D01*
X131728439Y-99028844D01*
X131634691Y-99004356D01*
X131575692Y-98987885D01*
X131559152Y-98982019D01*
X131571740Y-98960153D01*
X131611099Y-98899721D01*
X131675062Y-98803906D01*
X131761459Y-98675892D01*
X131868122Y-98518862D01*
X131992882Y-98336000D01*
X132133569Y-98130491D01*
X132288015Y-97905516D01*
X132454051Y-97664261D01*
X132629508Y-97409908D01*
X132678614Y-97338823D01*
X133807549Y-95705100D01*
X132906564Y-95698425D01*
X132005579Y-95691751D01*
X132021706Y-95611116D01*
X132084160Y-95422253D01*
X132189532Y-95246246D01*
X132330022Y-95093020D01*
X132497833Y-94972502D01*
X132541509Y-94949448D01*
X132709145Y-94866900D01*
X134100372Y-94859722D01*
X134360909Y-94858742D01*
X134605563Y-94858529D01*
X134829740Y-94859037D01*
X134829740Y-94859037D01*
G37*
X134829740Y-94859037D02*
X135028844Y-94860222D01*
X135198281Y-94862040D01*
X135333457Y-94864447D01*
X135429777Y-94867399D01*
X135482646Y-94870850D01*
X135491600Y-94873139D01*
X135477473Y-94896455D01*
X135436369Y-94958762D01*
X135370196Y-95057263D01*
X135280864Y-95189163D01*
X135170286Y-95351666D01*
X135040370Y-95541977D01*
X134893027Y-95757300D01*
X134730168Y-95994839D01*
X134553702Y-96251798D01*
X134365540Y-96525383D01*
X134167593Y-96812796D01*
X134011400Y-97039317D01*
X133767369Y-97392836D01*
X133550401Y-97706649D01*
X133358895Y-97982990D01*
X133191246Y-98224092D01*
X133045853Y-98432188D01*
X132921113Y-98609513D01*
X132815424Y-98758299D01*
X132727183Y-98880780D01*
X132654788Y-98979189D01*
X132596636Y-99055760D01*
X132551124Y-99112727D01*
X132516651Y-99152323D01*
X132491614Y-99176782D01*
X132474410Y-99188336D01*
X132468350Y-99189964D01*
X132423328Y-99185801D01*
X132338748Y-99171056D01*
X132224285Y-99147676D01*
X132089612Y-99117602D01*
X131987063Y-99093261D01*
X131848656Y-99059196D01*
X131728439Y-99028844D01*
X131634691Y-99004356D01*
X131575692Y-98987885D01*
X131559152Y-98982019D01*
X131571740Y-98960153D01*
X131611099Y-98899721D01*
X131675062Y-98803906D01*
X131761459Y-98675892D01*
X131868122Y-98518862D01*
X131992882Y-98336000D01*
X132133569Y-98130491D01*
X132288015Y-97905516D01*
X132454051Y-97664261D01*
X132629508Y-97409908D01*
X132678614Y-97338823D01*
X133807549Y-95705100D01*
X132906564Y-95698425D01*
X132005579Y-95691751D01*
X132021706Y-95611116D01*
X132084160Y-95422253D01*
X132189532Y-95246246D01*
X132330022Y-95093020D01*
X132497833Y-94972502D01*
X132541509Y-94949448D01*
X132709145Y-94866900D01*
X134100372Y-94859722D01*
X134360909Y-94858742D01*
X134605563Y-94858529D01*
X134829740Y-94859037D01*
G36*
X123618431Y-94769706D02*
X123758665Y-94777296D01*
X123871674Y-94791653D01*
X123960000Y-94811228D01*
X124223585Y-94902861D01*
X124445876Y-95024033D01*
X124627090Y-95175000D01*
X124767443Y-95356016D01*
X124867151Y-95567339D01*
X124926430Y-95809223D01*
X124942826Y-95971800D01*
X124935524Y-96256654D01*
X124881645Y-96526732D01*
X124779978Y-96785635D01*
X124629310Y-97036963D01*
X124547738Y-97145377D01*
X124458172Y-97249955D01*
X124332248Y-97385357D01*
X124172177Y-97549346D01*
X123980169Y-97739682D01*
X123758434Y-97954127D01*
X123604400Y-98100669D01*
X123439300Y-98256839D01*
X124096103Y-98257319D01*
X124752907Y-98257800D01*
X124738990Y-98314950D01*
X124731113Y-98359839D01*
X124718878Y-98444554D01*
X124703731Y-98558454D01*
X124687116Y-98690897D01*
X124680375Y-98746750D01*
X124635676Y-99121400D01*
X123053238Y-99121400D01*
X122774894Y-99121100D01*
X122512148Y-99120237D01*
X122269307Y-99118862D01*
X122050680Y-99117027D01*
X121860575Y-99114785D01*
X121703299Y-99112188D01*
X121583163Y-99109289D01*
X121504473Y-99106139D01*
X121471538Y-99102791D01*
X121470800Y-99102203D01*
X121488235Y-99080894D01*
X121538166Y-99027439D01*
X121617030Y-98945474D01*
X121721264Y-98838638D01*
X121847304Y-98710566D01*
X121991587Y-98564896D01*
X122150551Y-98405265D01*
X122298223Y-98257653D01*
X122561033Y-97994538D01*
X122789836Y-97763147D01*
X122987475Y-97560235D01*
X123156792Y-97382558D01*
X123300631Y-97226871D01*
X123421833Y-97089929D01*
X123523241Y-96968489D01*
X123607697Y-96859305D01*
X123678045Y-96759133D01*
X123737127Y-96664728D01*
X123787784Y-96572846D01*
X123806082Y-96536569D01*
X123884415Y-96340545D01*
X123919844Y-96160077D01*
X123912482Y-95998302D01*
X123862441Y-95858360D01*
X123777916Y-95750762D01*
X123661039Y-95672286D01*
X123523890Y-95628386D01*
X123378016Y-95618141D01*
X123234963Y-95640634D01*
X123106277Y-95694943D01*
X123003507Y-95780151D01*
X122977520Y-95814483D01*
X122924804Y-95914868D01*
X122874654Y-96048287D01*
X122833627Y-96197131D01*
X122831470Y-96206750D01*
X122816032Y-96276600D01*
X121826400Y-96276600D01*
X121826400Y-96206239D01*
X121833080Y-96147609D01*
X121850692Y-96058487D01*
X121875591Y-95957044D01*
X121878625Y-95945889D01*
X121979002Y-95662163D01*
X122113781Y-95414807D01*
X122282167Y-95204707D01*
X122483365Y-95032745D01*
X122716578Y-94899807D01*
X122876502Y-94837500D01*
X122967784Y-94809238D01*
X123048605Y-94789896D01*
X123132721Y-94777772D01*
X123233889Y-94771165D01*
X123365866Y-94768375D01*
X123439300Y-94767910D01*
X123618431Y-94769706D01*
X123618431Y-94769706D01*
G37*
X123618431Y-94769706D02*
X123758665Y-94777296D01*
X123871674Y-94791653D01*
X123960000Y-94811228D01*
X124223585Y-94902861D01*
X124445876Y-95024033D01*
X124627090Y-95175000D01*
X124767443Y-95356016D01*
X124867151Y-95567339D01*
X124926430Y-95809223D01*
X124942826Y-95971800D01*
X124935524Y-96256654D01*
X124881645Y-96526732D01*
X124779978Y-96785635D01*
X124629310Y-97036963D01*
X124547738Y-97145377D01*
X124458172Y-97249955D01*
X124332248Y-97385357D01*
X124172177Y-97549346D01*
X123980169Y-97739682D01*
X123758434Y-97954127D01*
X123604400Y-98100669D01*
X123439300Y-98256839D01*
X124096103Y-98257319D01*
X124752907Y-98257800D01*
X124738990Y-98314950D01*
X124731113Y-98359839D01*
X124718878Y-98444554D01*
X124703731Y-98558454D01*
X124687116Y-98690897D01*
X124680375Y-98746750D01*
X124635676Y-99121400D01*
X123053238Y-99121400D01*
X122774894Y-99121100D01*
X122512148Y-99120237D01*
X122269307Y-99118862D01*
X122050680Y-99117027D01*
X121860575Y-99114785D01*
X121703299Y-99112188D01*
X121583163Y-99109289D01*
X121504473Y-99106139D01*
X121471538Y-99102791D01*
X121470800Y-99102203D01*
X121488235Y-99080894D01*
X121538166Y-99027439D01*
X121617030Y-98945474D01*
X121721264Y-98838638D01*
X121847304Y-98710566D01*
X121991587Y-98564896D01*
X122150551Y-98405265D01*
X122298223Y-98257653D01*
X122561033Y-97994538D01*
X122789836Y-97763147D01*
X122987475Y-97560235D01*
X123156792Y-97382558D01*
X123300631Y-97226871D01*
X123421833Y-97089929D01*
X123523241Y-96968489D01*
X123607697Y-96859305D01*
X123678045Y-96759133D01*
X123737127Y-96664728D01*
X123787784Y-96572846D01*
X123806082Y-96536569D01*
X123884415Y-96340545D01*
X123919844Y-96160077D01*
X123912482Y-95998302D01*
X123862441Y-95858360D01*
X123777916Y-95750762D01*
X123661039Y-95672286D01*
X123523890Y-95628386D01*
X123378016Y-95618141D01*
X123234963Y-95640634D01*
X123106277Y-95694943D01*
X123003507Y-95780151D01*
X122977520Y-95814483D01*
X122924804Y-95914868D01*
X122874654Y-96048287D01*
X122833627Y-96197131D01*
X122831470Y-96206750D01*
X122816032Y-96276600D01*
X121826400Y-96276600D01*
X121826400Y-96206239D01*
X121833080Y-96147609D01*
X121850692Y-96058487D01*
X121875591Y-95957044D01*
X121878625Y-95945889D01*
X121979002Y-95662163D01*
X122113781Y-95414807D01*
X122282167Y-95204707D01*
X122483365Y-95032745D01*
X122716578Y-94899807D01*
X122876502Y-94837500D01*
X122967784Y-94809238D01*
X123048605Y-94789896D01*
X123132721Y-94777772D01*
X123233889Y-94771165D01*
X123365866Y-94768375D01*
X123439300Y-94767910D01*
X123618431Y-94769706D01*
G36*
X131170698Y-94858099D02*
X131229837Y-94862939D01*
X131262460Y-94870845D01*
X131274630Y-94882150D01*
X131275200Y-94886164D01*
X131272170Y-94916359D01*
X131263388Y-94993159D01*
X131249315Y-95112753D01*
X131230409Y-95271326D01*
X131207131Y-95465067D01*
X131179941Y-95690163D01*
X131149299Y-95942800D01*
X131115665Y-96219167D01*
X131079499Y-96515449D01*
X131041260Y-96827835D01*
X131021380Y-96989921D01*
X130982279Y-97308853D01*
X130945014Y-97613517D01*
X130910044Y-97900108D01*
X130877830Y-98164825D01*
X130848831Y-98403863D01*
X130823509Y-98613419D01*
X130802322Y-98789692D01*
X130785731Y-98928876D01*
X130774196Y-99027170D01*
X130768177Y-99080770D01*
X130767380Y-99089650D01*
X130755344Y-99101029D01*
X130716018Y-99109547D01*
X130644352Y-99115519D01*
X130535297Y-99119261D01*
X130383805Y-99121089D01*
X130259685Y-99121400D01*
X129752171Y-99121400D01*
X129766321Y-99013450D01*
X129771849Y-98969620D01*
X129782971Y-98879992D01*
X129799120Y-98749192D01*
X129819725Y-98581847D01*
X129844220Y-98382582D01*
X129872034Y-98156025D01*
X129902600Y-97906801D01*
X129935348Y-97639538D01*
X129969711Y-97358861D01*
X129976265Y-97305300D01*
X130172060Y-95705100D01*
X129870054Y-95697946D01*
X129568047Y-95690793D01*
X129585566Y-95596346D01*
X129639930Y-95429567D01*
X129735869Y-95266842D01*
X129864597Y-95118896D01*
X130017328Y-94996452D01*
X130127751Y-94934474D01*
X130179510Y-94911225D01*
X130227374Y-94893855D01*
X130279975Y-94881350D01*
X130345949Y-94872696D01*
X130433928Y-94866879D01*
X130552546Y-94862887D01*
X130710439Y-94859704D01*
X130773550Y-94858643D01*
X130948618Y-94856283D01*
X131078980Y-94855991D01*
X131170698Y-94858099D01*
X131170698Y-94858099D01*
G37*
X131170698Y-94858099D02*
X131229837Y-94862939D01*
X131262460Y-94870845D01*
X131274630Y-94882150D01*
X131275200Y-94886164D01*
X131272170Y-94916359D01*
X131263388Y-94993159D01*
X131249315Y-95112753D01*
X131230409Y-95271326D01*
X131207131Y-95465067D01*
X131179941Y-95690163D01*
X131149299Y-95942800D01*
X131115665Y-96219167D01*
X131079499Y-96515449D01*
X131041260Y-96827835D01*
X131021380Y-96989921D01*
X130982279Y-97308853D01*
X130945014Y-97613517D01*
X130910044Y-97900108D01*
X130877830Y-98164825D01*
X130848831Y-98403863D01*
X130823509Y-98613419D01*
X130802322Y-98789692D01*
X130785731Y-98928876D01*
X130774196Y-99027170D01*
X130768177Y-99080770D01*
X130767380Y-99089650D01*
X130755344Y-99101029D01*
X130716018Y-99109547D01*
X130644352Y-99115519D01*
X130535297Y-99119261D01*
X130383805Y-99121089D01*
X130259685Y-99121400D01*
X129752171Y-99121400D01*
X129766321Y-99013450D01*
X129771849Y-98969620D01*
X129782971Y-98879992D01*
X129799120Y-98749192D01*
X129819725Y-98581847D01*
X129844220Y-98382582D01*
X129872034Y-98156025D01*
X129902600Y-97906801D01*
X129935348Y-97639538D01*
X129969711Y-97358861D01*
X129976265Y-97305300D01*
X130172060Y-95705100D01*
X129870054Y-95697946D01*
X129568047Y-95690793D01*
X129585566Y-95596346D01*
X129639930Y-95429567D01*
X129735869Y-95266842D01*
X129864597Y-95118896D01*
X130017328Y-94996452D01*
X130127751Y-94934474D01*
X130179510Y-94911225D01*
X130227374Y-94893855D01*
X130279975Y-94881350D01*
X130345949Y-94872696D01*
X130433928Y-94866879D01*
X130552546Y-94862887D01*
X130710439Y-94859704D01*
X130773550Y-94858643D01*
X130948618Y-94856283D01*
X131078980Y-94855991D01*
X131170698Y-94858099D01*
G36*
X126894795Y-88636528D02*
X126893404Y-88662845D01*
X126886054Y-88735852D01*
X126873187Y-88851845D01*
X126855249Y-89007119D01*
X126832683Y-89197968D01*
X126805932Y-89420690D01*
X126775441Y-89671578D01*
X126741654Y-89946928D01*
X126705014Y-90243037D01*
X126665966Y-90556198D01*
X126639556Y-90766719D01*
X126599007Y-91089560D01*
X126560334Y-91398167D01*
X126524003Y-91688788D01*
X126490479Y-91957670D01*
X126460228Y-92201059D01*
X126433713Y-92415204D01*
X126411401Y-92596349D01*
X126393755Y-92740743D01*
X126381242Y-92844631D01*
X126374327Y-92904262D01*
X126373053Y-92917450D01*
X126360812Y-92929233D01*
X126320677Y-92937936D01*
X126247464Y-92943909D01*
X126135987Y-92947502D01*
X125981062Y-92949064D01*
X125903100Y-92949200D01*
X125433200Y-92949200D01*
X125433427Y-92892050D01*
X125436568Y-92857680D01*
X125445566Y-92777190D01*
X125459901Y-92654856D01*
X125479052Y-92494956D01*
X125502499Y-92301765D01*
X125529720Y-92079562D01*
X125560196Y-91832624D01*
X125593405Y-91565228D01*
X125628828Y-91281650D01*
X125648746Y-91122873D01*
X125691151Y-90785914D01*
X125727925Y-90495495D01*
X125759668Y-90247741D01*
X125786981Y-90038778D01*
X125810466Y-89864729D01*
X125830721Y-89721719D01*
X125848350Y-89605872D01*
X125863950Y-89513314D01*
X125878125Y-89440168D01*
X125891473Y-89382559D01*
X125904597Y-89336612D01*
X125918095Y-89298451D01*
X125932570Y-89264201D01*
X125938968Y-89250301D01*
X126058191Y-89053253D01*
X126213601Y-88889753D01*
X126400205Y-88763598D01*
X126613013Y-88678585D01*
X126723541Y-88653412D01*
X126807696Y-88640539D01*
X126869707Y-88634615D01*
X126894795Y-88636528D01*
X126894795Y-88636528D01*
G37*
X126894795Y-88636528D02*
X126893404Y-88662845D01*
X126886054Y-88735852D01*
X126873187Y-88851845D01*
X126855249Y-89007119D01*
X126832683Y-89197968D01*
X126805932Y-89420690D01*
X126775441Y-89671578D01*
X126741654Y-89946928D01*
X126705014Y-90243037D01*
X126665966Y-90556198D01*
X126639556Y-90766719D01*
X126599007Y-91089560D01*
X126560334Y-91398167D01*
X126524003Y-91688788D01*
X126490479Y-91957670D01*
X126460228Y-92201059D01*
X126433713Y-92415204D01*
X126411401Y-92596349D01*
X126393755Y-92740743D01*
X126381242Y-92844631D01*
X126374327Y-92904262D01*
X126373053Y-92917450D01*
X126360812Y-92929233D01*
X126320677Y-92937936D01*
X126247464Y-92943909D01*
X126135987Y-92947502D01*
X125981062Y-92949064D01*
X125903100Y-92949200D01*
X125433200Y-92949200D01*
X125433427Y-92892050D01*
X125436568Y-92857680D01*
X125445566Y-92777190D01*
X125459901Y-92654856D01*
X125479052Y-92494956D01*
X125502499Y-92301765D01*
X125529720Y-92079562D01*
X125560196Y-91832624D01*
X125593405Y-91565228D01*
X125628828Y-91281650D01*
X125648746Y-91122873D01*
X125691151Y-90785914D01*
X125727925Y-90495495D01*
X125759668Y-90247741D01*
X125786981Y-90038778D01*
X125810466Y-89864729D01*
X125830721Y-89721719D01*
X125848350Y-89605872D01*
X125863950Y-89513314D01*
X125878125Y-89440168D01*
X125891473Y-89382559D01*
X125904597Y-89336612D01*
X125918095Y-89298451D01*
X125932570Y-89264201D01*
X125938968Y-89250301D01*
X126058191Y-89053253D01*
X126213601Y-88889753D01*
X126400205Y-88763598D01*
X126613013Y-88678585D01*
X126723541Y-88653412D01*
X126807696Y-88640539D01*
X126869707Y-88634615D01*
X126894795Y-88636528D01*
G36*
X113009466Y-88570064D02*
X113222851Y-88616386D01*
X113404037Y-88695660D01*
X113557579Y-88809580D01*
X113621498Y-88875581D01*
X113668125Y-88925632D01*
X113691140Y-88939244D01*
X113698219Y-88919999D01*
X113698400Y-88911483D01*
X113718598Y-88856346D01*
X113770372Y-88789796D01*
X113840489Y-88724351D01*
X113915715Y-88672535D01*
X113977006Y-88647868D01*
X114035420Y-88641235D01*
X114130864Y-88635853D01*
X114249571Y-88632316D01*
X114364207Y-88631199D01*
X114668065Y-88631200D01*
X114653061Y-88726450D01*
X114647049Y-88770198D01*
X114635570Y-88859068D01*
X114619287Y-88987753D01*
X114598860Y-89150944D01*
X114574952Y-89343335D01*
X114548223Y-89559618D01*
X114519336Y-89794486D01*
X114488952Y-90042631D01*
X114486061Y-90066300D01*
X114455565Y-90315415D01*
X114426495Y-90551748D01*
X114399513Y-90769992D01*
X114375282Y-90964840D01*
X114354464Y-91130984D01*
X114337722Y-91263116D01*
X114325719Y-91355930D01*
X114319116Y-91404117D01*
X114318799Y-91406150D01*
X114303534Y-91501400D01*
X113364163Y-91501400D01*
X113380778Y-91418850D01*
X113397062Y-91344388D01*
X113411830Y-91285792D01*
X113416000Y-91258528D01*
X113399774Y-91260139D01*
X113355209Y-91292737D01*
X113340084Y-91304865D01*
X113166861Y-91426721D01*
X112995802Y-91512946D01*
X112901462Y-91544258D01*
X112800392Y-91561302D01*
X112666114Y-91571485D01*
X112515127Y-91574837D01*
X112363930Y-91571387D01*
X112229021Y-91561165D01*
X112126899Y-91544199D01*
X112121805Y-91542868D01*
X111942711Y-91471308D01*
X111768489Y-91358878D01*
X111610278Y-91215123D01*
X111479215Y-91049586D01*
X111415031Y-90937247D01*
X111345231Y-90774979D01*
X111298396Y-90616068D01*
X111271249Y-90444487D01*
X111260512Y-90244208D01*
X111260000Y-90179326D01*
X111267174Y-90047548D01*
X112229175Y-90047548D01*
X112237678Y-90234578D01*
X112289685Y-90405539D01*
X112383817Y-90554162D01*
X112431639Y-90604708D01*
X112523380Y-90680609D01*
X112615485Y-90728547D01*
X112722585Y-90753148D01*
X112859310Y-90759038D01*
X112915208Y-90757598D01*
X113030510Y-90751104D01*
X113112371Y-90739112D01*
X113178134Y-90717384D01*
X113245140Y-90681680D01*
X113258108Y-90673789D01*
X113388513Y-90567743D01*
X113490793Y-90432840D01*
X113563512Y-90278086D01*
X113605238Y-90112486D01*
X113614536Y-89945046D01*
X113589972Y-89784770D01*
X113530113Y-89640664D01*
X113440521Y-89528126D01*
X113321334Y-89448054D01*
X113170595Y-89393796D01*
X113001813Y-89367707D01*
X112828497Y-89372147D01*
X112698046Y-89398556D01*
X112593091Y-89449457D01*
X112484255Y-89535233D01*
X112384139Y-89642711D01*
X112305346Y-89758715D01*
X112265558Y-89850720D01*
X112229175Y-90047548D01*
X111267174Y-90047548D01*
X111276086Y-89883856D01*
X111325918Y-89622039D01*
X111411854Y-89387582D01*
X111536250Y-89174196D01*
X111701465Y-88975589D01*
X111717200Y-88959458D01*
X111885354Y-88808439D01*
X112057479Y-88696340D01*
X112243339Y-88619371D01*
X112452701Y-88573742D01*
X112695332Y-88555661D01*
X112759326Y-88555000D01*
X113009466Y-88570064D01*
X113009466Y-88570064D01*
G37*
X113009466Y-88570064D02*
X113222851Y-88616386D01*
X113404037Y-88695660D01*
X113557579Y-88809580D01*
X113621498Y-88875581D01*
X113668125Y-88925632D01*
X113691140Y-88939244D01*
X113698219Y-88919999D01*
X113698400Y-88911483D01*
X113718598Y-88856346D01*
X113770372Y-88789796D01*
X113840489Y-88724351D01*
X113915715Y-88672535D01*
X113977006Y-88647868D01*
X114035420Y-88641235D01*
X114130864Y-88635853D01*
X114249571Y-88632316D01*
X114364207Y-88631199D01*
X114668065Y-88631200D01*
X114653061Y-88726450D01*
X114647049Y-88770198D01*
X114635570Y-88859068D01*
X114619287Y-88987753D01*
X114598860Y-89150944D01*
X114574952Y-89343335D01*
X114548223Y-89559618D01*
X114519336Y-89794486D01*
X114488952Y-90042631D01*
X114486061Y-90066300D01*
X114455565Y-90315415D01*
X114426495Y-90551748D01*
X114399513Y-90769992D01*
X114375282Y-90964840D01*
X114354464Y-91130984D01*
X114337722Y-91263116D01*
X114325719Y-91355930D01*
X114319116Y-91404117D01*
X114318799Y-91406150D01*
X114303534Y-91501400D01*
X113364163Y-91501400D01*
X113380778Y-91418850D01*
X113397062Y-91344388D01*
X113411830Y-91285792D01*
X113416000Y-91258528D01*
X113399774Y-91260139D01*
X113355209Y-91292737D01*
X113340084Y-91304865D01*
X113166861Y-91426721D01*
X112995802Y-91512946D01*
X112901462Y-91544258D01*
X112800392Y-91561302D01*
X112666114Y-91571485D01*
X112515127Y-91574837D01*
X112363930Y-91571387D01*
X112229021Y-91561165D01*
X112126899Y-91544199D01*
X112121805Y-91542868D01*
X111942711Y-91471308D01*
X111768489Y-91358878D01*
X111610278Y-91215123D01*
X111479215Y-91049586D01*
X111415031Y-90937247D01*
X111345231Y-90774979D01*
X111298396Y-90616068D01*
X111271249Y-90444487D01*
X111260512Y-90244208D01*
X111260000Y-90179326D01*
X111267174Y-90047548D01*
X112229175Y-90047548D01*
X112237678Y-90234578D01*
X112289685Y-90405539D01*
X112383817Y-90554162D01*
X112431639Y-90604708D01*
X112523380Y-90680609D01*
X112615485Y-90728547D01*
X112722585Y-90753148D01*
X112859310Y-90759038D01*
X112915208Y-90757598D01*
X113030510Y-90751104D01*
X113112371Y-90739112D01*
X113178134Y-90717384D01*
X113245140Y-90681680D01*
X113258108Y-90673789D01*
X113388513Y-90567743D01*
X113490793Y-90432840D01*
X113563512Y-90278086D01*
X113605238Y-90112486D01*
X113614536Y-89945046D01*
X113589972Y-89784770D01*
X113530113Y-89640664D01*
X113440521Y-89528126D01*
X113321334Y-89448054D01*
X113170595Y-89393796D01*
X113001813Y-89367707D01*
X112828497Y-89372147D01*
X112698046Y-89398556D01*
X112593091Y-89449457D01*
X112484255Y-89535233D01*
X112384139Y-89642711D01*
X112305346Y-89758715D01*
X112265558Y-89850720D01*
X112229175Y-90047548D01*
X111267174Y-90047548D01*
X111276086Y-89883856D01*
X111325918Y-89622039D01*
X111411854Y-89387582D01*
X111536250Y-89174196D01*
X111701465Y-88975589D01*
X111717200Y-88959458D01*
X111885354Y-88808439D01*
X112057479Y-88696340D01*
X112243339Y-88619371D01*
X112452701Y-88573742D01*
X112695332Y-88555661D01*
X112759326Y-88555000D01*
X113009466Y-88570064D01*
G36*
X118460900Y-88538717D02*
X118753544Y-88574282D01*
X119008969Y-88644376D01*
X119227612Y-88749433D01*
X119409915Y-88889889D01*
X119556316Y-89066180D01*
X119667256Y-89278741D01*
X119743174Y-89528006D01*
X119784509Y-89814412D01*
X119787187Y-89851612D01*
X119791822Y-89965274D01*
X119791435Y-90071117D01*
X119786215Y-90150235D01*
X119784069Y-90164203D01*
X119766698Y-90256800D01*
X117658498Y-90256800D01*
X117674595Y-90352050D01*
X117711873Y-90485339D01*
X117773244Y-90611967D01*
X117849502Y-90715489D01*
X117905484Y-90764511D01*
X117974366Y-90802195D01*
X118053949Y-90824380D01*
X118162717Y-90835889D01*
X118183449Y-90837031D01*
X118289832Y-90837633D01*
X118389008Y-90830163D01*
X118457105Y-90816852D01*
X118532633Y-90775332D01*
X118617389Y-90703798D01*
X118695967Y-90616662D01*
X118740300Y-90551955D01*
X118752272Y-90536592D01*
X118772186Y-90526334D01*
X118807312Y-90521103D01*
X118864922Y-90520819D01*
X118952285Y-90525401D01*
X119076671Y-90534769D01*
X119219848Y-90546682D01*
X119366423Y-90559790D01*
X119494928Y-90572608D01*
X119597019Y-90584196D01*
X119664348Y-90593615D01*
X119688341Y-90599475D01*
X119686992Y-90630916D01*
X119662079Y-90694205D01*
X119618894Y-90779381D01*
X119562727Y-90876483D01*
X119498869Y-90975549D01*
X119457833Y-91033455D01*
X119293166Y-91221577D01*
X119106834Y-91366621D01*
X118892671Y-91472500D01*
X118659903Y-91539934D01*
X118518592Y-91560481D01*
X118344941Y-91571629D01*
X118156517Y-91573464D01*
X117970887Y-91566069D01*
X117805619Y-91549531D01*
X117724300Y-91535417D01*
X117487184Y-91460659D01*
X117273935Y-91345337D01*
X117089579Y-91194102D01*
X116939146Y-91011604D01*
X116827663Y-90802493D01*
X116780590Y-90662573D01*
X116755322Y-90525485D01*
X116740903Y-90355344D01*
X116737312Y-90168723D01*
X116744529Y-89982194D01*
X116762534Y-89812328D01*
X116781741Y-89711401D01*
X116794428Y-89672600D01*
X117758976Y-89672600D01*
X118885507Y-89672600D01*
X118868984Y-89602750D01*
X118821656Y-89490659D01*
X118740568Y-89382175D01*
X118640582Y-89295622D01*
X118601228Y-89272550D01*
X118449162Y-89221736D01*
X118292217Y-89214988D01*
X118139617Y-89248470D01*
X118000585Y-89318349D01*
X117884345Y-89420790D01*
X117800121Y-89551960D01*
X117776284Y-89615450D01*
X117758976Y-89672600D01*
X116794428Y-89672600D01*
X116871245Y-89437689D01*
X116998370Y-89196988D01*
X117160797Y-88990919D01*
X117356208Y-88821101D01*
X117582285Y-88689152D01*
X117836709Y-88596691D01*
X118117163Y-88545338D01*
X118421329Y-88536711D01*
X118460900Y-88538717D01*
X118460900Y-88538717D01*
G37*
X118460900Y-88538717D02*
X118753544Y-88574282D01*
X119008969Y-88644376D01*
X119227612Y-88749433D01*
X119409915Y-88889889D01*
X119556316Y-89066180D01*
X119667256Y-89278741D01*
X119743174Y-89528006D01*
X119784509Y-89814412D01*
X119787187Y-89851612D01*
X119791822Y-89965274D01*
X119791435Y-90071117D01*
X119786215Y-90150235D01*
X119784069Y-90164203D01*
X119766698Y-90256800D01*
X117658498Y-90256800D01*
X117674595Y-90352050D01*
X117711873Y-90485339D01*
X117773244Y-90611967D01*
X117849502Y-90715489D01*
X117905484Y-90764511D01*
X117974366Y-90802195D01*
X118053949Y-90824380D01*
X118162717Y-90835889D01*
X118183449Y-90837031D01*
X118289832Y-90837633D01*
X118389008Y-90830163D01*
X118457105Y-90816852D01*
X118532633Y-90775332D01*
X118617389Y-90703798D01*
X118695967Y-90616662D01*
X118740300Y-90551955D01*
X118752272Y-90536592D01*
X118772186Y-90526334D01*
X118807312Y-90521103D01*
X118864922Y-90520819D01*
X118952285Y-90525401D01*
X119076671Y-90534769D01*
X119219848Y-90546682D01*
X119366423Y-90559790D01*
X119494928Y-90572608D01*
X119597019Y-90584196D01*
X119664348Y-90593615D01*
X119688341Y-90599475D01*
X119686992Y-90630916D01*
X119662079Y-90694205D01*
X119618894Y-90779381D01*
X119562727Y-90876483D01*
X119498869Y-90975549D01*
X119457833Y-91033455D01*
X119293166Y-91221577D01*
X119106834Y-91366621D01*
X118892671Y-91472500D01*
X118659903Y-91539934D01*
X118518592Y-91560481D01*
X118344941Y-91571629D01*
X118156517Y-91573464D01*
X117970887Y-91566069D01*
X117805619Y-91549531D01*
X117724300Y-91535417D01*
X117487184Y-91460659D01*
X117273935Y-91345337D01*
X117089579Y-91194102D01*
X116939146Y-91011604D01*
X116827663Y-90802493D01*
X116780590Y-90662573D01*
X116755322Y-90525485D01*
X116740903Y-90355344D01*
X116737312Y-90168723D01*
X116744529Y-89982194D01*
X116762534Y-89812328D01*
X116781741Y-89711401D01*
X116794428Y-89672600D01*
X117758976Y-89672600D01*
X118885507Y-89672600D01*
X118868984Y-89602750D01*
X118821656Y-89490659D01*
X118740568Y-89382175D01*
X118640582Y-89295622D01*
X118601228Y-89272550D01*
X118449162Y-89221736D01*
X118292217Y-89214988D01*
X118139617Y-89248470D01*
X118000585Y-89318349D01*
X117884345Y-89420790D01*
X117800121Y-89551960D01*
X117776284Y-89615450D01*
X117758976Y-89672600D01*
X116794428Y-89672600D01*
X116871245Y-89437689D01*
X116998370Y-89196988D01*
X117160797Y-88990919D01*
X117356208Y-88821101D01*
X117582285Y-88689152D01*
X117836709Y-88596691D01*
X118117163Y-88545338D01*
X118421329Y-88536711D01*
X118460900Y-88538717D01*
G36*
X129064066Y-88566019D02*
X129208011Y-88587824D01*
X129262506Y-88601944D01*
X129429761Y-88672068D01*
X129586791Y-88770782D01*
X129698541Y-88869869D01*
X129760182Y-88936135D01*
X129812945Y-88840817D01*
X129892334Y-88745766D01*
X129978936Y-88688350D01*
X130032570Y-88664105D01*
X130087437Y-88647789D01*
X130155156Y-88637886D01*
X130247348Y-88632880D01*
X130375631Y-88631255D01*
X130416981Y-88631200D01*
X130538739Y-88632164D01*
X130639700Y-88634802D01*
X130710355Y-88638727D01*
X130741195Y-88643554D01*
X130741800Y-88644358D01*
X130738759Y-88673837D01*
X130730104Y-88748080D01*
X130716533Y-88861446D01*
X130698744Y-89008293D01*
X130677435Y-89182980D01*
X130653305Y-89379866D01*
X130627053Y-89593309D01*
X130599376Y-89817667D01*
X130570974Y-90047298D01*
X130542544Y-90276562D01*
X130514786Y-90499816D01*
X130488397Y-90711420D01*
X130464075Y-90905730D01*
X130442521Y-91077107D01*
X130424431Y-91219908D01*
X130410504Y-91328492D01*
X130401439Y-91397217D01*
X130398315Y-91418850D01*
X130383898Y-91501400D01*
X129442363Y-91501400D01*
X129458978Y-91418850D01*
X129474860Y-91345755D01*
X129488990Y-91289068D01*
X129485390Y-91271510D01*
X129453766Y-91283515D01*
X129389857Y-91327023D01*
X129365286Y-91345349D01*
X129247601Y-91429028D01*
X129142737Y-91488688D01*
X129037133Y-91528577D01*
X128917228Y-91552946D01*
X128769463Y-91566044D01*
X128646300Y-91570678D01*
X128503131Y-91573309D01*
X128397391Y-91571744D01*
X128315786Y-91564658D01*
X128245026Y-91550724D01*
X128171820Y-91528618D01*
X128150316Y-91521218D01*
X127941717Y-91421919D01*
X127756372Y-91280175D01*
X127598877Y-91100789D01*
X127473827Y-90888564D01*
X127419833Y-90757586D01*
X127379154Y-90602498D01*
X127352229Y-90414557D01*
X127339804Y-90210015D01*
X127341257Y-90104400D01*
X128317440Y-90104400D01*
X128325632Y-90263223D01*
X128355866Y-90388791D01*
X128413881Y-90495963D01*
X128505419Y-90599597D01*
X128510724Y-90604708D01*
X128601709Y-90680570D01*
X128693599Y-90728521D01*
X128800871Y-90753145D01*
X128938003Y-90759029D01*
X128993408Y-90757598D01*
X129108636Y-90751115D01*
X129190357Y-90739164D01*
X129255848Y-90717519D01*
X129322386Y-90681957D01*
X129335431Y-90673985D01*
X129482367Y-90554389D01*
X129594171Y-90402777D01*
X129666867Y-90227254D01*
X129696481Y-90035925D01*
X129694325Y-89942082D01*
X129659067Y-89758682D01*
X129586263Y-89609154D01*
X129477211Y-89494639D01*
X129333214Y-89416276D01*
X129155573Y-89375204D01*
X129040000Y-89368915D01*
X128842994Y-89389021D01*
X128675321Y-89450256D01*
X128534685Y-89553996D01*
X128418789Y-89701616D01*
X128384899Y-89761500D01*
X128350201Y-89836403D01*
X128329795Y-89908604D01*
X128320063Y-89996493D01*
X128317440Y-90104400D01*
X127341257Y-90104400D01*
X127342624Y-90005127D01*
X127361435Y-89816145D01*
X127373572Y-89748800D01*
X127451775Y-89486518D01*
X127569621Y-89247159D01*
X127722831Y-89035445D01*
X127907125Y-88856095D01*
X128118224Y-88713831D01*
X128351846Y-88613374D01*
X128421028Y-88593300D01*
X128557179Y-88568948D01*
X128721302Y-88556403D01*
X128896047Y-88555487D01*
X129064066Y-88566019D01*
X129064066Y-88566019D01*
G37*
X129064066Y-88566019D02*
X129208011Y-88587824D01*
X129262506Y-88601944D01*
X129429761Y-88672068D01*
X129586791Y-88770782D01*
X129698541Y-88869869D01*
X129760182Y-88936135D01*
X129812945Y-88840817D01*
X129892334Y-88745766D01*
X129978936Y-88688350D01*
X130032570Y-88664105D01*
X130087437Y-88647789D01*
X130155156Y-88637886D01*
X130247348Y-88632880D01*
X130375631Y-88631255D01*
X130416981Y-88631200D01*
X130538739Y-88632164D01*
X130639700Y-88634802D01*
X130710355Y-88638727D01*
X130741195Y-88643554D01*
X130741800Y-88644358D01*
X130738759Y-88673837D01*
X130730104Y-88748080D01*
X130716533Y-88861446D01*
X130698744Y-89008293D01*
X130677435Y-89182980D01*
X130653305Y-89379866D01*
X130627053Y-89593309D01*
X130599376Y-89817667D01*
X130570974Y-90047298D01*
X130542544Y-90276562D01*
X130514786Y-90499816D01*
X130488397Y-90711420D01*
X130464075Y-90905730D01*
X130442521Y-91077107D01*
X130424431Y-91219908D01*
X130410504Y-91328492D01*
X130401439Y-91397217D01*
X130398315Y-91418850D01*
X130383898Y-91501400D01*
X129442363Y-91501400D01*
X129458978Y-91418850D01*
X129474860Y-91345755D01*
X129488990Y-91289068D01*
X129485390Y-91271510D01*
X129453766Y-91283515D01*
X129389857Y-91327023D01*
X129365286Y-91345349D01*
X129247601Y-91429028D01*
X129142737Y-91488688D01*
X129037133Y-91528577D01*
X128917228Y-91552946D01*
X128769463Y-91566044D01*
X128646300Y-91570678D01*
X128503131Y-91573309D01*
X128397391Y-91571744D01*
X128315786Y-91564658D01*
X128245026Y-91550724D01*
X128171820Y-91528618D01*
X128150316Y-91521218D01*
X127941717Y-91421919D01*
X127756372Y-91280175D01*
X127598877Y-91100789D01*
X127473827Y-90888564D01*
X127419833Y-90757586D01*
X127379154Y-90602498D01*
X127352229Y-90414557D01*
X127339804Y-90210015D01*
X127341257Y-90104400D01*
X128317440Y-90104400D01*
X128325632Y-90263223D01*
X128355866Y-90388791D01*
X128413881Y-90495963D01*
X128505419Y-90599597D01*
X128510724Y-90604708D01*
X128601709Y-90680570D01*
X128693599Y-90728521D01*
X128800871Y-90753145D01*
X128938003Y-90759029D01*
X128993408Y-90757598D01*
X129108636Y-90751115D01*
X129190357Y-90739164D01*
X129255848Y-90717519D01*
X129322386Y-90681957D01*
X129335431Y-90673985D01*
X129482367Y-90554389D01*
X129594171Y-90402777D01*
X129666867Y-90227254D01*
X129696481Y-90035925D01*
X129694325Y-89942082D01*
X129659067Y-89758682D01*
X129586263Y-89609154D01*
X129477211Y-89494639D01*
X129333214Y-89416276D01*
X129155573Y-89375204D01*
X129040000Y-89368915D01*
X128842994Y-89389021D01*
X128675321Y-89450256D01*
X128534685Y-89553996D01*
X128418789Y-89701616D01*
X128384899Y-89761500D01*
X128350201Y-89836403D01*
X128329795Y-89908604D01*
X128320063Y-89996493D01*
X128317440Y-90104400D01*
X127341257Y-90104400D01*
X127342624Y-90005127D01*
X127361435Y-89816145D01*
X127373572Y-89748800D01*
X127451775Y-89486518D01*
X127569621Y-89247159D01*
X127722831Y-89035445D01*
X127907125Y-88856095D01*
X128118224Y-88713831D01*
X128351846Y-88613374D01*
X128421028Y-88593300D01*
X128557179Y-88568948D01*
X128721302Y-88556403D01*
X128896047Y-88555487D01*
X129064066Y-88566019D01*
G36*
X140051481Y-88563854D02*
X140230811Y-88593100D01*
X140385382Y-88646757D01*
X140526857Y-88728846D01*
X140663650Y-88840396D01*
X140768400Y-88936570D01*
X140800722Y-88858539D01*
X140842175Y-88792796D01*
X140904903Y-88726639D01*
X140922537Y-88712203D01*
X140960020Y-88685359D01*
X140996868Y-88666381D01*
X141042809Y-88653624D01*
X141107569Y-88645444D01*
X141200876Y-88640198D01*
X141332458Y-88636241D01*
X141378660Y-88635112D01*
X141745288Y-88626324D01*
X141730282Y-88724012D01*
X141724295Y-88768164D01*
X141712861Y-88857460D01*
X141696636Y-88986610D01*
X141676273Y-89150327D01*
X141652428Y-89343320D01*
X141625757Y-89560301D01*
X141596915Y-89795981D01*
X141566556Y-90045072D01*
X141562430Y-90079000D01*
X141531984Y-90328849D01*
X141503009Y-90565476D01*
X141476152Y-90783674D01*
X141452060Y-90978233D01*
X141431383Y-91143945D01*
X141414766Y-91275602D01*
X141402858Y-91367994D01*
X141396307Y-91415914D01*
X141395842Y-91418850D01*
X141382098Y-91501400D01*
X140440563Y-91501400D01*
X140457178Y-91418850D01*
X140473060Y-91345755D01*
X140487190Y-91289068D01*
X140483590Y-91271510D01*
X140451966Y-91283515D01*
X140388057Y-91327023D01*
X140363486Y-91345349D01*
X140245773Y-91429090D01*
X140141085Y-91488722D01*
X140035857Y-91528475D01*
X139916523Y-91552580D01*
X139769519Y-91565269D01*
X139644500Y-91569588D01*
X139456906Y-91570039D01*
X139309538Y-91562303D01*
X139207116Y-91546648D01*
X139198205Y-91544288D01*
X139000406Y-91463038D01*
X138817853Y-91338264D01*
X138656262Y-91176340D01*
X138521347Y-90983640D01*
X138418824Y-90766537D01*
X138374954Y-90626113D01*
X138350282Y-90483618D01*
X138337620Y-90309018D01*
X138336776Y-90119520D01*
X138338082Y-90096835D01*
X139305793Y-90096835D01*
X139307525Y-90155200D01*
X139318858Y-90263915D01*
X139337935Y-90361206D01*
X139360069Y-90425554D01*
X139443015Y-90542966D01*
X139556058Y-90647982D01*
X139669336Y-90717274D01*
X139781267Y-90749611D01*
X139920278Y-90763146D01*
X140066127Y-90757557D01*
X140198574Y-90732524D01*
X140219247Y-90725991D01*
X140374344Y-90647831D01*
X140501461Y-90528050D01*
X140593439Y-90382901D01*
X140664611Y-90196354D01*
X140692367Y-90014440D01*
X140678189Y-89843161D01*
X140623563Y-89688521D01*
X140529971Y-89556524D01*
X140398898Y-89453173D01*
X140358255Y-89431437D01*
X140280793Y-89396517D01*
X140214199Y-89376925D01*
X140139520Y-89369467D01*
X140037801Y-89370950D01*
X140007155Y-89372286D01*
X139841588Y-89389331D01*
X139710132Y-89427001D01*
X139598277Y-89491199D01*
X139500646Y-89578313D01*
X139392561Y-89725343D01*
X139327430Y-89898720D01*
X139305793Y-90096835D01*
X138338082Y-90096835D01*
X138347555Y-89932331D01*
X138369766Y-89764658D01*
X138385418Y-89692267D01*
X138475186Y-89426117D01*
X138601331Y-89192431D01*
X138767389Y-88984918D01*
X138803453Y-88948217D01*
X138976184Y-88798197D01*
X139154414Y-88687525D01*
X139347740Y-88612548D01*
X139565759Y-88569608D01*
X139818069Y-88555050D01*
X139835726Y-88555000D01*
X140051481Y-88563854D01*
X140051481Y-88563854D01*
G37*
X140051481Y-88563854D02*
X140230811Y-88593100D01*
X140385382Y-88646757D01*
X140526857Y-88728846D01*
X140663650Y-88840396D01*
X140768400Y-88936570D01*
X140800722Y-88858539D01*
X140842175Y-88792796D01*
X140904903Y-88726639D01*
X140922537Y-88712203D01*
X140960020Y-88685359D01*
X140996868Y-88666381D01*
X141042809Y-88653624D01*
X141107569Y-88645444D01*
X141200876Y-88640198D01*
X141332458Y-88636241D01*
X141378660Y-88635112D01*
X141745288Y-88626324D01*
X141730282Y-88724012D01*
X141724295Y-88768164D01*
X141712861Y-88857460D01*
X141696636Y-88986610D01*
X141676273Y-89150327D01*
X141652428Y-89343320D01*
X141625757Y-89560301D01*
X141596915Y-89795981D01*
X141566556Y-90045072D01*
X141562430Y-90079000D01*
X141531984Y-90328849D01*
X141503009Y-90565476D01*
X141476152Y-90783674D01*
X141452060Y-90978233D01*
X141431383Y-91143945D01*
X141414766Y-91275602D01*
X141402858Y-91367994D01*
X141396307Y-91415914D01*
X141395842Y-91418850D01*
X141382098Y-91501400D01*
X140440563Y-91501400D01*
X140457178Y-91418850D01*
X140473060Y-91345755D01*
X140487190Y-91289068D01*
X140483590Y-91271510D01*
X140451966Y-91283515D01*
X140388057Y-91327023D01*
X140363486Y-91345349D01*
X140245773Y-91429090D01*
X140141085Y-91488722D01*
X140035857Y-91528475D01*
X139916523Y-91552580D01*
X139769519Y-91565269D01*
X139644500Y-91569588D01*
X139456906Y-91570039D01*
X139309538Y-91562303D01*
X139207116Y-91546648D01*
X139198205Y-91544288D01*
X139000406Y-91463038D01*
X138817853Y-91338264D01*
X138656262Y-91176340D01*
X138521347Y-90983640D01*
X138418824Y-90766537D01*
X138374954Y-90626113D01*
X138350282Y-90483618D01*
X138337620Y-90309018D01*
X138336776Y-90119520D01*
X138338082Y-90096835D01*
X139305793Y-90096835D01*
X139307525Y-90155200D01*
X139318858Y-90263915D01*
X139337935Y-90361206D01*
X139360069Y-90425554D01*
X139443015Y-90542966D01*
X139556058Y-90647982D01*
X139669336Y-90717274D01*
X139781267Y-90749611D01*
X139920278Y-90763146D01*
X140066127Y-90757557D01*
X140198574Y-90732524D01*
X140219247Y-90725991D01*
X140374344Y-90647831D01*
X140501461Y-90528050D01*
X140593439Y-90382901D01*
X140664611Y-90196354D01*
X140692367Y-90014440D01*
X140678189Y-89843161D01*
X140623563Y-89688521D01*
X140529971Y-89556524D01*
X140398898Y-89453173D01*
X140358255Y-89431437D01*
X140280793Y-89396517D01*
X140214199Y-89376925D01*
X140139520Y-89369467D01*
X140037801Y-89370950D01*
X140007155Y-89372286D01*
X139841588Y-89389331D01*
X139710132Y-89427001D01*
X139598277Y-89491199D01*
X139500646Y-89578313D01*
X139392561Y-89725343D01*
X139327430Y-89898720D01*
X139305793Y-90096835D01*
X138338082Y-90096835D01*
X138347555Y-89932331D01*
X138369766Y-89764658D01*
X138385418Y-89692267D01*
X138475186Y-89426117D01*
X138601331Y-89192431D01*
X138767389Y-88984918D01*
X138803453Y-88948217D01*
X138976184Y-88798197D01*
X139154414Y-88687525D01*
X139347740Y-88612548D01*
X139565759Y-88569608D01*
X139818069Y-88555050D01*
X139835726Y-88555000D01*
X140051481Y-88563854D01*
G36*
X116557158Y-86834444D02*
X116559988Y-86836121D01*
X116557975Y-86861641D01*
X116550222Y-86933256D01*
X116537257Y-87046652D01*
X116519608Y-87197512D01*
X116497804Y-87381520D01*
X116472371Y-87594361D01*
X116443839Y-87831718D01*
X116412735Y-88089276D01*
X116379588Y-88362719D01*
X116344925Y-88647731D01*
X116309274Y-88939996D01*
X116273164Y-89235198D01*
X116237122Y-89529022D01*
X116201677Y-89817151D01*
X116167357Y-90095269D01*
X116134689Y-90359062D01*
X116104202Y-90604212D01*
X116076423Y-90826404D01*
X116051881Y-91021322D01*
X116031104Y-91184651D01*
X116014620Y-91312074D01*
X116002957Y-91399275D01*
X115996643Y-91441939D01*
X115996186Y-91444250D01*
X115990395Y-91464302D01*
X115978621Y-91479012D01*
X115953864Y-91489207D01*
X115909124Y-91495714D01*
X115837401Y-91499361D01*
X115731693Y-91500976D01*
X115585001Y-91501387D01*
X115512865Y-91501400D01*
X115042298Y-91501400D01*
X115056591Y-91418850D01*
X115062023Y-91380219D01*
X115073068Y-91295469D01*
X115089188Y-91168907D01*
X115109845Y-91004839D01*
X115134502Y-90807572D01*
X115162622Y-90581413D01*
X115193668Y-90330668D01*
X115227101Y-90059646D01*
X115262386Y-89772652D01*
X115285554Y-89583700D01*
X115322100Y-89286474D01*
X115357502Y-89000736D01*
X115391181Y-88731018D01*
X115422560Y-88481853D01*
X115451061Y-88257772D01*
X115476103Y-88063307D01*
X115497111Y-87902992D01*
X115513504Y-87781356D01*
X115524705Y-87702934D01*
X115528657Y-87678700D01*
X115590441Y-87477006D01*
X115694156Y-87289279D01*
X115832334Y-87125201D01*
X115997507Y-86994455D01*
X116098700Y-86939550D01*
X116166689Y-86913905D01*
X116255992Y-86887487D01*
X116353148Y-86863314D01*
X116444700Y-86844405D01*
X116517189Y-86833775D01*
X116557158Y-86834444D01*
X116557158Y-86834444D01*
G37*
X116557158Y-86834444D02*
X116559988Y-86836121D01*
X116557975Y-86861641D01*
X116550222Y-86933256D01*
X116537257Y-87046652D01*
X116519608Y-87197512D01*
X116497804Y-87381520D01*
X116472371Y-87594361D01*
X116443839Y-87831718D01*
X116412735Y-88089276D01*
X116379588Y-88362719D01*
X116344925Y-88647731D01*
X116309274Y-88939996D01*
X116273164Y-89235198D01*
X116237122Y-89529022D01*
X116201677Y-89817151D01*
X116167357Y-90095269D01*
X116134689Y-90359062D01*
X116104202Y-90604212D01*
X116076423Y-90826404D01*
X116051881Y-91021322D01*
X116031104Y-91184651D01*
X116014620Y-91312074D01*
X116002957Y-91399275D01*
X115996643Y-91441939D01*
X115996186Y-91444250D01*
X115990395Y-91464302D01*
X115978621Y-91479012D01*
X115953864Y-91489207D01*
X115909124Y-91495714D01*
X115837401Y-91499361D01*
X115731693Y-91500976D01*
X115585001Y-91501387D01*
X115512865Y-91501400D01*
X115042298Y-91501400D01*
X115056591Y-91418850D01*
X115062023Y-91380219D01*
X115073068Y-91295469D01*
X115089188Y-91168907D01*
X115109845Y-91004839D01*
X115134502Y-90807572D01*
X115162622Y-90581413D01*
X115193668Y-90330668D01*
X115227101Y-90059646D01*
X115262386Y-89772652D01*
X115285554Y-89583700D01*
X115322100Y-89286474D01*
X115357502Y-89000736D01*
X115391181Y-88731018D01*
X115422560Y-88481853D01*
X115451061Y-88257772D01*
X115476103Y-88063307D01*
X115497111Y-87902992D01*
X115513504Y-87781356D01*
X115524705Y-87702934D01*
X115528657Y-87678700D01*
X115590441Y-87477006D01*
X115694156Y-87289279D01*
X115832334Y-87125201D01*
X115997507Y-86994455D01*
X116098700Y-86939550D01*
X116166689Y-86913905D01*
X116255992Y-86887487D01*
X116353148Y-86863314D01*
X116444700Y-86844405D01*
X116517189Y-86833775D01*
X116557158Y-86834444D01*
G36*
X123483267Y-88632204D02*
X123617998Y-88635005D01*
X123726164Y-88639285D01*
X123800127Y-88644726D01*
X123832249Y-88651009D01*
X123833000Y-88652156D01*
X123815397Y-88674092D01*
X123765328Y-88727158D01*
X123686904Y-88807232D01*
X123584234Y-88910190D01*
X123461427Y-89031909D01*
X123322593Y-89168264D01*
X123183938Y-89303391D01*
X123034319Y-89449809D01*
X122897513Y-89585869D01*
X122777554Y-89707389D01*
X122678474Y-89810190D01*
X122604308Y-89890091D01*
X122559087Y-89942912D01*
X122546526Y-89964024D01*
X122564196Y-89990607D01*
X122609264Y-90052691D01*
X122678155Y-90145510D01*
X122767294Y-90264298D01*
X122873106Y-90404290D01*
X122992017Y-90560721D01*
X123109099Y-90713999D01*
X123236959Y-90881477D01*
X123355052Y-91037056D01*
X123459789Y-91175941D01*
X123547579Y-91293332D01*
X123614832Y-91384430D01*
X123657959Y-91444439D01*
X123673212Y-91467985D01*
X123669871Y-91479060D01*
X123646629Y-91487302D01*
X123598139Y-91492966D01*
X123519051Y-91496305D01*
X123404018Y-91497575D01*
X123247691Y-91497030D01*
X123094959Y-91495525D01*
X122503519Y-91488700D01*
X122196709Y-91051162D01*
X122104750Y-90921051D01*
X122022250Y-90806279D01*
X121953719Y-90712962D01*
X121903669Y-90647216D01*
X121876610Y-90615157D01*
X121873551Y-90613012D01*
X121852625Y-90630874D01*
X121802701Y-90681345D01*
X121728695Y-90759211D01*
X121635523Y-90859262D01*
X121528103Y-90976283D01*
X121454849Y-91056900D01*
X121052495Y-91501400D01*
X120434031Y-91501400D01*
X120234818Y-91500436D01*
X120070732Y-91497643D01*
X119945406Y-91493164D01*
X119862471Y-91487144D01*
X119825559Y-91479727D01*
X119824033Y-91477154D01*
X119843024Y-91454259D01*
X119893735Y-91398959D01*
X119972405Y-91315206D01*
X120075272Y-91206952D01*
X120198575Y-91078146D01*
X120338552Y-90932740D01*
X120491443Y-90774685D01*
X120562015Y-90701968D01*
X121291530Y-89951027D01*
X120938749Y-89496538D01*
X120835411Y-89362722D01*
X120741555Y-89239885D01*
X120662064Y-89134526D01*
X120601822Y-89053139D01*
X120565714Y-89002223D01*
X120558484Y-88990694D01*
X120532412Y-88893201D01*
X120554729Y-88785515D01*
X120561345Y-88770190D01*
X120590863Y-88720212D01*
X120632225Y-88683538D01*
X120692929Y-88658238D01*
X120780473Y-88642379D01*
X120902355Y-88634029D01*
X121066074Y-88631255D01*
X121100789Y-88631200D01*
X121469902Y-88631200D01*
X121702565Y-88980450D01*
X121780681Y-89097553D01*
X121848661Y-89199167D01*
X121901651Y-89278059D01*
X121934796Y-89326996D01*
X121943610Y-89339579D01*
X121963016Y-89326933D01*
X122006399Y-89284409D01*
X122064831Y-89220833D01*
X122072106Y-89212579D01*
X122146090Y-89130713D01*
X122239827Y-89030417D01*
X122337013Y-88929048D01*
X122371259Y-88894058D01*
X122451394Y-88815474D01*
X122523572Y-88754293D01*
X122595689Y-88708348D01*
X122675643Y-88675473D01*
X122771330Y-88653502D01*
X122890649Y-88640269D01*
X123041496Y-88633609D01*
X123231768Y-88631354D01*
X123329610Y-88631199D01*
X123483267Y-88632204D01*
X123483267Y-88632204D01*
G37*
X123483267Y-88632204D02*
X123617998Y-88635005D01*
X123726164Y-88639285D01*
X123800127Y-88644726D01*
X123832249Y-88651009D01*
X123833000Y-88652156D01*
X123815397Y-88674092D01*
X123765328Y-88727158D01*
X123686904Y-88807232D01*
X123584234Y-88910190D01*
X123461427Y-89031909D01*
X123322593Y-89168264D01*
X123183938Y-89303391D01*
X123034319Y-89449809D01*
X122897513Y-89585869D01*
X122777554Y-89707389D01*
X122678474Y-89810190D01*
X122604308Y-89890091D01*
X122559087Y-89942912D01*
X122546526Y-89964024D01*
X122564196Y-89990607D01*
X122609264Y-90052691D01*
X122678155Y-90145510D01*
X122767294Y-90264298D01*
X122873106Y-90404290D01*
X122992017Y-90560721D01*
X123109099Y-90713999D01*
X123236959Y-90881477D01*
X123355052Y-91037056D01*
X123459789Y-91175941D01*
X123547579Y-91293332D01*
X123614832Y-91384430D01*
X123657959Y-91444439D01*
X123673212Y-91467985D01*
X123669871Y-91479060D01*
X123646629Y-91487302D01*
X123598139Y-91492966D01*
X123519051Y-91496305D01*
X123404018Y-91497575D01*
X123247691Y-91497030D01*
X123094959Y-91495525D01*
X122503519Y-91488700D01*
X122196709Y-91051162D01*
X122104750Y-90921051D01*
X122022250Y-90806279D01*
X121953719Y-90712962D01*
X121903669Y-90647216D01*
X121876610Y-90615157D01*
X121873551Y-90613012D01*
X121852625Y-90630874D01*
X121802701Y-90681345D01*
X121728695Y-90759211D01*
X121635523Y-90859262D01*
X121528103Y-90976283D01*
X121454849Y-91056900D01*
X121052495Y-91501400D01*
X120434031Y-91501400D01*
X120234818Y-91500436D01*
X120070732Y-91497643D01*
X119945406Y-91493164D01*
X119862471Y-91487144D01*
X119825559Y-91479727D01*
X119824033Y-91477154D01*
X119843024Y-91454259D01*
X119893735Y-91398959D01*
X119972405Y-91315206D01*
X120075272Y-91206952D01*
X120198575Y-91078146D01*
X120338552Y-90932740D01*
X120491443Y-90774685D01*
X120562015Y-90701968D01*
X121291530Y-89951027D01*
X120938749Y-89496538D01*
X120835411Y-89362722D01*
X120741555Y-89239885D01*
X120662064Y-89134526D01*
X120601822Y-89053139D01*
X120565714Y-89002223D01*
X120558484Y-88990694D01*
X120532412Y-88893201D01*
X120554729Y-88785515D01*
X120561345Y-88770190D01*
X120590863Y-88720212D01*
X120632225Y-88683538D01*
X120692929Y-88658238D01*
X120780473Y-88642379D01*
X120902355Y-88634029D01*
X121066074Y-88631255D01*
X121100789Y-88631200D01*
X121469902Y-88631200D01*
X121702565Y-88980450D01*
X121780681Y-89097553D01*
X121848661Y-89199167D01*
X121901651Y-89278059D01*
X121934796Y-89326996D01*
X121943610Y-89339579D01*
X121963016Y-89326933D01*
X122006399Y-89284409D01*
X122064831Y-89220833D01*
X122072106Y-89212579D01*
X122146090Y-89130713D01*
X122239827Y-89030417D01*
X122337013Y-88929048D01*
X122371259Y-88894058D01*
X122451394Y-88815474D01*
X122523572Y-88754293D01*
X122595689Y-88708348D01*
X122675643Y-88675473D01*
X122771330Y-88653502D01*
X122890649Y-88640269D01*
X123041496Y-88633609D01*
X123231768Y-88631354D01*
X123329610Y-88631199D01*
X123483267Y-88632204D01*
G36*
X133445668Y-88575939D02*
X133660531Y-88619003D01*
X133836112Y-88689561D01*
X133977946Y-88791193D01*
X134091569Y-88927475D01*
X134150603Y-89031604D01*
X134186172Y-89106298D01*
X134209886Y-89167644D01*
X134224119Y-89229210D01*
X134231244Y-89304563D01*
X134233634Y-89407273D01*
X134233754Y-89506950D01*
X134229712Y-89639295D01*
X134218284Y-89816461D01*
X134199939Y-90033079D01*
X134175146Y-90283781D01*
X134144371Y-90563198D01*
X134133449Y-90656850D01*
X134033689Y-91501400D01*
X133074563Y-91501400D01*
X133088534Y-91431550D01*
X133095044Y-91389330D01*
X133106726Y-91303548D01*
X133122698Y-91181082D01*
X133142080Y-91028809D01*
X133163991Y-90853604D01*
X133187548Y-90662345D01*
X133196044Y-90592677D01*
X133222795Y-90370308D01*
X133243369Y-90192047D01*
X133258200Y-90051632D01*
X133267722Y-89942804D01*
X133272368Y-89859301D01*
X133272572Y-89794863D01*
X133268767Y-89743229D01*
X133261387Y-89698139D01*
X133258822Y-89686205D01*
X133205559Y-89548665D01*
X133117592Y-89446157D01*
X132999070Y-89380985D01*
X132854145Y-89355454D01*
X132691250Y-89370957D01*
X132600654Y-89397486D01*
X132525935Y-89441069D01*
X132445651Y-89514319D01*
X132443093Y-89516942D01*
X132402483Y-89560212D01*
X132367431Y-89603171D01*
X132336954Y-89650300D01*
X132310067Y-89706085D01*
X132285787Y-89775006D01*
X132263127Y-89861548D01*
X132241106Y-89970193D01*
X132218737Y-90105423D01*
X132195037Y-90271723D01*
X132169022Y-90473575D01*
X132139707Y-90715461D01*
X132106108Y-91001865D01*
X132093821Y-91107700D01*
X132049650Y-91488700D01*
X131574048Y-91495608D01*
X131098446Y-91502517D01*
X131111166Y-91432108D01*
X131117053Y-91391389D01*
X131128239Y-91306329D01*
X131143958Y-91183026D01*
X131163446Y-91027575D01*
X131185940Y-90846075D01*
X131210676Y-90644620D01*
X131236888Y-90429309D01*
X131237786Y-90421900D01*
X131264931Y-90203218D01*
X131291916Y-89995644D01*
X131317793Y-89805757D01*
X131341619Y-89640133D01*
X131362445Y-89505349D01*
X131379328Y-89407984D01*
X131391170Y-89355100D01*
X131477882Y-89158988D01*
X131605594Y-88986210D01*
X131767820Y-88842059D01*
X131958072Y-88731828D01*
X132169863Y-88660808D01*
X132262730Y-88644074D01*
X132399361Y-88625530D01*
X132380958Y-88772823D01*
X132362555Y-88920115D01*
X132454977Y-88838968D01*
X132638447Y-88711011D01*
X132850450Y-88621677D01*
X133084646Y-88572651D01*
X133334695Y-88565615D01*
X133445668Y-88575939D01*
X133445668Y-88575939D01*
G37*
X133445668Y-88575939D02*
X133660531Y-88619003D01*
X133836112Y-88689561D01*
X133977946Y-88791193D01*
X134091569Y-88927475D01*
X134150603Y-89031604D01*
X134186172Y-89106298D01*
X134209886Y-89167644D01*
X134224119Y-89229210D01*
X134231244Y-89304563D01*
X134233634Y-89407273D01*
X134233754Y-89506950D01*
X134229712Y-89639295D01*
X134218284Y-89816461D01*
X134199939Y-90033079D01*
X134175146Y-90283781D01*
X134144371Y-90563198D01*
X134133449Y-90656850D01*
X134033689Y-91501400D01*
X133074563Y-91501400D01*
X133088534Y-91431550D01*
X133095044Y-91389330D01*
X133106726Y-91303548D01*
X133122698Y-91181082D01*
X133142080Y-91028809D01*
X133163991Y-90853604D01*
X133187548Y-90662345D01*
X133196044Y-90592677D01*
X133222795Y-90370308D01*
X133243369Y-90192047D01*
X133258200Y-90051632D01*
X133267722Y-89942804D01*
X133272368Y-89859301D01*
X133272572Y-89794863D01*
X133268767Y-89743229D01*
X133261387Y-89698139D01*
X133258822Y-89686205D01*
X133205559Y-89548665D01*
X133117592Y-89446157D01*
X132999070Y-89380985D01*
X132854145Y-89355454D01*
X132691250Y-89370957D01*
X132600654Y-89397486D01*
X132525935Y-89441069D01*
X132445651Y-89514319D01*
X132443093Y-89516942D01*
X132402483Y-89560212D01*
X132367431Y-89603171D01*
X132336954Y-89650300D01*
X132310067Y-89706085D01*
X132285787Y-89775006D01*
X132263127Y-89861548D01*
X132241106Y-89970193D01*
X132218737Y-90105423D01*
X132195037Y-90271723D01*
X132169022Y-90473575D01*
X132139707Y-90715461D01*
X132106108Y-91001865D01*
X132093821Y-91107700D01*
X132049650Y-91488700D01*
X131574048Y-91495608D01*
X131098446Y-91502517D01*
X131111166Y-91432108D01*
X131117053Y-91391389D01*
X131128239Y-91306329D01*
X131143958Y-91183026D01*
X131163446Y-91027575D01*
X131185940Y-90846075D01*
X131210676Y-90644620D01*
X131236888Y-90429309D01*
X131237786Y-90421900D01*
X131264931Y-90203218D01*
X131291916Y-89995644D01*
X131317793Y-89805757D01*
X131341619Y-89640133D01*
X131362445Y-89505349D01*
X131379328Y-89407984D01*
X131391170Y-89355100D01*
X131477882Y-89158988D01*
X131605594Y-88986210D01*
X131767820Y-88842059D01*
X131958072Y-88731828D01*
X132169863Y-88660808D01*
X132262730Y-88644074D01*
X132399361Y-88625530D01*
X132380958Y-88772823D01*
X132362555Y-88920115D01*
X132454977Y-88838968D01*
X132638447Y-88711011D01*
X132850450Y-88621677D01*
X133084646Y-88572651D01*
X133334695Y-88565615D01*
X133445668Y-88575939D01*
G36*
X136246381Y-86837713D02*
X136247457Y-86838591D01*
X136246243Y-86864868D01*
X136239264Y-86936908D01*
X136227054Y-87050065D01*
X136210151Y-87199695D01*
X136189089Y-87381151D01*
X136164407Y-87589790D01*
X136136639Y-87820965D01*
X136106322Y-88070032D01*
X136089957Y-88203212D01*
X136058302Y-88460708D01*
X136028618Y-88703528D01*
X136001474Y-88926902D01*
X135977444Y-89126061D01*
X135957099Y-89296237D01*
X135941010Y-89432660D01*
X135929749Y-89530561D01*
X135923888Y-89585171D01*
X135923161Y-89594708D01*
X135940298Y-89588396D01*
X135988181Y-89550605D01*
X136061731Y-89485870D01*
X136155870Y-89398731D01*
X136265520Y-89293723D01*
X136323450Y-89237046D01*
X136498029Y-89068456D01*
X136648013Y-88934166D01*
X136782350Y-88830328D01*
X136909991Y-88753091D01*
X137039884Y-88698608D01*
X137180980Y-88663028D01*
X137342228Y-88642504D01*
X137532578Y-88633186D01*
X137732136Y-88631200D01*
X137872905Y-88632298D01*
X137994087Y-88635342D01*
X138087385Y-88639951D01*
X138144499Y-88645745D01*
X138158600Y-88650715D01*
X138140679Y-88671944D01*
X138089681Y-88723749D01*
X138009748Y-88802137D01*
X137905023Y-88903112D01*
X137779649Y-89022680D01*
X137637769Y-89156844D01*
X137485500Y-89299766D01*
X137331339Y-89444568D01*
X137189602Y-89578894D01*
X137064435Y-89698722D01*
X136959984Y-89800030D01*
X136880398Y-89878798D01*
X136829822Y-89931003D01*
X136812400Y-89952547D01*
X136828184Y-89976587D01*
X136873168Y-90035077D01*
X136943793Y-90123638D01*
X137036502Y-90237891D01*
X137147738Y-90373456D01*
X137273944Y-90525955D01*
X137411563Y-90691009D01*
X137434700Y-90718643D01*
X137573794Y-90885188D01*
X137702060Y-91039743D01*
X137815942Y-91177949D01*
X137911888Y-91295452D01*
X137986342Y-91387895D01*
X138035751Y-91450920D01*
X138056561Y-91480172D01*
X138057000Y-91481446D01*
X138032772Y-91487076D01*
X137964777Y-91492090D01*
X137860044Y-91496254D01*
X137725606Y-91499329D01*
X137568491Y-91501081D01*
X137462846Y-91501400D01*
X136868693Y-91501400D01*
X136368168Y-90904500D01*
X136243341Y-90756311D01*
X136128721Y-90621530D01*
X136028416Y-90504884D01*
X135946535Y-90411103D01*
X135887183Y-90344915D01*
X135854470Y-90311048D01*
X135849644Y-90307600D01*
X135841366Y-90331618D01*
X135828221Y-90398865D01*
X135811355Y-90502125D01*
X135791918Y-90634183D01*
X135771056Y-90787824D01*
X135761766Y-90860050D01*
X135740680Y-91024181D01*
X135720945Y-91173033D01*
X135703670Y-91298601D01*
X135689966Y-91392883D01*
X135680943Y-91447875D01*
X135678931Y-91456950D01*
X135670268Y-91472679D01*
X135650183Y-91484219D01*
X135611766Y-91492207D01*
X135548103Y-91497280D01*
X135452284Y-91500074D01*
X135317396Y-91501228D01*
X135196637Y-91501400D01*
X134727298Y-91501400D01*
X134741481Y-91418850D01*
X134746879Y-91380555D01*
X134757985Y-91296033D01*
X134774269Y-91169471D01*
X134795204Y-91005057D01*
X134820260Y-90806979D01*
X134848909Y-90579425D01*
X134880622Y-90326584D01*
X134914871Y-90052642D01*
X134951128Y-89761788D01*
X134984321Y-89494800D01*
X135022293Y-89191552D01*
X135059311Y-88900841D01*
X135094792Y-88626942D01*
X135128154Y-88374133D01*
X135158814Y-88146688D01*
X135186191Y-87948883D01*
X135209700Y-87784994D01*
X135228760Y-87659297D01*
X135242788Y-87576068D01*
X135250399Y-87541674D01*
X135342395Y-87344613D01*
X135475608Y-87169633D01*
X135642232Y-87025479D01*
X135784940Y-86942613D01*
X135857147Y-86914377D01*
X135949113Y-86886421D01*
X136047428Y-86861760D01*
X136138683Y-86843412D01*
X136209471Y-86834391D01*
X136246381Y-86837713D01*
X136246381Y-86837713D01*
G37*
X136246381Y-86837713D02*
X136247457Y-86838591D01*
X136246243Y-86864868D01*
X136239264Y-86936908D01*
X136227054Y-87050065D01*
X136210151Y-87199695D01*
X136189089Y-87381151D01*
X136164407Y-87589790D01*
X136136639Y-87820965D01*
X136106322Y-88070032D01*
X136089957Y-88203212D01*
X136058302Y-88460708D01*
X136028618Y-88703528D01*
X136001474Y-88926902D01*
X135977444Y-89126061D01*
X135957099Y-89296237D01*
X135941010Y-89432660D01*
X135929749Y-89530561D01*
X135923888Y-89585171D01*
X135923161Y-89594708D01*
X135940298Y-89588396D01*
X135988181Y-89550605D01*
X136061731Y-89485870D01*
X136155870Y-89398731D01*
X136265520Y-89293723D01*
X136323450Y-89237046D01*
X136498029Y-89068456D01*
X136648013Y-88934166D01*
X136782350Y-88830328D01*
X136909991Y-88753091D01*
X137039884Y-88698608D01*
X137180980Y-88663028D01*
X137342228Y-88642504D01*
X137532578Y-88633186D01*
X137732136Y-88631200D01*
X137872905Y-88632298D01*
X137994087Y-88635342D01*
X138087385Y-88639951D01*
X138144499Y-88645745D01*
X138158600Y-88650715D01*
X138140679Y-88671944D01*
X138089681Y-88723749D01*
X138009748Y-88802137D01*
X137905023Y-88903112D01*
X137779649Y-89022680D01*
X137637769Y-89156844D01*
X137485500Y-89299766D01*
X137331339Y-89444568D01*
X137189602Y-89578894D01*
X137064435Y-89698722D01*
X136959984Y-89800030D01*
X136880398Y-89878798D01*
X136829822Y-89931003D01*
X136812400Y-89952547D01*
X136828184Y-89976587D01*
X136873168Y-90035077D01*
X136943793Y-90123638D01*
X137036502Y-90237891D01*
X137147738Y-90373456D01*
X137273944Y-90525955D01*
X137411563Y-90691009D01*
X137434700Y-90718643D01*
X137573794Y-90885188D01*
X137702060Y-91039743D01*
X137815942Y-91177949D01*
X137911888Y-91295452D01*
X137986342Y-91387895D01*
X138035751Y-91450920D01*
X138056561Y-91480172D01*
X138057000Y-91481446D01*
X138032772Y-91487076D01*
X137964777Y-91492090D01*
X137860044Y-91496254D01*
X137725606Y-91499329D01*
X137568491Y-91501081D01*
X137462846Y-91501400D01*
X136868693Y-91501400D01*
X136368168Y-90904500D01*
X136243341Y-90756311D01*
X136128721Y-90621530D01*
X136028416Y-90504884D01*
X135946535Y-90411103D01*
X135887183Y-90344915D01*
X135854470Y-90311048D01*
X135849644Y-90307600D01*
X135841366Y-90331618D01*
X135828221Y-90398865D01*
X135811355Y-90502125D01*
X135791918Y-90634183D01*
X135771056Y-90787824D01*
X135761766Y-90860050D01*
X135740680Y-91024181D01*
X135720945Y-91173033D01*
X135703670Y-91298601D01*
X135689966Y-91392883D01*
X135680943Y-91447875D01*
X135678931Y-91456950D01*
X135670268Y-91472679D01*
X135650183Y-91484219D01*
X135611766Y-91492207D01*
X135548103Y-91497280D01*
X135452284Y-91500074D01*
X135317396Y-91501228D01*
X135196637Y-91501400D01*
X134727298Y-91501400D01*
X134741481Y-91418850D01*
X134746879Y-91380555D01*
X134757985Y-91296033D01*
X134774269Y-91169471D01*
X134795204Y-91005057D01*
X134820260Y-90806979D01*
X134848909Y-90579425D01*
X134880622Y-90326584D01*
X134914871Y-90052642D01*
X134951128Y-89761788D01*
X134984321Y-89494800D01*
X135022293Y-89191552D01*
X135059311Y-88900841D01*
X135094792Y-88626942D01*
X135128154Y-88374133D01*
X135158814Y-88146688D01*
X135186191Y-87948883D01*
X135209700Y-87784994D01*
X135228760Y-87659297D01*
X135242788Y-87576068D01*
X135250399Y-87541674D01*
X135342395Y-87344613D01*
X135475608Y-87169633D01*
X135642232Y-87025479D01*
X135784940Y-86942613D01*
X135857147Y-86914377D01*
X135949113Y-86886421D01*
X136047428Y-86861760D01*
X136138683Y-86843412D01*
X136209471Y-86834391D01*
X136246381Y-86837713D01*
G36*
X126682496Y-86918692D02*
X126827245Y-86973099D01*
X126950949Y-87064960D01*
X126966594Y-87081486D01*
X127056690Y-87213163D01*
X127102078Y-87351891D01*
X127107069Y-87491391D01*
X127075976Y-87625387D01*
X127013111Y-87747601D01*
X126922786Y-87851756D01*
X126809314Y-87931575D01*
X126677006Y-87980781D01*
X126530174Y-87993097D01*
X126373132Y-87962244D01*
X126363786Y-87958993D01*
X126229911Y-87886932D01*
X126127620Y-87783151D01*
X126058047Y-87656592D01*
X126022325Y-87516197D01*
X126021589Y-87370910D01*
X126056972Y-87229672D01*
X126129610Y-87101427D01*
X126240637Y-86995117D01*
X126241468Y-86994530D01*
X126377658Y-86927975D01*
X126528651Y-86903173D01*
X126682496Y-86918692D01*
X126682496Y-86918692D01*
G37*
X126682496Y-86918692D02*
X126827245Y-86973099D01*
X126950949Y-87064960D01*
X126966594Y-87081486D01*
X127056690Y-87213163D01*
X127102078Y-87351891D01*
X127107069Y-87491391D01*
X127075976Y-87625387D01*
X127013111Y-87747601D01*
X126922786Y-87851756D01*
X126809314Y-87931575D01*
X126677006Y-87980781D01*
X126530174Y-87993097D01*
X126373132Y-87962244D01*
X126363786Y-87958993D01*
X126229911Y-87886932D01*
X126127620Y-87783151D01*
X126058047Y-87656592D01*
X126022325Y-87516197D01*
X126021589Y-87370910D01*
X126056972Y-87229672D01*
X126129610Y-87101427D01*
X126240637Y-86995117D01*
X126241468Y-86994530D01*
X126377658Y-86927975D01*
X126528651Y-86903173D01*
X126682496Y-86918692D01*
D12*
X89912500Y-129000000D02*
X89912500Y-127222000D01*
X89912500Y-118078000D02*
X89912500Y-116300000D01*
X89912500Y-116300000D02*
X91690500Y-116300000D01*
X100834500Y-116300000D02*
X102612500Y-116300000D01*
X102612500Y-116300000D02*
X102612500Y-118078000D01*
X102612500Y-127222000D02*
X102612500Y-129000000D01*
X102612500Y-129000000D02*
X100834500Y-129000000D01*
X91690500Y-129000000D02*
X89912500Y-129000000D01*
X87531300Y-97250000D02*
X89309300Y-97250000D01*
X98453300Y-97250000D02*
X100231300Y-97250000D01*
X100231300Y-97250000D02*
X100231300Y-99028000D01*
X100231300Y-108172000D02*
X100231300Y-109950000D01*
X100231300Y-109950000D02*
X98453300Y-109950000D01*
X89309300Y-109950000D02*
X87531300Y-109950000D01*
X87531300Y-109950000D02*
X87531300Y-108172000D01*
X87531300Y-99028000D02*
X87531300Y-97250000D01*
X94675000Y-135350000D02*
X96453000Y-135350000D01*
X105597000Y-135350000D02*
X107375000Y-135350000D01*
X107375000Y-135350000D02*
X107375000Y-137128000D01*
X107375000Y-146272000D02*
X107375000Y-148050000D01*
X107375000Y-148050000D02*
X105597000Y-148050000D01*
X96453000Y-148050000D02*
X94675000Y-148050000D01*
X94675000Y-148050000D02*
X94675000Y-146272000D01*
X94675000Y-137128000D02*
X94675000Y-135350000D01*
X85150000Y-154400000D02*
X86928000Y-154400000D01*
X96072000Y-154400000D02*
X97850000Y-154400000D01*
X97850000Y-154400000D02*
X97850000Y-156178000D01*
X97850000Y-165322000D02*
X97850000Y-167100000D01*
X97850000Y-167100000D02*
X96072000Y-167100000D01*
X86928000Y-167100000D02*
X85150000Y-167100000D01*
X85150000Y-167100000D02*
X85150000Y-165322000D01*
X85150000Y-156178000D02*
X85150000Y-154400000D01*
X108962500Y-154400000D02*
X110740500Y-154400000D01*
X119884500Y-154400000D02*
X121662500Y-154400000D01*
X121662500Y-154400000D02*
X121662500Y-156178000D01*
X121662500Y-165322000D02*
X121662500Y-167100000D01*
X121662500Y-167100000D02*
X119884500Y-167100000D01*
X110740500Y-167100000D02*
X108962500Y-167100000D01*
X108962500Y-167100000D02*
X108962500Y-165322000D01*
X108962500Y-156178000D02*
X108962500Y-154400000D01*
X132775000Y-154400000D02*
X134553000Y-154400000D01*
X143697000Y-154400000D02*
X145475000Y-154400000D01*
X145475000Y-154400000D02*
X145475000Y-156178000D01*
X145475000Y-165322000D02*
X145475000Y-167100000D01*
X145475000Y-167100000D02*
X143697000Y-167100000D01*
X134553000Y-167100000D02*
X132775000Y-167100000D01*
X132775000Y-167100000D02*
X132775000Y-165322000D01*
X132775000Y-156178000D02*
X132775000Y-154400000D01*
X189925000Y-154400000D02*
X191703000Y-154400000D01*
X200847000Y-154400000D02*
X202625000Y-154400000D01*
X202625000Y-154400000D02*
X202625000Y-156178000D01*
X202625000Y-165322000D02*
X202625000Y-167100000D01*
X202625000Y-167100000D02*
X200847000Y-167100000D01*
X191703000Y-167100000D02*
X189925000Y-167100000D01*
X189925000Y-167100000D02*
X189925000Y-165322000D01*
X189925000Y-156178000D02*
X189925000Y-154400000D01*
X242313000Y-154400000D02*
X244091000Y-154400000D01*
X253235000Y-154400000D02*
X255013000Y-154400000D01*
X255013000Y-154400000D02*
X255013000Y-156178000D01*
X255013000Y-165322000D02*
X255013000Y-167100000D01*
X255013000Y-167100000D02*
X253235000Y-167100000D01*
X244091000Y-167100000D02*
X242313000Y-167100000D01*
X242313000Y-167100000D02*
X242313000Y-165322000D01*
X242313000Y-156178000D02*
X242313000Y-154400000D01*
X299463000Y-154400000D02*
X301241000Y-154400000D01*
X310385000Y-154400000D02*
X312163000Y-154400000D01*
X312163000Y-154400000D02*
X312163000Y-156178000D01*
X312163000Y-165322000D02*
X312163000Y-167100000D01*
X312163000Y-167100000D02*
X310385000Y-167100000D01*
X301241000Y-167100000D02*
X299463000Y-167100000D01*
X299463000Y-167100000D02*
X299463000Y-165322000D01*
X299463000Y-156178000D02*
X299463000Y-154400000D01*
X323275000Y-154400000D02*
X325053000Y-154400000D01*
X334197000Y-154400000D02*
X335975000Y-154400000D01*
X335975000Y-154400000D02*
X335975000Y-156178000D01*
X335975000Y-165322000D02*
X335975000Y-167100000D01*
X335975000Y-167100000D02*
X334197000Y-167100000D01*
X325053000Y-167100000D02*
X323275000Y-167100000D01*
X323275000Y-167100000D02*
X323275000Y-165322000D01*
X323275000Y-156178000D02*
X323275000Y-154400000D01*
X347088000Y-154400000D02*
X348866000Y-154400000D01*
X358010000Y-154400000D02*
X359788000Y-154400000D01*
X359788000Y-154400000D02*
X359788000Y-156178000D01*
X359788000Y-165322000D02*
X359788000Y-167100000D01*
X359788000Y-167100000D02*
X358010000Y-167100000D01*
X348866000Y-167100000D02*
X347088000Y-167100000D01*
X347088000Y-167100000D02*
X347088000Y-165322000D01*
X347088000Y-156178000D02*
X347088000Y-154400000D01*
X332800000Y-135350000D02*
X334578000Y-135350000D01*
X343722000Y-135350000D02*
X345500000Y-135350000D01*
X345500000Y-135350000D02*
X345500000Y-137128000D01*
X345500000Y-146272000D02*
X345500000Y-148050000D01*
X345500000Y-148050000D02*
X343722000Y-148050000D01*
X334578000Y-148050000D02*
X332800000Y-148050000D01*
X332800000Y-148050000D02*
X332800000Y-146272000D01*
X332800000Y-137128000D02*
X332800000Y-135350000D01*
X337563000Y-116300000D02*
X339341000Y-116300000D01*
X348485000Y-116300000D02*
X350263000Y-116300000D01*
X350263000Y-116300000D02*
X350263000Y-118078000D01*
X350263000Y-127222000D02*
X350263000Y-129000000D01*
X350263000Y-129000000D02*
X348485000Y-129000000D01*
X339341000Y-129000000D02*
X337563000Y-129000000D01*
X337563000Y-129000000D02*
X337563000Y-127222000D01*
X337563000Y-118078000D02*
X337563000Y-116300000D01*
X87531300Y-154400000D02*
X89309300Y-154400000D01*
X98453300Y-154400000D02*
X100231300Y-154400000D01*
X100231300Y-154400000D02*
X100231300Y-156178000D01*
X100231300Y-165322000D02*
X100231300Y-167100000D01*
X100231300Y-167100000D02*
X98453300Y-167100000D01*
X89309300Y-167100000D02*
X87531300Y-167100000D01*
X87531300Y-167100000D02*
X87531300Y-165322000D01*
X87531300Y-156178000D02*
X87531300Y-154400000D01*
X135156300Y-154400000D02*
X136934300Y-154400000D01*
X146078300Y-154400000D02*
X147856300Y-154400000D01*
X147856300Y-154400000D02*
X147856300Y-156178000D01*
X147856300Y-165322000D02*
X147856300Y-167100000D01*
X147856300Y-167100000D02*
X146078300Y-167100000D01*
X136934300Y-167100000D02*
X135156300Y-167100000D01*
X135156300Y-167100000D02*
X135156300Y-165322000D01*
X135156300Y-156178000D02*
X135156300Y-154400000D01*
X216119000Y-154400000D02*
X217897000Y-154400000D01*
X227041000Y-154400000D02*
X228819000Y-154400000D01*
X228819000Y-154400000D02*
X228819000Y-156178000D01*
X228819000Y-165322000D02*
X228819000Y-167100000D01*
X228819000Y-167100000D02*
X227041000Y-167100000D01*
X217897000Y-167100000D02*
X216119000Y-167100000D01*
X216119000Y-167100000D02*
X216119000Y-165322000D01*
X216119000Y-156178000D02*
X216119000Y-154400000D01*
X216119000Y-154400000D02*
X217897000Y-154400000D01*
X227041000Y-154400000D02*
X228819000Y-154400000D01*
X228819000Y-154400000D02*
X228819000Y-156178000D01*
X228819000Y-165322000D02*
X228819000Y-167100000D01*
X228819000Y-167100000D02*
X227041000Y-167100000D01*
X217897000Y-167100000D02*
X216119000Y-167100000D01*
X216119000Y-167100000D02*
X216119000Y-165322000D01*
X216119000Y-156178000D02*
X216119000Y-154400000D01*
X287556000Y-154400000D02*
X289334000Y-154400000D01*
X298478000Y-154400000D02*
X300256000Y-154400000D01*
X300256000Y-154400000D02*
X300256000Y-156178000D01*
X300256000Y-165322000D02*
X300256000Y-167100000D01*
X300256000Y-167100000D02*
X298478000Y-167100000D01*
X289334000Y-167100000D02*
X287556000Y-167100000D01*
X287556000Y-167100000D02*
X287556000Y-165322000D01*
X287556000Y-156178000D02*
X287556000Y-154400000D01*
X297081000Y-154400000D02*
X298859000Y-154400000D01*
X308003000Y-154400000D02*
X309781000Y-154400000D01*
X309781000Y-154400000D02*
X309781000Y-156178000D01*
X309781000Y-165322000D02*
X309781000Y-167100000D01*
X309781000Y-167100000D02*
X308003000Y-167100000D01*
X298859000Y-167100000D02*
X297081000Y-167100000D01*
X297081000Y-167100000D02*
X297081000Y-165322000D01*
X297081000Y-156178000D02*
X297081000Y-154400000D01*
X344706000Y-154400000D02*
X346484000Y-154400000D01*
X355628000Y-154400000D02*
X357406000Y-154400000D01*
X357406000Y-154400000D02*
X357406000Y-156178000D01*
X357406000Y-165322000D02*
X357406000Y-167100000D01*
X357406000Y-167100000D02*
X355628000Y-167100000D01*
X346484000Y-167100000D02*
X344706000Y-167100000D01*
X344706000Y-167100000D02*
X344706000Y-165322000D01*
X344706000Y-156178000D02*
X344706000Y-154400000D01*
X323275000Y-135350000D02*
X325053000Y-135350000D01*
X334197000Y-135350000D02*
X335975000Y-135350000D01*
X335975000Y-135350000D02*
X335975000Y-137128000D01*
X335975000Y-146272000D02*
X335975000Y-148050000D01*
X335975000Y-148050000D02*
X334197000Y-148050000D01*
X325053000Y-148050000D02*
X323275000Y-148050000D01*
X323275000Y-148050000D02*
X323275000Y-146272000D01*
X323275000Y-137128000D02*
X323275000Y-135350000D01*
X339944000Y-78200000D02*
X341722000Y-78200000D01*
X350866000Y-78200000D02*
X352644000Y-78200000D01*
X352644000Y-78200000D02*
X352644000Y-79978000D01*
X352644000Y-89122000D02*
X352644000Y-90900000D01*
X352644000Y-90900000D02*
X350866000Y-90900000D01*
X341722000Y-90900000D02*
X339944000Y-90900000D01*
X339944000Y-90900000D02*
X339944000Y-89122000D01*
X339944000Y-79978000D02*
X339944000Y-78200000D01*
X344706000Y-97250000D02*
X346484000Y-97250000D01*
X355628000Y-97250000D02*
X357406000Y-97250000D01*
X357406000Y-97250000D02*
X357406000Y-99028000D01*
X357406000Y-108172000D02*
X357406000Y-109950000D01*
X357406000Y-109950000D02*
X355628000Y-109950000D01*
X346484000Y-109950000D02*
X344706000Y-109950000D01*
X344706000Y-109950000D02*
X344706000Y-108172000D01*
X344706000Y-99028000D02*
X344706000Y-97250000D01*
D13*
X99951548Y-124682000D02*
X100012024Y-124464286D01*
X100012024Y-124101429D01*
X99951548Y-123956286D01*
X99891071Y-123883715D01*
X99770119Y-123811143D01*
X99649167Y-123811143D01*
X99528214Y-123883715D01*
X99467738Y-123956286D01*
X99407262Y-124101429D01*
X99346786Y-124391715D01*
X99286310Y-124536857D01*
X99225833Y-124609429D01*
X99104881Y-124682000D01*
X98983929Y-124682000D01*
X98862976Y-124609429D01*
X98802500Y-124536857D01*
X98742024Y-124391715D01*
X98742024Y-124028857D01*
X98802500Y-123811143D01*
X98742024Y-123303143D02*
X100012024Y-122940286D01*
X99104881Y-122650000D01*
X100012024Y-122359714D01*
X98742024Y-121996857D01*
X99165357Y-120763143D02*
X100012024Y-120763143D01*
X98681548Y-121126000D02*
X99588690Y-121488857D01*
X99588690Y-120545429D01*
X91849300Y-107289048D02*
X92067014Y-107349524D01*
X92429871Y-107349524D01*
X92575014Y-107289048D01*
X92647585Y-107228571D01*
X92720157Y-107107619D01*
X92720157Y-106986667D01*
X92647585Y-106865714D01*
X92575014Y-106805238D01*
X92429871Y-106744762D01*
X92139585Y-106684286D01*
X91994443Y-106623810D01*
X91921871Y-106563333D01*
X91849300Y-106442381D01*
X91849300Y-106321429D01*
X91921871Y-106200476D01*
X91994443Y-106140000D01*
X92139585Y-106079524D01*
X92502443Y-106079524D01*
X92720157Y-106140000D01*
X93228157Y-106079524D02*
X93591014Y-107349524D01*
X93881300Y-106442381D01*
X94171586Y-107349524D01*
X94534443Y-106079524D01*
X94969871Y-106079524D02*
X95913300Y-106079524D01*
X95405300Y-106563333D01*
X95623014Y-106563333D01*
X95768157Y-106623810D01*
X95840728Y-106684286D01*
X95913300Y-106805238D01*
X95913300Y-107107619D01*
X95840728Y-107228571D01*
X95768157Y-107289048D01*
X95623014Y-107349524D01*
X95187586Y-107349524D01*
X95042443Y-107289048D01*
X94969871Y-107228571D01*
X98993000Y-145389048D02*
X99210714Y-145449524D01*
X99573571Y-145449524D01*
X99718714Y-145389048D01*
X99791285Y-145328571D01*
X99863857Y-145207619D01*
X99863857Y-145086667D01*
X99791285Y-144965714D01*
X99718714Y-144905238D01*
X99573571Y-144844762D01*
X99283285Y-144784286D01*
X99138143Y-144723810D01*
X99065571Y-144663333D01*
X98993000Y-144542381D01*
X98993000Y-144421429D01*
X99065571Y-144300476D01*
X99138143Y-144240000D01*
X99283285Y-144179524D01*
X99646143Y-144179524D01*
X99863857Y-144240000D01*
X100371857Y-144179524D02*
X100734714Y-145449524D01*
X101025000Y-144542381D01*
X101315286Y-145449524D01*
X101678143Y-144179524D01*
X102984428Y-144179524D02*
X102258714Y-144179524D01*
X102186143Y-144784286D01*
X102258714Y-144723810D01*
X102403857Y-144663333D01*
X102766714Y-144663333D01*
X102911857Y-144723810D01*
X102984428Y-144784286D01*
X103057000Y-144905238D01*
X103057000Y-145207619D01*
X102984428Y-145328571D01*
X102911857Y-145389048D01*
X102766714Y-145449524D01*
X102403857Y-145449524D01*
X102258714Y-145389048D01*
X102186143Y-145328571D01*
X89468000Y-164439048D02*
X89685714Y-164499524D01*
X90048571Y-164499524D01*
X90193714Y-164439048D01*
X90266285Y-164378571D01*
X90338857Y-164257619D01*
X90338857Y-164136667D01*
X90266285Y-164015714D01*
X90193714Y-163955238D01*
X90048571Y-163894762D01*
X89758285Y-163834286D01*
X89613143Y-163773810D01*
X89540571Y-163713333D01*
X89468000Y-163592381D01*
X89468000Y-163471429D01*
X89540571Y-163350476D01*
X89613143Y-163290000D01*
X89758285Y-163229524D01*
X90121143Y-163229524D01*
X90338857Y-163290000D01*
X90846857Y-163229524D02*
X91209714Y-164499524D01*
X91500000Y-163592381D01*
X91790286Y-164499524D01*
X92153143Y-163229524D01*
X93386857Y-163229524D02*
X93096571Y-163229524D01*
X92951428Y-163290000D01*
X92878857Y-163350476D01*
X92733714Y-163531905D01*
X92661143Y-163773810D01*
X92661143Y-164257619D01*
X92733714Y-164378571D01*
X92806286Y-164439048D01*
X92951428Y-164499524D01*
X93241714Y-164499524D01*
X93386857Y-164439048D01*
X93459428Y-164378571D01*
X93532000Y-164257619D01*
X93532000Y-163955238D01*
X93459428Y-163834286D01*
X93386857Y-163773810D01*
X93241714Y-163713333D01*
X92951428Y-163713333D01*
X92806286Y-163773810D01*
X92733714Y-163834286D01*
X92661143Y-163955238D01*
X112554786Y-164439048D02*
X112772500Y-164499524D01*
X113135357Y-164499524D01*
X113280500Y-164439048D01*
X113353071Y-164378571D01*
X113425643Y-164257619D01*
X113425643Y-164136667D01*
X113353071Y-164015714D01*
X113280500Y-163955238D01*
X113135357Y-163894762D01*
X112845071Y-163834286D01*
X112699929Y-163773810D01*
X112627357Y-163713333D01*
X112554786Y-163592381D01*
X112554786Y-163471429D01*
X112627357Y-163350476D01*
X112699929Y-163290000D01*
X112845071Y-163229524D01*
X113207929Y-163229524D01*
X113425643Y-163290000D01*
X113933643Y-163229524D02*
X114296500Y-164499524D01*
X114586786Y-163592381D01*
X114877072Y-164499524D01*
X115239929Y-163229524D01*
X116618786Y-164499524D02*
X115747929Y-164499524D01*
X116183357Y-164499524D02*
X116183357Y-163229524D01*
X116038214Y-163410952D01*
X115893072Y-163531905D01*
X115747929Y-163592381D01*
X118070215Y-164499524D02*
X117199358Y-164499524D01*
X117634786Y-164499524D02*
X117634786Y-163229524D01*
X117489643Y-163410952D01*
X117344501Y-163531905D01*
X117199358Y-163592381D01*
X136367286Y-164439048D02*
X136585000Y-164499524D01*
X136947857Y-164499524D01*
X137093000Y-164439048D01*
X137165571Y-164378571D01*
X137238143Y-164257619D01*
X137238143Y-164136667D01*
X137165571Y-164015714D01*
X137093000Y-163955238D01*
X136947857Y-163894762D01*
X136657571Y-163834286D01*
X136512429Y-163773810D01*
X136439857Y-163713333D01*
X136367286Y-163592381D01*
X136367286Y-163471429D01*
X136439857Y-163350476D01*
X136512429Y-163290000D01*
X136657571Y-163229524D01*
X137020429Y-163229524D01*
X137238143Y-163290000D01*
X137746143Y-163229524D02*
X138109000Y-164499524D01*
X138399286Y-163592381D01*
X138689572Y-164499524D01*
X139052429Y-163229524D01*
X140431286Y-164499524D02*
X139560429Y-164499524D01*
X139995857Y-164499524D02*
X139995857Y-163229524D01*
X139850714Y-163410952D01*
X139705572Y-163531905D01*
X139560429Y-163592381D01*
X141737572Y-163229524D02*
X141447286Y-163229524D01*
X141302143Y-163290000D01*
X141229572Y-163350476D01*
X141084429Y-163531905D01*
X141011858Y-163773810D01*
X141011858Y-164257619D01*
X141084429Y-164378571D01*
X141157001Y-164439048D01*
X141302143Y-164499524D01*
X141592429Y-164499524D01*
X141737572Y-164439048D01*
X141810143Y-164378571D01*
X141882715Y-164257619D01*
X141882715Y-163955238D01*
X141810143Y-163834286D01*
X141737572Y-163773810D01*
X141592429Y-163713333D01*
X141302143Y-163713333D01*
X141157001Y-163773810D01*
X141084429Y-163834286D01*
X141011858Y-163955238D01*
X193517286Y-164439048D02*
X193735000Y-164499524D01*
X194097857Y-164499524D01*
X194243000Y-164439048D01*
X194315571Y-164378571D01*
X194388143Y-164257619D01*
X194388143Y-164136667D01*
X194315571Y-164015714D01*
X194243000Y-163955238D01*
X194097857Y-163894762D01*
X193807571Y-163834286D01*
X193662429Y-163773810D01*
X193589857Y-163713333D01*
X193517286Y-163592381D01*
X193517286Y-163471429D01*
X193589857Y-163350476D01*
X193662429Y-163290000D01*
X193807571Y-163229524D01*
X194170429Y-163229524D01*
X194388143Y-163290000D01*
X194896143Y-163229524D02*
X195259000Y-164499524D01*
X195549286Y-163592381D01*
X195839572Y-164499524D01*
X196202429Y-163229524D01*
X196710429Y-163350476D02*
X196783000Y-163290000D01*
X196928143Y-163229524D01*
X197291000Y-163229524D01*
X197436143Y-163290000D01*
X197508714Y-163350476D01*
X197581286Y-163471429D01*
X197581286Y-163592381D01*
X197508714Y-163773810D01*
X196637857Y-164499524D01*
X197581286Y-164499524D01*
X198887572Y-163229524D02*
X198597286Y-163229524D01*
X198452143Y-163290000D01*
X198379572Y-163350476D01*
X198234429Y-163531905D01*
X198161858Y-163773810D01*
X198161858Y-164257619D01*
X198234429Y-164378571D01*
X198307001Y-164439048D01*
X198452143Y-164499524D01*
X198742429Y-164499524D01*
X198887572Y-164439048D01*
X198960143Y-164378571D01*
X199032715Y-164257619D01*
X199032715Y-163955238D01*
X198960143Y-163834286D01*
X198887572Y-163773810D01*
X198742429Y-163713333D01*
X198452143Y-163713333D01*
X198307001Y-163773810D01*
X198234429Y-163834286D01*
X198161858Y-163955238D01*
X245905286Y-164439048D02*
X246123000Y-164499524D01*
X246485857Y-164499524D01*
X246631000Y-164439048D01*
X246703571Y-164378571D01*
X246776143Y-164257619D01*
X246776143Y-164136667D01*
X246703571Y-164015714D01*
X246631000Y-163955238D01*
X246485857Y-163894762D01*
X246195571Y-163834286D01*
X246050429Y-163773810D01*
X245977857Y-163713333D01*
X245905286Y-163592381D01*
X245905286Y-163471429D01*
X245977857Y-163350476D01*
X246050429Y-163290000D01*
X246195571Y-163229524D01*
X246558429Y-163229524D01*
X246776143Y-163290000D01*
X247284143Y-163229524D02*
X247647000Y-164499524D01*
X247937286Y-163592381D01*
X248227572Y-164499524D01*
X248590429Y-163229524D01*
X249025857Y-163229524D02*
X249969286Y-163229524D01*
X249461286Y-163713333D01*
X249679000Y-163713333D01*
X249824143Y-163773810D01*
X249896714Y-163834286D01*
X249969286Y-163955238D01*
X249969286Y-164257619D01*
X249896714Y-164378571D01*
X249824143Y-164439048D01*
X249679000Y-164499524D01*
X249243572Y-164499524D01*
X249098429Y-164439048D01*
X249025857Y-164378571D01*
X251420715Y-164499524D02*
X250549858Y-164499524D01*
X250985286Y-164499524D02*
X250985286Y-163229524D01*
X250840143Y-163410952D01*
X250695001Y-163531905D01*
X250549858Y-163592381D01*
X303055286Y-164439048D02*
X303273000Y-164499524D01*
X303635857Y-164499524D01*
X303781000Y-164439048D01*
X303853571Y-164378571D01*
X303926143Y-164257619D01*
X303926143Y-164136667D01*
X303853571Y-164015714D01*
X303781000Y-163955238D01*
X303635857Y-163894762D01*
X303345571Y-163834286D01*
X303200429Y-163773810D01*
X303127857Y-163713333D01*
X303055286Y-163592381D01*
X303055286Y-163471429D01*
X303127857Y-163350476D01*
X303200429Y-163290000D01*
X303345571Y-163229524D01*
X303708429Y-163229524D01*
X303926143Y-163290000D01*
X304434143Y-163229524D02*
X304797000Y-164499524D01*
X305087286Y-163592381D01*
X305377572Y-164499524D01*
X305740429Y-163229524D01*
X306974143Y-163652857D02*
X306974143Y-164499524D01*
X306611286Y-163169048D02*
X306248429Y-164076190D01*
X307191857Y-164076190D01*
X308570715Y-164499524D02*
X307699858Y-164499524D01*
X308135286Y-164499524D02*
X308135286Y-163229524D01*
X307990143Y-163410952D01*
X307845001Y-163531905D01*
X307699858Y-163592381D01*
X326867286Y-164439048D02*
X327085000Y-164499524D01*
X327447857Y-164499524D01*
X327593000Y-164439048D01*
X327665571Y-164378571D01*
X327738143Y-164257619D01*
X327738143Y-164136667D01*
X327665571Y-164015714D01*
X327593000Y-163955238D01*
X327447857Y-163894762D01*
X327157571Y-163834286D01*
X327012429Y-163773810D01*
X326939857Y-163713333D01*
X326867286Y-163592381D01*
X326867286Y-163471429D01*
X326939857Y-163350476D01*
X327012429Y-163290000D01*
X327157571Y-163229524D01*
X327520429Y-163229524D01*
X327738143Y-163290000D01*
X328246143Y-163229524D02*
X328609000Y-164499524D01*
X328899286Y-163592381D01*
X329189572Y-164499524D01*
X329552429Y-163229524D01*
X330786143Y-163652857D02*
X330786143Y-164499524D01*
X330423286Y-163169048D02*
X330060429Y-164076190D01*
X331003857Y-164076190D01*
X332237572Y-163229524D02*
X331947286Y-163229524D01*
X331802143Y-163290000D01*
X331729572Y-163350476D01*
X331584429Y-163531905D01*
X331511858Y-163773810D01*
X331511858Y-164257619D01*
X331584429Y-164378571D01*
X331657001Y-164439048D01*
X331802143Y-164499524D01*
X332092429Y-164499524D01*
X332237572Y-164439048D01*
X332310143Y-164378571D01*
X332382715Y-164257619D01*
X332382715Y-163955238D01*
X332310143Y-163834286D01*
X332237572Y-163773810D01*
X332092429Y-163713333D01*
X331802143Y-163713333D01*
X331657001Y-163773810D01*
X331584429Y-163834286D01*
X331511858Y-163955238D01*
X350680286Y-164439048D02*
X350898000Y-164499524D01*
X351260857Y-164499524D01*
X351406000Y-164439048D01*
X351478571Y-164378571D01*
X351551143Y-164257619D01*
X351551143Y-164136667D01*
X351478571Y-164015714D01*
X351406000Y-163955238D01*
X351260857Y-163894762D01*
X350970571Y-163834286D01*
X350825429Y-163773810D01*
X350752857Y-163713333D01*
X350680286Y-163592381D01*
X350680286Y-163471429D01*
X350752857Y-163350476D01*
X350825429Y-163290000D01*
X350970571Y-163229524D01*
X351333429Y-163229524D01*
X351551143Y-163290000D01*
X352059143Y-163229524D02*
X352422000Y-164499524D01*
X352712286Y-163592381D01*
X353002572Y-164499524D01*
X353365429Y-163229524D01*
X354671714Y-163229524D02*
X353946000Y-163229524D01*
X353873429Y-163834286D01*
X353946000Y-163773810D01*
X354091143Y-163713333D01*
X354454000Y-163713333D01*
X354599143Y-163773810D01*
X354671714Y-163834286D01*
X354744286Y-163955238D01*
X354744286Y-164257619D01*
X354671714Y-164378571D01*
X354599143Y-164439048D01*
X354454000Y-164499524D01*
X354091143Y-164499524D01*
X353946000Y-164439048D01*
X353873429Y-164378571D01*
X356195715Y-164499524D02*
X355324858Y-164499524D01*
X355760286Y-164499524D02*
X355760286Y-163229524D01*
X355615143Y-163410952D01*
X355470001Y-163531905D01*
X355324858Y-163592381D01*
X336392286Y-145389048D02*
X336610000Y-145449524D01*
X336972857Y-145449524D01*
X337118000Y-145389048D01*
X337190571Y-145328571D01*
X337263143Y-145207619D01*
X337263143Y-145086667D01*
X337190571Y-144965714D01*
X337118000Y-144905238D01*
X336972857Y-144844762D01*
X336682571Y-144784286D01*
X336537429Y-144723810D01*
X336464857Y-144663333D01*
X336392286Y-144542381D01*
X336392286Y-144421429D01*
X336464857Y-144300476D01*
X336537429Y-144240000D01*
X336682571Y-144179524D01*
X337045429Y-144179524D01*
X337263143Y-144240000D01*
X337771143Y-144179524D02*
X338134000Y-145449524D01*
X338424286Y-144542381D01*
X338714572Y-145449524D01*
X339077429Y-144179524D01*
X340383714Y-144179524D02*
X339658000Y-144179524D01*
X339585429Y-144784286D01*
X339658000Y-144723810D01*
X339803143Y-144663333D01*
X340166000Y-144663333D01*
X340311143Y-144723810D01*
X340383714Y-144784286D01*
X340456286Y-144905238D01*
X340456286Y-145207619D01*
X340383714Y-145328571D01*
X340311143Y-145389048D01*
X340166000Y-145449524D01*
X339803143Y-145449524D01*
X339658000Y-145389048D01*
X339585429Y-145328571D01*
X341182001Y-145449524D02*
X341472286Y-145449524D01*
X341617429Y-145389048D01*
X341690001Y-145328571D01*
X341835143Y-145147143D01*
X341907715Y-144905238D01*
X341907715Y-144421429D01*
X341835143Y-144300476D01*
X341762572Y-144240000D01*
X341617429Y-144179524D01*
X341327143Y-144179524D01*
X341182001Y-144240000D01*
X341109429Y-144300476D01*
X341036858Y-144421429D01*
X341036858Y-144723810D01*
X341109429Y-144844762D01*
X341182001Y-144905238D01*
X341327143Y-144965714D01*
X341617429Y-144965714D01*
X341762572Y-144905238D01*
X341835143Y-144844762D01*
X341907715Y-144723810D01*
X341155286Y-126339048D02*
X341373000Y-126399524D01*
X341735857Y-126399524D01*
X341881000Y-126339048D01*
X341953571Y-126278571D01*
X342026143Y-126157619D01*
X342026143Y-126036667D01*
X341953571Y-125915714D01*
X341881000Y-125855238D01*
X341735857Y-125794762D01*
X341445571Y-125734286D01*
X341300429Y-125673810D01*
X341227857Y-125613333D01*
X341155286Y-125492381D01*
X341155286Y-125371429D01*
X341227857Y-125250476D01*
X341300429Y-125190000D01*
X341445571Y-125129524D01*
X341808429Y-125129524D01*
X342026143Y-125190000D01*
X342534143Y-125129524D02*
X342897000Y-126399524D01*
X343187286Y-125492381D01*
X343477572Y-126399524D01*
X343840429Y-125129524D01*
X345074143Y-125129524D02*
X344783857Y-125129524D01*
X344638714Y-125190000D01*
X344566143Y-125250476D01*
X344421000Y-125431905D01*
X344348429Y-125673810D01*
X344348429Y-126157619D01*
X344421000Y-126278571D01*
X344493572Y-126339048D01*
X344638714Y-126399524D01*
X344929000Y-126399524D01*
X345074143Y-126339048D01*
X345146714Y-126278571D01*
X345219286Y-126157619D01*
X345219286Y-125855238D01*
X345146714Y-125734286D01*
X345074143Y-125673810D01*
X344929000Y-125613333D01*
X344638714Y-125613333D01*
X344493572Y-125673810D01*
X344421000Y-125734286D01*
X344348429Y-125855238D01*
X345799858Y-125250476D02*
X345872429Y-125190000D01*
X346017572Y-125129524D01*
X346380429Y-125129524D01*
X346525572Y-125190000D01*
X346598143Y-125250476D01*
X346670715Y-125371429D01*
X346670715Y-125492381D01*
X346598143Y-125673810D01*
X345727286Y-126399524D01*
X346670715Y-126399524D01*
X91123586Y-164439048D02*
X91341300Y-164499524D01*
X91704157Y-164499524D01*
X91849300Y-164439048D01*
X91921871Y-164378571D01*
X91994443Y-164257619D01*
X91994443Y-164136667D01*
X91921871Y-164015714D01*
X91849300Y-163955238D01*
X91704157Y-163894762D01*
X91413871Y-163834286D01*
X91268729Y-163773810D01*
X91196157Y-163713333D01*
X91123586Y-163592381D01*
X91123586Y-163471429D01*
X91196157Y-163350476D01*
X91268729Y-163290000D01*
X91413871Y-163229524D01*
X91776729Y-163229524D01*
X91994443Y-163290000D01*
X92502443Y-163229524D02*
X92865300Y-164499524D01*
X93155586Y-163592381D01*
X93445872Y-164499524D01*
X93808729Y-163229524D01*
X95042443Y-163229524D02*
X94752157Y-163229524D01*
X94607014Y-163290000D01*
X94534443Y-163350476D01*
X94389300Y-163531905D01*
X94316729Y-163773810D01*
X94316729Y-164257619D01*
X94389300Y-164378571D01*
X94461872Y-164439048D01*
X94607014Y-164499524D01*
X94897300Y-164499524D01*
X95042443Y-164439048D01*
X95115014Y-164378571D01*
X95187586Y-164257619D01*
X95187586Y-163955238D01*
X95115014Y-163834286D01*
X95042443Y-163773810D01*
X94897300Y-163713333D01*
X94607014Y-163713333D01*
X94461872Y-163773810D01*
X94389300Y-163834286D01*
X94316729Y-163955238D01*
X95695586Y-163229524D02*
X96711586Y-163229524D01*
X96058443Y-164499524D01*
X138748586Y-164439048D02*
X138966300Y-164499524D01*
X139329157Y-164499524D01*
X139474300Y-164439048D01*
X139546871Y-164378571D01*
X139619443Y-164257619D01*
X139619443Y-164136667D01*
X139546871Y-164015714D01*
X139474300Y-163955238D01*
X139329157Y-163894762D01*
X139038871Y-163834286D01*
X138893729Y-163773810D01*
X138821157Y-163713333D01*
X138748586Y-163592381D01*
X138748586Y-163471429D01*
X138821157Y-163350476D01*
X138893729Y-163290000D01*
X139038871Y-163229524D01*
X139401729Y-163229524D01*
X139619443Y-163290000D01*
X140127443Y-163229524D02*
X140490300Y-164499524D01*
X140780586Y-163592381D01*
X141070872Y-164499524D01*
X141433729Y-163229524D01*
X142667443Y-163229524D02*
X142377157Y-163229524D01*
X142232014Y-163290000D01*
X142159443Y-163350476D01*
X142014300Y-163531905D01*
X141941729Y-163773810D01*
X141941729Y-164257619D01*
X142014300Y-164378571D01*
X142086872Y-164439048D01*
X142232014Y-164499524D01*
X142522300Y-164499524D01*
X142667443Y-164439048D01*
X142740014Y-164378571D01*
X142812586Y-164257619D01*
X142812586Y-163955238D01*
X142740014Y-163834286D01*
X142667443Y-163773810D01*
X142522300Y-163713333D01*
X142232014Y-163713333D01*
X142086872Y-163773810D01*
X142014300Y-163834286D01*
X141941729Y-163955238D01*
X143538301Y-164499524D02*
X143828586Y-164499524D01*
X143973729Y-164439048D01*
X144046301Y-164378571D01*
X144191443Y-164197143D01*
X144264015Y-163955238D01*
X144264015Y-163471429D01*
X144191443Y-163350476D01*
X144118872Y-163290000D01*
X143973729Y-163229524D01*
X143683443Y-163229524D01*
X143538301Y-163290000D01*
X143465729Y-163350476D01*
X143393158Y-163471429D01*
X143393158Y-163773810D01*
X143465729Y-163894762D01*
X143538301Y-163955238D01*
X143683443Y-164015714D01*
X143973729Y-164015714D01*
X144118872Y-163955238D01*
X144191443Y-163894762D01*
X144264015Y-163773810D01*
X219711286Y-164439048D02*
X219929000Y-164499524D01*
X220291857Y-164499524D01*
X220437000Y-164439048D01*
X220509571Y-164378571D01*
X220582143Y-164257619D01*
X220582143Y-164136667D01*
X220509571Y-164015714D01*
X220437000Y-163955238D01*
X220291857Y-163894762D01*
X220001571Y-163834286D01*
X219856429Y-163773810D01*
X219783857Y-163713333D01*
X219711286Y-163592381D01*
X219711286Y-163471429D01*
X219783857Y-163350476D01*
X219856429Y-163290000D01*
X220001571Y-163229524D01*
X220364429Y-163229524D01*
X220582143Y-163290000D01*
X221090143Y-163229524D02*
X221453000Y-164499524D01*
X221743286Y-163592381D01*
X222033572Y-164499524D01*
X222396429Y-163229524D01*
X222831857Y-163229524D02*
X223847857Y-163229524D01*
X223194714Y-164499524D01*
X224718715Y-163229524D02*
X224863858Y-163229524D01*
X225009001Y-163290000D01*
X225081572Y-163350476D01*
X225154143Y-163471429D01*
X225226715Y-163713333D01*
X225226715Y-164015714D01*
X225154143Y-164257619D01*
X225081572Y-164378571D01*
X225009001Y-164439048D01*
X224863858Y-164499524D01*
X224718715Y-164499524D01*
X224573572Y-164439048D01*
X224501001Y-164378571D01*
X224428429Y-164257619D01*
X224355858Y-164015714D01*
X224355858Y-163713333D01*
X224428429Y-163471429D01*
X224501001Y-163350476D01*
X224573572Y-163290000D01*
X224718715Y-163229524D01*
X219711286Y-164439048D02*
X219929000Y-164499524D01*
X220291857Y-164499524D01*
X220437000Y-164439048D01*
X220509571Y-164378571D01*
X220582143Y-164257619D01*
X220582143Y-164136667D01*
X220509571Y-164015714D01*
X220437000Y-163955238D01*
X220291857Y-163894762D01*
X220001571Y-163834286D01*
X219856429Y-163773810D01*
X219783857Y-163713333D01*
X219711286Y-163592381D01*
X219711286Y-163471429D01*
X219783857Y-163350476D01*
X219856429Y-163290000D01*
X220001571Y-163229524D01*
X220364429Y-163229524D01*
X220582143Y-163290000D01*
X221090143Y-163229524D02*
X221453000Y-164499524D01*
X221743286Y-163592381D01*
X222033572Y-164499524D01*
X222396429Y-163229524D01*
X222831857Y-163229524D02*
X223847857Y-163229524D01*
X223194714Y-164499524D01*
X225226715Y-164499524D02*
X224355858Y-164499524D01*
X224791286Y-164499524D02*
X224791286Y-163229524D01*
X224646143Y-163410952D01*
X224501001Y-163531905D01*
X224355858Y-163592381D01*
X291148286Y-164439048D02*
X291366000Y-164499524D01*
X291728857Y-164499524D01*
X291874000Y-164439048D01*
X291946571Y-164378571D01*
X292019143Y-164257619D01*
X292019143Y-164136667D01*
X291946571Y-164015714D01*
X291874000Y-163955238D01*
X291728857Y-163894762D01*
X291438571Y-163834286D01*
X291293429Y-163773810D01*
X291220857Y-163713333D01*
X291148286Y-163592381D01*
X291148286Y-163471429D01*
X291220857Y-163350476D01*
X291293429Y-163290000D01*
X291438571Y-163229524D01*
X291801429Y-163229524D01*
X292019143Y-163290000D01*
X292527143Y-163229524D02*
X292890000Y-164499524D01*
X293180286Y-163592381D01*
X293470572Y-164499524D01*
X293833429Y-163229524D01*
X294268857Y-163229524D02*
X295284857Y-163229524D01*
X294631714Y-164499524D01*
X295792858Y-163350476D02*
X295865429Y-163290000D01*
X296010572Y-163229524D01*
X296373429Y-163229524D01*
X296518572Y-163290000D01*
X296591143Y-163350476D01*
X296663715Y-163471429D01*
X296663715Y-163592381D01*
X296591143Y-163773810D01*
X295720286Y-164499524D01*
X296663715Y-164499524D01*
X300673286Y-164439048D02*
X300891000Y-164499524D01*
X301253857Y-164499524D01*
X301399000Y-164439048D01*
X301471571Y-164378571D01*
X301544143Y-164257619D01*
X301544143Y-164136667D01*
X301471571Y-164015714D01*
X301399000Y-163955238D01*
X301253857Y-163894762D01*
X300963571Y-163834286D01*
X300818429Y-163773810D01*
X300745857Y-163713333D01*
X300673286Y-163592381D01*
X300673286Y-163471429D01*
X300745857Y-163350476D01*
X300818429Y-163290000D01*
X300963571Y-163229524D01*
X301326429Y-163229524D01*
X301544143Y-163290000D01*
X302052143Y-163229524D02*
X302415000Y-164499524D01*
X302705286Y-163592381D01*
X302995572Y-164499524D01*
X303358429Y-163229524D01*
X303793857Y-163229524D02*
X304809857Y-163229524D01*
X304156714Y-164499524D01*
X305245286Y-163229524D02*
X306188715Y-163229524D01*
X305680715Y-163713333D01*
X305898429Y-163713333D01*
X306043572Y-163773810D01*
X306116143Y-163834286D01*
X306188715Y-163955238D01*
X306188715Y-164257619D01*
X306116143Y-164378571D01*
X306043572Y-164439048D01*
X305898429Y-164499524D01*
X305463001Y-164499524D01*
X305317858Y-164439048D01*
X305245286Y-164378571D01*
X348298286Y-164439048D02*
X348516000Y-164499524D01*
X348878857Y-164499524D01*
X349024000Y-164439048D01*
X349096571Y-164378571D01*
X349169143Y-164257619D01*
X349169143Y-164136667D01*
X349096571Y-164015714D01*
X349024000Y-163955238D01*
X348878857Y-163894762D01*
X348588571Y-163834286D01*
X348443429Y-163773810D01*
X348370857Y-163713333D01*
X348298286Y-163592381D01*
X348298286Y-163471429D01*
X348370857Y-163350476D01*
X348443429Y-163290000D01*
X348588571Y-163229524D01*
X348951429Y-163229524D01*
X349169143Y-163290000D01*
X349677143Y-163229524D02*
X350040000Y-164499524D01*
X350330286Y-163592381D01*
X350620572Y-164499524D01*
X350983429Y-163229524D01*
X351418857Y-163229524D02*
X352434857Y-163229524D01*
X351781714Y-164499524D01*
X353741143Y-163229524D02*
X353015429Y-163229524D01*
X352942858Y-163834286D01*
X353015429Y-163773810D01*
X353160572Y-163713333D01*
X353523429Y-163713333D01*
X353668572Y-163773810D01*
X353741143Y-163834286D01*
X353813715Y-163955238D01*
X353813715Y-164257619D01*
X353741143Y-164378571D01*
X353668572Y-164439048D01*
X353523429Y-164499524D01*
X353160572Y-164499524D01*
X353015429Y-164439048D01*
X352942858Y-164378571D01*
X326867286Y-145389048D02*
X327085000Y-145449524D01*
X327447857Y-145449524D01*
X327593000Y-145389048D01*
X327665571Y-145328571D01*
X327738143Y-145207619D01*
X327738143Y-145086667D01*
X327665571Y-144965714D01*
X327593000Y-144905238D01*
X327447857Y-144844762D01*
X327157571Y-144784286D01*
X327012429Y-144723810D01*
X326939857Y-144663333D01*
X326867286Y-144542381D01*
X326867286Y-144421429D01*
X326939857Y-144300476D01*
X327012429Y-144240000D01*
X327157571Y-144179524D01*
X327520429Y-144179524D01*
X327738143Y-144240000D01*
X328246143Y-144179524D02*
X328609000Y-145449524D01*
X328899286Y-144542381D01*
X329189572Y-145449524D01*
X329552429Y-144179524D01*
X329987857Y-144179524D02*
X331003857Y-144179524D01*
X330350714Y-145449524D01*
X332237572Y-144179524D02*
X331947286Y-144179524D01*
X331802143Y-144240000D01*
X331729572Y-144300476D01*
X331584429Y-144481905D01*
X331511858Y-144723810D01*
X331511858Y-145207619D01*
X331584429Y-145328571D01*
X331657001Y-145389048D01*
X331802143Y-145449524D01*
X332092429Y-145449524D01*
X332237572Y-145389048D01*
X332310143Y-145328571D01*
X332382715Y-145207619D01*
X332382715Y-144905238D01*
X332310143Y-144784286D01*
X332237572Y-144723810D01*
X332092429Y-144663333D01*
X331802143Y-144663333D01*
X331657001Y-144723810D01*
X331584429Y-144784286D01*
X331511858Y-144905238D01*
X343536286Y-88239048D02*
X343754000Y-88299524D01*
X344116857Y-88299524D01*
X344262000Y-88239048D01*
X344334571Y-88178571D01*
X344407143Y-88057619D01*
X344407143Y-87936667D01*
X344334571Y-87815714D01*
X344262000Y-87755238D01*
X344116857Y-87694762D01*
X343826571Y-87634286D01*
X343681429Y-87573810D01*
X343608857Y-87513333D01*
X343536286Y-87392381D01*
X343536286Y-87271429D01*
X343608857Y-87150476D01*
X343681429Y-87090000D01*
X343826571Y-87029524D01*
X344189429Y-87029524D01*
X344407143Y-87090000D01*
X344915143Y-87029524D02*
X345278000Y-88299524D01*
X345568286Y-87392381D01*
X345858572Y-88299524D01*
X346221429Y-87029524D01*
X346656857Y-87029524D02*
X347672857Y-87029524D01*
X347019714Y-88299524D01*
X348108286Y-87029524D02*
X349124286Y-87029524D01*
X348471143Y-88299524D01*
X348298286Y-107289048D02*
X348516000Y-107349524D01*
X348878857Y-107349524D01*
X349024000Y-107289048D01*
X349096571Y-107228571D01*
X349169143Y-107107619D01*
X349169143Y-106986667D01*
X349096571Y-106865714D01*
X349024000Y-106805238D01*
X348878857Y-106744762D01*
X348588571Y-106684286D01*
X348443429Y-106623810D01*
X348370857Y-106563333D01*
X348298286Y-106442381D01*
X348298286Y-106321429D01*
X348370857Y-106200476D01*
X348443429Y-106140000D01*
X348588571Y-106079524D01*
X348951429Y-106079524D01*
X349169143Y-106140000D01*
X349677143Y-106079524D02*
X350040000Y-107349524D01*
X350330286Y-106442381D01*
X350620572Y-107349524D01*
X350983429Y-106079524D01*
X352217143Y-106079524D02*
X351926857Y-106079524D01*
X351781714Y-106140000D01*
X351709143Y-106200476D01*
X351564000Y-106381905D01*
X351491429Y-106623810D01*
X351491429Y-107107619D01*
X351564000Y-107228571D01*
X351636572Y-107289048D01*
X351781714Y-107349524D01*
X352072000Y-107349524D01*
X352217143Y-107289048D01*
X352289714Y-107228571D01*
X352362286Y-107107619D01*
X352362286Y-106805238D01*
X352289714Y-106684286D01*
X352217143Y-106623810D01*
X352072000Y-106563333D01*
X351781714Y-106563333D01*
X351636572Y-106623810D01*
X351564000Y-106684286D01*
X351491429Y-106805238D01*
X353668572Y-106079524D02*
X353378286Y-106079524D01*
X353233143Y-106140000D01*
X353160572Y-106200476D01*
X353015429Y-106381905D01*
X352942858Y-106623810D01*
X352942858Y-107107619D01*
X353015429Y-107228571D01*
X353088001Y-107289048D01*
X353233143Y-107349524D01*
X353523429Y-107349524D01*
X353668572Y-107289048D01*
X353741143Y-107228571D01*
X353813715Y-107107619D01*
X353813715Y-106805238D01*
X353741143Y-106684286D01*
X353668572Y-106623810D01*
X353523429Y-106563333D01*
X353233143Y-106563333D01*
X353088001Y-106623810D01*
X353015429Y-106684286D01*
X352942858Y-106805238D01*
X106136800Y-81889048D02*
X106354514Y-81949524D01*
X106717371Y-81949524D01*
X106862514Y-81889048D01*
X106935085Y-81828571D01*
X107007657Y-81707619D01*
X107007657Y-81586667D01*
X106935085Y-81465714D01*
X106862514Y-81405238D01*
X106717371Y-81344762D01*
X106427085Y-81284286D01*
X106281943Y-81223810D01*
X106209371Y-81163333D01*
X106136800Y-81042381D01*
X106136800Y-80921429D01*
X106209371Y-80800476D01*
X106281943Y-80740000D01*
X106427085Y-80679524D01*
X106789943Y-80679524D01*
X107007657Y-80740000D01*
X107515657Y-80679524D02*
X107878514Y-81949524D01*
X108168800Y-81042381D01*
X108459086Y-81949524D01*
X108821943Y-80679524D01*
X109257371Y-80679524D02*
X110273371Y-80679524D01*
X109620228Y-81949524D01*
X324486286Y-164439048D02*
X324704000Y-164499524D01*
X325066857Y-164499524D01*
X325212000Y-164439048D01*
X325284571Y-164378571D01*
X325357143Y-164257619D01*
X325357143Y-164136667D01*
X325284571Y-164015714D01*
X325212000Y-163955238D01*
X325066857Y-163894762D01*
X324776571Y-163834286D01*
X324631429Y-163773810D01*
X324558857Y-163713333D01*
X324486286Y-163592381D01*
X324486286Y-163471429D01*
X324558857Y-163350476D01*
X324631429Y-163290000D01*
X324776571Y-163229524D01*
X325139429Y-163229524D01*
X325357143Y-163290000D01*
X325865143Y-163229524D02*
X326228000Y-164499524D01*
X326518286Y-163592381D01*
X326808572Y-164499524D01*
X327171429Y-163229524D01*
X327606857Y-163229524D02*
X328622857Y-163229524D01*
X327969714Y-164499524D01*
X329856572Y-163652857D02*
X329856572Y-164499524D01*
X329493715Y-163169048D02*
X329130858Y-164076190D01*
X330074286Y-164076190D01*
X114936086Y-164439048D02*
X115153800Y-164499524D01*
X115516657Y-164499524D01*
X115661800Y-164439048D01*
X115734371Y-164378571D01*
X115806943Y-164257619D01*
X115806943Y-164136667D01*
X115734371Y-164015714D01*
X115661800Y-163955238D01*
X115516657Y-163894762D01*
X115226371Y-163834286D01*
X115081229Y-163773810D01*
X115008657Y-163713333D01*
X114936086Y-163592381D01*
X114936086Y-163471429D01*
X115008657Y-163350476D01*
X115081229Y-163290000D01*
X115226371Y-163229524D01*
X115589229Y-163229524D01*
X115806943Y-163290000D01*
X116314943Y-163229524D02*
X116677800Y-164499524D01*
X116968086Y-163592381D01*
X117258372Y-164499524D01*
X117621229Y-163229524D01*
X118854943Y-163229524D02*
X118564657Y-163229524D01*
X118419514Y-163290000D01*
X118346943Y-163350476D01*
X118201800Y-163531905D01*
X118129229Y-163773810D01*
X118129229Y-164257619D01*
X118201800Y-164378571D01*
X118274372Y-164439048D01*
X118419514Y-164499524D01*
X118709800Y-164499524D01*
X118854943Y-164439048D01*
X118927514Y-164378571D01*
X119000086Y-164257619D01*
X119000086Y-163955238D01*
X118927514Y-163834286D01*
X118854943Y-163773810D01*
X118709800Y-163713333D01*
X118419514Y-163713333D01*
X118274372Y-163773810D01*
X118201800Y-163834286D01*
X118129229Y-163955238D01*
X119870943Y-163773810D02*
X119725801Y-163713333D01*
X119653229Y-163652857D01*
X119580658Y-163531905D01*
X119580658Y-163471429D01*
X119653229Y-163350476D01*
X119725801Y-163290000D01*
X119870943Y-163229524D01*
X120161229Y-163229524D01*
X120306372Y-163290000D01*
X120378943Y-163350476D01*
X120451515Y-163471429D01*
X120451515Y-163531905D01*
X120378943Y-163652857D01*
X120306372Y-163713333D01*
X120161229Y-163773810D01*
X119870943Y-163773810D01*
X119725801Y-163834286D01*
X119653229Y-163894762D01*
X119580658Y-164015714D01*
X119580658Y-164257619D01*
X119653229Y-164378571D01*
X119725801Y-164439048D01*
X119870943Y-164499524D01*
X120161229Y-164499524D01*
X120306372Y-164439048D01*
X120378943Y-164378571D01*
X120451515Y-164257619D01*
X120451515Y-164015714D01*
X120378943Y-163894762D01*
X120306372Y-163834286D01*
X120161229Y-163773810D01*
X353061286Y-88239048D02*
X353279000Y-88299524D01*
X353641857Y-88299524D01*
X353787000Y-88239048D01*
X353859571Y-88178571D01*
X353932143Y-88057619D01*
X353932143Y-87936667D01*
X353859571Y-87815714D01*
X353787000Y-87755238D01*
X353641857Y-87694762D01*
X353351571Y-87634286D01*
X353206429Y-87573810D01*
X353133857Y-87513333D01*
X353061286Y-87392381D01*
X353061286Y-87271429D01*
X353133857Y-87150476D01*
X353206429Y-87090000D01*
X353351571Y-87029524D01*
X353714429Y-87029524D01*
X353932143Y-87090000D01*
X354440143Y-87029524D02*
X354803000Y-88299524D01*
X355093286Y-87392381D01*
X355383572Y-88299524D01*
X355746429Y-87029524D01*
X356980143Y-87029524D02*
X356689857Y-87029524D01*
X356544714Y-87090000D01*
X356472143Y-87150476D01*
X356327000Y-87331905D01*
X356254429Y-87573810D01*
X356254429Y-88057619D01*
X356327000Y-88178571D01*
X356399572Y-88239048D01*
X356544714Y-88299524D01*
X356835000Y-88299524D01*
X356980143Y-88239048D01*
X357052714Y-88178571D01*
X357125286Y-88057619D01*
X357125286Y-87755238D01*
X357052714Y-87634286D01*
X356980143Y-87573810D01*
X356835000Y-87513333D01*
X356544714Y-87513333D01*
X356399572Y-87573810D01*
X356327000Y-87634286D01*
X356254429Y-87755238D01*
X358504143Y-87029524D02*
X357778429Y-87029524D01*
X357705858Y-87634286D01*
X357778429Y-87573810D01*
X357923572Y-87513333D01*
X358286429Y-87513333D01*
X358431572Y-87573810D01*
X358504143Y-87634286D01*
X358576715Y-87755238D01*
X358576715Y-88057619D01*
X358504143Y-88178571D01*
X358431572Y-88239048D01*
X358286429Y-88299524D01*
X357923572Y-88299524D01*
X357778429Y-88239048D01*
X357705858Y-88178571D01*
X334011286Y-88239048D02*
X334229000Y-88299524D01*
X334591857Y-88299524D01*
X334737000Y-88239048D01*
X334809571Y-88178571D01*
X334882143Y-88057619D01*
X334882143Y-87936667D01*
X334809571Y-87815714D01*
X334737000Y-87755238D01*
X334591857Y-87694762D01*
X334301571Y-87634286D01*
X334156429Y-87573810D01*
X334083857Y-87513333D01*
X334011286Y-87392381D01*
X334011286Y-87271429D01*
X334083857Y-87150476D01*
X334156429Y-87090000D01*
X334301571Y-87029524D01*
X334664429Y-87029524D01*
X334882143Y-87090000D01*
X335390143Y-87029524D02*
X335753000Y-88299524D01*
X336043286Y-87392381D01*
X336333572Y-88299524D01*
X336696429Y-87029524D01*
X337930143Y-87029524D02*
X337639857Y-87029524D01*
X337494714Y-87090000D01*
X337422143Y-87150476D01*
X337277000Y-87331905D01*
X337204429Y-87573810D01*
X337204429Y-88057619D01*
X337277000Y-88178571D01*
X337349572Y-88239048D01*
X337494714Y-88299524D01*
X337785000Y-88299524D01*
X337930143Y-88239048D01*
X338002714Y-88178571D01*
X338075286Y-88057619D01*
X338075286Y-87755238D01*
X338002714Y-87634286D01*
X337930143Y-87573810D01*
X337785000Y-87513333D01*
X337494714Y-87513333D01*
X337349572Y-87573810D01*
X337277000Y-87634286D01*
X337204429Y-87755238D01*
X339381572Y-87452857D02*
X339381572Y-88299524D01*
X339018715Y-86969048D02*
X338655858Y-87876190D01*
X339599286Y-87876190D01*
X353061286Y-145389048D02*
X353279000Y-145449524D01*
X353641857Y-145449524D01*
X353787000Y-145389048D01*
X353859571Y-145328571D01*
X353932143Y-145207619D01*
X353932143Y-145086667D01*
X353859571Y-144965714D01*
X353787000Y-144905238D01*
X353641857Y-144844762D01*
X353351571Y-144784286D01*
X353206429Y-144723810D01*
X353133857Y-144663333D01*
X353061286Y-144542381D01*
X353061286Y-144421429D01*
X353133857Y-144300476D01*
X353206429Y-144240000D01*
X353351571Y-144179524D01*
X353714429Y-144179524D01*
X353932143Y-144240000D01*
X354440143Y-144179524D02*
X354803000Y-145449524D01*
X355093286Y-144542381D01*
X355383572Y-145449524D01*
X355746429Y-144179524D01*
X356980143Y-144179524D02*
X356689857Y-144179524D01*
X356544714Y-144240000D01*
X356472143Y-144300476D01*
X356327000Y-144481905D01*
X356254429Y-144723810D01*
X356254429Y-145207619D01*
X356327000Y-145328571D01*
X356399572Y-145389048D01*
X356544714Y-145449524D01*
X356835000Y-145449524D01*
X356980143Y-145389048D01*
X357052714Y-145328571D01*
X357125286Y-145207619D01*
X357125286Y-144905238D01*
X357052714Y-144784286D01*
X356980143Y-144723810D01*
X356835000Y-144663333D01*
X356544714Y-144663333D01*
X356399572Y-144723810D01*
X356327000Y-144784286D01*
X356254429Y-144905238D01*
X357633286Y-144179524D02*
X358576715Y-144179524D01*
X358068715Y-144663333D01*
X358286429Y-144663333D01*
X358431572Y-144723810D01*
X358504143Y-144784286D01*
X358576715Y-144905238D01*
X358576715Y-145207619D01*
X358504143Y-145328571D01*
X358431572Y-145389048D01*
X358286429Y-145449524D01*
X357851001Y-145449524D01*
X357705858Y-145389048D01*
X357633286Y-145328571D01*
X324486286Y-107289048D02*
X324704000Y-107349524D01*
X325066857Y-107349524D01*
X325212000Y-107289048D01*
X325284571Y-107228571D01*
X325357143Y-107107619D01*
X325357143Y-106986667D01*
X325284571Y-106865714D01*
X325212000Y-106805238D01*
X325066857Y-106744762D01*
X324776571Y-106684286D01*
X324631429Y-106623810D01*
X324558857Y-106563333D01*
X324486286Y-106442381D01*
X324486286Y-106321429D01*
X324558857Y-106200476D01*
X324631429Y-106140000D01*
X324776571Y-106079524D01*
X325139429Y-106079524D01*
X325357143Y-106140000D01*
X325865143Y-106079524D02*
X326228000Y-107349524D01*
X326518286Y-106442381D01*
X326808572Y-107349524D01*
X327171429Y-106079524D01*
X328405143Y-106079524D02*
X328114857Y-106079524D01*
X327969714Y-106140000D01*
X327897143Y-106200476D01*
X327752000Y-106381905D01*
X327679429Y-106623810D01*
X327679429Y-107107619D01*
X327752000Y-107228571D01*
X327824572Y-107289048D01*
X327969714Y-107349524D01*
X328260000Y-107349524D01*
X328405143Y-107289048D01*
X328477714Y-107228571D01*
X328550286Y-107107619D01*
X328550286Y-106805238D01*
X328477714Y-106684286D01*
X328405143Y-106623810D01*
X328260000Y-106563333D01*
X327969714Y-106563333D01*
X327824572Y-106623810D01*
X327752000Y-106684286D01*
X327679429Y-106805238D01*
X330001715Y-107349524D02*
X329130858Y-107349524D01*
X329566286Y-107349524D02*
X329566286Y-106079524D01*
X329421143Y-106260952D01*
X329276001Y-106381905D01*
X329130858Y-106442381D01*
X314961286Y-88239048D02*
X315179000Y-88299524D01*
X315541857Y-88299524D01*
X315687000Y-88239048D01*
X315759571Y-88178571D01*
X315832143Y-88057619D01*
X315832143Y-87936667D01*
X315759571Y-87815714D01*
X315687000Y-87755238D01*
X315541857Y-87694762D01*
X315251571Y-87634286D01*
X315106429Y-87573810D01*
X315033857Y-87513333D01*
X314961286Y-87392381D01*
X314961286Y-87271429D01*
X315033857Y-87150476D01*
X315106429Y-87090000D01*
X315251571Y-87029524D01*
X315614429Y-87029524D01*
X315832143Y-87090000D01*
X316340143Y-87029524D02*
X316703000Y-88299524D01*
X316993286Y-87392381D01*
X317283572Y-88299524D01*
X317646429Y-87029524D01*
X318880143Y-87029524D02*
X318589857Y-87029524D01*
X318444714Y-87090000D01*
X318372143Y-87150476D01*
X318227000Y-87331905D01*
X318154429Y-87573810D01*
X318154429Y-88057619D01*
X318227000Y-88178571D01*
X318299572Y-88239048D01*
X318444714Y-88299524D01*
X318735000Y-88299524D01*
X318880143Y-88239048D01*
X318952714Y-88178571D01*
X319025286Y-88057619D01*
X319025286Y-87755238D01*
X318952714Y-87634286D01*
X318880143Y-87573810D01*
X318735000Y-87513333D01*
X318444714Y-87513333D01*
X318299572Y-87573810D01*
X318227000Y-87634286D01*
X318154429Y-87755238D01*
X319968715Y-87029524D02*
X320113858Y-87029524D01*
X320259001Y-87090000D01*
X320331572Y-87150476D01*
X320404143Y-87271429D01*
X320476715Y-87513333D01*
X320476715Y-87815714D01*
X320404143Y-88057619D01*
X320331572Y-88178571D01*
X320259001Y-88239048D01*
X320113858Y-88299524D01*
X319968715Y-88299524D01*
X319823572Y-88239048D01*
X319751001Y-88178571D01*
X319678429Y-88057619D01*
X319605858Y-87815714D01*
X319605858Y-87513333D01*
X319678429Y-87271429D01*
X319751001Y-87150476D01*
X319823572Y-87090000D01*
X319968715Y-87029524D01*
X310198286Y-126339048D02*
X310416000Y-126399524D01*
X310778857Y-126399524D01*
X310924000Y-126339048D01*
X310996571Y-126278571D01*
X311069143Y-126157619D01*
X311069143Y-126036667D01*
X310996571Y-125915714D01*
X310924000Y-125855238D01*
X310778857Y-125794762D01*
X310488571Y-125734286D01*
X310343429Y-125673810D01*
X310270857Y-125613333D01*
X310198286Y-125492381D01*
X310198286Y-125371429D01*
X310270857Y-125250476D01*
X310343429Y-125190000D01*
X310488571Y-125129524D01*
X310851429Y-125129524D01*
X311069143Y-125190000D01*
X311577143Y-125129524D02*
X311940000Y-126399524D01*
X312230286Y-125492381D01*
X312520572Y-126399524D01*
X312883429Y-125129524D01*
X314189714Y-125129524D02*
X313464000Y-125129524D01*
X313391429Y-125734286D01*
X313464000Y-125673810D01*
X313609143Y-125613333D01*
X313972000Y-125613333D01*
X314117143Y-125673810D01*
X314189714Y-125734286D01*
X314262286Y-125855238D01*
X314262286Y-126157619D01*
X314189714Y-126278571D01*
X314117143Y-126339048D01*
X313972000Y-126399524D01*
X313609143Y-126399524D01*
X313464000Y-126339048D01*
X313391429Y-126278571D01*
X315133143Y-125673810D02*
X314988001Y-125613333D01*
X314915429Y-125552857D01*
X314842858Y-125431905D01*
X314842858Y-125371429D01*
X314915429Y-125250476D01*
X314988001Y-125190000D01*
X315133143Y-125129524D01*
X315423429Y-125129524D01*
X315568572Y-125190000D01*
X315641143Y-125250476D01*
X315713715Y-125371429D01*
X315713715Y-125431905D01*
X315641143Y-125552857D01*
X315568572Y-125613333D01*
X315423429Y-125673810D01*
X315133143Y-125673810D01*
X314988001Y-125734286D01*
X314915429Y-125794762D01*
X314842858Y-125915714D01*
X314842858Y-126157619D01*
X314915429Y-126278571D01*
X314988001Y-126339048D01*
X315133143Y-126399524D01*
X315423429Y-126399524D01*
X315568572Y-126339048D01*
X315641143Y-126278571D01*
X315713715Y-126157619D01*
X315713715Y-125915714D01*
X315641143Y-125794762D01*
X315568572Y-125734286D01*
X315423429Y-125673810D01*
X305436286Y-107289048D02*
X305654000Y-107349524D01*
X306016857Y-107349524D01*
X306162000Y-107289048D01*
X306234571Y-107228571D01*
X306307143Y-107107619D01*
X306307143Y-106986667D01*
X306234571Y-106865714D01*
X306162000Y-106805238D01*
X306016857Y-106744762D01*
X305726571Y-106684286D01*
X305581429Y-106623810D01*
X305508857Y-106563333D01*
X305436286Y-106442381D01*
X305436286Y-106321429D01*
X305508857Y-106200476D01*
X305581429Y-106140000D01*
X305726571Y-106079524D01*
X306089429Y-106079524D01*
X306307143Y-106140000D01*
X306815143Y-106079524D02*
X307178000Y-107349524D01*
X307468286Y-106442381D01*
X307758572Y-107349524D01*
X308121429Y-106079524D01*
X309427714Y-106079524D02*
X308702000Y-106079524D01*
X308629429Y-106684286D01*
X308702000Y-106623810D01*
X308847143Y-106563333D01*
X309210000Y-106563333D01*
X309355143Y-106623810D01*
X309427714Y-106684286D01*
X309500286Y-106805238D01*
X309500286Y-107107619D01*
X309427714Y-107228571D01*
X309355143Y-107289048D01*
X309210000Y-107349524D01*
X308847143Y-107349524D01*
X308702000Y-107289048D01*
X308629429Y-107228571D01*
X310008286Y-106079524D02*
X311024286Y-106079524D01*
X310371143Y-107349524D01*
X295911286Y-88239048D02*
X296129000Y-88299524D01*
X296491857Y-88299524D01*
X296637000Y-88239048D01*
X296709571Y-88178571D01*
X296782143Y-88057619D01*
X296782143Y-87936667D01*
X296709571Y-87815714D01*
X296637000Y-87755238D01*
X296491857Y-87694762D01*
X296201571Y-87634286D01*
X296056429Y-87573810D01*
X295983857Y-87513333D01*
X295911286Y-87392381D01*
X295911286Y-87271429D01*
X295983857Y-87150476D01*
X296056429Y-87090000D01*
X296201571Y-87029524D01*
X296564429Y-87029524D01*
X296782143Y-87090000D01*
X297290143Y-87029524D02*
X297653000Y-88299524D01*
X297943286Y-87392381D01*
X298233572Y-88299524D01*
X298596429Y-87029524D01*
X299902714Y-87029524D02*
X299177000Y-87029524D01*
X299104429Y-87634286D01*
X299177000Y-87573810D01*
X299322143Y-87513333D01*
X299685000Y-87513333D01*
X299830143Y-87573810D01*
X299902714Y-87634286D01*
X299975286Y-87755238D01*
X299975286Y-88057619D01*
X299902714Y-88178571D01*
X299830143Y-88239048D01*
X299685000Y-88299524D01*
X299322143Y-88299524D01*
X299177000Y-88239048D01*
X299104429Y-88178571D01*
X301281572Y-87029524D02*
X300991286Y-87029524D01*
X300846143Y-87090000D01*
X300773572Y-87150476D01*
X300628429Y-87331905D01*
X300555858Y-87573810D01*
X300555858Y-88057619D01*
X300628429Y-88178571D01*
X300701001Y-88239048D01*
X300846143Y-88299524D01*
X301136429Y-88299524D01*
X301281572Y-88239048D01*
X301354143Y-88178571D01*
X301426715Y-88057619D01*
X301426715Y-87755238D01*
X301354143Y-87634286D01*
X301281572Y-87573810D01*
X301136429Y-87513333D01*
X300846143Y-87513333D01*
X300701001Y-87573810D01*
X300628429Y-87634286D01*
X300555858Y-87755238D01*
X300673286Y-145389048D02*
X300891000Y-145449524D01*
X301253857Y-145449524D01*
X301399000Y-145389048D01*
X301471571Y-145328571D01*
X301544143Y-145207619D01*
X301544143Y-145086667D01*
X301471571Y-144965714D01*
X301399000Y-144905238D01*
X301253857Y-144844762D01*
X300963571Y-144784286D01*
X300818429Y-144723810D01*
X300745857Y-144663333D01*
X300673286Y-144542381D01*
X300673286Y-144421429D01*
X300745857Y-144300476D01*
X300818429Y-144240000D01*
X300963571Y-144179524D01*
X301326429Y-144179524D01*
X301544143Y-144240000D01*
X302052143Y-144179524D02*
X302415000Y-145449524D01*
X302705286Y-144542381D01*
X302995572Y-145449524D01*
X303358429Y-144179524D01*
X304664714Y-144179524D02*
X303939000Y-144179524D01*
X303866429Y-144784286D01*
X303939000Y-144723810D01*
X304084143Y-144663333D01*
X304447000Y-144663333D01*
X304592143Y-144723810D01*
X304664714Y-144784286D01*
X304737286Y-144905238D01*
X304737286Y-145207619D01*
X304664714Y-145328571D01*
X304592143Y-145389048D01*
X304447000Y-145449524D01*
X304084143Y-145449524D01*
X303939000Y-145389048D01*
X303866429Y-145328571D01*
X306116143Y-144179524D02*
X305390429Y-144179524D01*
X305317858Y-144784286D01*
X305390429Y-144723810D01*
X305535572Y-144663333D01*
X305898429Y-144663333D01*
X306043572Y-144723810D01*
X306116143Y-144784286D01*
X306188715Y-144905238D01*
X306188715Y-145207619D01*
X306116143Y-145328571D01*
X306043572Y-145389048D01*
X305898429Y-145449524D01*
X305535572Y-145449524D01*
X305390429Y-145389048D01*
X305317858Y-145328571D01*
X291148286Y-126339048D02*
X291366000Y-126399524D01*
X291728857Y-126399524D01*
X291874000Y-126339048D01*
X291946571Y-126278571D01*
X292019143Y-126157619D01*
X292019143Y-126036667D01*
X291946571Y-125915714D01*
X291874000Y-125855238D01*
X291728857Y-125794762D01*
X291438571Y-125734286D01*
X291293429Y-125673810D01*
X291220857Y-125613333D01*
X291148286Y-125492381D01*
X291148286Y-125371429D01*
X291220857Y-125250476D01*
X291293429Y-125190000D01*
X291438571Y-125129524D01*
X291801429Y-125129524D01*
X292019143Y-125190000D01*
X292527143Y-125129524D02*
X292890000Y-126399524D01*
X293180286Y-125492381D01*
X293470572Y-126399524D01*
X293833429Y-125129524D01*
X295139714Y-125129524D02*
X294414000Y-125129524D01*
X294341429Y-125734286D01*
X294414000Y-125673810D01*
X294559143Y-125613333D01*
X294922000Y-125613333D01*
X295067143Y-125673810D01*
X295139714Y-125734286D01*
X295212286Y-125855238D01*
X295212286Y-126157619D01*
X295139714Y-126278571D01*
X295067143Y-126339048D01*
X294922000Y-126399524D01*
X294559143Y-126399524D01*
X294414000Y-126339048D01*
X294341429Y-126278571D01*
X296518572Y-125552857D02*
X296518572Y-126399524D01*
X296155715Y-125069048D02*
X295792858Y-125976190D01*
X296736286Y-125976190D01*
X286386286Y-107289048D02*
X286604000Y-107349524D01*
X286966857Y-107349524D01*
X287112000Y-107289048D01*
X287184571Y-107228571D01*
X287257143Y-107107619D01*
X287257143Y-106986667D01*
X287184571Y-106865714D01*
X287112000Y-106805238D01*
X286966857Y-106744762D01*
X286676571Y-106684286D01*
X286531429Y-106623810D01*
X286458857Y-106563333D01*
X286386286Y-106442381D01*
X286386286Y-106321429D01*
X286458857Y-106200476D01*
X286531429Y-106140000D01*
X286676571Y-106079524D01*
X287039429Y-106079524D01*
X287257143Y-106140000D01*
X287765143Y-106079524D02*
X288128000Y-107349524D01*
X288418286Y-106442381D01*
X288708572Y-107349524D01*
X289071429Y-106079524D01*
X290377714Y-106079524D02*
X289652000Y-106079524D01*
X289579429Y-106684286D01*
X289652000Y-106623810D01*
X289797143Y-106563333D01*
X290160000Y-106563333D01*
X290305143Y-106623810D01*
X290377714Y-106684286D01*
X290450286Y-106805238D01*
X290450286Y-107107619D01*
X290377714Y-107228571D01*
X290305143Y-107289048D01*
X290160000Y-107349524D01*
X289797143Y-107349524D01*
X289652000Y-107289048D01*
X289579429Y-107228571D01*
X290958286Y-106079524D02*
X291901715Y-106079524D01*
X291393715Y-106563333D01*
X291611429Y-106563333D01*
X291756572Y-106623810D01*
X291829143Y-106684286D01*
X291901715Y-106805238D01*
X291901715Y-107107619D01*
X291829143Y-107228571D01*
X291756572Y-107289048D01*
X291611429Y-107349524D01*
X291176001Y-107349524D01*
X291030858Y-107289048D01*
X290958286Y-107228571D01*
X276861286Y-88239048D02*
X277079000Y-88299524D01*
X277441857Y-88299524D01*
X277587000Y-88239048D01*
X277659571Y-88178571D01*
X277732143Y-88057619D01*
X277732143Y-87936667D01*
X277659571Y-87815714D01*
X277587000Y-87755238D01*
X277441857Y-87694762D01*
X277151571Y-87634286D01*
X277006429Y-87573810D01*
X276933857Y-87513333D01*
X276861286Y-87392381D01*
X276861286Y-87271429D01*
X276933857Y-87150476D01*
X277006429Y-87090000D01*
X277151571Y-87029524D01*
X277514429Y-87029524D01*
X277732143Y-87090000D01*
X278240143Y-87029524D02*
X278603000Y-88299524D01*
X278893286Y-87392381D01*
X279183572Y-88299524D01*
X279546429Y-87029524D01*
X280852714Y-87029524D02*
X280127000Y-87029524D01*
X280054429Y-87634286D01*
X280127000Y-87573810D01*
X280272143Y-87513333D01*
X280635000Y-87513333D01*
X280780143Y-87573810D01*
X280852714Y-87634286D01*
X280925286Y-87755238D01*
X280925286Y-88057619D01*
X280852714Y-88178571D01*
X280780143Y-88239048D01*
X280635000Y-88299524D01*
X280272143Y-88299524D01*
X280127000Y-88239048D01*
X280054429Y-88178571D01*
X281505858Y-87150476D02*
X281578429Y-87090000D01*
X281723572Y-87029524D01*
X282086429Y-87029524D01*
X282231572Y-87090000D01*
X282304143Y-87150476D01*
X282376715Y-87271429D01*
X282376715Y-87392381D01*
X282304143Y-87573810D01*
X281433286Y-88299524D01*
X282376715Y-88299524D01*
X281623286Y-145389048D02*
X281841000Y-145449524D01*
X282203857Y-145449524D01*
X282349000Y-145389048D01*
X282421571Y-145328571D01*
X282494143Y-145207619D01*
X282494143Y-145086667D01*
X282421571Y-144965714D01*
X282349000Y-144905238D01*
X282203857Y-144844762D01*
X281913571Y-144784286D01*
X281768429Y-144723810D01*
X281695857Y-144663333D01*
X281623286Y-144542381D01*
X281623286Y-144421429D01*
X281695857Y-144300476D01*
X281768429Y-144240000D01*
X281913571Y-144179524D01*
X282276429Y-144179524D01*
X282494143Y-144240000D01*
X283002143Y-144179524D02*
X283365000Y-145449524D01*
X283655286Y-144542381D01*
X283945572Y-145449524D01*
X284308429Y-144179524D01*
X285614714Y-144179524D02*
X284889000Y-144179524D01*
X284816429Y-144784286D01*
X284889000Y-144723810D01*
X285034143Y-144663333D01*
X285397000Y-144663333D01*
X285542143Y-144723810D01*
X285614714Y-144784286D01*
X285687286Y-144905238D01*
X285687286Y-145207619D01*
X285614714Y-145328571D01*
X285542143Y-145389048D01*
X285397000Y-145449524D01*
X285034143Y-145449524D01*
X284889000Y-145389048D01*
X284816429Y-145328571D01*
X286630715Y-144179524D02*
X286775858Y-144179524D01*
X286921001Y-144240000D01*
X286993572Y-144300476D01*
X287066143Y-144421429D01*
X287138715Y-144663333D01*
X287138715Y-144965714D01*
X287066143Y-145207619D01*
X286993572Y-145328571D01*
X286921001Y-145389048D01*
X286775858Y-145449524D01*
X286630715Y-145449524D01*
X286485572Y-145389048D01*
X286413001Y-145328571D01*
X286340429Y-145207619D01*
X286267858Y-144965714D01*
X286267858Y-144663333D01*
X286340429Y-144421429D01*
X286413001Y-144300476D01*
X286485572Y-144240000D01*
X286630715Y-144179524D01*
X272098286Y-126339048D02*
X272316000Y-126399524D01*
X272678857Y-126399524D01*
X272824000Y-126339048D01*
X272896571Y-126278571D01*
X272969143Y-126157619D01*
X272969143Y-126036667D01*
X272896571Y-125915714D01*
X272824000Y-125855238D01*
X272678857Y-125794762D01*
X272388571Y-125734286D01*
X272243429Y-125673810D01*
X272170857Y-125613333D01*
X272098286Y-125492381D01*
X272098286Y-125371429D01*
X272170857Y-125250476D01*
X272243429Y-125190000D01*
X272388571Y-125129524D01*
X272751429Y-125129524D01*
X272969143Y-125190000D01*
X273477143Y-125129524D02*
X273840000Y-126399524D01*
X274130286Y-125492381D01*
X274420572Y-126399524D01*
X274783429Y-125129524D01*
X276017143Y-125552857D02*
X276017143Y-126399524D01*
X275654286Y-125069048D02*
X275291429Y-125976190D01*
X276234857Y-125976190D01*
X276888001Y-126399524D02*
X277178286Y-126399524D01*
X277323429Y-126339048D01*
X277396001Y-126278571D01*
X277541143Y-126097143D01*
X277613715Y-125855238D01*
X277613715Y-125371429D01*
X277541143Y-125250476D01*
X277468572Y-125190000D01*
X277323429Y-125129524D01*
X277033143Y-125129524D01*
X276888001Y-125190000D01*
X276815429Y-125250476D01*
X276742858Y-125371429D01*
X276742858Y-125673810D01*
X276815429Y-125794762D01*
X276888001Y-125855238D01*
X277033143Y-125915714D01*
X277323429Y-125915714D01*
X277468572Y-125855238D01*
X277541143Y-125794762D01*
X277613715Y-125673810D01*
X267336286Y-107289048D02*
X267554000Y-107349524D01*
X267916857Y-107349524D01*
X268062000Y-107289048D01*
X268134571Y-107228571D01*
X268207143Y-107107619D01*
X268207143Y-106986667D01*
X268134571Y-106865714D01*
X268062000Y-106805238D01*
X267916857Y-106744762D01*
X267626571Y-106684286D01*
X267481429Y-106623810D01*
X267408857Y-106563333D01*
X267336286Y-106442381D01*
X267336286Y-106321429D01*
X267408857Y-106200476D01*
X267481429Y-106140000D01*
X267626571Y-106079524D01*
X267989429Y-106079524D01*
X268207143Y-106140000D01*
X268715143Y-106079524D02*
X269078000Y-107349524D01*
X269368286Y-106442381D01*
X269658572Y-107349524D01*
X270021429Y-106079524D01*
X271255143Y-106502857D02*
X271255143Y-107349524D01*
X270892286Y-106019048D02*
X270529429Y-106926190D01*
X271472857Y-106926190D01*
X272271143Y-106623810D02*
X272126001Y-106563333D01*
X272053429Y-106502857D01*
X271980858Y-106381905D01*
X271980858Y-106321429D01*
X272053429Y-106200476D01*
X272126001Y-106140000D01*
X272271143Y-106079524D01*
X272561429Y-106079524D01*
X272706572Y-106140000D01*
X272779143Y-106200476D01*
X272851715Y-106321429D01*
X272851715Y-106381905D01*
X272779143Y-106502857D01*
X272706572Y-106563333D01*
X272561429Y-106623810D01*
X272271143Y-106623810D01*
X272126001Y-106684286D01*
X272053429Y-106744762D01*
X271980858Y-106865714D01*
X271980858Y-107107619D01*
X272053429Y-107228571D01*
X272126001Y-107289048D01*
X272271143Y-107349524D01*
X272561429Y-107349524D01*
X272706572Y-107289048D01*
X272779143Y-107228571D01*
X272851715Y-107107619D01*
X272851715Y-106865714D01*
X272779143Y-106744762D01*
X272706572Y-106684286D01*
X272561429Y-106623810D01*
X257811286Y-88239048D02*
X258029000Y-88299524D01*
X258391857Y-88299524D01*
X258537000Y-88239048D01*
X258609571Y-88178571D01*
X258682143Y-88057619D01*
X258682143Y-87936667D01*
X258609571Y-87815714D01*
X258537000Y-87755238D01*
X258391857Y-87694762D01*
X258101571Y-87634286D01*
X257956429Y-87573810D01*
X257883857Y-87513333D01*
X257811286Y-87392381D01*
X257811286Y-87271429D01*
X257883857Y-87150476D01*
X257956429Y-87090000D01*
X258101571Y-87029524D01*
X258464429Y-87029524D01*
X258682143Y-87090000D01*
X259190143Y-87029524D02*
X259553000Y-88299524D01*
X259843286Y-87392381D01*
X260133572Y-88299524D01*
X260496429Y-87029524D01*
X261730143Y-87452857D02*
X261730143Y-88299524D01*
X261367286Y-86969048D02*
X261004429Y-87876190D01*
X261947857Y-87876190D01*
X262383286Y-87029524D02*
X263399286Y-87029524D01*
X262746143Y-88299524D01*
X262573286Y-145389048D02*
X262791000Y-145449524D01*
X263153857Y-145449524D01*
X263299000Y-145389048D01*
X263371571Y-145328571D01*
X263444143Y-145207619D01*
X263444143Y-145086667D01*
X263371571Y-144965714D01*
X263299000Y-144905238D01*
X263153857Y-144844762D01*
X262863571Y-144784286D01*
X262718429Y-144723810D01*
X262645857Y-144663333D01*
X262573286Y-144542381D01*
X262573286Y-144421429D01*
X262645857Y-144300476D01*
X262718429Y-144240000D01*
X262863571Y-144179524D01*
X263226429Y-144179524D01*
X263444143Y-144240000D01*
X263952143Y-144179524D02*
X264315000Y-145449524D01*
X264605286Y-144542381D01*
X264895572Y-145449524D01*
X265258429Y-144179524D01*
X266492143Y-144602857D02*
X266492143Y-145449524D01*
X266129286Y-144119048D02*
X265766429Y-145026190D01*
X266709857Y-145026190D01*
X268016143Y-144179524D02*
X267290429Y-144179524D01*
X267217858Y-144784286D01*
X267290429Y-144723810D01*
X267435572Y-144663333D01*
X267798429Y-144663333D01*
X267943572Y-144723810D01*
X268016143Y-144784286D01*
X268088715Y-144905238D01*
X268088715Y-145207619D01*
X268016143Y-145328571D01*
X267943572Y-145389048D01*
X267798429Y-145449524D01*
X267435572Y-145449524D01*
X267290429Y-145389048D01*
X267217858Y-145328571D01*
X253048286Y-126339048D02*
X253266000Y-126399524D01*
X253628857Y-126399524D01*
X253774000Y-126339048D01*
X253846571Y-126278571D01*
X253919143Y-126157619D01*
X253919143Y-126036667D01*
X253846571Y-125915714D01*
X253774000Y-125855238D01*
X253628857Y-125794762D01*
X253338571Y-125734286D01*
X253193429Y-125673810D01*
X253120857Y-125613333D01*
X253048286Y-125492381D01*
X253048286Y-125371429D01*
X253120857Y-125250476D01*
X253193429Y-125190000D01*
X253338571Y-125129524D01*
X253701429Y-125129524D01*
X253919143Y-125190000D01*
X254427143Y-125129524D02*
X254790000Y-126399524D01*
X255080286Y-125492381D01*
X255370572Y-126399524D01*
X255733429Y-125129524D01*
X256967143Y-125552857D02*
X256967143Y-126399524D01*
X256604286Y-125069048D02*
X256241429Y-125976190D01*
X257184857Y-125976190D01*
X258418572Y-125552857D02*
X258418572Y-126399524D01*
X258055715Y-125069048D02*
X257692858Y-125976190D01*
X258636286Y-125976190D01*
X248286286Y-107289048D02*
X248504000Y-107349524D01*
X248866857Y-107349524D01*
X249012000Y-107289048D01*
X249084571Y-107228571D01*
X249157143Y-107107619D01*
X249157143Y-106986667D01*
X249084571Y-106865714D01*
X249012000Y-106805238D01*
X248866857Y-106744762D01*
X248576571Y-106684286D01*
X248431429Y-106623810D01*
X248358857Y-106563333D01*
X248286286Y-106442381D01*
X248286286Y-106321429D01*
X248358857Y-106200476D01*
X248431429Y-106140000D01*
X248576571Y-106079524D01*
X248939429Y-106079524D01*
X249157143Y-106140000D01*
X249665143Y-106079524D02*
X250028000Y-107349524D01*
X250318286Y-106442381D01*
X250608572Y-107349524D01*
X250971429Y-106079524D01*
X252205143Y-106502857D02*
X252205143Y-107349524D01*
X251842286Y-106019048D02*
X251479429Y-106926190D01*
X252422857Y-106926190D01*
X252858286Y-106079524D02*
X253801715Y-106079524D01*
X253293715Y-106563333D01*
X253511429Y-106563333D01*
X253656572Y-106623810D01*
X253729143Y-106684286D01*
X253801715Y-106805238D01*
X253801715Y-107107619D01*
X253729143Y-107228571D01*
X253656572Y-107289048D01*
X253511429Y-107349524D01*
X253076001Y-107349524D01*
X252930858Y-107289048D01*
X252858286Y-107228571D01*
X238761286Y-88239048D02*
X238979000Y-88299524D01*
X239341857Y-88299524D01*
X239487000Y-88239048D01*
X239559571Y-88178571D01*
X239632143Y-88057619D01*
X239632143Y-87936667D01*
X239559571Y-87815714D01*
X239487000Y-87755238D01*
X239341857Y-87694762D01*
X239051571Y-87634286D01*
X238906429Y-87573810D01*
X238833857Y-87513333D01*
X238761286Y-87392381D01*
X238761286Y-87271429D01*
X238833857Y-87150476D01*
X238906429Y-87090000D01*
X239051571Y-87029524D01*
X239414429Y-87029524D01*
X239632143Y-87090000D01*
X240140143Y-87029524D02*
X240503000Y-88299524D01*
X240793286Y-87392381D01*
X241083572Y-88299524D01*
X241446429Y-87029524D01*
X242680143Y-87452857D02*
X242680143Y-88299524D01*
X242317286Y-86969048D02*
X241954429Y-87876190D01*
X242897857Y-87876190D01*
X243405858Y-87150476D02*
X243478429Y-87090000D01*
X243623572Y-87029524D01*
X243986429Y-87029524D01*
X244131572Y-87090000D01*
X244204143Y-87150476D01*
X244276715Y-87271429D01*
X244276715Y-87392381D01*
X244204143Y-87573810D01*
X243333286Y-88299524D01*
X244276715Y-88299524D01*
X243523286Y-145389048D02*
X243741000Y-145449524D01*
X244103857Y-145449524D01*
X244249000Y-145389048D01*
X244321571Y-145328571D01*
X244394143Y-145207619D01*
X244394143Y-145086667D01*
X244321571Y-144965714D01*
X244249000Y-144905238D01*
X244103857Y-144844762D01*
X243813571Y-144784286D01*
X243668429Y-144723810D01*
X243595857Y-144663333D01*
X243523286Y-144542381D01*
X243523286Y-144421429D01*
X243595857Y-144300476D01*
X243668429Y-144240000D01*
X243813571Y-144179524D01*
X244176429Y-144179524D01*
X244394143Y-144240000D01*
X244902143Y-144179524D02*
X245265000Y-145449524D01*
X245555286Y-144542381D01*
X245845572Y-145449524D01*
X246208429Y-144179524D01*
X247442143Y-144602857D02*
X247442143Y-145449524D01*
X247079286Y-144119048D02*
X246716429Y-145026190D01*
X247659857Y-145026190D01*
X248530715Y-144179524D02*
X248675858Y-144179524D01*
X248821001Y-144240000D01*
X248893572Y-144300476D01*
X248966143Y-144421429D01*
X249038715Y-144663333D01*
X249038715Y-144965714D01*
X248966143Y-145207619D01*
X248893572Y-145328571D01*
X248821001Y-145389048D01*
X248675858Y-145449524D01*
X248530715Y-145449524D01*
X248385572Y-145389048D01*
X248313001Y-145328571D01*
X248240429Y-145207619D01*
X248167858Y-144965714D01*
X248167858Y-144663333D01*
X248240429Y-144421429D01*
X248313001Y-144300476D01*
X248385572Y-144240000D01*
X248530715Y-144179524D01*
X229236286Y-107289048D02*
X229454000Y-107349524D01*
X229816857Y-107349524D01*
X229962000Y-107289048D01*
X230034571Y-107228571D01*
X230107143Y-107107619D01*
X230107143Y-106986667D01*
X230034571Y-106865714D01*
X229962000Y-106805238D01*
X229816857Y-106744762D01*
X229526571Y-106684286D01*
X229381429Y-106623810D01*
X229308857Y-106563333D01*
X229236286Y-106442381D01*
X229236286Y-106321429D01*
X229308857Y-106200476D01*
X229381429Y-106140000D01*
X229526571Y-106079524D01*
X229889429Y-106079524D01*
X230107143Y-106140000D01*
X230615143Y-106079524D02*
X230978000Y-107349524D01*
X231268286Y-106442381D01*
X231558572Y-107349524D01*
X231921429Y-106079524D01*
X232356857Y-106079524D02*
X233300286Y-106079524D01*
X232792286Y-106563333D01*
X233010000Y-106563333D01*
X233155143Y-106623810D01*
X233227714Y-106684286D01*
X233300286Y-106805238D01*
X233300286Y-107107619D01*
X233227714Y-107228571D01*
X233155143Y-107289048D01*
X233010000Y-107349524D01*
X232574572Y-107349524D01*
X232429429Y-107289048D01*
X232356857Y-107228571D01*
X234171143Y-106623810D02*
X234026001Y-106563333D01*
X233953429Y-106502857D01*
X233880858Y-106381905D01*
X233880858Y-106321429D01*
X233953429Y-106200476D01*
X234026001Y-106140000D01*
X234171143Y-106079524D01*
X234461429Y-106079524D01*
X234606572Y-106140000D01*
X234679143Y-106200476D01*
X234751715Y-106321429D01*
X234751715Y-106381905D01*
X234679143Y-106502857D01*
X234606572Y-106563333D01*
X234461429Y-106623810D01*
X234171143Y-106623810D01*
X234026001Y-106684286D01*
X233953429Y-106744762D01*
X233880858Y-106865714D01*
X233880858Y-107107619D01*
X233953429Y-107228571D01*
X234026001Y-107289048D01*
X234171143Y-107349524D01*
X234461429Y-107349524D01*
X234606572Y-107289048D01*
X234679143Y-107228571D01*
X234751715Y-107107619D01*
X234751715Y-106865714D01*
X234679143Y-106744762D01*
X234606572Y-106684286D01*
X234461429Y-106623810D01*
X219711286Y-88239048D02*
X219929000Y-88299524D01*
X220291857Y-88299524D01*
X220437000Y-88239048D01*
X220509571Y-88178571D01*
X220582143Y-88057619D01*
X220582143Y-87936667D01*
X220509571Y-87815714D01*
X220437000Y-87755238D01*
X220291857Y-87694762D01*
X220001571Y-87634286D01*
X219856429Y-87573810D01*
X219783857Y-87513333D01*
X219711286Y-87392381D01*
X219711286Y-87271429D01*
X219783857Y-87150476D01*
X219856429Y-87090000D01*
X220001571Y-87029524D01*
X220364429Y-87029524D01*
X220582143Y-87090000D01*
X221090143Y-87029524D02*
X221453000Y-88299524D01*
X221743286Y-87392381D01*
X222033572Y-88299524D01*
X222396429Y-87029524D01*
X222831857Y-87029524D02*
X223775286Y-87029524D01*
X223267286Y-87513333D01*
X223485000Y-87513333D01*
X223630143Y-87573810D01*
X223702714Y-87634286D01*
X223775286Y-87755238D01*
X223775286Y-88057619D01*
X223702714Y-88178571D01*
X223630143Y-88239048D01*
X223485000Y-88299524D01*
X223049572Y-88299524D01*
X222904429Y-88239048D01*
X222831857Y-88178571D01*
X224283286Y-87029524D02*
X225299286Y-87029524D01*
X224646143Y-88299524D01*
X281623286Y-164439048D02*
X281841000Y-164499524D01*
X282203857Y-164499524D01*
X282349000Y-164439048D01*
X282421571Y-164378571D01*
X282494143Y-164257619D01*
X282494143Y-164136667D01*
X282421571Y-164015714D01*
X282349000Y-163955238D01*
X282203857Y-163894762D01*
X281913571Y-163834286D01*
X281768429Y-163773810D01*
X281695857Y-163713333D01*
X281623286Y-163592381D01*
X281623286Y-163471429D01*
X281695857Y-163350476D01*
X281768429Y-163290000D01*
X281913571Y-163229524D01*
X282276429Y-163229524D01*
X282494143Y-163290000D01*
X283002143Y-163229524D02*
X283365000Y-164499524D01*
X283655286Y-163592381D01*
X283945572Y-164499524D01*
X284308429Y-163229524D01*
X284743857Y-163229524D02*
X285687286Y-163229524D01*
X285179286Y-163713333D01*
X285397000Y-163713333D01*
X285542143Y-163773810D01*
X285614714Y-163834286D01*
X285687286Y-163955238D01*
X285687286Y-164257619D01*
X285614714Y-164378571D01*
X285542143Y-164439048D01*
X285397000Y-164499524D01*
X284961572Y-164499524D01*
X284816429Y-164439048D01*
X284743857Y-164378571D01*
X286993572Y-163229524D02*
X286703286Y-163229524D01*
X286558143Y-163290000D01*
X286485572Y-163350476D01*
X286340429Y-163531905D01*
X286267858Y-163773810D01*
X286267858Y-164257619D01*
X286340429Y-164378571D01*
X286413001Y-164439048D01*
X286558143Y-164499524D01*
X286848429Y-164499524D01*
X286993572Y-164439048D01*
X287066143Y-164378571D01*
X287138715Y-164257619D01*
X287138715Y-163955238D01*
X287066143Y-163834286D01*
X286993572Y-163773810D01*
X286848429Y-163713333D01*
X286558143Y-163713333D01*
X286413001Y-163773810D01*
X286340429Y-163834286D01*
X286267858Y-163955238D01*
X224473286Y-145389048D02*
X224691000Y-145449524D01*
X225053857Y-145449524D01*
X225199000Y-145389048D01*
X225271571Y-145328571D01*
X225344143Y-145207619D01*
X225344143Y-145086667D01*
X225271571Y-144965714D01*
X225199000Y-144905238D01*
X225053857Y-144844762D01*
X224763571Y-144784286D01*
X224618429Y-144723810D01*
X224545857Y-144663333D01*
X224473286Y-144542381D01*
X224473286Y-144421429D01*
X224545857Y-144300476D01*
X224618429Y-144240000D01*
X224763571Y-144179524D01*
X225126429Y-144179524D01*
X225344143Y-144240000D01*
X225852143Y-144179524D02*
X226215000Y-145449524D01*
X226505286Y-144542381D01*
X226795572Y-145449524D01*
X227158429Y-144179524D01*
X227593857Y-144179524D02*
X228537286Y-144179524D01*
X228029286Y-144663333D01*
X228247000Y-144663333D01*
X228392143Y-144723810D01*
X228464714Y-144784286D01*
X228537286Y-144905238D01*
X228537286Y-145207619D01*
X228464714Y-145328571D01*
X228392143Y-145389048D01*
X228247000Y-145449524D01*
X227811572Y-145449524D01*
X227666429Y-145389048D01*
X227593857Y-145328571D01*
X229916143Y-144179524D02*
X229190429Y-144179524D01*
X229117858Y-144784286D01*
X229190429Y-144723810D01*
X229335572Y-144663333D01*
X229698429Y-144663333D01*
X229843572Y-144723810D01*
X229916143Y-144784286D01*
X229988715Y-144905238D01*
X229988715Y-145207619D01*
X229916143Y-145328571D01*
X229843572Y-145389048D01*
X229698429Y-145449524D01*
X229335572Y-145449524D01*
X229190429Y-145389048D01*
X229117858Y-145328571D01*
X214948286Y-126339048D02*
X215166000Y-126399524D01*
X215528857Y-126399524D01*
X215674000Y-126339048D01*
X215746571Y-126278571D01*
X215819143Y-126157619D01*
X215819143Y-126036667D01*
X215746571Y-125915714D01*
X215674000Y-125855238D01*
X215528857Y-125794762D01*
X215238571Y-125734286D01*
X215093429Y-125673810D01*
X215020857Y-125613333D01*
X214948286Y-125492381D01*
X214948286Y-125371429D01*
X215020857Y-125250476D01*
X215093429Y-125190000D01*
X215238571Y-125129524D01*
X215601429Y-125129524D01*
X215819143Y-125190000D01*
X216327143Y-125129524D02*
X216690000Y-126399524D01*
X216980286Y-125492381D01*
X217270572Y-126399524D01*
X217633429Y-125129524D01*
X218068857Y-125129524D02*
X219012286Y-125129524D01*
X218504286Y-125613333D01*
X218722000Y-125613333D01*
X218867143Y-125673810D01*
X218939714Y-125734286D01*
X219012286Y-125855238D01*
X219012286Y-126157619D01*
X218939714Y-126278571D01*
X218867143Y-126339048D01*
X218722000Y-126399524D01*
X218286572Y-126399524D01*
X218141429Y-126339048D01*
X218068857Y-126278571D01*
X220318572Y-125552857D02*
X220318572Y-126399524D01*
X219955715Y-125069048D02*
X219592858Y-125976190D01*
X220536286Y-125976190D01*
X210186286Y-107289048D02*
X210404000Y-107349524D01*
X210766857Y-107349524D01*
X210912000Y-107289048D01*
X210984571Y-107228571D01*
X211057143Y-107107619D01*
X211057143Y-106986667D01*
X210984571Y-106865714D01*
X210912000Y-106805238D01*
X210766857Y-106744762D01*
X210476571Y-106684286D01*
X210331429Y-106623810D01*
X210258857Y-106563333D01*
X210186286Y-106442381D01*
X210186286Y-106321429D01*
X210258857Y-106200476D01*
X210331429Y-106140000D01*
X210476571Y-106079524D01*
X210839429Y-106079524D01*
X211057143Y-106140000D01*
X211565143Y-106079524D02*
X211928000Y-107349524D01*
X212218286Y-106442381D01*
X212508572Y-107349524D01*
X212871429Y-106079524D01*
X213306857Y-106079524D02*
X214250286Y-106079524D01*
X213742286Y-106563333D01*
X213960000Y-106563333D01*
X214105143Y-106623810D01*
X214177714Y-106684286D01*
X214250286Y-106805238D01*
X214250286Y-107107619D01*
X214177714Y-107228571D01*
X214105143Y-107289048D01*
X213960000Y-107349524D01*
X213524572Y-107349524D01*
X213379429Y-107289048D01*
X213306857Y-107228571D01*
X214758286Y-106079524D02*
X215701715Y-106079524D01*
X215193715Y-106563333D01*
X215411429Y-106563333D01*
X215556572Y-106623810D01*
X215629143Y-106684286D01*
X215701715Y-106805238D01*
X215701715Y-107107619D01*
X215629143Y-107228571D01*
X215556572Y-107289048D01*
X215411429Y-107349524D01*
X214976001Y-107349524D01*
X214830858Y-107289048D01*
X214758286Y-107228571D01*
X200661286Y-88239048D02*
X200879000Y-88299524D01*
X201241857Y-88299524D01*
X201387000Y-88239048D01*
X201459571Y-88178571D01*
X201532143Y-88057619D01*
X201532143Y-87936667D01*
X201459571Y-87815714D01*
X201387000Y-87755238D01*
X201241857Y-87694762D01*
X200951571Y-87634286D01*
X200806429Y-87573810D01*
X200733857Y-87513333D01*
X200661286Y-87392381D01*
X200661286Y-87271429D01*
X200733857Y-87150476D01*
X200806429Y-87090000D01*
X200951571Y-87029524D01*
X201314429Y-87029524D01*
X201532143Y-87090000D01*
X202040143Y-87029524D02*
X202403000Y-88299524D01*
X202693286Y-87392381D01*
X202983572Y-88299524D01*
X203346429Y-87029524D01*
X203781857Y-87029524D02*
X204725286Y-87029524D01*
X204217286Y-87513333D01*
X204435000Y-87513333D01*
X204580143Y-87573810D01*
X204652714Y-87634286D01*
X204725286Y-87755238D01*
X204725286Y-88057619D01*
X204652714Y-88178571D01*
X204580143Y-88239048D01*
X204435000Y-88299524D01*
X203999572Y-88299524D01*
X203854429Y-88239048D01*
X203781857Y-88178571D01*
X205305858Y-87150476D02*
X205378429Y-87090000D01*
X205523572Y-87029524D01*
X205886429Y-87029524D01*
X206031572Y-87090000D01*
X206104143Y-87150476D01*
X206176715Y-87271429D01*
X206176715Y-87392381D01*
X206104143Y-87573810D01*
X205233286Y-88299524D01*
X206176715Y-88299524D01*
X205423286Y-145389048D02*
X205641000Y-145449524D01*
X206003857Y-145449524D01*
X206149000Y-145389048D01*
X206221571Y-145328571D01*
X206294143Y-145207619D01*
X206294143Y-145086667D01*
X206221571Y-144965714D01*
X206149000Y-144905238D01*
X206003857Y-144844762D01*
X205713571Y-144784286D01*
X205568429Y-144723810D01*
X205495857Y-144663333D01*
X205423286Y-144542381D01*
X205423286Y-144421429D01*
X205495857Y-144300476D01*
X205568429Y-144240000D01*
X205713571Y-144179524D01*
X206076429Y-144179524D01*
X206294143Y-144240000D01*
X206802143Y-144179524D02*
X207165000Y-145449524D01*
X207455286Y-144542381D01*
X207745572Y-145449524D01*
X208108429Y-144179524D01*
X208543857Y-144179524D02*
X209487286Y-144179524D01*
X208979286Y-144663333D01*
X209197000Y-144663333D01*
X209342143Y-144723810D01*
X209414714Y-144784286D01*
X209487286Y-144905238D01*
X209487286Y-145207619D01*
X209414714Y-145328571D01*
X209342143Y-145389048D01*
X209197000Y-145449524D01*
X208761572Y-145449524D01*
X208616429Y-145389048D01*
X208543857Y-145328571D01*
X210430715Y-144179524D02*
X210575858Y-144179524D01*
X210721001Y-144240000D01*
X210793572Y-144300476D01*
X210866143Y-144421429D01*
X210938715Y-144663333D01*
X210938715Y-144965714D01*
X210866143Y-145207619D01*
X210793572Y-145328571D01*
X210721001Y-145389048D01*
X210575858Y-145449524D01*
X210430715Y-145449524D01*
X210285572Y-145389048D01*
X210213001Y-145328571D01*
X210140429Y-145207619D01*
X210067858Y-144965714D01*
X210067858Y-144663333D01*
X210140429Y-144421429D01*
X210213001Y-144300476D01*
X210285572Y-144240000D01*
X210430715Y-144179524D01*
X195898286Y-126339048D02*
X196116000Y-126399524D01*
X196478857Y-126399524D01*
X196624000Y-126339048D01*
X196696571Y-126278571D01*
X196769143Y-126157619D01*
X196769143Y-126036667D01*
X196696571Y-125915714D01*
X196624000Y-125855238D01*
X196478857Y-125794762D01*
X196188571Y-125734286D01*
X196043429Y-125673810D01*
X195970857Y-125613333D01*
X195898286Y-125492381D01*
X195898286Y-125371429D01*
X195970857Y-125250476D01*
X196043429Y-125190000D01*
X196188571Y-125129524D01*
X196551429Y-125129524D01*
X196769143Y-125190000D01*
X197277143Y-125129524D02*
X197640000Y-126399524D01*
X197930286Y-125492381D01*
X198220572Y-126399524D01*
X198583429Y-125129524D01*
X199091429Y-125250476D02*
X199164000Y-125190000D01*
X199309143Y-125129524D01*
X199672000Y-125129524D01*
X199817143Y-125190000D01*
X199889714Y-125250476D01*
X199962286Y-125371429D01*
X199962286Y-125492381D01*
X199889714Y-125673810D01*
X199018857Y-126399524D01*
X199962286Y-126399524D01*
X200688001Y-126399524D02*
X200978286Y-126399524D01*
X201123429Y-126339048D01*
X201196001Y-126278571D01*
X201341143Y-126097143D01*
X201413715Y-125855238D01*
X201413715Y-125371429D01*
X201341143Y-125250476D01*
X201268572Y-125190000D01*
X201123429Y-125129524D01*
X200833143Y-125129524D01*
X200688001Y-125190000D01*
X200615429Y-125250476D01*
X200542858Y-125371429D01*
X200542858Y-125673810D01*
X200615429Y-125794762D01*
X200688001Y-125855238D01*
X200833143Y-125915714D01*
X201123429Y-125915714D01*
X201268572Y-125855238D01*
X201341143Y-125794762D01*
X201413715Y-125673810D01*
X191136286Y-107289048D02*
X191354000Y-107349524D01*
X191716857Y-107349524D01*
X191862000Y-107289048D01*
X191934571Y-107228571D01*
X192007143Y-107107619D01*
X192007143Y-106986667D01*
X191934571Y-106865714D01*
X191862000Y-106805238D01*
X191716857Y-106744762D01*
X191426571Y-106684286D01*
X191281429Y-106623810D01*
X191208857Y-106563333D01*
X191136286Y-106442381D01*
X191136286Y-106321429D01*
X191208857Y-106200476D01*
X191281429Y-106140000D01*
X191426571Y-106079524D01*
X191789429Y-106079524D01*
X192007143Y-106140000D01*
X192515143Y-106079524D02*
X192878000Y-107349524D01*
X193168286Y-106442381D01*
X193458572Y-107349524D01*
X193821429Y-106079524D01*
X194329429Y-106200476D02*
X194402000Y-106140000D01*
X194547143Y-106079524D01*
X194910000Y-106079524D01*
X195055143Y-106140000D01*
X195127714Y-106200476D01*
X195200286Y-106321429D01*
X195200286Y-106442381D01*
X195127714Y-106623810D01*
X194256857Y-107349524D01*
X195200286Y-107349524D01*
X196071143Y-106623810D02*
X195926001Y-106563333D01*
X195853429Y-106502857D01*
X195780858Y-106381905D01*
X195780858Y-106321429D01*
X195853429Y-106200476D01*
X195926001Y-106140000D01*
X196071143Y-106079524D01*
X196361429Y-106079524D01*
X196506572Y-106140000D01*
X196579143Y-106200476D01*
X196651715Y-106321429D01*
X196651715Y-106381905D01*
X196579143Y-106502857D01*
X196506572Y-106563333D01*
X196361429Y-106623810D01*
X196071143Y-106623810D01*
X195926001Y-106684286D01*
X195853429Y-106744762D01*
X195780858Y-106865714D01*
X195780858Y-107107619D01*
X195853429Y-107228571D01*
X195926001Y-107289048D01*
X196071143Y-107349524D01*
X196361429Y-107349524D01*
X196506572Y-107289048D01*
X196579143Y-107228571D01*
X196651715Y-107107619D01*
X196651715Y-106865714D01*
X196579143Y-106744762D01*
X196506572Y-106684286D01*
X196361429Y-106623810D01*
X181611286Y-88239048D02*
X181829000Y-88299524D01*
X182191857Y-88299524D01*
X182337000Y-88239048D01*
X182409571Y-88178571D01*
X182482143Y-88057619D01*
X182482143Y-87936667D01*
X182409571Y-87815714D01*
X182337000Y-87755238D01*
X182191857Y-87694762D01*
X181901571Y-87634286D01*
X181756429Y-87573810D01*
X181683857Y-87513333D01*
X181611286Y-87392381D01*
X181611286Y-87271429D01*
X181683857Y-87150476D01*
X181756429Y-87090000D01*
X181901571Y-87029524D01*
X182264429Y-87029524D01*
X182482143Y-87090000D01*
X182990143Y-87029524D02*
X183353000Y-88299524D01*
X183643286Y-87392381D01*
X183933572Y-88299524D01*
X184296429Y-87029524D01*
X184804429Y-87150476D02*
X184877000Y-87090000D01*
X185022143Y-87029524D01*
X185385000Y-87029524D01*
X185530143Y-87090000D01*
X185602714Y-87150476D01*
X185675286Y-87271429D01*
X185675286Y-87392381D01*
X185602714Y-87573810D01*
X184731857Y-88299524D01*
X185675286Y-88299524D01*
X186183286Y-87029524D02*
X187199286Y-87029524D01*
X186546143Y-88299524D01*
X186373286Y-145389048D02*
X186591000Y-145449524D01*
X186953857Y-145449524D01*
X187099000Y-145389048D01*
X187171571Y-145328571D01*
X187244143Y-145207619D01*
X187244143Y-145086667D01*
X187171571Y-144965714D01*
X187099000Y-144905238D01*
X186953857Y-144844762D01*
X186663571Y-144784286D01*
X186518429Y-144723810D01*
X186445857Y-144663333D01*
X186373286Y-144542381D01*
X186373286Y-144421429D01*
X186445857Y-144300476D01*
X186518429Y-144240000D01*
X186663571Y-144179524D01*
X187026429Y-144179524D01*
X187244143Y-144240000D01*
X187752143Y-144179524D02*
X188115000Y-145449524D01*
X188405286Y-144542381D01*
X188695572Y-145449524D01*
X189058429Y-144179524D01*
X189566429Y-144300476D02*
X189639000Y-144240000D01*
X189784143Y-144179524D01*
X190147000Y-144179524D01*
X190292143Y-144240000D01*
X190364714Y-144300476D01*
X190437286Y-144421429D01*
X190437286Y-144542381D01*
X190364714Y-144723810D01*
X189493857Y-145449524D01*
X190437286Y-145449524D01*
X191816143Y-144179524D02*
X191090429Y-144179524D01*
X191017858Y-144784286D01*
X191090429Y-144723810D01*
X191235572Y-144663333D01*
X191598429Y-144663333D01*
X191743572Y-144723810D01*
X191816143Y-144784286D01*
X191888715Y-144905238D01*
X191888715Y-145207619D01*
X191816143Y-145328571D01*
X191743572Y-145389048D01*
X191598429Y-145449524D01*
X191235572Y-145449524D01*
X191090429Y-145389048D01*
X191017858Y-145328571D01*
X176848286Y-126339048D02*
X177066000Y-126399524D01*
X177428857Y-126399524D01*
X177574000Y-126339048D01*
X177646571Y-126278571D01*
X177719143Y-126157619D01*
X177719143Y-126036667D01*
X177646571Y-125915714D01*
X177574000Y-125855238D01*
X177428857Y-125794762D01*
X177138571Y-125734286D01*
X176993429Y-125673810D01*
X176920857Y-125613333D01*
X176848286Y-125492381D01*
X176848286Y-125371429D01*
X176920857Y-125250476D01*
X176993429Y-125190000D01*
X177138571Y-125129524D01*
X177501429Y-125129524D01*
X177719143Y-125190000D01*
X178227143Y-125129524D02*
X178590000Y-126399524D01*
X178880286Y-125492381D01*
X179170572Y-126399524D01*
X179533429Y-125129524D01*
X180041429Y-125250476D02*
X180114000Y-125190000D01*
X180259143Y-125129524D01*
X180622000Y-125129524D01*
X180767143Y-125190000D01*
X180839714Y-125250476D01*
X180912286Y-125371429D01*
X180912286Y-125492381D01*
X180839714Y-125673810D01*
X179968857Y-126399524D01*
X180912286Y-126399524D01*
X182218572Y-125552857D02*
X182218572Y-126399524D01*
X181855715Y-125069048D02*
X181492858Y-125976190D01*
X182436286Y-125976190D01*
X172086286Y-107289048D02*
X172304000Y-107349524D01*
X172666857Y-107349524D01*
X172812000Y-107289048D01*
X172884571Y-107228571D01*
X172957143Y-107107619D01*
X172957143Y-106986667D01*
X172884571Y-106865714D01*
X172812000Y-106805238D01*
X172666857Y-106744762D01*
X172376571Y-106684286D01*
X172231429Y-106623810D01*
X172158857Y-106563333D01*
X172086286Y-106442381D01*
X172086286Y-106321429D01*
X172158857Y-106200476D01*
X172231429Y-106140000D01*
X172376571Y-106079524D01*
X172739429Y-106079524D01*
X172957143Y-106140000D01*
X173465143Y-106079524D02*
X173828000Y-107349524D01*
X174118286Y-106442381D01*
X174408572Y-107349524D01*
X174771429Y-106079524D01*
X175279429Y-106200476D02*
X175352000Y-106140000D01*
X175497143Y-106079524D01*
X175860000Y-106079524D01*
X176005143Y-106140000D01*
X176077714Y-106200476D01*
X176150286Y-106321429D01*
X176150286Y-106442381D01*
X176077714Y-106623810D01*
X175206857Y-107349524D01*
X176150286Y-107349524D01*
X176658286Y-106079524D02*
X177601715Y-106079524D01*
X177093715Y-106563333D01*
X177311429Y-106563333D01*
X177456572Y-106623810D01*
X177529143Y-106684286D01*
X177601715Y-106805238D01*
X177601715Y-107107619D01*
X177529143Y-107228571D01*
X177456572Y-107289048D01*
X177311429Y-107349524D01*
X176876001Y-107349524D01*
X176730858Y-107289048D01*
X176658286Y-107228571D01*
X162561286Y-88239048D02*
X162779000Y-88299524D01*
X163141857Y-88299524D01*
X163287000Y-88239048D01*
X163359571Y-88178571D01*
X163432143Y-88057619D01*
X163432143Y-87936667D01*
X163359571Y-87815714D01*
X163287000Y-87755238D01*
X163141857Y-87694762D01*
X162851571Y-87634286D01*
X162706429Y-87573810D01*
X162633857Y-87513333D01*
X162561286Y-87392381D01*
X162561286Y-87271429D01*
X162633857Y-87150476D01*
X162706429Y-87090000D01*
X162851571Y-87029524D01*
X163214429Y-87029524D01*
X163432143Y-87090000D01*
X163940143Y-87029524D02*
X164303000Y-88299524D01*
X164593286Y-87392381D01*
X164883572Y-88299524D01*
X165246429Y-87029524D01*
X165754429Y-87150476D02*
X165827000Y-87090000D01*
X165972143Y-87029524D01*
X166335000Y-87029524D01*
X166480143Y-87090000D01*
X166552714Y-87150476D01*
X166625286Y-87271429D01*
X166625286Y-87392381D01*
X166552714Y-87573810D01*
X165681857Y-88299524D01*
X166625286Y-88299524D01*
X167205858Y-87150476D02*
X167278429Y-87090000D01*
X167423572Y-87029524D01*
X167786429Y-87029524D01*
X167931572Y-87090000D01*
X168004143Y-87150476D01*
X168076715Y-87271429D01*
X168076715Y-87392381D01*
X168004143Y-87573810D01*
X167133286Y-88299524D01*
X168076715Y-88299524D01*
X167323286Y-145389048D02*
X167541000Y-145449524D01*
X167903857Y-145449524D01*
X168049000Y-145389048D01*
X168121571Y-145328571D01*
X168194143Y-145207619D01*
X168194143Y-145086667D01*
X168121571Y-144965714D01*
X168049000Y-144905238D01*
X167903857Y-144844762D01*
X167613571Y-144784286D01*
X167468429Y-144723810D01*
X167395857Y-144663333D01*
X167323286Y-144542381D01*
X167323286Y-144421429D01*
X167395857Y-144300476D01*
X167468429Y-144240000D01*
X167613571Y-144179524D01*
X167976429Y-144179524D01*
X168194143Y-144240000D01*
X168702143Y-144179524D02*
X169065000Y-145449524D01*
X169355286Y-144542381D01*
X169645572Y-145449524D01*
X170008429Y-144179524D01*
X170516429Y-144300476D02*
X170589000Y-144240000D01*
X170734143Y-144179524D01*
X171097000Y-144179524D01*
X171242143Y-144240000D01*
X171314714Y-144300476D01*
X171387286Y-144421429D01*
X171387286Y-144542381D01*
X171314714Y-144723810D01*
X170443857Y-145449524D01*
X171387286Y-145449524D01*
X172838715Y-145449524D02*
X171967858Y-145449524D01*
X172403286Y-145449524D02*
X172403286Y-144179524D01*
X172258143Y-144360952D01*
X172113001Y-144481905D01*
X171967858Y-144542381D01*
X157798586Y-126339048D02*
X158016300Y-126399524D01*
X158379157Y-126399524D01*
X158524300Y-126339048D01*
X158596871Y-126278571D01*
X158669443Y-126157619D01*
X158669443Y-126036667D01*
X158596871Y-125915714D01*
X158524300Y-125855238D01*
X158379157Y-125794762D01*
X158088871Y-125734286D01*
X157943729Y-125673810D01*
X157871157Y-125613333D01*
X157798586Y-125492381D01*
X157798586Y-125371429D01*
X157871157Y-125250476D01*
X157943729Y-125190000D01*
X158088871Y-125129524D01*
X158451729Y-125129524D01*
X158669443Y-125190000D01*
X159177443Y-125129524D02*
X159540300Y-126399524D01*
X159830586Y-125492381D01*
X160120872Y-126399524D01*
X160483729Y-125129524D01*
X160991729Y-125250476D02*
X161064300Y-125190000D01*
X161209443Y-125129524D01*
X161572300Y-125129524D01*
X161717443Y-125190000D01*
X161790014Y-125250476D01*
X161862586Y-125371429D01*
X161862586Y-125492381D01*
X161790014Y-125673810D01*
X160919157Y-126399524D01*
X161862586Y-126399524D01*
X162806015Y-125129524D02*
X162951158Y-125129524D01*
X163096301Y-125190000D01*
X163168872Y-125250476D01*
X163241443Y-125371429D01*
X163314015Y-125613333D01*
X163314015Y-125915714D01*
X163241443Y-126157619D01*
X163168872Y-126278571D01*
X163096301Y-126339048D01*
X162951158Y-126399524D01*
X162806015Y-126399524D01*
X162660872Y-126339048D01*
X162588301Y-126278571D01*
X162515729Y-126157619D01*
X162443158Y-125915714D01*
X162443158Y-125613333D01*
X162515729Y-125371429D01*
X162588301Y-125250476D01*
X162660872Y-125190000D01*
X162806015Y-125129524D01*
X153036086Y-107289048D02*
X153253800Y-107349524D01*
X153616657Y-107349524D01*
X153761800Y-107289048D01*
X153834371Y-107228571D01*
X153906943Y-107107619D01*
X153906943Y-106986667D01*
X153834371Y-106865714D01*
X153761800Y-106805238D01*
X153616657Y-106744762D01*
X153326371Y-106684286D01*
X153181229Y-106623810D01*
X153108657Y-106563333D01*
X153036086Y-106442381D01*
X153036086Y-106321429D01*
X153108657Y-106200476D01*
X153181229Y-106140000D01*
X153326371Y-106079524D01*
X153689229Y-106079524D01*
X153906943Y-106140000D01*
X154414943Y-106079524D02*
X154777800Y-107349524D01*
X155068086Y-106442381D01*
X155358372Y-107349524D01*
X155721229Y-106079524D01*
X157100086Y-107349524D02*
X156229229Y-107349524D01*
X156664657Y-107349524D02*
X156664657Y-106079524D01*
X156519514Y-106260952D01*
X156374372Y-106381905D01*
X156229229Y-106442381D01*
X157825801Y-107349524D02*
X158116086Y-107349524D01*
X158261229Y-107289048D01*
X158333801Y-107228571D01*
X158478943Y-107047143D01*
X158551515Y-106805238D01*
X158551515Y-106321429D01*
X158478943Y-106200476D01*
X158406372Y-106140000D01*
X158261229Y-106079524D01*
X157970943Y-106079524D01*
X157825801Y-106140000D01*
X157753229Y-106200476D01*
X157680658Y-106321429D01*
X157680658Y-106623810D01*
X157753229Y-106744762D01*
X157825801Y-106805238D01*
X157970943Y-106865714D01*
X158261229Y-106865714D01*
X158406372Y-106805238D01*
X158478943Y-106744762D01*
X158551515Y-106623810D01*
X143511086Y-88239048D02*
X143728800Y-88299524D01*
X144091657Y-88299524D01*
X144236800Y-88239048D01*
X144309371Y-88178571D01*
X144381943Y-88057619D01*
X144381943Y-87936667D01*
X144309371Y-87815714D01*
X144236800Y-87755238D01*
X144091657Y-87694762D01*
X143801371Y-87634286D01*
X143656229Y-87573810D01*
X143583657Y-87513333D01*
X143511086Y-87392381D01*
X143511086Y-87271429D01*
X143583657Y-87150476D01*
X143656229Y-87090000D01*
X143801371Y-87029524D01*
X144164229Y-87029524D01*
X144381943Y-87090000D01*
X144889943Y-87029524D02*
X145252800Y-88299524D01*
X145543086Y-87392381D01*
X145833372Y-88299524D01*
X146196229Y-87029524D01*
X147575086Y-88299524D02*
X146704229Y-88299524D01*
X147139657Y-88299524D02*
X147139657Y-87029524D01*
X146994514Y-87210952D01*
X146849372Y-87331905D01*
X146704229Y-87392381D01*
X148445943Y-87573810D02*
X148300801Y-87513333D01*
X148228229Y-87452857D01*
X148155658Y-87331905D01*
X148155658Y-87271429D01*
X148228229Y-87150476D01*
X148300801Y-87090000D01*
X148445943Y-87029524D01*
X148736229Y-87029524D01*
X148881372Y-87090000D01*
X148953943Y-87150476D01*
X149026515Y-87271429D01*
X149026515Y-87331905D01*
X148953943Y-87452857D01*
X148881372Y-87513333D01*
X148736229Y-87573810D01*
X148445943Y-87573810D01*
X148300801Y-87634286D01*
X148228229Y-87694762D01*
X148155658Y-87815714D01*
X148155658Y-88057619D01*
X148228229Y-88178571D01*
X148300801Y-88239048D01*
X148445943Y-88299524D01*
X148736229Y-88299524D01*
X148881372Y-88239048D01*
X148953943Y-88178571D01*
X149026515Y-88057619D01*
X149026515Y-87815714D01*
X148953943Y-87694762D01*
X148881372Y-87634286D01*
X148736229Y-87573810D01*
X157798586Y-164439048D02*
X158016300Y-164499524D01*
X158379157Y-164499524D01*
X158524300Y-164439048D01*
X158596871Y-164378571D01*
X158669443Y-164257619D01*
X158669443Y-164136667D01*
X158596871Y-164015714D01*
X158524300Y-163955238D01*
X158379157Y-163894762D01*
X158088871Y-163834286D01*
X157943729Y-163773810D01*
X157871157Y-163713333D01*
X157798586Y-163592381D01*
X157798586Y-163471429D01*
X157871157Y-163350476D01*
X157943729Y-163290000D01*
X158088871Y-163229524D01*
X158451729Y-163229524D01*
X158669443Y-163290000D01*
X159177443Y-163229524D02*
X159540300Y-164499524D01*
X159830586Y-163592381D01*
X160120872Y-164499524D01*
X160483729Y-163229524D01*
X161862586Y-164499524D02*
X160991729Y-164499524D01*
X161427157Y-164499524D02*
X161427157Y-163229524D01*
X161282014Y-163410952D01*
X161136872Y-163531905D01*
X160991729Y-163592381D01*
X162370586Y-163229524D02*
X163386586Y-163229524D01*
X162733443Y-164499524D01*
X148273586Y-145389048D02*
X148491300Y-145449524D01*
X148854157Y-145449524D01*
X148999300Y-145389048D01*
X149071871Y-145328571D01*
X149144443Y-145207619D01*
X149144443Y-145086667D01*
X149071871Y-144965714D01*
X148999300Y-144905238D01*
X148854157Y-144844762D01*
X148563871Y-144784286D01*
X148418729Y-144723810D01*
X148346157Y-144663333D01*
X148273586Y-144542381D01*
X148273586Y-144421429D01*
X148346157Y-144300476D01*
X148418729Y-144240000D01*
X148563871Y-144179524D01*
X148926729Y-144179524D01*
X149144443Y-144240000D01*
X149652443Y-144179524D02*
X150015300Y-145449524D01*
X150305586Y-144542381D01*
X150595872Y-145449524D01*
X150958729Y-144179524D01*
X152337586Y-145449524D02*
X151466729Y-145449524D01*
X151902157Y-145449524D02*
X151902157Y-144179524D01*
X151757014Y-144360952D01*
X151611872Y-144481905D01*
X151466729Y-144542381D01*
X153716443Y-144179524D02*
X152990729Y-144179524D01*
X152918158Y-144784286D01*
X152990729Y-144723810D01*
X153135872Y-144663333D01*
X153498729Y-144663333D01*
X153643872Y-144723810D01*
X153716443Y-144784286D01*
X153789015Y-144905238D01*
X153789015Y-145207619D01*
X153716443Y-145328571D01*
X153643872Y-145389048D01*
X153498729Y-145449524D01*
X153135872Y-145449524D01*
X152990729Y-145389048D01*
X152918158Y-145328571D01*
X138748586Y-126339048D02*
X138966300Y-126399524D01*
X139329157Y-126399524D01*
X139474300Y-126339048D01*
X139546871Y-126278571D01*
X139619443Y-126157619D01*
X139619443Y-126036667D01*
X139546871Y-125915714D01*
X139474300Y-125855238D01*
X139329157Y-125794762D01*
X139038871Y-125734286D01*
X138893729Y-125673810D01*
X138821157Y-125613333D01*
X138748586Y-125492381D01*
X138748586Y-125371429D01*
X138821157Y-125250476D01*
X138893729Y-125190000D01*
X139038871Y-125129524D01*
X139401729Y-125129524D01*
X139619443Y-125190000D01*
X140127443Y-125129524D02*
X140490300Y-126399524D01*
X140780586Y-125492381D01*
X141070872Y-126399524D01*
X141433729Y-125129524D01*
X142812586Y-126399524D02*
X141941729Y-126399524D01*
X142377157Y-126399524D02*
X142377157Y-125129524D01*
X142232014Y-125310952D01*
X142086872Y-125431905D01*
X141941729Y-125492381D01*
X144118872Y-125552857D02*
X144118872Y-126399524D01*
X143756015Y-125069048D02*
X143393158Y-125976190D01*
X144336586Y-125976190D01*
X133986086Y-107289048D02*
X134203800Y-107349524D01*
X134566657Y-107349524D01*
X134711800Y-107289048D01*
X134784371Y-107228571D01*
X134856943Y-107107619D01*
X134856943Y-106986667D01*
X134784371Y-106865714D01*
X134711800Y-106805238D01*
X134566657Y-106744762D01*
X134276371Y-106684286D01*
X134131229Y-106623810D01*
X134058657Y-106563333D01*
X133986086Y-106442381D01*
X133986086Y-106321429D01*
X134058657Y-106200476D01*
X134131229Y-106140000D01*
X134276371Y-106079524D01*
X134639229Y-106079524D01*
X134856943Y-106140000D01*
X135364943Y-106079524D02*
X135727800Y-107349524D01*
X136018086Y-106442381D01*
X136308372Y-107349524D01*
X136671229Y-106079524D01*
X138050086Y-107349524D02*
X137179229Y-107349524D01*
X137614657Y-107349524D02*
X137614657Y-106079524D01*
X137469514Y-106260952D01*
X137324372Y-106381905D01*
X137179229Y-106442381D01*
X138558086Y-106079524D02*
X139501515Y-106079524D01*
X138993515Y-106563333D01*
X139211229Y-106563333D01*
X139356372Y-106623810D01*
X139428943Y-106684286D01*
X139501515Y-106805238D01*
X139501515Y-107107619D01*
X139428943Y-107228571D01*
X139356372Y-107289048D01*
X139211229Y-107349524D01*
X138775801Y-107349524D01*
X138630658Y-107289048D01*
X138558086Y-107228571D01*
X125461086Y-82064048D02*
X125678800Y-82124524D01*
X126041657Y-82124524D01*
X126186800Y-82064048D01*
X126259371Y-82003571D01*
X126331943Y-81882619D01*
X126331943Y-81761667D01*
X126259371Y-81640714D01*
X126186800Y-81580238D01*
X126041657Y-81519762D01*
X125751371Y-81459286D01*
X125606229Y-81398810D01*
X125533657Y-81338333D01*
X125461086Y-81217381D01*
X125461086Y-81096429D01*
X125533657Y-80975476D01*
X125606229Y-80915000D01*
X125751371Y-80854524D01*
X126114229Y-80854524D01*
X126331943Y-80915000D01*
X126839943Y-80854524D02*
X127202800Y-82124524D01*
X127493086Y-81217381D01*
X127783372Y-82124524D01*
X128146229Y-80854524D01*
X129525086Y-82124524D02*
X128654229Y-82124524D01*
X129089657Y-82124524D02*
X129089657Y-80854524D01*
X128944514Y-81035952D01*
X128799372Y-81156905D01*
X128654229Y-81217381D01*
X130105658Y-80975476D02*
X130178229Y-80915000D01*
X130323372Y-80854524D01*
X130686229Y-80854524D01*
X130831372Y-80915000D01*
X130903943Y-80975476D01*
X130976515Y-81096429D01*
X130976515Y-81217381D01*
X130903943Y-81398810D01*
X130033086Y-82124524D01*
X130976515Y-82124524D01*
X129223586Y-145389048D02*
X129441300Y-145449524D01*
X129804157Y-145449524D01*
X129949300Y-145389048D01*
X130021871Y-145328571D01*
X130094443Y-145207619D01*
X130094443Y-145086667D01*
X130021871Y-144965714D01*
X129949300Y-144905238D01*
X129804157Y-144844762D01*
X129513871Y-144784286D01*
X129368729Y-144723810D01*
X129296157Y-144663333D01*
X129223586Y-144542381D01*
X129223586Y-144421429D01*
X129296157Y-144300476D01*
X129368729Y-144240000D01*
X129513871Y-144179524D01*
X129876729Y-144179524D01*
X130094443Y-144240000D01*
X130602443Y-144179524D02*
X130965300Y-145449524D01*
X131255586Y-144542381D01*
X131545872Y-145449524D01*
X131908729Y-144179524D01*
X133287586Y-145449524D02*
X132416729Y-145449524D01*
X132852157Y-145449524D02*
X132852157Y-144179524D01*
X132707014Y-144360952D01*
X132561872Y-144481905D01*
X132416729Y-144542381D01*
X134231015Y-144179524D02*
X134376158Y-144179524D01*
X134521301Y-144240000D01*
X134593872Y-144300476D01*
X134666443Y-144421429D01*
X134739015Y-144663333D01*
X134739015Y-144965714D01*
X134666443Y-145207619D01*
X134593872Y-145328571D01*
X134521301Y-145389048D01*
X134376158Y-145449524D01*
X134231015Y-145449524D01*
X134085872Y-145389048D01*
X134013301Y-145328571D01*
X133940729Y-145207619D01*
X133868158Y-144965714D01*
X133868158Y-144663333D01*
X133940729Y-144421429D01*
X134013301Y-144300476D01*
X134085872Y-144240000D01*
X134231015Y-144179524D01*
X119795348Y-124682000D02*
X119855824Y-124464286D01*
X119855824Y-124101429D01*
X119795348Y-123956286D01*
X119734871Y-123883715D01*
X119613919Y-123811143D01*
X119492967Y-123811143D01*
X119372014Y-123883715D01*
X119311538Y-123956286D01*
X119251062Y-124101429D01*
X119190586Y-124391715D01*
X119130110Y-124536857D01*
X119069633Y-124609429D01*
X118948681Y-124682000D01*
X118827729Y-124682000D01*
X118706776Y-124609429D01*
X118646300Y-124536857D01*
X118585824Y-124391715D01*
X118585824Y-124028857D01*
X118646300Y-123811143D01*
X118585824Y-123303143D02*
X119855824Y-122940286D01*
X118948681Y-122650000D01*
X119855824Y-122359714D01*
X118585824Y-121996857D01*
X119855824Y-121343714D02*
X119855824Y-121053429D01*
X119795348Y-120908286D01*
X119734871Y-120835714D01*
X119553443Y-120690572D01*
X119311538Y-120618000D01*
X118827729Y-120618000D01*
X118706776Y-120690572D01*
X118646300Y-120763143D01*
X118585824Y-120908286D01*
X118585824Y-121198572D01*
X118646300Y-121343714D01*
X118706776Y-121416286D01*
X118827729Y-121488857D01*
X119130110Y-121488857D01*
X119251062Y-121416286D01*
X119311538Y-121343714D01*
X119372014Y-121198572D01*
X119372014Y-120908286D01*
X119311538Y-120763143D01*
X119251062Y-120690572D01*
X119130110Y-120618000D01*
X115661800Y-107289048D02*
X115879514Y-107349524D01*
X116242371Y-107349524D01*
X116387514Y-107289048D01*
X116460085Y-107228571D01*
X116532657Y-107107619D01*
X116532657Y-106986667D01*
X116460085Y-106865714D01*
X116387514Y-106805238D01*
X116242371Y-106744762D01*
X115952085Y-106684286D01*
X115806943Y-106623810D01*
X115734371Y-106563333D01*
X115661800Y-106442381D01*
X115661800Y-106321429D01*
X115734371Y-106200476D01*
X115806943Y-106140000D01*
X115952085Y-106079524D01*
X116314943Y-106079524D01*
X116532657Y-106140000D01*
X117040657Y-106079524D02*
X117403514Y-107349524D01*
X117693800Y-106442381D01*
X117984086Y-107349524D01*
X118346943Y-106079524D01*
X119145228Y-106623810D02*
X119000086Y-106563333D01*
X118927514Y-106502857D01*
X118854943Y-106381905D01*
X118854943Y-106321429D01*
X118927514Y-106200476D01*
X119000086Y-106140000D01*
X119145228Y-106079524D01*
X119435514Y-106079524D01*
X119580657Y-106140000D01*
X119653228Y-106200476D01*
X119725800Y-106321429D01*
X119725800Y-106381905D01*
X119653228Y-106502857D01*
X119580657Y-106563333D01*
X119435514Y-106623810D01*
X119145228Y-106623810D01*
X119000086Y-106684286D01*
X118927514Y-106744762D01*
X118854943Y-106865714D01*
X118854943Y-107107619D01*
X118927514Y-107228571D01*
X119000086Y-107289048D01*
X119145228Y-107349524D01*
X119435514Y-107349524D01*
X119580657Y-107289048D01*
X119653228Y-107228571D01*
X119725800Y-107107619D01*
X119725800Y-106865714D01*
X119653228Y-106744762D01*
X119580657Y-106684286D01*
X119435514Y-106623810D01*
X87086800Y-81889048D02*
X87304514Y-81949524D01*
X87667371Y-81949524D01*
X87812514Y-81889048D01*
X87885085Y-81828571D01*
X87957657Y-81707619D01*
X87957657Y-81586667D01*
X87885085Y-81465714D01*
X87812514Y-81405238D01*
X87667371Y-81344762D01*
X87377085Y-81284286D01*
X87231943Y-81223810D01*
X87159371Y-81163333D01*
X87086800Y-81042381D01*
X87086800Y-80921429D01*
X87159371Y-80800476D01*
X87231943Y-80740000D01*
X87377085Y-80679524D01*
X87739943Y-80679524D01*
X87957657Y-80740000D01*
X88465657Y-80679524D02*
X88828514Y-81949524D01*
X89118800Y-81042381D01*
X89409086Y-81949524D01*
X89771943Y-80679524D01*
X90279943Y-80800476D02*
X90352514Y-80740000D01*
X90497657Y-80679524D01*
X90860514Y-80679524D01*
X91005657Y-80740000D01*
X91078228Y-80800476D01*
X91150800Y-80921429D01*
X91150800Y-81042381D01*
X91078228Y-81223810D01*
X90207371Y-81949524D01*
X91150800Y-81949524D01*
X233998286Y-126339048D02*
X234216000Y-126399524D01*
X234578857Y-126399524D01*
X234724000Y-126339048D01*
X234796571Y-126278571D01*
X234869143Y-126157619D01*
X234869143Y-126036667D01*
X234796571Y-125915714D01*
X234724000Y-125855238D01*
X234578857Y-125794762D01*
X234288571Y-125734286D01*
X234143429Y-125673810D01*
X234070857Y-125613333D01*
X233998286Y-125492381D01*
X233998286Y-125371429D01*
X234070857Y-125250476D01*
X234143429Y-125190000D01*
X234288571Y-125129524D01*
X234651429Y-125129524D01*
X234869143Y-125190000D01*
X235377143Y-125129524D02*
X235740000Y-126399524D01*
X236030286Y-125492381D01*
X236320572Y-126399524D01*
X236683429Y-125129524D01*
X237118857Y-125129524D02*
X238062286Y-125129524D01*
X237554286Y-125613333D01*
X237772000Y-125613333D01*
X237917143Y-125673810D01*
X237989714Y-125734286D01*
X238062286Y-125855238D01*
X238062286Y-126157619D01*
X237989714Y-126278571D01*
X237917143Y-126339048D01*
X237772000Y-126399524D01*
X237336572Y-126399524D01*
X237191429Y-126339048D01*
X237118857Y-126278571D01*
X238788001Y-126399524D02*
X239078286Y-126399524D01*
X239223429Y-126339048D01*
X239296001Y-126278571D01*
X239441143Y-126097143D01*
X239513715Y-125855238D01*
X239513715Y-125371429D01*
X239441143Y-125250476D01*
X239368572Y-125190000D01*
X239223429Y-125129524D01*
X238933143Y-125129524D01*
X238788001Y-125190000D01*
X238715429Y-125250476D01*
X238642858Y-125371429D01*
X238642858Y-125673810D01*
X238715429Y-125794762D01*
X238788001Y-125855238D01*
X238933143Y-125915714D01*
X239223429Y-125915714D01*
X239368572Y-125855238D01*
X239441143Y-125794762D01*
X239513715Y-125673810D01*
%LPC*%
D14*
X105200000Y-103300000D03*
D15*
X91182500Y-120110000D03*
X93722500Y-126460000D03*
D16*
X96050360Y-78100900D03*
X100449640Y-78100900D03*
D15*
X96421300Y-98520000D03*
X90071300Y-101060000D03*
X103565000Y-136620000D03*
X97215000Y-139160000D03*
X94040000Y-155670000D03*
X87690000Y-158210000D03*
X117852500Y-155670000D03*
X111502500Y-158210000D03*
X141665000Y-155670000D03*
X135315000Y-158210000D03*
X198815000Y-155670000D03*
X192465000Y-158210000D03*
X251203000Y-155670000D03*
X244853000Y-158210000D03*
X308353000Y-155670000D03*
X302003000Y-158210000D03*
X332165000Y-155670000D03*
X325815000Y-158210000D03*
X355978000Y-155670000D03*
X349628000Y-158210000D03*
X341690000Y-136620000D03*
X335340000Y-139160000D03*
X346453000Y-117570000D03*
X340103000Y-120110000D03*
X96421300Y-155670000D03*
X90071300Y-158210000D03*
X144046300Y-155670000D03*
X137696300Y-158210000D03*
X225009000Y-155670000D03*
X218659000Y-158210000D03*
X225009000Y-155670000D03*
X218659000Y-158210000D03*
X296446000Y-155670000D03*
X290096000Y-158210000D03*
X305971000Y-155670000D03*
X299621000Y-158210000D03*
X353596000Y-155670000D03*
X347246000Y-158210000D03*
X332165000Y-136620000D03*
X325815000Y-139160000D03*
X348834000Y-79470000D03*
X342484000Y-82010000D03*
D17*
X120500000Y-130500000D03*
D18*
X120500000Y-133040000D03*
X123040000Y-130500000D03*
X123040000Y-133040000D03*
X125580000Y-130500000D03*
X125580000Y-133040000D03*
D15*
X353596000Y-98520000D03*
X347246000Y-101060000D03*
D19*
X82250000Y-131900000D03*
X363000000Y-131900000D03*
D20*
X208200000Y-122400000D03*
X340050000Y-103300000D03*
X270500000Y-160600000D03*
D15*
X105628800Y-89630000D03*
X111978800Y-87090000D03*
X329784000Y-155670000D03*
X323434000Y-158210000D03*
X120233800Y-155670000D03*
X113883800Y-158210000D03*
X358359000Y-79470000D03*
X352009000Y-82010000D03*
X339309000Y-79470000D03*
X332959000Y-82010000D03*
X358359000Y-136620000D03*
X352009000Y-139160000D03*
X329784000Y-98520000D03*
X323434000Y-101060000D03*
X320259000Y-79470000D03*
X313909000Y-82010000D03*
X315496000Y-117570000D03*
X309146000Y-120110000D03*
X310734000Y-98520000D03*
X304384000Y-101060000D03*
X301209000Y-79470000D03*
X294859000Y-82010000D03*
X305971000Y-136620000D03*
X299621000Y-139160000D03*
X296446000Y-117570000D03*
X290096000Y-120110000D03*
X291684000Y-98520000D03*
X285334000Y-101060000D03*
X282159000Y-79470000D03*
X275809000Y-82010000D03*
X286921000Y-136620000D03*
X280571000Y-139160000D03*
X277396000Y-117570000D03*
X271046000Y-120110000D03*
X272634000Y-98520000D03*
X266284000Y-101060000D03*
X263109000Y-79470000D03*
X256759000Y-82010000D03*
X267871000Y-136620000D03*
X261521000Y-139160000D03*
X258346000Y-117570000D03*
X251996000Y-120110000D03*
X253584000Y-98520000D03*
X247234000Y-101060000D03*
X244059000Y-79470000D03*
X237709000Y-82010000D03*
X248821000Y-136620000D03*
X242471000Y-139160000D03*
X234534000Y-98520000D03*
X228184000Y-101060000D03*
X225009000Y-79470000D03*
X218659000Y-82010000D03*
X286921000Y-155670000D03*
X280571000Y-158210000D03*
X229771000Y-136620000D03*
X223421000Y-139160000D03*
X220246000Y-117570000D03*
X213896000Y-120110000D03*
X215484000Y-98520000D03*
X209134000Y-101060000D03*
X205959000Y-79470000D03*
X199609000Y-82010000D03*
X210721000Y-136620000D03*
X204371000Y-139160000D03*
X201196000Y-117570000D03*
X194846000Y-120110000D03*
X196434000Y-98520000D03*
X190084000Y-101060000D03*
X186909000Y-79470000D03*
X180559000Y-82010000D03*
X191671000Y-136620000D03*
X185321000Y-139160000D03*
X182146000Y-117570000D03*
X175796000Y-120110000D03*
X177384000Y-98520000D03*
X171034000Y-101060000D03*
X167859000Y-79470000D03*
X161509000Y-82010000D03*
X172621000Y-136620000D03*
X166271000Y-139160000D03*
X163096300Y-117570000D03*
X156746300Y-120110000D03*
X158333800Y-98520000D03*
X151983800Y-101060000D03*
X148808800Y-79470000D03*
X142458800Y-82010000D03*
X163096300Y-155670000D03*
X156746300Y-158210000D03*
X153571300Y-136620000D03*
X147221300Y-139160000D03*
X144046300Y-117570000D03*
X137696300Y-120110000D03*
X139283800Y-98520000D03*
X132933800Y-101060000D03*
X129758800Y-79470000D03*
X123408800Y-82010000D03*
X134521300Y-136620000D03*
X128171300Y-139160000D03*
X127536300Y-125190000D03*
X124996300Y-118840000D03*
X120233800Y-98520000D03*
X113883800Y-101060000D03*
X86578800Y-89630000D03*
X92928800Y-87090000D03*
X239296000Y-117570000D03*
X232946000Y-120110000D03*
D21*
X112750000Y-94250000D03*
D22*
X110210000Y-94250000D03*
M02*
