G04 #@! TF.FileFunction,Copper,L2,Bot,Signal*
%FSLAX46Y46*%
G04 Gerber Fmt 4.6, Leading zero omitted, Abs format (unit mm)*
G04 Created by KiCad (PCBNEW 4.0.5) date 01/22/17 22:08:40*
%MOMM*%
%LPD*%
G01*
G04 APERTURE LIST*
%ADD10C,0.100000*%
%ADD11C,7.001300*%
%ADD12C,2.286000*%
%ADD13R,1.500000X0.550000*%
%ADD14R,0.550000X1.500000*%
%ADD15R,0.750000X1.200000*%
%ADD16R,1.200000X0.750000*%
%ADD17R,1.597660X1.800860*%
%ADD18R,0.450000X0.590000*%
%ADD19R,0.590000X0.450000*%
%ADD20R,0.500380X2.301240*%
%ADD21R,1.998980X2.499360*%
%ADD22R,0.900000X1.200000*%
%ADD23R,1.200000X0.900000*%
%ADD24R,1.600000X2.180000*%
%ADD25R,1.727200X1.727200*%
%ADD26O,1.727200X1.727200*%
%ADD27R,2.000000X5.500000*%
%ADD28O,9.999980X5.001260*%
%ADD29C,7.000240*%
%ADD30R,1.700000X1.700000*%
%ADD31O,1.700000X1.700000*%
%ADD32C,0.600000*%
%ADD33C,0.250000*%
%ADD34C,0.254000*%
G04 APERTURE END LIST*
D10*
D11*
X105200000Y-103300000D03*
D12*
X91182500Y-120110000D03*
X93722500Y-126460000D03*
D13*
X116250000Y-118700000D03*
X116250000Y-119500000D03*
X116250000Y-120300000D03*
X116250000Y-121100000D03*
X116250000Y-121900000D03*
X116250000Y-122700000D03*
X116250000Y-123500000D03*
X116250000Y-124300000D03*
X116250000Y-125100000D03*
X116250000Y-125900000D03*
X116250000Y-126700000D03*
D14*
X114550000Y-128400000D03*
X113750000Y-128400000D03*
X112950000Y-128400000D03*
X112150000Y-128400000D03*
X111350000Y-128400000D03*
X110550000Y-128400000D03*
X109750000Y-128400000D03*
X108950000Y-128400000D03*
X108150000Y-128400000D03*
X107350000Y-128400000D03*
X106550000Y-128400000D03*
D13*
X104850000Y-126700000D03*
X104850000Y-125900000D03*
X104850000Y-125100000D03*
X104850000Y-124300000D03*
X104850000Y-123500000D03*
X104850000Y-122700000D03*
X104850000Y-121900000D03*
X104850000Y-121100000D03*
X104850000Y-120300000D03*
X104850000Y-119500000D03*
X104850000Y-118700000D03*
D14*
X106550000Y-117000000D03*
X107350000Y-117000000D03*
X108150000Y-117000000D03*
X108950000Y-117000000D03*
X109750000Y-117000000D03*
X110550000Y-117000000D03*
X111350000Y-117000000D03*
X112150000Y-117000000D03*
X112950000Y-117000000D03*
X113750000Y-117000000D03*
X114550000Y-117000000D03*
D15*
X118750000Y-145200000D03*
X118750000Y-143300000D03*
X96000000Y-92700000D03*
X96000000Y-90800000D03*
X118750000Y-137700000D03*
X118750000Y-135800000D03*
D16*
X102550000Y-130250000D03*
X104450000Y-130250000D03*
X102550000Y-131750000D03*
X104450000Y-131750000D03*
X115950000Y-113750000D03*
X114050000Y-113750000D03*
D15*
X118750000Y-123450000D03*
X118750000Y-121550000D03*
X107000000Y-110050000D03*
X107000000Y-111950000D03*
D17*
X82830140Y-123750000D03*
X85669860Y-123750000D03*
D18*
X93000000Y-92305000D03*
X93000000Y-90195000D03*
D19*
X93555000Y-95750000D03*
X91445000Y-95750000D03*
D18*
X88950000Y-128955000D03*
X88950000Y-126845000D03*
D19*
X99555000Y-133750000D03*
X97445000Y-133750000D03*
X90555000Y-153750000D03*
X88445000Y-153750000D03*
D18*
X112750000Y-92055000D03*
X112750000Y-89945000D03*
D19*
X117555000Y-95750000D03*
X115445000Y-95750000D03*
X129605000Y-118100000D03*
X127495000Y-118100000D03*
X131555000Y-133750000D03*
X129445000Y-133750000D03*
X114555000Y-153750000D03*
X112445000Y-153750000D03*
X126555000Y-76750000D03*
X124445000Y-76750000D03*
X136555000Y-95750000D03*
X134445000Y-95750000D03*
X140555000Y-114750000D03*
X138445000Y-114750000D03*
X150555000Y-133750000D03*
X148445000Y-133750000D03*
X138555000Y-152750000D03*
X136445000Y-152750000D03*
X158555000Y-152750000D03*
X156445000Y-152750000D03*
X145555000Y-76750000D03*
X143445000Y-76750000D03*
X155555000Y-95750000D03*
X153445000Y-95750000D03*
X159555000Y-114750000D03*
X157445000Y-114750000D03*
X169555000Y-133750000D03*
X167445000Y-133750000D03*
X164555000Y-76750000D03*
X162445000Y-76750000D03*
X174555000Y-95750000D03*
X172445000Y-95750000D03*
X179555000Y-114750000D03*
X177445000Y-114750000D03*
X188555000Y-133750000D03*
X186445000Y-133750000D03*
X195555000Y-152750000D03*
X193445000Y-152750000D03*
X183555000Y-76750000D03*
X181445000Y-76750000D03*
X193555000Y-95750000D03*
X191445000Y-95750000D03*
X198555000Y-114750000D03*
X196445000Y-114750000D03*
X206555000Y-133750000D03*
X204445000Y-133750000D03*
X246555000Y-152750000D03*
X244445000Y-152750000D03*
X202555000Y-76750000D03*
X200445000Y-76750000D03*
X212555000Y-95750000D03*
X210445000Y-95750000D03*
X216555000Y-114750000D03*
X214445000Y-114750000D03*
X226555000Y-133750000D03*
X224445000Y-133750000D03*
X285555000Y-152750000D03*
X283445000Y-152750000D03*
X221555000Y-76750000D03*
X219445000Y-76750000D03*
X231555000Y-95750000D03*
X229445000Y-95750000D03*
X235555000Y-114750000D03*
X233445000Y-114750000D03*
X245555000Y-133750000D03*
X243445000Y-133750000D03*
X304555000Y-152750000D03*
X302445000Y-152750000D03*
X240555000Y-76750000D03*
X238445000Y-76750000D03*
X250555000Y-95750000D03*
X248445000Y-95750000D03*
X254555000Y-114750000D03*
X252445000Y-114750000D03*
X264555000Y-133750000D03*
X262445000Y-133750000D03*
X326555000Y-153750000D03*
X324445000Y-153750000D03*
X259555000Y-76750000D03*
X257445000Y-76750000D03*
X269555000Y-95750000D03*
X267445000Y-95750000D03*
X273555000Y-114750000D03*
X271445000Y-114750000D03*
X283555000Y-133750000D03*
X281445000Y-133750000D03*
X350555000Y-153750000D03*
X348445000Y-153750000D03*
X278555000Y-76750000D03*
X276445000Y-76750000D03*
X287555000Y-95750000D03*
X285445000Y-95750000D03*
X293555000Y-114750000D03*
X291445000Y-114750000D03*
X302555000Y-133750000D03*
X300445000Y-133750000D03*
X298555000Y-76750000D03*
X296445000Y-76750000D03*
X307555000Y-95750000D03*
X305445000Y-95750000D03*
X311555000Y-114750000D03*
X309445000Y-114750000D03*
X338555000Y-133750000D03*
X336445000Y-133750000D03*
X317555000Y-76750000D03*
X315445000Y-76750000D03*
X327555000Y-95750000D03*
X325445000Y-95750000D03*
X343555000Y-114750000D03*
X341445000Y-114750000D03*
X355555000Y-136750000D03*
X353445000Y-136750000D03*
X330555000Y-79750000D03*
X328445000Y-79750000D03*
X353555000Y-77750000D03*
X351445000Y-77750000D03*
X350555000Y-95750000D03*
X348445000Y-95750000D03*
D20*
X96649800Y-80699320D03*
X97449900Y-80699320D03*
X98250000Y-80699320D03*
X99050100Y-80699320D03*
X99850200Y-80699320D03*
D21*
X93799920Y-80600260D03*
X93799920Y-75101160D03*
X102700080Y-80600260D03*
X102700080Y-75101160D03*
D22*
X138500000Y-127400000D03*
X138500000Y-129600000D03*
X97550000Y-92800000D03*
X97550000Y-90600000D03*
X99150000Y-92800000D03*
X99150000Y-90600000D03*
D23*
X82650000Y-126000000D03*
X84850000Y-126000000D03*
D24*
X141502320Y-136852430D03*
X141497680Y-127647570D03*
D12*
X96421300Y-98520000D03*
X90071300Y-101060000D03*
X103565000Y-136620000D03*
X97215000Y-139160000D03*
X94040000Y-155670000D03*
X87690000Y-158210000D03*
X117852500Y-155670000D03*
X111502500Y-158210000D03*
X141665000Y-155670000D03*
X135315000Y-158210000D03*
X198815000Y-155670000D03*
X192465000Y-158210000D03*
X251203000Y-155670000D03*
X244853000Y-158210000D03*
X308353000Y-155670000D03*
X302003000Y-158210000D03*
X332165000Y-155670000D03*
X325815000Y-158210000D03*
X355978000Y-155670000D03*
X349628000Y-158210000D03*
X341690000Y-136620000D03*
X335340000Y-139160000D03*
X346453000Y-117570000D03*
X340103000Y-120110000D03*
X96421300Y-155670000D03*
X90071300Y-158210000D03*
X144046300Y-155670000D03*
X137696300Y-158210000D03*
X225009000Y-155670000D03*
X218659000Y-158210000D03*
X225009000Y-155670000D03*
X218659000Y-158210000D03*
X296446000Y-155670000D03*
X290096000Y-158210000D03*
X305971000Y-155670000D03*
X299621000Y-158210000D03*
X353596000Y-155670000D03*
X347246000Y-158210000D03*
X332165000Y-136620000D03*
X325815000Y-139160000D03*
X348834000Y-79470000D03*
X342484000Y-82010000D03*
D25*
X120500000Y-130500000D03*
D26*
X120500000Y-133040000D03*
X123040000Y-130500000D03*
X123040000Y-133040000D03*
X125580000Y-130500000D03*
X125580000Y-133040000D03*
D27*
X122500000Y-138250000D03*
X122500000Y-145750000D03*
D12*
X353596000Y-98520000D03*
X347246000Y-101060000D03*
D28*
X82250000Y-131900000D03*
X363000000Y-131900000D03*
D29*
X208200000Y-122400000D03*
X340050000Y-103300000D03*
X270500000Y-160600000D03*
D12*
X105628800Y-89630000D03*
X111978800Y-87090000D03*
X329784000Y-155670000D03*
X323434000Y-158210000D03*
X120233800Y-155670000D03*
X113883800Y-158210000D03*
X358359000Y-79470000D03*
X352009000Y-82010000D03*
X339309000Y-79470000D03*
X332959000Y-82010000D03*
X358359000Y-136620000D03*
X352009000Y-139160000D03*
X329784000Y-98520000D03*
X323434000Y-101060000D03*
X320259000Y-79470000D03*
X313909000Y-82010000D03*
X315496000Y-117570000D03*
X309146000Y-120110000D03*
X310734000Y-98520000D03*
X304384000Y-101060000D03*
X301209000Y-79470000D03*
X294859000Y-82010000D03*
X305971000Y-136620000D03*
X299621000Y-139160000D03*
X296446000Y-117570000D03*
X290096000Y-120110000D03*
X291684000Y-98520000D03*
X285334000Y-101060000D03*
X282159000Y-79470000D03*
X275809000Y-82010000D03*
X286921000Y-136620000D03*
X280571000Y-139160000D03*
X277396000Y-117570000D03*
X271046000Y-120110000D03*
X272634000Y-98520000D03*
X266284000Y-101060000D03*
X263109000Y-79470000D03*
X256759000Y-82010000D03*
X267871000Y-136620000D03*
X261521000Y-139160000D03*
X258346000Y-117570000D03*
X251996000Y-120110000D03*
X253584000Y-98520000D03*
X247234000Y-101060000D03*
X244059000Y-79470000D03*
X237709000Y-82010000D03*
X248821000Y-136620000D03*
X242471000Y-139160000D03*
X234534000Y-98520000D03*
X228184000Y-101060000D03*
X225009000Y-79470000D03*
X218659000Y-82010000D03*
X286921000Y-155670000D03*
X280571000Y-158210000D03*
X229771000Y-136620000D03*
X223421000Y-139160000D03*
X220246000Y-117570000D03*
X213896000Y-120110000D03*
X215484000Y-98520000D03*
X209134000Y-101060000D03*
X205959000Y-79470000D03*
X199609000Y-82010000D03*
X210721000Y-136620000D03*
X204371000Y-139160000D03*
X201196000Y-117570000D03*
X194846000Y-120110000D03*
X196434000Y-98520000D03*
X190084000Y-101060000D03*
X186909000Y-79470000D03*
X180559000Y-82010000D03*
X191671000Y-136620000D03*
X185321000Y-139160000D03*
X182146000Y-117570000D03*
X175796000Y-120110000D03*
X177384000Y-98520000D03*
X171034000Y-101060000D03*
X167859000Y-79470000D03*
X161509000Y-82010000D03*
X172621000Y-136620000D03*
X166271000Y-139160000D03*
X163096300Y-117570000D03*
X156746300Y-120110000D03*
X158333800Y-98520000D03*
X151983800Y-101060000D03*
X148808800Y-79470000D03*
X142458800Y-82010000D03*
X163096300Y-155670000D03*
X156746300Y-158210000D03*
X153571300Y-136620000D03*
X147221300Y-139160000D03*
X144046300Y-117570000D03*
X137696300Y-120110000D03*
X139283800Y-98520000D03*
X132933800Y-101060000D03*
X129758800Y-79470000D03*
X123408800Y-82010000D03*
X134521300Y-136620000D03*
X128171300Y-139160000D03*
X127536300Y-125190000D03*
X124996300Y-118840000D03*
X120233800Y-98520000D03*
X113883800Y-101060000D03*
X86578800Y-89630000D03*
X92928800Y-87090000D03*
X239296000Y-117570000D03*
X232946000Y-120110000D03*
D30*
X112750000Y-94250000D03*
D31*
X110210000Y-94250000D03*
D32*
X113167278Y-114937100D03*
X110117223Y-114403087D03*
X106749989Y-114754142D03*
X105000000Y-115750000D03*
X101250000Y-91250000D03*
X101750000Y-94750000D03*
X104450000Y-128000000D03*
X101500000Y-118750000D03*
X126750000Y-135500000D03*
X131250000Y-135500000D03*
X104000000Y-112000000D03*
X104000000Y-114500000D03*
X112250000Y-130750000D03*
X109250000Y-131750000D03*
X109000000Y-121000000D03*
X108000000Y-119500000D03*
X106500000Y-126000000D03*
X114750000Y-125000000D03*
X112772646Y-125325011D03*
X126500000Y-127250000D03*
X128250000Y-127500000D03*
X132750000Y-129500000D03*
X113706661Y-125146882D03*
X128500000Y-120250000D03*
X128250000Y-113750000D03*
X131000000Y-113750000D03*
X108566949Y-126374990D03*
X158750000Y-113500000D03*
X107931791Y-125797893D03*
X178750000Y-113500000D03*
X109552681Y-125063420D03*
X197750000Y-113500000D03*
X107000000Y-125000000D03*
X215750000Y-113500000D03*
X112301418Y-118719480D03*
X235000000Y-113750000D03*
X129000000Y-108824946D03*
X253750000Y-113500000D03*
X129000000Y-108024933D03*
X272750000Y-113500000D03*
X127750000Y-107875010D03*
X292500000Y-113500000D03*
X126250000Y-107250000D03*
X311000000Y-113500000D03*
X129000000Y-106324911D03*
X334250000Y-106750000D03*
X128750000Y-105250000D03*
X332500000Y-96500000D03*
X128750000Y-129500000D03*
X131000000Y-129500000D03*
X109183051Y-100066949D03*
X110375010Y-121125010D03*
X110066949Y-99183051D03*
X111315694Y-121575021D03*
X100750000Y-125250000D03*
X98500000Y-125250000D03*
X90250000Y-125250000D03*
X86500000Y-126000000D03*
X100300013Y-123250000D03*
X100500000Y-122000000D03*
X99500000Y-123250000D03*
X132750000Y-135500000D03*
X132750000Y-138000000D03*
X114559406Y-126368310D03*
X102500000Y-120474990D03*
X103500000Y-143500000D03*
X106000000Y-135500000D03*
X120750000Y-118500000D03*
X125000000Y-113000000D03*
X118500000Y-110500000D03*
X113000000Y-108250000D03*
X108000000Y-115000000D03*
X110000000Y-100500000D03*
X106000000Y-96000000D03*
D33*
X118750000Y-145200000D02*
X121950000Y-145200000D01*
X121950000Y-145200000D02*
X122500000Y-145750000D01*
X118750000Y-145200000D02*
X117049998Y-143499998D01*
X110550000Y-131050000D02*
X110550000Y-128400000D01*
X112000000Y-132500000D02*
X110550000Y-131050000D01*
X116363602Y-132500000D02*
X112000000Y-132500000D01*
X117049998Y-133186396D02*
X116363602Y-132500000D01*
X117049998Y-133299998D02*
X117049998Y-133186396D01*
X117049998Y-143499998D02*
X117049998Y-133299998D01*
X121550000Y-146700000D02*
X122500000Y-145750000D01*
X107350000Y-114750000D02*
X107996912Y-114103088D01*
X113467277Y-115237099D02*
X113167278Y-114937100D01*
X113750000Y-115519822D02*
X113467277Y-115237099D01*
X109817224Y-114103088D02*
X110117223Y-114403087D01*
X107996912Y-114103088D02*
X109817224Y-114103088D01*
X113750000Y-116000000D02*
X113750000Y-115519822D01*
X107245847Y-115250000D02*
X107049988Y-115054141D01*
X107049988Y-115054141D02*
X106749989Y-114754142D01*
X107350000Y-115250000D02*
X107245847Y-115250000D01*
X107350000Y-113150000D02*
X107350000Y-114750000D01*
X107350000Y-114750000D02*
X107350000Y-115250000D01*
X107350000Y-115250000D02*
X107350000Y-116000000D01*
X104850000Y-118700000D02*
X104850000Y-115900000D01*
X104850000Y-115900000D02*
X105000000Y-115750000D01*
X101250000Y-91250000D02*
X101250000Y-81598930D01*
X101250000Y-81598930D02*
X100350390Y-80699320D01*
X100350390Y-80699320D02*
X99850200Y-80699320D01*
X98374999Y-93660001D02*
X98439999Y-93725001D01*
X96000000Y-92700000D02*
X96000000Y-92475000D01*
X96000000Y-92475000D02*
X96625000Y-91850000D01*
X96625000Y-91850000D02*
X98235002Y-91850000D01*
X98235002Y-91850000D02*
X98374999Y-91989997D01*
X98374999Y-91989997D02*
X98374999Y-93660001D01*
X98439999Y-93725001D02*
X100725001Y-93725001D01*
X100725001Y-93725001D02*
X101750000Y-94750000D01*
X104850000Y-118700000D02*
X101550000Y-118700000D01*
X101550000Y-118700000D02*
X101500000Y-118750000D01*
X126750000Y-135500000D02*
X126750000Y-134210000D01*
X126750000Y-134210000D02*
X125580000Y-133040000D01*
X132449999Y-138625001D02*
X131250000Y-137425002D01*
X141502320Y-136852430D02*
X140452320Y-136852430D01*
X140452320Y-136852430D02*
X138679749Y-138625001D01*
X138679749Y-138625001D02*
X132449999Y-138625001D01*
X131250000Y-137425002D02*
X131250000Y-135500000D01*
X118750000Y-143300000D02*
X119375000Y-143300000D01*
X119375000Y-143300000D02*
X121349999Y-141325001D01*
X121349999Y-141325001D02*
X123760001Y-141325001D01*
X123760001Y-141325001D02*
X123941388Y-141143614D01*
X123941388Y-141143614D02*
X123941388Y-134678612D01*
X118750000Y-135800000D02*
X119499130Y-135800000D01*
X124716401Y-133903599D02*
X125580000Y-133040000D01*
X120620519Y-134678612D02*
X123941388Y-134678612D01*
X119499130Y-135800000D02*
X120620519Y-134678612D01*
X123941388Y-134678612D02*
X124716401Y-133903599D01*
X104850000Y-118700000D02*
X104850000Y-115350000D01*
X104850000Y-115350000D02*
X104000000Y-114500000D01*
X114050000Y-113750000D02*
X114050000Y-114375000D01*
X114050000Y-114375000D02*
X113750000Y-114675000D01*
X113750000Y-114675000D02*
X113750000Y-116000000D01*
X113750000Y-116000000D02*
X113750000Y-117000000D01*
X107000000Y-111950000D02*
X107000000Y-112800000D01*
X107000000Y-112800000D02*
X107350000Y-113150000D01*
X107350000Y-116000000D02*
X107350000Y-117000000D01*
X112250000Y-130750000D02*
X112250000Y-128500000D01*
X112250000Y-128500000D02*
X112150000Y-128400000D01*
X104450000Y-131750000D02*
X109250000Y-131750000D01*
X104450000Y-130250000D02*
X104450000Y-127100000D01*
X104450000Y-127100000D02*
X104850000Y-126700000D01*
X106124987Y-111150013D02*
X106124987Y-115574987D01*
X107000000Y-110275000D02*
X106124987Y-111150013D01*
X106124987Y-115574987D02*
X106550000Y-116000000D01*
X107000000Y-110050000D02*
X107000000Y-110275000D01*
X109750000Y-120500000D02*
X109750000Y-121000000D01*
X109750000Y-121000000D02*
X109750000Y-121750000D01*
X109000000Y-121000000D02*
X109750000Y-121000000D01*
X108000000Y-118075001D02*
X106625001Y-118075001D01*
X114285001Y-118075001D02*
X108000000Y-118075001D01*
X108000000Y-118075001D02*
X108000000Y-119500000D01*
X115950000Y-113750000D02*
X115950000Y-116125000D01*
X115950000Y-116125000D02*
X115075000Y-117000000D01*
X115075000Y-117000000D02*
X114550000Y-117000000D01*
X109750000Y-121750000D02*
X111500000Y-123500000D01*
X111500000Y-123500000D02*
X116250000Y-123500000D01*
X110000000Y-120250000D02*
X109750000Y-120500000D01*
X112291207Y-120250000D02*
X110000000Y-120250000D01*
X113041207Y-119500000D02*
X112291207Y-120250000D01*
X116250000Y-119500000D02*
X113041207Y-119500000D01*
X114550000Y-117000000D02*
X114550000Y-117810002D01*
X114550000Y-117810002D02*
X114285001Y-118075001D01*
X106625001Y-118075001D02*
X106550000Y-118000000D01*
X106550000Y-118000000D02*
X106550000Y-117000000D01*
X106550000Y-116000000D02*
X106550000Y-117000000D01*
X96649800Y-80699320D02*
X96649800Y-86500000D01*
X96649800Y-86500000D02*
X96649800Y-87850200D01*
X106550000Y-116000000D02*
X96200201Y-105650201D01*
X96200201Y-105650201D02*
X96200201Y-100471543D01*
X96200201Y-100471543D02*
X94953299Y-99224641D01*
X94953299Y-99224641D02*
X94953299Y-88196501D01*
X94953299Y-88196501D02*
X96649800Y-86500000D01*
X102550000Y-131750000D02*
X102550000Y-130250000D01*
X104850000Y-125900000D02*
X103850000Y-125900000D01*
X103850000Y-125900000D02*
X102550000Y-127200000D01*
X102550000Y-127200000D02*
X102550000Y-129625000D01*
X102550000Y-129625000D02*
X102550000Y-130250000D01*
X104850000Y-125900000D02*
X106400000Y-125900000D01*
X106400000Y-125900000D02*
X106500000Y-126000000D01*
X116250000Y-123500000D02*
X115250000Y-123500000D01*
X115250000Y-123500000D02*
X114750000Y-124000000D01*
X114750000Y-124000000D02*
X114750000Y-125000000D01*
X112950000Y-125502365D02*
X112772646Y-125325011D01*
X112950000Y-128400000D02*
X112950000Y-125502365D01*
X96000000Y-88500000D02*
X96000000Y-90800000D01*
X96649800Y-87850200D02*
X96000000Y-88500000D01*
X138500000Y-129600000D02*
X132850000Y-129600000D01*
X128000000Y-127250000D02*
X126500000Y-127250000D01*
X128250000Y-127500000D02*
X128000000Y-127250000D01*
X132850000Y-129600000D02*
X132750000Y-129500000D01*
X120500000Y-133040000D02*
X118290000Y-133040000D01*
X112950000Y-130950000D02*
X112950000Y-128400000D01*
X113500000Y-131500000D02*
X112950000Y-130950000D01*
X116750000Y-131500000D02*
X113500000Y-131500000D01*
X118290000Y-133040000D02*
X116750000Y-131500000D01*
X118750000Y-137700000D02*
X121950000Y-137700000D01*
X121950000Y-137700000D02*
X122500000Y-138250000D01*
X111350000Y-128400000D02*
X111350000Y-130850000D01*
X117500000Y-136450000D02*
X118750000Y-137700000D01*
X117500000Y-133000000D02*
X117500000Y-136450000D01*
X116500000Y-132000000D02*
X117500000Y-133000000D01*
X112500000Y-132000000D02*
X116500000Y-132000000D01*
X111350000Y-130850000D02*
X112500000Y-132000000D01*
X121550000Y-139200000D02*
X122500000Y-138250000D01*
X118750000Y-123450000D02*
X118000000Y-122700000D01*
X118000000Y-122700000D02*
X116250000Y-122700000D01*
X118750000Y-121550000D02*
X118400000Y-121900000D01*
X118400000Y-121900000D02*
X116250000Y-121900000D01*
X82830140Y-123750000D02*
X82830140Y-125819860D01*
X82830140Y-125819860D02*
X82650000Y-126000000D01*
X98874998Y-121429691D02*
X100804689Y-119500000D01*
X99555000Y-124230004D02*
X98874998Y-123550002D01*
X100804689Y-119500000D02*
X103850000Y-119500000D01*
X99555000Y-133750000D02*
X99555000Y-124230004D01*
X103850000Y-119500000D02*
X104850000Y-119500000D01*
X98874998Y-123550002D02*
X98874998Y-121429691D01*
X93555000Y-95750000D02*
X93555000Y-100095000D01*
X87150000Y-127155000D02*
X88950000Y-128955000D01*
X87150000Y-124100000D02*
X87150000Y-127155000D01*
X87950000Y-123300000D02*
X87150000Y-124100000D01*
X87950000Y-106700000D02*
X87950000Y-123300000D01*
X90350000Y-104300000D02*
X87950000Y-106700000D01*
X90350000Y-103300000D02*
X90350000Y-104300000D01*
X93555000Y-100095000D02*
X90350000Y-103300000D01*
X88950000Y-128955000D02*
X94760000Y-128955000D01*
X94760000Y-128955000D02*
X99555000Y-133750000D01*
X93000000Y-92305000D02*
X93000000Y-93750000D01*
X93555000Y-94305000D02*
X93555000Y-95750000D01*
X93000000Y-93750000D02*
X93555000Y-94305000D01*
X99555000Y-133750000D02*
X99555000Y-139195000D01*
X92000000Y-152305000D02*
X90555000Y-153750000D01*
X92000000Y-148250000D02*
X92000000Y-152305000D01*
X98000000Y-142250000D02*
X92000000Y-148250000D01*
X98000000Y-140750000D02*
X98000000Y-142250000D01*
X99555000Y-139195000D02*
X98000000Y-140750000D01*
X93000000Y-90195000D02*
X93000000Y-87161200D01*
X93000000Y-87161200D02*
X92928800Y-87090000D01*
X90071300Y-101060000D02*
X90071300Y-97123700D01*
X90071300Y-97123700D02*
X91445000Y-95750000D01*
X93722500Y-126460000D02*
X89335000Y-126460000D01*
X89335000Y-126460000D02*
X88950000Y-126845000D01*
X88942500Y-126852500D02*
X88950000Y-126845000D01*
X97215000Y-139160000D02*
X97215000Y-133980000D01*
X97215000Y-133980000D02*
X97445000Y-133750000D01*
X87690000Y-158210000D02*
X87690000Y-154505000D01*
X87690000Y-154505000D02*
X88445000Y-153750000D01*
X131555000Y-134225000D02*
X131555000Y-133750000D01*
X130624998Y-139125002D02*
X130624998Y-135155002D01*
X130624998Y-135155002D02*
X131555000Y-134225000D01*
X129250000Y-146000000D02*
X129250000Y-140500000D01*
X121500000Y-153750000D02*
X129250000Y-146000000D01*
X114555000Y-153750000D02*
X121500000Y-153750000D01*
X129250000Y-140500000D02*
X130624998Y-139125002D01*
X109750000Y-127400000D02*
X112835369Y-124314631D01*
X113406662Y-124846883D02*
X113706661Y-125146882D01*
X112874410Y-124314631D02*
X113406662Y-124846883D01*
X112835369Y-124314631D02*
X112874410Y-124314631D01*
X109750000Y-128400000D02*
X109750000Y-127400000D01*
X129605000Y-131800000D02*
X131555000Y-133750000D01*
X129605000Y-118100000D02*
X129605000Y-131800000D01*
X118100000Y-95750000D02*
X117555000Y-95750000D01*
X130150000Y-103900000D02*
X122000000Y-95750000D01*
X130150000Y-117080000D02*
X130150000Y-103900000D01*
X129605000Y-118100000D02*
X129605000Y-117625000D01*
X122000000Y-95750000D02*
X118100000Y-95750000D01*
X129605000Y-117625000D02*
X130150000Y-117080000D01*
X129605000Y-119145000D02*
X128500000Y-120250000D01*
X129605000Y-118100000D02*
X129605000Y-119145000D01*
X112750000Y-92055000D02*
X116305000Y-92055000D01*
X117555000Y-93305000D02*
X117555000Y-95750000D01*
X116305000Y-92055000D02*
X117555000Y-93305000D01*
X111978800Y-87090000D02*
X111978800Y-87978800D01*
X111978800Y-87978800D02*
X112750000Y-88750000D01*
X112750000Y-88750000D02*
X112750000Y-89945000D01*
X113883800Y-101060000D02*
X113883800Y-97311200D01*
X113883800Y-97311200D02*
X115445000Y-95750000D01*
X127495000Y-118100000D02*
X126755000Y-118840000D01*
X126755000Y-118840000D02*
X124996300Y-118840000D01*
X128171300Y-139160000D02*
X128171300Y-135023700D01*
X128171300Y-135023700D02*
X129445000Y-133750000D01*
X111502500Y-158210000D02*
X111502500Y-154692500D01*
X111502500Y-154692500D02*
X112445000Y-153750000D01*
X108950000Y-127400000D02*
X108950000Y-128400000D01*
X110189254Y-126160746D02*
X108950000Y-127400000D01*
X108374999Y-120699999D02*
X108374999Y-121300001D01*
X119363590Y-113750000D02*
X114063601Y-119049989D01*
X112104807Y-119799989D02*
X109275009Y-119799989D01*
X114063601Y-119049989D02*
X112854807Y-119049989D01*
X108374999Y-121300001D02*
X110189254Y-123114256D01*
X128250000Y-113750000D02*
X119363590Y-113750000D01*
X112854807Y-119049989D02*
X112104807Y-119799989D01*
X110189254Y-123114256D02*
X110189254Y-126160746D01*
X109275009Y-119799989D02*
X108374999Y-120699999D01*
X140555000Y-114750000D02*
X140010000Y-114750000D01*
X140010000Y-114750000D02*
X139010000Y-113750000D01*
X139010000Y-113750000D02*
X131000000Y-113750000D01*
X150555000Y-133750000D02*
X150555000Y-138695000D01*
X141500000Y-149805000D02*
X138555000Y-152750000D01*
X141500000Y-149250000D02*
X141500000Y-149805000D01*
X147500000Y-143250000D02*
X141500000Y-149250000D01*
X147500000Y-141750000D02*
X147500000Y-143250000D01*
X150555000Y-138695000D02*
X147500000Y-141750000D01*
X140555000Y-114750000D02*
X140555000Y-117805000D01*
X150555000Y-131305000D02*
X150555000Y-133750000D01*
X144500000Y-125250000D02*
X150555000Y-131305000D01*
X144500000Y-121750000D02*
X144500000Y-125250000D01*
X140555000Y-117805000D02*
X144500000Y-121750000D01*
X136555000Y-95750000D02*
X136555000Y-99305000D01*
X140555000Y-112305000D02*
X140555000Y-114750000D01*
X140000000Y-111750000D02*
X140555000Y-112305000D01*
X140000000Y-102750000D02*
X140000000Y-111750000D01*
X136555000Y-99305000D02*
X140000000Y-102750000D01*
X136555000Y-93805000D02*
X136555000Y-95750000D01*
X130500000Y-87750000D02*
X136555000Y-93805000D01*
X130500000Y-83750000D02*
X130500000Y-87750000D01*
X126555000Y-79805000D02*
X130500000Y-83750000D01*
X126555000Y-76750000D02*
X126555000Y-79805000D01*
X123408800Y-82010000D02*
X123408800Y-77786200D01*
X123408800Y-77786200D02*
X124445000Y-76750000D01*
X132933800Y-101060000D02*
X132933800Y-97261200D01*
X132933800Y-97261200D02*
X134445000Y-95750000D01*
X137696300Y-120110000D02*
X137696300Y-115498700D01*
X137696300Y-115498700D02*
X138445000Y-114750000D01*
X147221300Y-139160000D02*
X147221300Y-134973700D01*
X147221300Y-134973700D02*
X148445000Y-133750000D01*
X135315000Y-158210000D02*
X135315000Y-153880000D01*
X135315000Y-153880000D02*
X136445000Y-152750000D01*
X108150000Y-126791939D02*
X108266950Y-126674989D01*
X108150000Y-128400000D02*
X108150000Y-126791939D01*
X108266950Y-126674989D02*
X108566949Y-126374990D01*
X159555000Y-114750000D02*
X159555000Y-114305000D01*
X159555000Y-114305000D02*
X158750000Y-113500000D01*
X169555000Y-133750000D02*
X169555000Y-138195000D01*
X158555000Y-150695000D02*
X158555000Y-152750000D01*
X167000000Y-142250000D02*
X158555000Y-150695000D01*
X167000000Y-140750000D02*
X167000000Y-142250000D01*
X169555000Y-138195000D02*
X167000000Y-140750000D01*
X159555000Y-114750000D02*
X159555000Y-117305000D01*
X169555000Y-131805000D02*
X169555000Y-133750000D01*
X163500000Y-125750000D02*
X169555000Y-131805000D01*
X163500000Y-121250000D02*
X163500000Y-125750000D01*
X159555000Y-117305000D02*
X163500000Y-121250000D01*
X155555000Y-95750000D02*
X155555000Y-98805000D01*
X159555000Y-111305000D02*
X159555000Y-114750000D01*
X159000000Y-110750000D02*
X159555000Y-111305000D01*
X159000000Y-102250000D02*
X159000000Y-110750000D01*
X155555000Y-98805000D02*
X159000000Y-102250000D01*
X155555000Y-93305000D02*
X155555000Y-95750000D01*
X149500000Y-87250000D02*
X155555000Y-93305000D01*
X149500000Y-83250000D02*
X149500000Y-87250000D01*
X145555000Y-76750000D02*
X145555000Y-79305000D01*
X145555000Y-79305000D02*
X149500000Y-83250000D01*
X156746300Y-158210000D02*
X156746300Y-153051300D01*
X156746300Y-153051300D02*
X156445000Y-152750000D01*
X142458800Y-82010000D02*
X142458800Y-77736200D01*
X142458800Y-77736200D02*
X143445000Y-76750000D01*
X151983800Y-101060000D02*
X151983800Y-97211200D01*
X151983800Y-97211200D02*
X153445000Y-95750000D01*
X156746300Y-120110000D02*
X156746300Y-115448700D01*
X156746300Y-115448700D02*
X157445000Y-114750000D01*
X166271000Y-139160000D02*
X166271000Y-134924000D01*
X166271000Y-134924000D02*
X167445000Y-133750000D01*
X107350000Y-126711415D02*
X107631792Y-126429623D01*
X107631792Y-126429623D02*
X107631792Y-126097892D01*
X107350000Y-128400000D02*
X107350000Y-126711415D01*
X107631792Y-126097892D02*
X107931791Y-125797893D01*
X179555000Y-114750000D02*
X179555000Y-114305000D01*
X179555000Y-114305000D02*
X178750000Y-113500000D01*
X188555000Y-133750000D02*
X188555000Y-136805000D01*
X195555000Y-149805000D02*
X195555000Y-152750000D01*
X192000000Y-146250000D02*
X195555000Y-149805000D01*
X192000000Y-140250000D02*
X192000000Y-146250000D01*
X188555000Y-136805000D02*
X192000000Y-140250000D01*
X179555000Y-114750000D02*
X179555000Y-118305000D01*
X188555000Y-131305000D02*
X188555000Y-133750000D01*
X183000000Y-125750000D02*
X188555000Y-131305000D01*
X183000000Y-121750000D02*
X183000000Y-125750000D01*
X179555000Y-118305000D02*
X183000000Y-121750000D01*
X174555000Y-95750000D02*
X174555000Y-99305000D01*
X179555000Y-110805000D02*
X179555000Y-114750000D01*
X178500000Y-109750000D02*
X179555000Y-110805000D01*
X178500000Y-103250000D02*
X178500000Y-109750000D01*
X174555000Y-99305000D02*
X178500000Y-103250000D01*
X164555000Y-76750000D02*
X164555000Y-79805000D01*
X174555000Y-93805000D02*
X174555000Y-95750000D01*
X168500000Y-87750000D02*
X174555000Y-93805000D01*
X168500000Y-83750000D02*
X168500000Y-87750000D01*
X164555000Y-79805000D02*
X168500000Y-83750000D01*
X161509000Y-82010000D02*
X161509000Y-77686000D01*
X161509000Y-77686000D02*
X162445000Y-76750000D01*
X171034000Y-101060000D02*
X171034000Y-97161000D01*
X171034000Y-97161000D02*
X172445000Y-95750000D01*
X175796000Y-120110000D02*
X175796000Y-116399000D01*
X175796000Y-116399000D02*
X177445000Y-114750000D01*
X185321000Y-139160000D02*
X185321000Y-134874000D01*
X185321000Y-134874000D02*
X186445000Y-133750000D01*
X192465000Y-158210000D02*
X192465000Y-153730000D01*
X192465000Y-153730000D02*
X193445000Y-152750000D01*
X109252682Y-124763421D02*
X109552681Y-125063420D01*
X108489261Y-124000000D02*
X109252682Y-124763421D01*
X106950000Y-124000000D02*
X108489261Y-124000000D01*
X105850000Y-125100000D02*
X106950000Y-124000000D01*
X104850000Y-125100000D02*
X105850000Y-125100000D01*
X198555000Y-114750000D02*
X198555000Y-114305000D01*
X198555000Y-114305000D02*
X197750000Y-113500000D01*
X206555000Y-133750000D02*
X206555000Y-135805000D01*
X244555000Y-150750000D02*
X246555000Y-152750000D01*
X212500000Y-150750000D02*
X244555000Y-150750000D01*
X211500000Y-149750000D02*
X212500000Y-150750000D01*
X211500000Y-140750000D02*
X211500000Y-149750000D01*
X206555000Y-135805000D02*
X211500000Y-140750000D01*
X198555000Y-114750000D02*
X198555000Y-118305000D01*
X206555000Y-130805000D02*
X206555000Y-133750000D01*
X202000000Y-126250000D02*
X206555000Y-130805000D01*
X202000000Y-121750000D02*
X202000000Y-126250000D01*
X198555000Y-118305000D02*
X202000000Y-121750000D01*
X193555000Y-95750000D02*
X193555000Y-98805000D01*
X198555000Y-111805000D02*
X198555000Y-114750000D01*
X197000000Y-110250000D02*
X198555000Y-111805000D01*
X197000000Y-102250000D02*
X197000000Y-110250000D01*
X193555000Y-98805000D02*
X197000000Y-102250000D01*
X183555000Y-76750000D02*
X183555000Y-78805000D01*
X193555000Y-91805000D02*
X193555000Y-95750000D01*
X187500000Y-85750000D02*
X193555000Y-91805000D01*
X187500000Y-82750000D02*
X187500000Y-85750000D01*
X183555000Y-78805000D02*
X187500000Y-82750000D01*
X180559000Y-82010000D02*
X180559000Y-77636000D01*
X180559000Y-77636000D02*
X181445000Y-76750000D01*
X190084000Y-101060000D02*
X190084000Y-97111000D01*
X190084000Y-97111000D02*
X191445000Y-95750000D01*
X194846000Y-120110000D02*
X194846000Y-116349000D01*
X194846000Y-116349000D02*
X196445000Y-114750000D01*
X204371000Y-139160000D02*
X204371000Y-133824000D01*
X204371000Y-133824000D02*
X204445000Y-133750000D01*
X244853000Y-158210000D02*
X244853000Y-153158000D01*
X244853000Y-153158000D02*
X244445000Y-152750000D01*
X107125002Y-126300002D02*
X107125002Y-125549266D01*
X106550000Y-126875004D02*
X107125002Y-126300002D01*
X107125002Y-125549266D02*
X107000000Y-125424264D01*
X106550000Y-128400000D02*
X106550000Y-126875004D01*
X107000000Y-125424264D02*
X107000000Y-125000000D01*
X216555000Y-114750000D02*
X216555000Y-114305000D01*
X216555000Y-114305000D02*
X215750000Y-113500000D01*
X226555000Y-133750000D02*
X226555000Y-136805000D01*
X285555000Y-150805000D02*
X285555000Y-152750000D01*
X284500000Y-149750000D02*
X285555000Y-150805000D01*
X232000000Y-149750000D02*
X284500000Y-149750000D01*
X230500000Y-148250000D02*
X232000000Y-149750000D01*
X230500000Y-140750000D02*
X230500000Y-148250000D01*
X226555000Y-136805000D02*
X230500000Y-140750000D01*
X216555000Y-114750000D02*
X216555000Y-117305000D01*
X226555000Y-130305000D02*
X226555000Y-133750000D01*
X221000000Y-124750000D02*
X226555000Y-130305000D01*
X221000000Y-121750000D02*
X221000000Y-124750000D01*
X216555000Y-117305000D02*
X221000000Y-121750000D01*
X212555000Y-95750000D02*
X212555000Y-98305000D01*
X216555000Y-111805000D02*
X216555000Y-114750000D01*
X216000000Y-111250000D02*
X216555000Y-111805000D01*
X216000000Y-101750000D02*
X216000000Y-111250000D01*
X212555000Y-98305000D02*
X216000000Y-101750000D01*
X202555000Y-76750000D02*
X202555000Y-79805000D01*
X212555000Y-93305000D02*
X212555000Y-95750000D01*
X206500000Y-87250000D02*
X212555000Y-93305000D01*
X206500000Y-83750000D02*
X206500000Y-87250000D01*
X202555000Y-79805000D02*
X206500000Y-83750000D01*
X199609000Y-82010000D02*
X199609000Y-77586000D01*
X199609000Y-77586000D02*
X200445000Y-76750000D01*
X209134000Y-101060000D02*
X209134000Y-97061000D01*
X209134000Y-97061000D02*
X210445000Y-95750000D01*
X213896000Y-120110000D02*
X213896000Y-115299000D01*
X213896000Y-115299000D02*
X214445000Y-114750000D01*
X223421000Y-139160000D02*
X223421000Y-134774000D01*
X223421000Y-134774000D02*
X224445000Y-133750000D01*
X280571000Y-158210000D02*
X280571000Y-157679000D01*
X280571000Y-157679000D02*
X283445000Y-154805000D01*
X283445000Y-154805000D02*
X283445000Y-152750000D01*
X107924988Y-121425012D02*
X107924988Y-120513599D01*
X109719107Y-118719480D02*
X111877154Y-118719480D01*
X104850000Y-123500000D02*
X105850000Y-123500000D01*
X107924988Y-120513599D02*
X109719107Y-118719480D01*
X105850000Y-123500000D02*
X107924988Y-121425012D01*
X111877154Y-118719480D02*
X112301418Y-118719480D01*
X235555000Y-114750000D02*
X235555000Y-114305000D01*
X235555000Y-114305000D02*
X235000000Y-113750000D01*
X249500000Y-140250000D02*
X249500000Y-147750000D01*
X249500000Y-147750000D02*
X251000000Y-149250000D01*
X245555000Y-136305000D02*
X249500000Y-140250000D01*
X251000000Y-149250000D02*
X300450820Y-149250000D01*
X245555000Y-133750000D02*
X245555000Y-136305000D01*
X304010000Y-152750000D02*
X304555000Y-152750000D01*
X300450820Y-149250000D02*
X303950820Y-152750000D01*
X303950820Y-152750000D02*
X304010000Y-152750000D01*
X304555000Y-152750000D02*
X304555000Y-152695000D01*
X235555000Y-114750000D02*
X235555000Y-117305000D01*
X245555000Y-130805000D02*
X245555000Y-133750000D01*
X240000000Y-125250000D02*
X245555000Y-130805000D01*
X240000000Y-121750000D02*
X240000000Y-125250000D01*
X235555000Y-117305000D02*
X240000000Y-121750000D01*
X231555000Y-95750000D02*
X231555000Y-98305000D01*
X235555000Y-102305000D02*
X235555000Y-114750000D01*
X231555000Y-98305000D02*
X235555000Y-102305000D01*
X221555000Y-76750000D02*
X221555000Y-79305000D01*
X231555000Y-93305000D02*
X231555000Y-95750000D01*
X226000000Y-87750000D02*
X231555000Y-93305000D01*
X226000000Y-83750000D02*
X226000000Y-87750000D01*
X221555000Y-79305000D02*
X226000000Y-83750000D01*
X218659000Y-82010000D02*
X218659000Y-77536000D01*
X218659000Y-77536000D02*
X219445000Y-76750000D01*
X228184000Y-101060000D02*
X228184000Y-97011000D01*
X228184000Y-97011000D02*
X229445000Y-95750000D01*
X232946000Y-120110000D02*
X232946000Y-115249000D01*
X232946000Y-115249000D02*
X233445000Y-114750000D01*
X242471000Y-139160000D02*
X242471000Y-134724000D01*
X242471000Y-134724000D02*
X243445000Y-133750000D01*
X302003000Y-158210000D02*
X302003000Y-153192000D01*
X302003000Y-153192000D02*
X302445000Y-152750000D01*
X129000000Y-114250000D02*
X129000000Y-109249210D01*
X119555901Y-116394099D02*
X126855901Y-116394099D01*
X126855901Y-116394099D02*
X129000000Y-114250000D01*
X129000000Y-109249210D02*
X129000000Y-108824946D01*
X117250000Y-118700000D02*
X119555901Y-116394099D01*
X116250000Y-118700000D02*
X117250000Y-118700000D01*
X254555000Y-114750000D02*
X254555000Y-114305000D01*
X254555000Y-114305000D02*
X253750000Y-113500000D01*
X324685011Y-151950011D02*
X326485000Y-153750000D01*
X268500000Y-140750000D02*
X268500000Y-146750000D01*
X303787242Y-151950011D02*
X324685011Y-151950011D01*
X264555000Y-136805000D02*
X268500000Y-140750000D01*
X268500000Y-146750000D02*
X270500000Y-148750000D01*
X300587231Y-148750000D02*
X303787242Y-151950011D01*
X326485000Y-153750000D02*
X326555000Y-153750000D01*
X264555000Y-133750000D02*
X264555000Y-136805000D01*
X270500000Y-148750000D02*
X300587231Y-148750000D01*
X254555000Y-114750000D02*
X254555000Y-117305000D01*
X264555000Y-131305000D02*
X264555000Y-133750000D01*
X259000000Y-125750000D02*
X264555000Y-131305000D01*
X259000000Y-121750000D02*
X259000000Y-125750000D01*
X254555000Y-117305000D02*
X259000000Y-121750000D01*
X250555000Y-95750000D02*
X250555000Y-98805000D01*
X254555000Y-102805000D02*
X254555000Y-114750000D01*
X250555000Y-98805000D02*
X254555000Y-102805000D01*
X240555000Y-76750000D02*
X240555000Y-78805000D01*
X250555000Y-93305000D02*
X250555000Y-95750000D01*
X244500000Y-87250000D02*
X250555000Y-93305000D01*
X244500000Y-82750000D02*
X244500000Y-87250000D01*
X240555000Y-78805000D02*
X244500000Y-82750000D01*
X237709000Y-82010000D02*
X237709000Y-77486000D01*
X237709000Y-77486000D02*
X238445000Y-76750000D01*
X247234000Y-101060000D02*
X247234000Y-96961000D01*
X247234000Y-96961000D02*
X248445000Y-95750000D01*
X251996000Y-120110000D02*
X251996000Y-115199000D01*
X251996000Y-115199000D02*
X252445000Y-114750000D01*
X261521000Y-139160000D02*
X261521000Y-134674000D01*
X261521000Y-134674000D02*
X262445000Y-133750000D01*
X323434000Y-158210000D02*
X323434000Y-154761000D01*
X323434000Y-154761000D02*
X324445000Y-153750000D01*
X117614999Y-108624999D02*
X127975670Y-108624999D01*
X112150000Y-117000000D02*
X112150000Y-115840956D01*
X112542268Y-115448688D02*
X112542268Y-113697730D01*
X112542268Y-113697730D02*
X117614999Y-108624999D01*
X112150000Y-115840956D02*
X112542268Y-115448688D01*
X128575736Y-108024933D02*
X129000000Y-108024933D01*
X127975670Y-108624999D02*
X128575736Y-108024933D01*
X273555000Y-114750000D02*
X273555000Y-114305000D01*
X273555000Y-114305000D02*
X272750000Y-113500000D01*
X283555000Y-133750000D02*
X286223642Y-133750000D01*
X286223642Y-133750000D02*
X303973642Y-151500000D01*
X350010000Y-153750000D02*
X350555000Y-153750000D01*
X303973642Y-151500000D02*
X325325026Y-151500000D01*
X325325026Y-151500000D02*
X327025025Y-153199999D01*
X327025025Y-153199999D02*
X349459999Y-153199999D01*
X349459999Y-153199999D02*
X350010000Y-153750000D01*
X273555000Y-114750000D02*
X273555000Y-116805000D01*
X283555000Y-131805000D02*
X283555000Y-133750000D01*
X278500000Y-126750000D02*
X283555000Y-131805000D01*
X278500000Y-121750000D02*
X278500000Y-126750000D01*
X273555000Y-116805000D02*
X278500000Y-121750000D01*
X269555000Y-95750000D02*
X269555000Y-98805000D01*
X273555000Y-102805000D02*
X273555000Y-114750000D01*
X269555000Y-98805000D02*
X273555000Y-102805000D01*
X259555000Y-76750000D02*
X259555000Y-79305000D01*
X269555000Y-94305000D02*
X269555000Y-95750000D01*
X264000000Y-88750000D02*
X269555000Y-94305000D01*
X264000000Y-83750000D02*
X264000000Y-88750000D01*
X259555000Y-79305000D02*
X264000000Y-83750000D01*
X256759000Y-82010000D02*
X256759000Y-77491000D01*
X256759000Y-77491000D02*
X257500000Y-76750000D01*
X257500000Y-76750000D02*
X257445000Y-76750000D01*
X266284000Y-101060000D02*
X266284000Y-96911000D01*
X266284000Y-96911000D02*
X267445000Y-95750000D01*
X271046000Y-120110000D02*
X271046000Y-115149000D01*
X271046000Y-115149000D02*
X271445000Y-114750000D01*
X280571000Y-139160000D02*
X280571000Y-134624000D01*
X280571000Y-134624000D02*
X281445000Y-133750000D01*
X349628000Y-158210000D02*
X349628000Y-156878000D01*
X348445000Y-155695000D02*
X348445000Y-153750000D01*
X349628000Y-156878000D02*
X348445000Y-155695000D01*
X127325736Y-107875010D02*
X127750000Y-107875010D01*
X112092257Y-115262288D02*
X112092257Y-113511330D01*
X111350000Y-117000000D02*
X111350000Y-116004544D01*
X111350000Y-116004544D02*
X112092257Y-115262288D01*
X112092257Y-113511330D02*
X117728577Y-107875010D01*
X117728577Y-107875010D02*
X127325736Y-107875010D01*
X293555000Y-114750000D02*
X293555000Y-114555000D01*
X293555000Y-114555000D02*
X292500000Y-113500000D01*
X293555000Y-114750000D02*
X293555000Y-118305000D01*
X302555000Y-131305000D02*
X302555000Y-133750000D01*
X297500000Y-126250000D02*
X302555000Y-131305000D01*
X297500000Y-122250000D02*
X297500000Y-126250000D01*
X293555000Y-118305000D02*
X297500000Y-122250000D01*
X287555000Y-95750000D02*
X287555000Y-96805000D01*
X293555000Y-111805000D02*
X293555000Y-114750000D01*
X292500000Y-110750000D02*
X293555000Y-111805000D01*
X292500000Y-101750000D02*
X292500000Y-110750000D01*
X287555000Y-96805000D02*
X292500000Y-101750000D01*
X278555000Y-76750000D02*
X278555000Y-79305000D01*
X287555000Y-93305000D02*
X287555000Y-95750000D01*
X283500000Y-89250000D02*
X287555000Y-93305000D01*
X283500000Y-84250000D02*
X283500000Y-89250000D01*
X278555000Y-79305000D02*
X283500000Y-84250000D01*
X275809000Y-82010000D02*
X275809000Y-77386000D01*
X275809000Y-77386000D02*
X276445000Y-76750000D01*
X285334000Y-101060000D02*
X285334000Y-95861000D01*
X285334000Y-95861000D02*
X285445000Y-95750000D01*
X290096000Y-120110000D02*
X290096000Y-116099000D01*
X290096000Y-116099000D02*
X291445000Y-114750000D01*
X299621000Y-139160000D02*
X299621000Y-134574000D01*
X299621000Y-134574000D02*
X300445000Y-133750000D01*
X111642246Y-115075888D02*
X110550000Y-116168134D01*
X110550000Y-116168134D02*
X110550000Y-117000000D01*
X111642246Y-113324930D02*
X111642246Y-115075888D01*
X126250000Y-107250000D02*
X117717176Y-107250000D01*
X117717176Y-107250000D02*
X111642246Y-113324930D01*
X311555000Y-114750000D02*
X311555000Y-114055000D01*
X311555000Y-114055000D02*
X311000000Y-113500000D01*
X311555000Y-114750000D02*
X328500000Y-114750000D01*
X338555000Y-130805000D02*
X338555000Y-133750000D01*
X335500000Y-127750000D02*
X338555000Y-130805000D01*
X335500000Y-115750000D02*
X335500000Y-127750000D01*
X333000000Y-113250000D02*
X335500000Y-115750000D01*
X330000000Y-113250000D02*
X333000000Y-113250000D01*
X328500000Y-114750000D02*
X330000000Y-113250000D01*
X307555000Y-95750000D02*
X307555000Y-98305000D01*
X311555000Y-102305000D02*
X311555000Y-114750000D01*
X307555000Y-98305000D02*
X311555000Y-102305000D01*
X298555000Y-76750000D02*
X298555000Y-79805000D01*
X307555000Y-93305000D02*
X307555000Y-95750000D01*
X301500000Y-87250000D02*
X307555000Y-93305000D01*
X301500000Y-82750000D02*
X301500000Y-87250000D01*
X298555000Y-79805000D02*
X301500000Y-82750000D01*
X294859000Y-82010000D02*
X294859000Y-78391000D01*
X294859000Y-78391000D02*
X296500000Y-76750000D01*
X296500000Y-76750000D02*
X296445000Y-76750000D01*
X304384000Y-101060000D02*
X304384000Y-96811000D01*
X304384000Y-96811000D02*
X305445000Y-95750000D01*
X309146000Y-120110000D02*
X309146000Y-115049000D01*
X309146000Y-115049000D02*
X309445000Y-114750000D01*
X335340000Y-139160000D02*
X335340000Y-134855000D01*
X335340000Y-134855000D02*
X336445000Y-133750000D01*
X313909000Y-82010000D02*
X313909000Y-78286000D01*
X313909000Y-78286000D02*
X315445000Y-76750000D01*
X111192235Y-114889488D02*
X111192235Y-113138530D01*
X117705855Y-106624910D02*
X128700001Y-106624910D01*
X110271901Y-115478099D02*
X110603624Y-115478099D01*
X109750000Y-116000000D02*
X110271901Y-115478099D01*
X111192235Y-113138530D02*
X117705855Y-106624910D01*
X109750000Y-117000000D02*
X109750000Y-116000000D01*
X128700001Y-106624910D02*
X129000000Y-106324911D01*
X110603624Y-115478099D02*
X111192235Y-114889488D01*
X335000000Y-106750000D02*
X334250000Y-106750000D01*
X343555000Y-114750000D02*
X343555000Y-117805000D01*
X355555000Y-134805000D02*
X355555000Y-136750000D01*
X347000000Y-126250000D02*
X355555000Y-134805000D01*
X347000000Y-121250000D02*
X347000000Y-126250000D01*
X343555000Y-117805000D02*
X347000000Y-121250000D01*
X327555000Y-95750000D02*
X330000000Y-95750000D01*
X342055000Y-113250000D02*
X343555000Y-114750000D01*
X335500000Y-113250000D02*
X342055000Y-113250000D01*
X335000000Y-112750000D02*
X335500000Y-113250000D01*
X335000000Y-100750000D02*
X335000000Y-106750000D01*
X335000000Y-106750000D02*
X335000000Y-112750000D01*
X330000000Y-95750000D02*
X335000000Y-100750000D01*
X317555000Y-76750000D02*
X317555000Y-80305000D01*
X327555000Y-93805000D02*
X327555000Y-95750000D01*
X321000000Y-87250000D02*
X327555000Y-93805000D01*
X321000000Y-83750000D02*
X321000000Y-87250000D01*
X317555000Y-80305000D02*
X321000000Y-83750000D01*
X323434000Y-101060000D02*
X323434000Y-97761000D01*
X323434000Y-97761000D02*
X325445000Y-95750000D01*
X340103000Y-120110000D02*
X340103000Y-116092000D01*
X340103000Y-116092000D02*
X341445000Y-114750000D01*
X352009000Y-139160000D02*
X352009000Y-138186000D01*
X352009000Y-138186000D02*
X353445000Y-136750000D01*
X109921912Y-115028088D02*
X110417224Y-115028088D01*
X110742224Y-114703088D02*
X110742224Y-112257776D01*
X128081099Y-105918901D02*
X128450001Y-105549999D01*
X110417224Y-115028088D02*
X110742224Y-114703088D01*
X108950000Y-116000000D02*
X109921912Y-115028088D01*
X117081099Y-105918901D02*
X128081099Y-105918901D01*
X128450001Y-105549999D02*
X128750000Y-105250000D01*
X108950000Y-117000000D02*
X108950000Y-116000000D01*
X110742224Y-112257776D02*
X117081099Y-105918901D01*
X330555000Y-79750000D02*
X330555000Y-81559990D01*
X330555000Y-81559990D02*
X331236368Y-81559990D01*
X331236368Y-81559990D02*
X332254359Y-80541999D01*
X330555000Y-82460010D02*
X330555000Y-83943666D01*
X332254359Y-80541999D02*
X333663641Y-80541999D01*
X333663641Y-80541999D02*
X334427001Y-81305359D01*
X333663641Y-83478001D02*
X332254359Y-83478001D01*
X334427001Y-81305359D02*
X334427001Y-82714641D01*
X331236368Y-82460010D02*
X330555000Y-82460010D01*
X334427001Y-82714641D02*
X333663641Y-83478001D01*
X332254359Y-83478001D02*
X331236368Y-82460010D01*
X330513099Y-94513099D02*
X332500000Y-96500000D01*
X330555000Y-83943666D02*
X330513099Y-83985567D01*
X330513099Y-83985567D02*
X330513099Y-94513099D01*
X353555000Y-77750000D02*
X353555000Y-83195000D01*
X350555000Y-91695000D02*
X350555000Y-95750000D01*
X353000000Y-89250000D02*
X350555000Y-91695000D01*
X353000000Y-83750000D02*
X353000000Y-89250000D01*
X353555000Y-83195000D02*
X353000000Y-83750000D01*
X330555000Y-79750000D02*
X335500000Y-79750000D01*
X353555000Y-77305000D02*
X353555000Y-77750000D01*
X352500000Y-76250000D02*
X353555000Y-77305000D01*
X339000000Y-76250000D02*
X352500000Y-76250000D01*
X335500000Y-79750000D02*
X339000000Y-76250000D01*
X328445000Y-79750000D02*
X328445000Y-80695000D01*
X329760000Y-82010000D02*
X332959000Y-82010000D01*
X328445000Y-80695000D02*
X329760000Y-82010000D01*
X352009000Y-82010000D02*
X352009000Y-78314000D01*
X352009000Y-78314000D02*
X351445000Y-77750000D01*
X347246000Y-101060000D02*
X347246000Y-96949000D01*
X347246000Y-96949000D02*
X348445000Y-95750000D01*
X97449900Y-80699320D02*
X97449900Y-87949900D01*
X97550000Y-88050000D02*
X97550000Y-90600000D01*
X97449900Y-87949900D02*
X97550000Y-88050000D01*
X98250000Y-80699320D02*
X98250000Y-87500000D01*
X99150000Y-88400000D02*
X99150000Y-90600000D01*
X98250000Y-87500000D02*
X99150000Y-88400000D01*
X115350000Y-131000000D02*
X113750000Y-129400000D01*
X117000000Y-131000000D02*
X115350000Y-131000000D01*
X117806801Y-131806801D02*
X117000000Y-131000000D01*
X122469471Y-134228601D02*
X121750000Y-133509130D01*
X123610529Y-134228601D02*
X122469471Y-134228601D01*
X124228601Y-133610529D02*
X123610529Y-134228601D01*
X121306801Y-131806801D02*
X117806801Y-131806801D01*
X124228601Y-131851399D02*
X124228601Y-133610529D01*
X121750000Y-132250000D02*
X121306801Y-131806801D01*
X125580000Y-130500000D02*
X124228601Y-131851399D01*
X113750000Y-129400000D02*
X113750000Y-128400000D01*
X121750000Y-133509130D02*
X121750000Y-132250000D01*
X128750000Y-129500000D02*
X126580000Y-129500000D01*
X126580000Y-129500000D02*
X125580000Y-130500000D01*
X138500000Y-127400000D02*
X133100000Y-127400000D01*
X133100000Y-127400000D02*
X131000000Y-129500000D01*
X138500000Y-127400000D02*
X141250110Y-127400000D01*
X141250110Y-127400000D02*
X141497680Y-127647570D01*
X108883052Y-99766950D02*
X109183051Y-100066949D01*
X104491104Y-95375002D02*
X108883052Y-99766950D01*
X97550000Y-93650000D02*
X99275002Y-95375002D01*
X99275002Y-95375002D02*
X104491104Y-95375002D01*
X97550000Y-92800000D02*
X97550000Y-93650000D01*
X112352607Y-120825011D02*
X110675009Y-120825011D01*
X116250000Y-120300000D02*
X112877618Y-120300000D01*
X110675009Y-120825011D02*
X110375010Y-121125010D01*
X112877618Y-120300000D02*
X112352607Y-120825011D01*
X99150000Y-92800000D02*
X103683898Y-92800000D01*
X103683898Y-92800000D02*
X109766950Y-98883052D01*
X109766950Y-98883052D02*
X110066949Y-99183051D01*
X115250000Y-121100000D02*
X114774979Y-121575021D01*
X114774979Y-121575021D02*
X111739958Y-121575021D01*
X116250000Y-121100000D02*
X115250000Y-121100000D01*
X111739958Y-121575021D02*
X111315694Y-121575021D01*
X84850000Y-126000000D02*
X86500000Y-126000000D01*
X101700000Y-124300000D02*
X104850000Y-124300000D01*
X100750000Y-125250000D02*
X101700000Y-124300000D01*
X95000000Y-125250000D02*
X98500000Y-125250000D01*
X94250000Y-124500000D02*
X95000000Y-125250000D01*
X91000000Y-124500000D02*
X94250000Y-124500000D01*
X90250000Y-125250000D02*
X91000000Y-124500000D01*
X100600012Y-122950001D02*
X100300013Y-123250000D01*
X100850013Y-122700000D02*
X100600012Y-122950001D01*
X104850000Y-122700000D02*
X100850013Y-122700000D01*
X100600000Y-121900000D02*
X104850000Y-121900000D01*
X100500000Y-122000000D02*
X100600000Y-121900000D01*
X99841100Y-121100000D02*
X99500000Y-121441100D01*
X104850000Y-121100000D02*
X99841100Y-121100000D01*
X99500000Y-121441100D02*
X99500000Y-123250000D01*
X132750000Y-138000000D02*
X132750000Y-135500000D01*
X315496000Y-117570000D02*
X314680000Y-117570000D01*
X114550000Y-126377716D02*
X114559406Y-126368310D01*
X114550000Y-128400000D02*
X114550000Y-126377716D01*
X104850000Y-120300000D02*
X102674990Y-120300000D01*
X102674990Y-120300000D02*
X102500000Y-120474990D01*
X103500000Y-143500000D02*
X104500000Y-142500000D01*
X104500000Y-142500000D02*
X104500000Y-139250000D01*
X104500000Y-139250000D02*
X106000000Y-137750000D01*
X106000000Y-137750000D02*
X106000000Y-135500000D01*
X123040000Y-130500000D02*
X123040000Y-129540000D01*
X118600000Y-125100000D02*
X116250000Y-125100000D01*
X119250000Y-125750000D02*
X118600000Y-125100000D01*
X119250000Y-126250000D02*
X119250000Y-125750000D01*
X122000000Y-129000000D02*
X119250000Y-126250000D01*
X122500000Y-129000000D02*
X122000000Y-129000000D01*
X123040000Y-129540000D02*
X122500000Y-129000000D01*
X118150000Y-125900000D02*
X116250000Y-125900000D01*
X121750000Y-129500000D02*
X118150000Y-125900000D01*
X121750000Y-131500000D02*
X121750000Y-129500000D01*
X123040000Y-133040000D02*
X123040000Y-132790000D01*
X123040000Y-132790000D02*
X121750000Y-131500000D01*
X120500000Y-130500000D02*
X120500000Y-129500000D01*
X117700000Y-126700000D02*
X116250000Y-126700000D01*
X120500000Y-129500000D02*
X117700000Y-126700000D01*
X111766000Y-96000000D02*
X111437899Y-96328101D01*
X112500000Y-95266000D02*
X111766000Y-96000000D01*
X112100000Y-96000000D02*
X112750000Y-95350000D01*
X111766000Y-96000000D02*
X112100000Y-96000000D01*
X112750000Y-95350000D02*
X112750000Y-94250000D01*
X120750000Y-118500000D02*
X119450001Y-119799999D01*
X119450001Y-119799999D02*
X119450001Y-124310001D01*
X119450001Y-124310001D02*
X119385001Y-124375001D01*
X119385001Y-124375001D02*
X117325001Y-124375001D01*
X117325001Y-124375001D02*
X117250000Y-124300000D01*
X117250000Y-124300000D02*
X116250000Y-124300000D01*
X118500000Y-110500000D02*
X122500000Y-110500000D01*
X122500000Y-110500000D02*
X125000000Y-113000000D01*
X112500000Y-94000000D02*
X112500000Y-95266000D01*
X111437899Y-96328101D02*
X111437899Y-106687899D01*
X111437899Y-106687899D02*
X113000000Y-108250000D01*
X108150000Y-115150000D02*
X108000000Y-115000000D01*
X108150000Y-117000000D02*
X108150000Y-115150000D01*
X110000000Y-100000000D02*
X106000000Y-96000000D01*
X110000000Y-100500000D02*
X110000000Y-100000000D01*
D34*
G36*
X101053150Y-76350840D02*
X101097428Y-76586157D01*
X101236500Y-76802281D01*
X101448700Y-76947271D01*
X101700590Y-76998280D01*
X103699570Y-76998280D01*
X103934887Y-76954002D01*
X104151011Y-76814930D01*
X104296001Y-76602730D01*
X104347010Y-76350840D01*
X104347010Y-76085000D01*
X123682099Y-76085000D01*
X123553569Y-76273110D01*
X123502560Y-76525000D01*
X123502560Y-76617638D01*
X122871399Y-77248799D01*
X122706652Y-77495361D01*
X122648800Y-77786200D01*
X122648800Y-80400227D01*
X122402960Y-80501806D01*
X121902364Y-81001529D01*
X121631109Y-81654782D01*
X121630492Y-82362114D01*
X121900606Y-83015840D01*
X121948615Y-83063933D01*
X121844533Y-83063842D01*
X121298205Y-83289580D01*
X120879849Y-83707206D01*
X120653158Y-84253139D01*
X120652642Y-84844267D01*
X120878380Y-85390595D01*
X121296006Y-85808951D01*
X121841939Y-86035642D01*
X122433067Y-86036158D01*
X122979395Y-85810420D01*
X123397751Y-85392794D01*
X123624442Y-84846861D01*
X123624958Y-84255733D01*
X123431703Y-83788021D01*
X123760914Y-83788308D01*
X124414640Y-83518194D01*
X124915236Y-83018471D01*
X125186491Y-82365218D01*
X125187108Y-81657886D01*
X124916994Y-81004160D01*
X124417271Y-80503564D01*
X124168800Y-80400390D01*
X124168800Y-78101002D01*
X124647362Y-77622440D01*
X124740000Y-77622440D01*
X124975317Y-77578162D01*
X125191441Y-77439090D01*
X125336431Y-77226890D01*
X125387440Y-76975000D01*
X125387440Y-76525000D01*
X125343162Y-76289683D01*
X125211452Y-76085000D01*
X125792099Y-76085000D01*
X125663569Y-76273110D01*
X125612560Y-76525000D01*
X125612560Y-76975000D01*
X125656838Y-77210317D01*
X125795000Y-77425027D01*
X125795000Y-79805000D01*
X125852852Y-80095839D01*
X126017599Y-80342401D01*
X127596627Y-81921429D01*
X126698174Y-81920645D01*
X125731593Y-82320028D01*
X124991427Y-83058904D01*
X124590358Y-84024785D01*
X124589445Y-85070626D01*
X124988828Y-86037207D01*
X125727704Y-86777373D01*
X126693585Y-87178442D01*
X127739426Y-87179355D01*
X128706007Y-86779972D01*
X129446173Y-86041096D01*
X129740000Y-85333482D01*
X129740000Y-87750000D01*
X129797852Y-88040839D01*
X129962599Y-88287401D01*
X135795000Y-94119802D01*
X135795000Y-95080754D01*
X135663569Y-95273110D01*
X135612560Y-95525000D01*
X135612560Y-95975000D01*
X135656838Y-96210317D01*
X135795000Y-96425027D01*
X135795000Y-99305000D01*
X135852852Y-99595839D01*
X136017599Y-99842401D01*
X137146649Y-100971451D01*
X136223174Y-100970645D01*
X135256593Y-101370028D01*
X134516427Y-102108904D01*
X134115358Y-103074785D01*
X134114445Y-104120626D01*
X134513828Y-105087207D01*
X135252704Y-105827373D01*
X136218585Y-106228442D01*
X137264426Y-106229355D01*
X138231007Y-105829972D01*
X138971173Y-105091096D01*
X139240000Y-104443689D01*
X139240000Y-111750000D01*
X139297852Y-112040839D01*
X139462599Y-112287401D01*
X139795000Y-112619802D01*
X139795000Y-113460198D01*
X139547401Y-113212599D01*
X139300839Y-113047852D01*
X139010000Y-112990000D01*
X131562463Y-112990000D01*
X131530327Y-112957808D01*
X131186799Y-112815162D01*
X130910000Y-112814921D01*
X130910000Y-104895905D01*
X131366939Y-105085642D01*
X131958067Y-105086158D01*
X132504395Y-104860420D01*
X132922751Y-104442794D01*
X133149442Y-103896861D01*
X133149958Y-103305733D01*
X132956703Y-102838021D01*
X133285914Y-102838308D01*
X133939640Y-102568194D01*
X134440236Y-102068471D01*
X134711491Y-101415218D01*
X134712108Y-100707886D01*
X134441994Y-100054160D01*
X133942271Y-99553564D01*
X133693800Y-99450390D01*
X133693800Y-97576002D01*
X134647362Y-96622440D01*
X134740000Y-96622440D01*
X134975317Y-96578162D01*
X135191441Y-96439090D01*
X135336431Y-96226890D01*
X135387440Y-95975000D01*
X135387440Y-95525000D01*
X135343162Y-95289683D01*
X135204090Y-95073559D01*
X134991890Y-94928569D01*
X134740000Y-94877560D01*
X134150000Y-94877560D01*
X133914683Y-94921838D01*
X133698559Y-95060910D01*
X133553569Y-95273110D01*
X133502560Y-95525000D01*
X133502560Y-95617638D01*
X132396399Y-96723799D01*
X132231652Y-96970361D01*
X132173800Y-97261200D01*
X132173800Y-99450227D01*
X131927960Y-99551806D01*
X131427364Y-100051529D01*
X131156109Y-100704782D01*
X131155492Y-101412114D01*
X131425606Y-102065840D01*
X131473615Y-102113933D01*
X131369533Y-102113842D01*
X130823205Y-102339580D01*
X130404849Y-102757206D01*
X130310126Y-102985324D01*
X122537401Y-95212599D01*
X122290839Y-95047852D01*
X122000000Y-94990000D01*
X118315000Y-94990000D01*
X118315000Y-93305000D01*
X118257148Y-93014161D01*
X118092401Y-92767599D01*
X116842401Y-91517599D01*
X116595839Y-91352852D01*
X116305000Y-91295000D01*
X113419246Y-91295000D01*
X113226890Y-91163569D01*
X112975000Y-91112560D01*
X112525000Y-91112560D01*
X112289683Y-91156838D01*
X112073559Y-91295910D01*
X111928569Y-91508110D01*
X111877560Y-91760000D01*
X111877560Y-92350000D01*
X111921838Y-92585317D01*
X112029456Y-92752560D01*
X111900000Y-92752560D01*
X111664683Y-92796838D01*
X111448559Y-92935910D01*
X111303569Y-93148110D01*
X111289914Y-93215541D01*
X111260054Y-93170853D01*
X110778285Y-92848946D01*
X110210000Y-92735907D01*
X109641715Y-92848946D01*
X109159946Y-93170853D01*
X108838039Y-93652622D01*
X108725000Y-94220907D01*
X108725000Y-94279093D01*
X108838039Y-94847378D01*
X109159946Y-95329147D01*
X109641715Y-95651054D01*
X110210000Y-95764093D01*
X110778285Y-95651054D01*
X111260054Y-95329147D01*
X111287850Y-95287548D01*
X111296838Y-95335317D01*
X111319955Y-95371243D01*
X110900498Y-95790700D01*
X110735751Y-96037262D01*
X110677899Y-96328101D01*
X110677899Y-98471623D01*
X110597276Y-98390859D01*
X110253748Y-98248213D01*
X110206872Y-98248172D01*
X104221299Y-92262599D01*
X103974737Y-92097852D01*
X103683898Y-92040000D01*
X100217334Y-92040000D01*
X100203162Y-91964683D01*
X100064090Y-91748559D01*
X99994289Y-91700866D01*
X100051441Y-91664090D01*
X100196431Y-91451890D01*
X100247440Y-91200000D01*
X100247440Y-90000000D01*
X100244075Y-89982114D01*
X103850492Y-89982114D01*
X104120606Y-90635840D01*
X104620329Y-91136436D01*
X105273582Y-91407691D01*
X105980914Y-91408308D01*
X106634640Y-91138194D01*
X107135236Y-90638471D01*
X107406491Y-89985218D01*
X107407108Y-89277886D01*
X107136994Y-88624160D01*
X106637271Y-88123564D01*
X105984018Y-87852309D01*
X105276686Y-87851692D01*
X104622960Y-88121806D01*
X104122364Y-88621529D01*
X103851109Y-89274782D01*
X103850492Y-89982114D01*
X100244075Y-89982114D01*
X100203162Y-89764683D01*
X100064090Y-89548559D01*
X99910000Y-89443274D01*
X99910000Y-88400000D01*
X99898232Y-88340840D01*
X99852148Y-88109160D01*
X99687401Y-87862599D01*
X99266916Y-87442114D01*
X110200492Y-87442114D01*
X110470606Y-88095840D01*
X110970329Y-88596436D01*
X111623582Y-88867691D01*
X111793036Y-88867839D01*
X111990000Y-89064803D01*
X111990000Y-89308203D01*
X111928569Y-89398110D01*
X111877560Y-89650000D01*
X111877560Y-90240000D01*
X111921838Y-90475317D01*
X112060910Y-90691441D01*
X112273110Y-90836431D01*
X112525000Y-90887440D01*
X112975000Y-90887440D01*
X113210317Y-90843162D01*
X113426441Y-90704090D01*
X113571431Y-90491890D01*
X113622440Y-90240000D01*
X113622440Y-89650000D01*
X113578162Y-89414683D01*
X113510000Y-89308756D01*
X113510000Y-88750000D01*
X113452148Y-88459161D01*
X113325514Y-88269639D01*
X113320815Y-88262606D01*
X113485236Y-88098471D01*
X113756491Y-87445218D01*
X113757108Y-86737886D01*
X113486994Y-86084160D01*
X113438985Y-86036067D01*
X113543067Y-86036158D01*
X114089395Y-85810420D01*
X114507751Y-85392794D01*
X114734442Y-84846861D01*
X114734958Y-84255733D01*
X114509220Y-83709405D01*
X114091594Y-83291049D01*
X113545661Y-83064358D01*
X112954533Y-83063842D01*
X112408205Y-83289580D01*
X111989849Y-83707206D01*
X111763158Y-84253139D01*
X111762642Y-84844267D01*
X111955897Y-85311979D01*
X111626686Y-85311692D01*
X110972960Y-85581806D01*
X110472364Y-86081529D01*
X110201109Y-86734782D01*
X110200492Y-87442114D01*
X99266916Y-87442114D01*
X99010000Y-87185198D01*
X99010000Y-84844267D01*
X101602642Y-84844267D01*
X101828380Y-85390595D01*
X102246006Y-85808951D01*
X102791939Y-86035642D01*
X103383067Y-86036158D01*
X103929395Y-85810420D01*
X104347751Y-85392794D01*
X104481526Y-85070626D01*
X105539445Y-85070626D01*
X105938828Y-86037207D01*
X106677704Y-86777373D01*
X107643585Y-87178442D01*
X108689426Y-87179355D01*
X109656007Y-86779972D01*
X110396173Y-86041096D01*
X110797242Y-85075215D01*
X110798155Y-84029374D01*
X110398772Y-83062793D01*
X109659896Y-82322627D01*
X108694015Y-81921558D01*
X107648174Y-81920645D01*
X106681593Y-82320028D01*
X105941427Y-83058904D01*
X105540358Y-84024785D01*
X105539445Y-85070626D01*
X104481526Y-85070626D01*
X104574442Y-84846861D01*
X104574958Y-84255733D01*
X104349220Y-83709405D01*
X103931594Y-83291049D01*
X103385661Y-83064358D01*
X102794533Y-83063842D01*
X102248205Y-83289580D01*
X101829849Y-83707206D01*
X101603158Y-84253139D01*
X101602642Y-84844267D01*
X99010000Y-84844267D01*
X99010000Y-82497380D01*
X99300290Y-82497380D01*
X99440184Y-82471057D01*
X99473700Y-82484940D01*
X99566355Y-82484940D01*
X99711155Y-82340140D01*
X99751731Y-82314030D01*
X99896721Y-82101830D01*
X99947730Y-81849940D01*
X99947730Y-80826320D01*
X99975295Y-80826320D01*
X99975295Y-82326190D01*
X100134045Y-82484940D01*
X100226700Y-82484940D01*
X100460089Y-82388267D01*
X100638717Y-82209638D01*
X100735390Y-81976249D01*
X100735390Y-80985070D01*
X100576640Y-80826320D01*
X99975295Y-80826320D01*
X99947730Y-80826320D01*
X99947730Y-80552320D01*
X99975295Y-80552320D01*
X99975295Y-80572320D01*
X100576640Y-80572320D01*
X100735390Y-80413570D01*
X100735390Y-79422391D01*
X100705645Y-79350580D01*
X101053150Y-79350580D01*
X101053150Y-81849940D01*
X101097428Y-82085257D01*
X101236500Y-82301381D01*
X101448700Y-82446371D01*
X101700590Y-82497380D01*
X103699570Y-82497380D01*
X103934887Y-82453102D01*
X104151011Y-82314030D01*
X104296001Y-82101830D01*
X104347010Y-81849940D01*
X104347010Y-79350580D01*
X104302732Y-79115263D01*
X104163660Y-78899139D01*
X103951460Y-78754149D01*
X103699570Y-78703140D01*
X101700590Y-78703140D01*
X101465273Y-78747418D01*
X101249149Y-78886490D01*
X101104159Y-79098690D01*
X101053150Y-79350580D01*
X100705645Y-79350580D01*
X100638717Y-79189002D01*
X100635358Y-79185643D01*
X100664430Y-79185668D01*
X101063203Y-79020898D01*
X101368566Y-78716067D01*
X101534031Y-78317583D01*
X101534408Y-77886110D01*
X101369638Y-77487337D01*
X101064807Y-77181974D01*
X100666323Y-77016509D01*
X100234850Y-77016132D01*
X99836077Y-77180902D01*
X99530714Y-77485733D01*
X99365249Y-77884217D01*
X99364872Y-78315690D01*
X99529642Y-78714463D01*
X99728532Y-78913700D01*
X99723198Y-78913700D01*
X99723198Y-79069121D01*
X99718707Y-79066052D01*
X99566355Y-78913700D01*
X99473700Y-78913700D01*
X99436931Y-78928930D01*
X99300290Y-78901260D01*
X98799910Y-78901260D01*
X98644548Y-78930493D01*
X98500190Y-78901260D01*
X97999810Y-78901260D01*
X97844448Y-78930493D01*
X97700090Y-78901260D01*
X97199710Y-78901260D01*
X97044348Y-78930493D01*
X96899990Y-78901260D01*
X96783770Y-78901260D01*
X96969286Y-78716067D01*
X97134751Y-78317583D01*
X97135128Y-77886110D01*
X96970358Y-77487337D01*
X96665527Y-77181974D01*
X96267043Y-77016509D01*
X95835570Y-77016132D01*
X95436797Y-77180902D01*
X95131434Y-77485733D01*
X94965969Y-77884217D01*
X94965592Y-78315690D01*
X95130362Y-78714463D01*
X95435193Y-79019826D01*
X95833677Y-79185291D01*
X95879349Y-79185331D01*
X95803179Y-79296810D01*
X95752170Y-79548700D01*
X95752170Y-81849940D01*
X95796448Y-82085257D01*
X95889800Y-82230330D01*
X95889800Y-86185198D01*
X94706558Y-87368440D01*
X94707108Y-86737886D01*
X94436994Y-86084160D01*
X94388985Y-86036067D01*
X94493067Y-86036158D01*
X95039395Y-85810420D01*
X95457751Y-85392794D01*
X95684442Y-84846861D01*
X95684958Y-84255733D01*
X95459220Y-83709405D01*
X95041594Y-83291049D01*
X94495661Y-83064358D01*
X93904533Y-83063842D01*
X93358205Y-83289580D01*
X92939849Y-83707206D01*
X92713158Y-84253139D01*
X92712642Y-84844267D01*
X92905897Y-85311979D01*
X92576686Y-85311692D01*
X91922960Y-85581806D01*
X91422364Y-86081529D01*
X91151109Y-86734782D01*
X91150492Y-87442114D01*
X91420606Y-88095840D01*
X91920329Y-88596436D01*
X92240000Y-88729175D01*
X92240000Y-89558203D01*
X92178569Y-89648110D01*
X92127560Y-89900000D01*
X92127560Y-90490000D01*
X92171838Y-90725317D01*
X92310910Y-90941441D01*
X92523110Y-91086431D01*
X92775000Y-91137440D01*
X93225000Y-91137440D01*
X93460317Y-91093162D01*
X93676441Y-90954090D01*
X93821431Y-90741890D01*
X93872440Y-90490000D01*
X93872440Y-89900000D01*
X93828162Y-89664683D01*
X93760000Y-89558756D01*
X93760000Y-88670354D01*
X93934640Y-88598194D01*
X94193299Y-88339986D01*
X94193299Y-93918604D01*
X94092401Y-93767599D01*
X93760000Y-93435198D01*
X93760000Y-92941797D01*
X93821431Y-92851890D01*
X93872440Y-92600000D01*
X93872440Y-92010000D01*
X93828162Y-91774683D01*
X93689090Y-91558559D01*
X93476890Y-91413569D01*
X93225000Y-91362560D01*
X92775000Y-91362560D01*
X92539683Y-91406838D01*
X92323559Y-91545910D01*
X92178569Y-91758110D01*
X92127560Y-92010000D01*
X92127560Y-92600000D01*
X92171838Y-92835317D01*
X92240000Y-92941244D01*
X92240000Y-93750000D01*
X92297852Y-94040839D01*
X92462599Y-94287401D01*
X92795000Y-94619802D01*
X92795000Y-95080754D01*
X92663569Y-95273110D01*
X92612560Y-95525000D01*
X92612560Y-95975000D01*
X92656838Y-96210317D01*
X92795000Y-96425027D01*
X92795000Y-99780198D01*
X91849593Y-100725605D01*
X91849608Y-100707886D01*
X91579494Y-100054160D01*
X91079771Y-99553564D01*
X90831300Y-99450390D01*
X90831300Y-97438502D01*
X91647362Y-96622440D01*
X91740000Y-96622440D01*
X91975317Y-96578162D01*
X92191441Y-96439090D01*
X92336431Y-96226890D01*
X92387440Y-95975000D01*
X92387440Y-95525000D01*
X92343162Y-95289683D01*
X92204090Y-95073559D01*
X91991890Y-94928569D01*
X91740000Y-94877560D01*
X91150000Y-94877560D01*
X90914683Y-94921838D01*
X90698559Y-95060910D01*
X90553569Y-95273110D01*
X90502560Y-95525000D01*
X90502560Y-95617638D01*
X89533899Y-96586299D01*
X89369152Y-96832861D01*
X89311300Y-97123700D01*
X89311300Y-99450227D01*
X89065460Y-99551806D01*
X88564864Y-100051529D01*
X88293609Y-100704782D01*
X88292992Y-101412114D01*
X88563106Y-102065840D01*
X88611115Y-102113933D01*
X88507033Y-102113842D01*
X87960705Y-102339580D01*
X87542349Y-102757206D01*
X87315658Y-103303139D01*
X87315142Y-103894267D01*
X87540880Y-104440595D01*
X87958506Y-104858951D01*
X88493923Y-105081275D01*
X87412599Y-106162599D01*
X87247852Y-106409161D01*
X87190000Y-106700000D01*
X87190000Y-122985198D01*
X87103690Y-123071508D01*
X87103690Y-122723260D01*
X87007017Y-122489871D01*
X86828388Y-122311243D01*
X86594999Y-122214570D01*
X85955610Y-122214570D01*
X85796860Y-122373320D01*
X85796860Y-123623000D01*
X85816860Y-123623000D01*
X85816860Y-123877000D01*
X85796860Y-123877000D01*
X85796860Y-123897000D01*
X85542860Y-123897000D01*
X85542860Y-123877000D01*
X85522860Y-123877000D01*
X85522860Y-123623000D01*
X85542860Y-123623000D01*
X85542860Y-122373320D01*
X85384110Y-122214570D01*
X84744721Y-122214570D01*
X84511332Y-122311243D01*
X84332703Y-122489871D01*
X84247454Y-122695681D01*
X84232132Y-122614253D01*
X84093060Y-122398129D01*
X83880860Y-122253139D01*
X83628970Y-122202130D01*
X82031310Y-122202130D01*
X81795993Y-122246408D01*
X81579869Y-122385480D01*
X81434879Y-122597680D01*
X81383870Y-122849570D01*
X81383870Y-124650430D01*
X81428148Y-124885747D01*
X81567220Y-125101871D01*
X81581150Y-125111389D01*
X81453569Y-125298110D01*
X81402560Y-125550000D01*
X81402560Y-126450000D01*
X81446838Y-126685317D01*
X81585910Y-126901441D01*
X81798110Y-127046431D01*
X82050000Y-127097440D01*
X83250000Y-127097440D01*
X83485317Y-127053162D01*
X83701441Y-126914090D01*
X83749134Y-126844289D01*
X83785910Y-126901441D01*
X83998110Y-127046431D01*
X84250000Y-127097440D01*
X85450000Y-127097440D01*
X85685317Y-127053162D01*
X85901441Y-126914090D01*
X85981402Y-126797063D01*
X86313201Y-126934838D01*
X86390000Y-126934905D01*
X86390000Y-127155000D01*
X86447852Y-127445839D01*
X86612599Y-127692401D01*
X88077560Y-129157362D01*
X88077560Y-129250000D01*
X88121838Y-129485317D01*
X88260910Y-129701441D01*
X88473110Y-129846431D01*
X88725000Y-129897440D01*
X89175000Y-129897440D01*
X89410317Y-129853162D01*
X89625027Y-129715000D01*
X94445198Y-129715000D01*
X97607758Y-132877560D01*
X97150000Y-132877560D01*
X96914683Y-132921838D01*
X96698559Y-133060910D01*
X96553569Y-133273110D01*
X96502560Y-133525000D01*
X96502560Y-133740902D01*
X96455000Y-133980000D01*
X96455000Y-137550227D01*
X96209160Y-137651806D01*
X95708564Y-138151529D01*
X95437309Y-138804782D01*
X95436692Y-139512114D01*
X95706806Y-140165840D01*
X95754815Y-140213933D01*
X95650733Y-140213842D01*
X95104405Y-140439580D01*
X94686049Y-140857206D01*
X94459358Y-141403139D01*
X94458842Y-141994267D01*
X94684580Y-142540595D01*
X95102206Y-142958951D01*
X95648139Y-143185642D01*
X95989258Y-143185940D01*
X91462599Y-147712599D01*
X91297852Y-147959161D01*
X91240000Y-148250000D01*
X91240000Y-148390687D01*
X90578096Y-147727627D01*
X89612215Y-147326558D01*
X88566374Y-147325645D01*
X87599793Y-147725028D01*
X86859627Y-148463904D01*
X86458558Y-149429785D01*
X86457645Y-150475626D01*
X86621837Y-150873000D01*
X80735000Y-150873000D01*
X80735000Y-135035630D01*
X84859756Y-135035630D01*
X86059710Y-134796944D01*
X86966963Y-134190737D01*
X86928376Y-134283664D01*
X86927626Y-135142567D01*
X87255622Y-135936377D01*
X87862428Y-136544244D01*
X88655664Y-136873624D01*
X89514567Y-136874374D01*
X90308377Y-136546378D01*
X90916244Y-135939572D01*
X91245624Y-135146336D01*
X91246374Y-134287433D01*
X90918378Y-133493623D01*
X90311572Y-132885756D01*
X89518336Y-132556376D01*
X88659433Y-132555626D01*
X87865623Y-132883622D01*
X87783406Y-132965696D01*
X87995386Y-131900000D01*
X87756700Y-130700046D01*
X87076981Y-129682775D01*
X86059710Y-129003056D01*
X84859756Y-128764370D01*
X80735000Y-128764370D01*
X80735000Y-89982114D01*
X84800492Y-89982114D01*
X85070606Y-90635840D01*
X85570329Y-91136436D01*
X86223582Y-91407691D01*
X86930914Y-91408308D01*
X87584640Y-91138194D01*
X88085236Y-90638471D01*
X88356491Y-89985218D01*
X88357108Y-89277886D01*
X88086994Y-88624160D01*
X87587271Y-88123564D01*
X86934018Y-87852309D01*
X86226686Y-87851692D01*
X85572960Y-88121806D01*
X85072364Y-88621529D01*
X84801109Y-89274782D01*
X84800492Y-89982114D01*
X80735000Y-89982114D01*
X80735000Y-84844267D01*
X82552642Y-84844267D01*
X82778380Y-85390595D01*
X83196006Y-85808951D01*
X83741939Y-86035642D01*
X84333067Y-86036158D01*
X84879395Y-85810420D01*
X85297751Y-85392794D01*
X85431526Y-85070626D01*
X86489445Y-85070626D01*
X86888828Y-86037207D01*
X87627704Y-86777373D01*
X88593585Y-87178442D01*
X89639426Y-87179355D01*
X90606007Y-86779972D01*
X91346173Y-86041096D01*
X91747242Y-85075215D01*
X91748155Y-84029374D01*
X91348772Y-83062793D01*
X90609896Y-82322627D01*
X89644015Y-81921558D01*
X88598174Y-81920645D01*
X87631593Y-82320028D01*
X86891427Y-83058904D01*
X86490358Y-84024785D01*
X86489445Y-85070626D01*
X85431526Y-85070626D01*
X85524442Y-84846861D01*
X85524958Y-84255733D01*
X85299220Y-83709405D01*
X84881594Y-83291049D01*
X84335661Y-83064358D01*
X83744533Y-83063842D01*
X83198205Y-83289580D01*
X82779849Y-83707206D01*
X82553158Y-84253139D01*
X82552642Y-84844267D01*
X80735000Y-84844267D01*
X80735000Y-79350580D01*
X92152990Y-79350580D01*
X92152990Y-81849940D01*
X92197268Y-82085257D01*
X92336340Y-82301381D01*
X92548540Y-82446371D01*
X92800430Y-82497380D01*
X94799410Y-82497380D01*
X95034727Y-82453102D01*
X95250851Y-82314030D01*
X95395841Y-82101830D01*
X95446850Y-81849940D01*
X95446850Y-79350580D01*
X95402572Y-79115263D01*
X95263500Y-78899139D01*
X95051300Y-78754149D01*
X94799410Y-78703140D01*
X92800430Y-78703140D01*
X92565113Y-78747418D01*
X92348989Y-78886490D01*
X92203999Y-79098690D01*
X92152990Y-79350580D01*
X80735000Y-79350580D01*
X80735000Y-78500000D01*
X80706764Y-78358051D01*
X80873617Y-77519223D01*
X81372537Y-76772537D01*
X82119225Y-76273617D01*
X83067467Y-76085000D01*
X92152990Y-76085000D01*
X92152990Y-76350840D01*
X92197268Y-76586157D01*
X92336340Y-76802281D01*
X92548540Y-76947271D01*
X92800430Y-76998280D01*
X94799410Y-76998280D01*
X95034727Y-76954002D01*
X95250851Y-76814930D01*
X95395841Y-76602730D01*
X95446850Y-76350840D01*
X95446850Y-75127000D01*
X101053150Y-75127000D01*
X101053150Y-76350840D01*
X101053150Y-76350840D01*
G37*
X101053150Y-76350840D02*
X101097428Y-76586157D01*
X101236500Y-76802281D01*
X101448700Y-76947271D01*
X101700590Y-76998280D01*
X103699570Y-76998280D01*
X103934887Y-76954002D01*
X104151011Y-76814930D01*
X104296001Y-76602730D01*
X104347010Y-76350840D01*
X104347010Y-76085000D01*
X123682099Y-76085000D01*
X123553569Y-76273110D01*
X123502560Y-76525000D01*
X123502560Y-76617638D01*
X122871399Y-77248799D01*
X122706652Y-77495361D01*
X122648800Y-77786200D01*
X122648800Y-80400227D01*
X122402960Y-80501806D01*
X121902364Y-81001529D01*
X121631109Y-81654782D01*
X121630492Y-82362114D01*
X121900606Y-83015840D01*
X121948615Y-83063933D01*
X121844533Y-83063842D01*
X121298205Y-83289580D01*
X120879849Y-83707206D01*
X120653158Y-84253139D01*
X120652642Y-84844267D01*
X120878380Y-85390595D01*
X121296006Y-85808951D01*
X121841939Y-86035642D01*
X122433067Y-86036158D01*
X122979395Y-85810420D01*
X123397751Y-85392794D01*
X123624442Y-84846861D01*
X123624958Y-84255733D01*
X123431703Y-83788021D01*
X123760914Y-83788308D01*
X124414640Y-83518194D01*
X124915236Y-83018471D01*
X125186491Y-82365218D01*
X125187108Y-81657886D01*
X124916994Y-81004160D01*
X124417271Y-80503564D01*
X124168800Y-80400390D01*
X124168800Y-78101002D01*
X124647362Y-77622440D01*
X124740000Y-77622440D01*
X124975317Y-77578162D01*
X125191441Y-77439090D01*
X125336431Y-77226890D01*
X125387440Y-76975000D01*
X125387440Y-76525000D01*
X125343162Y-76289683D01*
X125211452Y-76085000D01*
X125792099Y-76085000D01*
X125663569Y-76273110D01*
X125612560Y-76525000D01*
X125612560Y-76975000D01*
X125656838Y-77210317D01*
X125795000Y-77425027D01*
X125795000Y-79805000D01*
X125852852Y-80095839D01*
X126017599Y-80342401D01*
X127596627Y-81921429D01*
X126698174Y-81920645D01*
X125731593Y-82320028D01*
X124991427Y-83058904D01*
X124590358Y-84024785D01*
X124589445Y-85070626D01*
X124988828Y-86037207D01*
X125727704Y-86777373D01*
X126693585Y-87178442D01*
X127739426Y-87179355D01*
X128706007Y-86779972D01*
X129446173Y-86041096D01*
X129740000Y-85333482D01*
X129740000Y-87750000D01*
X129797852Y-88040839D01*
X129962599Y-88287401D01*
X135795000Y-94119802D01*
X135795000Y-95080754D01*
X135663569Y-95273110D01*
X135612560Y-95525000D01*
X135612560Y-95975000D01*
X135656838Y-96210317D01*
X135795000Y-96425027D01*
X135795000Y-99305000D01*
X135852852Y-99595839D01*
X136017599Y-99842401D01*
X137146649Y-100971451D01*
X136223174Y-100970645D01*
X135256593Y-101370028D01*
X134516427Y-102108904D01*
X134115358Y-103074785D01*
X134114445Y-104120626D01*
X134513828Y-105087207D01*
X135252704Y-105827373D01*
X136218585Y-106228442D01*
X137264426Y-106229355D01*
X138231007Y-105829972D01*
X138971173Y-105091096D01*
X139240000Y-104443689D01*
X139240000Y-111750000D01*
X139297852Y-112040839D01*
X139462599Y-112287401D01*
X139795000Y-112619802D01*
X139795000Y-113460198D01*
X139547401Y-113212599D01*
X139300839Y-113047852D01*
X139010000Y-112990000D01*
X131562463Y-112990000D01*
X131530327Y-112957808D01*
X131186799Y-112815162D01*
X130910000Y-112814921D01*
X130910000Y-104895905D01*
X131366939Y-105085642D01*
X131958067Y-105086158D01*
X132504395Y-104860420D01*
X132922751Y-104442794D01*
X133149442Y-103896861D01*
X133149958Y-103305733D01*
X132956703Y-102838021D01*
X133285914Y-102838308D01*
X133939640Y-102568194D01*
X134440236Y-102068471D01*
X134711491Y-101415218D01*
X134712108Y-100707886D01*
X134441994Y-100054160D01*
X133942271Y-99553564D01*
X133693800Y-99450390D01*
X133693800Y-97576002D01*
X134647362Y-96622440D01*
X134740000Y-96622440D01*
X134975317Y-96578162D01*
X135191441Y-96439090D01*
X135336431Y-96226890D01*
X135387440Y-95975000D01*
X135387440Y-95525000D01*
X135343162Y-95289683D01*
X135204090Y-95073559D01*
X134991890Y-94928569D01*
X134740000Y-94877560D01*
X134150000Y-94877560D01*
X133914683Y-94921838D01*
X133698559Y-95060910D01*
X133553569Y-95273110D01*
X133502560Y-95525000D01*
X133502560Y-95617638D01*
X132396399Y-96723799D01*
X132231652Y-96970361D01*
X132173800Y-97261200D01*
X132173800Y-99450227D01*
X131927960Y-99551806D01*
X131427364Y-100051529D01*
X131156109Y-100704782D01*
X131155492Y-101412114D01*
X131425606Y-102065840D01*
X131473615Y-102113933D01*
X131369533Y-102113842D01*
X130823205Y-102339580D01*
X130404849Y-102757206D01*
X130310126Y-102985324D01*
X122537401Y-95212599D01*
X122290839Y-95047852D01*
X122000000Y-94990000D01*
X118315000Y-94990000D01*
X118315000Y-93305000D01*
X118257148Y-93014161D01*
X118092401Y-92767599D01*
X116842401Y-91517599D01*
X116595839Y-91352852D01*
X116305000Y-91295000D01*
X113419246Y-91295000D01*
X113226890Y-91163569D01*
X112975000Y-91112560D01*
X112525000Y-91112560D01*
X112289683Y-91156838D01*
X112073559Y-91295910D01*
X111928569Y-91508110D01*
X111877560Y-91760000D01*
X111877560Y-92350000D01*
X111921838Y-92585317D01*
X112029456Y-92752560D01*
X111900000Y-92752560D01*
X111664683Y-92796838D01*
X111448559Y-92935910D01*
X111303569Y-93148110D01*
X111289914Y-93215541D01*
X111260054Y-93170853D01*
X110778285Y-92848946D01*
X110210000Y-92735907D01*
X109641715Y-92848946D01*
X109159946Y-93170853D01*
X108838039Y-93652622D01*
X108725000Y-94220907D01*
X108725000Y-94279093D01*
X108838039Y-94847378D01*
X109159946Y-95329147D01*
X109641715Y-95651054D01*
X110210000Y-95764093D01*
X110778285Y-95651054D01*
X111260054Y-95329147D01*
X111287850Y-95287548D01*
X111296838Y-95335317D01*
X111319955Y-95371243D01*
X110900498Y-95790700D01*
X110735751Y-96037262D01*
X110677899Y-96328101D01*
X110677899Y-98471623D01*
X110597276Y-98390859D01*
X110253748Y-98248213D01*
X110206872Y-98248172D01*
X104221299Y-92262599D01*
X103974737Y-92097852D01*
X103683898Y-92040000D01*
X100217334Y-92040000D01*
X100203162Y-91964683D01*
X100064090Y-91748559D01*
X99994289Y-91700866D01*
X100051441Y-91664090D01*
X100196431Y-91451890D01*
X100247440Y-91200000D01*
X100247440Y-90000000D01*
X100244075Y-89982114D01*
X103850492Y-89982114D01*
X104120606Y-90635840D01*
X104620329Y-91136436D01*
X105273582Y-91407691D01*
X105980914Y-91408308D01*
X106634640Y-91138194D01*
X107135236Y-90638471D01*
X107406491Y-89985218D01*
X107407108Y-89277886D01*
X107136994Y-88624160D01*
X106637271Y-88123564D01*
X105984018Y-87852309D01*
X105276686Y-87851692D01*
X104622960Y-88121806D01*
X104122364Y-88621529D01*
X103851109Y-89274782D01*
X103850492Y-89982114D01*
X100244075Y-89982114D01*
X100203162Y-89764683D01*
X100064090Y-89548559D01*
X99910000Y-89443274D01*
X99910000Y-88400000D01*
X99898232Y-88340840D01*
X99852148Y-88109160D01*
X99687401Y-87862599D01*
X99266916Y-87442114D01*
X110200492Y-87442114D01*
X110470606Y-88095840D01*
X110970329Y-88596436D01*
X111623582Y-88867691D01*
X111793036Y-88867839D01*
X111990000Y-89064803D01*
X111990000Y-89308203D01*
X111928569Y-89398110D01*
X111877560Y-89650000D01*
X111877560Y-90240000D01*
X111921838Y-90475317D01*
X112060910Y-90691441D01*
X112273110Y-90836431D01*
X112525000Y-90887440D01*
X112975000Y-90887440D01*
X113210317Y-90843162D01*
X113426441Y-90704090D01*
X113571431Y-90491890D01*
X113622440Y-90240000D01*
X113622440Y-89650000D01*
X113578162Y-89414683D01*
X113510000Y-89308756D01*
X113510000Y-88750000D01*
X113452148Y-88459161D01*
X113325514Y-88269639D01*
X113320815Y-88262606D01*
X113485236Y-88098471D01*
X113756491Y-87445218D01*
X113757108Y-86737886D01*
X113486994Y-86084160D01*
X113438985Y-86036067D01*
X113543067Y-86036158D01*
X114089395Y-85810420D01*
X114507751Y-85392794D01*
X114734442Y-84846861D01*
X114734958Y-84255733D01*
X114509220Y-83709405D01*
X114091594Y-83291049D01*
X113545661Y-83064358D01*
X112954533Y-83063842D01*
X112408205Y-83289580D01*
X111989849Y-83707206D01*
X111763158Y-84253139D01*
X111762642Y-84844267D01*
X111955897Y-85311979D01*
X111626686Y-85311692D01*
X110972960Y-85581806D01*
X110472364Y-86081529D01*
X110201109Y-86734782D01*
X110200492Y-87442114D01*
X99266916Y-87442114D01*
X99010000Y-87185198D01*
X99010000Y-84844267D01*
X101602642Y-84844267D01*
X101828380Y-85390595D01*
X102246006Y-85808951D01*
X102791939Y-86035642D01*
X103383067Y-86036158D01*
X103929395Y-85810420D01*
X104347751Y-85392794D01*
X104481526Y-85070626D01*
X105539445Y-85070626D01*
X105938828Y-86037207D01*
X106677704Y-86777373D01*
X107643585Y-87178442D01*
X108689426Y-87179355D01*
X109656007Y-86779972D01*
X110396173Y-86041096D01*
X110797242Y-85075215D01*
X110798155Y-84029374D01*
X110398772Y-83062793D01*
X109659896Y-82322627D01*
X108694015Y-81921558D01*
X107648174Y-81920645D01*
X106681593Y-82320028D01*
X105941427Y-83058904D01*
X105540358Y-84024785D01*
X105539445Y-85070626D01*
X104481526Y-85070626D01*
X104574442Y-84846861D01*
X104574958Y-84255733D01*
X104349220Y-83709405D01*
X103931594Y-83291049D01*
X103385661Y-83064358D01*
X102794533Y-83063842D01*
X102248205Y-83289580D01*
X101829849Y-83707206D01*
X101603158Y-84253139D01*
X101602642Y-84844267D01*
X99010000Y-84844267D01*
X99010000Y-82497380D01*
X99300290Y-82497380D01*
X99440184Y-82471057D01*
X99473700Y-82484940D01*
X99566355Y-82484940D01*
X99711155Y-82340140D01*
X99751731Y-82314030D01*
X99896721Y-82101830D01*
X99947730Y-81849940D01*
X99947730Y-80826320D01*
X99975295Y-80826320D01*
X99975295Y-82326190D01*
X100134045Y-82484940D01*
X100226700Y-82484940D01*
X100460089Y-82388267D01*
X100638717Y-82209638D01*
X100735390Y-81976249D01*
X100735390Y-80985070D01*
X100576640Y-80826320D01*
X99975295Y-80826320D01*
X99947730Y-80826320D01*
X99947730Y-80552320D01*
X99975295Y-80552320D01*
X99975295Y-80572320D01*
X100576640Y-80572320D01*
X100735390Y-80413570D01*
X100735390Y-79422391D01*
X100705645Y-79350580D01*
X101053150Y-79350580D01*
X101053150Y-81849940D01*
X101097428Y-82085257D01*
X101236500Y-82301381D01*
X101448700Y-82446371D01*
X101700590Y-82497380D01*
X103699570Y-82497380D01*
X103934887Y-82453102D01*
X104151011Y-82314030D01*
X104296001Y-82101830D01*
X104347010Y-81849940D01*
X104347010Y-79350580D01*
X104302732Y-79115263D01*
X104163660Y-78899139D01*
X103951460Y-78754149D01*
X103699570Y-78703140D01*
X101700590Y-78703140D01*
X101465273Y-78747418D01*
X101249149Y-78886490D01*
X101104159Y-79098690D01*
X101053150Y-79350580D01*
X100705645Y-79350580D01*
X100638717Y-79189002D01*
X100635358Y-79185643D01*
X100664430Y-79185668D01*
X101063203Y-79020898D01*
X101368566Y-78716067D01*
X101534031Y-78317583D01*
X101534408Y-77886110D01*
X101369638Y-77487337D01*
X101064807Y-77181974D01*
X100666323Y-77016509D01*
X100234850Y-77016132D01*
X99836077Y-77180902D01*
X99530714Y-77485733D01*
X99365249Y-77884217D01*
X99364872Y-78315690D01*
X99529642Y-78714463D01*
X99728532Y-78913700D01*
X99723198Y-78913700D01*
X99723198Y-79069121D01*
X99718707Y-79066052D01*
X99566355Y-78913700D01*
X99473700Y-78913700D01*
X99436931Y-78928930D01*
X99300290Y-78901260D01*
X98799910Y-78901260D01*
X98644548Y-78930493D01*
X98500190Y-78901260D01*
X97999810Y-78901260D01*
X97844448Y-78930493D01*
X97700090Y-78901260D01*
X97199710Y-78901260D01*
X97044348Y-78930493D01*
X96899990Y-78901260D01*
X96783770Y-78901260D01*
X96969286Y-78716067D01*
X97134751Y-78317583D01*
X97135128Y-77886110D01*
X96970358Y-77487337D01*
X96665527Y-77181974D01*
X96267043Y-77016509D01*
X95835570Y-77016132D01*
X95436797Y-77180902D01*
X95131434Y-77485733D01*
X94965969Y-77884217D01*
X94965592Y-78315690D01*
X95130362Y-78714463D01*
X95435193Y-79019826D01*
X95833677Y-79185291D01*
X95879349Y-79185331D01*
X95803179Y-79296810D01*
X95752170Y-79548700D01*
X95752170Y-81849940D01*
X95796448Y-82085257D01*
X95889800Y-82230330D01*
X95889800Y-86185198D01*
X94706558Y-87368440D01*
X94707108Y-86737886D01*
X94436994Y-86084160D01*
X94388985Y-86036067D01*
X94493067Y-86036158D01*
X95039395Y-85810420D01*
X95457751Y-85392794D01*
X95684442Y-84846861D01*
X95684958Y-84255733D01*
X95459220Y-83709405D01*
X95041594Y-83291049D01*
X94495661Y-83064358D01*
X93904533Y-83063842D01*
X93358205Y-83289580D01*
X92939849Y-83707206D01*
X92713158Y-84253139D01*
X92712642Y-84844267D01*
X92905897Y-85311979D01*
X92576686Y-85311692D01*
X91922960Y-85581806D01*
X91422364Y-86081529D01*
X91151109Y-86734782D01*
X91150492Y-87442114D01*
X91420606Y-88095840D01*
X91920329Y-88596436D01*
X92240000Y-88729175D01*
X92240000Y-89558203D01*
X92178569Y-89648110D01*
X92127560Y-89900000D01*
X92127560Y-90490000D01*
X92171838Y-90725317D01*
X92310910Y-90941441D01*
X92523110Y-91086431D01*
X92775000Y-91137440D01*
X93225000Y-91137440D01*
X93460317Y-91093162D01*
X93676441Y-90954090D01*
X93821431Y-90741890D01*
X93872440Y-90490000D01*
X93872440Y-89900000D01*
X93828162Y-89664683D01*
X93760000Y-89558756D01*
X93760000Y-88670354D01*
X93934640Y-88598194D01*
X94193299Y-88339986D01*
X94193299Y-93918604D01*
X94092401Y-93767599D01*
X93760000Y-93435198D01*
X93760000Y-92941797D01*
X93821431Y-92851890D01*
X93872440Y-92600000D01*
X93872440Y-92010000D01*
X93828162Y-91774683D01*
X93689090Y-91558559D01*
X93476890Y-91413569D01*
X93225000Y-91362560D01*
X92775000Y-91362560D01*
X92539683Y-91406838D01*
X92323559Y-91545910D01*
X92178569Y-91758110D01*
X92127560Y-92010000D01*
X92127560Y-92600000D01*
X92171838Y-92835317D01*
X92240000Y-92941244D01*
X92240000Y-93750000D01*
X92297852Y-94040839D01*
X92462599Y-94287401D01*
X92795000Y-94619802D01*
X92795000Y-95080754D01*
X92663569Y-95273110D01*
X92612560Y-95525000D01*
X92612560Y-95975000D01*
X92656838Y-96210317D01*
X92795000Y-96425027D01*
X92795000Y-99780198D01*
X91849593Y-100725605D01*
X91849608Y-100707886D01*
X91579494Y-100054160D01*
X91079771Y-99553564D01*
X90831300Y-99450390D01*
X90831300Y-97438502D01*
X91647362Y-96622440D01*
X91740000Y-96622440D01*
X91975317Y-96578162D01*
X92191441Y-96439090D01*
X92336431Y-96226890D01*
X92387440Y-95975000D01*
X92387440Y-95525000D01*
X92343162Y-95289683D01*
X92204090Y-95073559D01*
X91991890Y-94928569D01*
X91740000Y-94877560D01*
X91150000Y-94877560D01*
X90914683Y-94921838D01*
X90698559Y-95060910D01*
X90553569Y-95273110D01*
X90502560Y-95525000D01*
X90502560Y-95617638D01*
X89533899Y-96586299D01*
X89369152Y-96832861D01*
X89311300Y-97123700D01*
X89311300Y-99450227D01*
X89065460Y-99551806D01*
X88564864Y-100051529D01*
X88293609Y-100704782D01*
X88292992Y-101412114D01*
X88563106Y-102065840D01*
X88611115Y-102113933D01*
X88507033Y-102113842D01*
X87960705Y-102339580D01*
X87542349Y-102757206D01*
X87315658Y-103303139D01*
X87315142Y-103894267D01*
X87540880Y-104440595D01*
X87958506Y-104858951D01*
X88493923Y-105081275D01*
X87412599Y-106162599D01*
X87247852Y-106409161D01*
X87190000Y-106700000D01*
X87190000Y-122985198D01*
X87103690Y-123071508D01*
X87103690Y-122723260D01*
X87007017Y-122489871D01*
X86828388Y-122311243D01*
X86594999Y-122214570D01*
X85955610Y-122214570D01*
X85796860Y-122373320D01*
X85796860Y-123623000D01*
X85816860Y-123623000D01*
X85816860Y-123877000D01*
X85796860Y-123877000D01*
X85796860Y-123897000D01*
X85542860Y-123897000D01*
X85542860Y-123877000D01*
X85522860Y-123877000D01*
X85522860Y-123623000D01*
X85542860Y-123623000D01*
X85542860Y-122373320D01*
X85384110Y-122214570D01*
X84744721Y-122214570D01*
X84511332Y-122311243D01*
X84332703Y-122489871D01*
X84247454Y-122695681D01*
X84232132Y-122614253D01*
X84093060Y-122398129D01*
X83880860Y-122253139D01*
X83628970Y-122202130D01*
X82031310Y-122202130D01*
X81795993Y-122246408D01*
X81579869Y-122385480D01*
X81434879Y-122597680D01*
X81383870Y-122849570D01*
X81383870Y-124650430D01*
X81428148Y-124885747D01*
X81567220Y-125101871D01*
X81581150Y-125111389D01*
X81453569Y-125298110D01*
X81402560Y-125550000D01*
X81402560Y-126450000D01*
X81446838Y-126685317D01*
X81585910Y-126901441D01*
X81798110Y-127046431D01*
X82050000Y-127097440D01*
X83250000Y-127097440D01*
X83485317Y-127053162D01*
X83701441Y-126914090D01*
X83749134Y-126844289D01*
X83785910Y-126901441D01*
X83998110Y-127046431D01*
X84250000Y-127097440D01*
X85450000Y-127097440D01*
X85685317Y-127053162D01*
X85901441Y-126914090D01*
X85981402Y-126797063D01*
X86313201Y-126934838D01*
X86390000Y-126934905D01*
X86390000Y-127155000D01*
X86447852Y-127445839D01*
X86612599Y-127692401D01*
X88077560Y-129157362D01*
X88077560Y-129250000D01*
X88121838Y-129485317D01*
X88260910Y-129701441D01*
X88473110Y-129846431D01*
X88725000Y-129897440D01*
X89175000Y-129897440D01*
X89410317Y-129853162D01*
X89625027Y-129715000D01*
X94445198Y-129715000D01*
X97607758Y-132877560D01*
X97150000Y-132877560D01*
X96914683Y-132921838D01*
X96698559Y-133060910D01*
X96553569Y-133273110D01*
X96502560Y-133525000D01*
X96502560Y-133740902D01*
X96455000Y-133980000D01*
X96455000Y-137550227D01*
X96209160Y-137651806D01*
X95708564Y-138151529D01*
X95437309Y-138804782D01*
X95436692Y-139512114D01*
X95706806Y-140165840D01*
X95754815Y-140213933D01*
X95650733Y-140213842D01*
X95104405Y-140439580D01*
X94686049Y-140857206D01*
X94459358Y-141403139D01*
X94458842Y-141994267D01*
X94684580Y-142540595D01*
X95102206Y-142958951D01*
X95648139Y-143185642D01*
X95989258Y-143185940D01*
X91462599Y-147712599D01*
X91297852Y-147959161D01*
X91240000Y-148250000D01*
X91240000Y-148390687D01*
X90578096Y-147727627D01*
X89612215Y-147326558D01*
X88566374Y-147325645D01*
X87599793Y-147725028D01*
X86859627Y-148463904D01*
X86458558Y-149429785D01*
X86457645Y-150475626D01*
X86621837Y-150873000D01*
X80735000Y-150873000D01*
X80735000Y-135035630D01*
X84859756Y-135035630D01*
X86059710Y-134796944D01*
X86966963Y-134190737D01*
X86928376Y-134283664D01*
X86927626Y-135142567D01*
X87255622Y-135936377D01*
X87862428Y-136544244D01*
X88655664Y-136873624D01*
X89514567Y-136874374D01*
X90308377Y-136546378D01*
X90916244Y-135939572D01*
X91245624Y-135146336D01*
X91246374Y-134287433D01*
X90918378Y-133493623D01*
X90311572Y-132885756D01*
X89518336Y-132556376D01*
X88659433Y-132555626D01*
X87865623Y-132883622D01*
X87783406Y-132965696D01*
X87995386Y-131900000D01*
X87756700Y-130700046D01*
X87076981Y-129682775D01*
X86059710Y-129003056D01*
X84859756Y-128764370D01*
X80735000Y-128764370D01*
X80735000Y-89982114D01*
X84800492Y-89982114D01*
X85070606Y-90635840D01*
X85570329Y-91136436D01*
X86223582Y-91407691D01*
X86930914Y-91408308D01*
X87584640Y-91138194D01*
X88085236Y-90638471D01*
X88356491Y-89985218D01*
X88357108Y-89277886D01*
X88086994Y-88624160D01*
X87587271Y-88123564D01*
X86934018Y-87852309D01*
X86226686Y-87851692D01*
X85572960Y-88121806D01*
X85072364Y-88621529D01*
X84801109Y-89274782D01*
X84800492Y-89982114D01*
X80735000Y-89982114D01*
X80735000Y-84844267D01*
X82552642Y-84844267D01*
X82778380Y-85390595D01*
X83196006Y-85808951D01*
X83741939Y-86035642D01*
X84333067Y-86036158D01*
X84879395Y-85810420D01*
X85297751Y-85392794D01*
X85431526Y-85070626D01*
X86489445Y-85070626D01*
X86888828Y-86037207D01*
X87627704Y-86777373D01*
X88593585Y-87178442D01*
X89639426Y-87179355D01*
X90606007Y-86779972D01*
X91346173Y-86041096D01*
X91747242Y-85075215D01*
X91748155Y-84029374D01*
X91348772Y-83062793D01*
X90609896Y-82322627D01*
X89644015Y-81921558D01*
X88598174Y-81920645D01*
X87631593Y-82320028D01*
X86891427Y-83058904D01*
X86490358Y-84024785D01*
X86489445Y-85070626D01*
X85431526Y-85070626D01*
X85524442Y-84846861D01*
X85524958Y-84255733D01*
X85299220Y-83709405D01*
X84881594Y-83291049D01*
X84335661Y-83064358D01*
X83744533Y-83063842D01*
X83198205Y-83289580D01*
X82779849Y-83707206D01*
X82553158Y-84253139D01*
X82552642Y-84844267D01*
X80735000Y-84844267D01*
X80735000Y-79350580D01*
X92152990Y-79350580D01*
X92152990Y-81849940D01*
X92197268Y-82085257D01*
X92336340Y-82301381D01*
X92548540Y-82446371D01*
X92800430Y-82497380D01*
X94799410Y-82497380D01*
X95034727Y-82453102D01*
X95250851Y-82314030D01*
X95395841Y-82101830D01*
X95446850Y-81849940D01*
X95446850Y-79350580D01*
X95402572Y-79115263D01*
X95263500Y-78899139D01*
X95051300Y-78754149D01*
X94799410Y-78703140D01*
X92800430Y-78703140D01*
X92565113Y-78747418D01*
X92348989Y-78886490D01*
X92203999Y-79098690D01*
X92152990Y-79350580D01*
X80735000Y-79350580D01*
X80735000Y-78500000D01*
X80706764Y-78358051D01*
X80873617Y-77519223D01*
X81372537Y-76772537D01*
X82119225Y-76273617D01*
X83067467Y-76085000D01*
X92152990Y-76085000D01*
X92152990Y-76350840D01*
X92197268Y-76586157D01*
X92336340Y-76802281D01*
X92548540Y-76947271D01*
X92800430Y-76998280D01*
X94799410Y-76998280D01*
X95034727Y-76954002D01*
X95250851Y-76814930D01*
X95395841Y-76602730D01*
X95446850Y-76350840D01*
X95446850Y-75127000D01*
X101053150Y-75127000D01*
X101053150Y-76350840D01*
G36*
X137502560Y-114525000D02*
X137502560Y-114617638D01*
X137158899Y-114961299D01*
X136994152Y-115207861D01*
X136936300Y-115498700D01*
X136936300Y-118500227D01*
X136690460Y-118601806D01*
X136189864Y-119101529D01*
X135918609Y-119754782D01*
X135917992Y-120462114D01*
X136188106Y-121115840D01*
X136236115Y-121163933D01*
X136132033Y-121163842D01*
X135585705Y-121389580D01*
X135167349Y-121807206D01*
X134940658Y-122353139D01*
X134940142Y-122944267D01*
X135165880Y-123490595D01*
X135583506Y-123908951D01*
X136129439Y-124135642D01*
X136720567Y-124136158D01*
X137266895Y-123910420D01*
X137685251Y-123492794D01*
X137911942Y-122946861D01*
X137912458Y-122355733D01*
X137719203Y-121888021D01*
X138048414Y-121888308D01*
X138702140Y-121618194D01*
X139202736Y-121118471D01*
X139473991Y-120465218D01*
X139474608Y-119757886D01*
X139204494Y-119104160D01*
X138704771Y-118603564D01*
X138456300Y-118500390D01*
X138456300Y-115813502D01*
X138647362Y-115622440D01*
X138740000Y-115622440D01*
X138975317Y-115578162D01*
X139191441Y-115439090D01*
X139336431Y-115226890D01*
X139349172Y-115163974D01*
X139472599Y-115287401D01*
X139719161Y-115452148D01*
X139795000Y-115467233D01*
X139795000Y-117805000D01*
X139852852Y-118095839D01*
X140017599Y-118342401D01*
X141696463Y-120021266D01*
X140985674Y-120020645D01*
X140019093Y-120420028D01*
X139278927Y-121158904D01*
X138877858Y-122124785D01*
X138876945Y-123170626D01*
X139276328Y-124137207D01*
X140015204Y-124877373D01*
X140981085Y-125278442D01*
X142026926Y-125279355D01*
X142993507Y-124879972D01*
X143733673Y-124141096D01*
X143740000Y-124125859D01*
X143740000Y-125250000D01*
X143797852Y-125540839D01*
X143962599Y-125787401D01*
X149373000Y-131197802D01*
X149373000Y-133448258D01*
X149343162Y-133289683D01*
X149204090Y-133073559D01*
X148991890Y-132928569D01*
X148740000Y-132877560D01*
X148150000Y-132877560D01*
X147914683Y-132921838D01*
X147698559Y-133060910D01*
X147553569Y-133273110D01*
X147502560Y-133525000D01*
X147502560Y-133617638D01*
X146683899Y-134436299D01*
X146519152Y-134682861D01*
X146461300Y-134973700D01*
X146461300Y-137550227D01*
X146215460Y-137651806D01*
X145714864Y-138151529D01*
X145443609Y-138804782D01*
X145442992Y-139512114D01*
X145713106Y-140165840D01*
X145761115Y-140213933D01*
X145657033Y-140213842D01*
X145110705Y-140439580D01*
X144692349Y-140857206D01*
X144465658Y-141403139D01*
X144465142Y-141994267D01*
X144690880Y-142540595D01*
X145108506Y-142958951D01*
X145654439Y-143185642D01*
X146245567Y-143186158D01*
X146660477Y-143014721D01*
X140962599Y-148712599D01*
X140797852Y-148959161D01*
X140740000Y-149250000D01*
X140740000Y-149490198D01*
X139357198Y-150873000D01*
X125451802Y-150873000D01*
X129787401Y-146537401D01*
X129952148Y-146290839D01*
X130010000Y-146000000D01*
X130010000Y-143446331D01*
X130490204Y-143927373D01*
X131456085Y-144328442D01*
X132501926Y-144329355D01*
X133468507Y-143929972D01*
X134208673Y-143191096D01*
X134609742Y-142225215D01*
X134609943Y-141994267D01*
X135575142Y-141994267D01*
X135800880Y-142540595D01*
X136218506Y-142958951D01*
X136764439Y-143185642D01*
X137355567Y-143186158D01*
X137901895Y-142960420D01*
X138320251Y-142542794D01*
X138546942Y-141996861D01*
X138547458Y-141405733D01*
X138321720Y-140859405D01*
X137904094Y-140441049D01*
X137358161Y-140214358D01*
X136767033Y-140213842D01*
X136220705Y-140439580D01*
X135802349Y-140857206D01*
X135575658Y-141403139D01*
X135575142Y-141994267D01*
X134609943Y-141994267D01*
X134610655Y-141179374D01*
X134211272Y-140212793D01*
X133472396Y-139472627D01*
X132506515Y-139071558D01*
X131460674Y-139070645D01*
X131384998Y-139101914D01*
X131384998Y-135685167D01*
X131814838Y-135685167D01*
X131956883Y-136028943D01*
X131990000Y-136062118D01*
X131990000Y-137437537D01*
X131957808Y-137469673D01*
X131815162Y-137813201D01*
X131814838Y-138185167D01*
X131956883Y-138528943D01*
X132219673Y-138792192D01*
X132563201Y-138934838D01*
X132935167Y-138935162D01*
X133278943Y-138793117D01*
X133542192Y-138530327D01*
X133680920Y-138196234D01*
X134166082Y-138397691D01*
X134873414Y-138398308D01*
X135527140Y-138128194D01*
X136027736Y-137628471D01*
X136231323Y-137138180D01*
X140067320Y-137138180D01*
X140067320Y-138068739D01*
X140163993Y-138302128D01*
X140342621Y-138480757D01*
X140576010Y-138577430D01*
X141216570Y-138577430D01*
X141375320Y-138418680D01*
X141375320Y-136979430D01*
X141629320Y-136979430D01*
X141629320Y-138418680D01*
X141788070Y-138577430D01*
X142428630Y-138577430D01*
X142662019Y-138480757D01*
X142840647Y-138302128D01*
X142937320Y-138068739D01*
X142937320Y-137138180D01*
X142778570Y-136979430D01*
X141629320Y-136979430D01*
X141375320Y-136979430D01*
X140226070Y-136979430D01*
X140067320Y-137138180D01*
X136231323Y-137138180D01*
X136298991Y-136975218D01*
X136299608Y-136267886D01*
X136038569Y-135636121D01*
X140067320Y-135636121D01*
X140067320Y-136566680D01*
X140226070Y-136725430D01*
X141375320Y-136725430D01*
X141375320Y-135286180D01*
X141629320Y-135286180D01*
X141629320Y-136725430D01*
X142778570Y-136725430D01*
X142937320Y-136566680D01*
X142937320Y-135636121D01*
X142840647Y-135402732D01*
X142662019Y-135224103D01*
X142428630Y-135127430D01*
X141788070Y-135127430D01*
X141629320Y-135286180D01*
X141375320Y-135286180D01*
X141216570Y-135127430D01*
X140576010Y-135127430D01*
X140342621Y-135224103D01*
X140163993Y-135402732D01*
X140067320Y-135636121D01*
X136038569Y-135636121D01*
X136029494Y-135614160D01*
X135529771Y-135113564D01*
X134876518Y-134842309D01*
X134169186Y-134841692D01*
X133588759Y-135081519D01*
X133543117Y-134971057D01*
X133280327Y-134707808D01*
X132936799Y-134565162D01*
X132564833Y-134564838D01*
X132221057Y-134706883D01*
X131957808Y-134969673D01*
X131815162Y-135313201D01*
X131814838Y-135685167D01*
X131384998Y-135685167D01*
X131384998Y-135469804D01*
X132092401Y-134762401D01*
X132257148Y-134515840D01*
X132266746Y-134467586D01*
X132268154Y-134460510D01*
X132301441Y-134439090D01*
X132446431Y-134226890D01*
X132497440Y-133975000D01*
X132497440Y-133525000D01*
X132453162Y-133289683D01*
X132314090Y-133073559D01*
X132101890Y-132928569D01*
X131850000Y-132877560D01*
X131757362Y-132877560D01*
X130365000Y-131485198D01*
X130365000Y-130187336D01*
X130469673Y-130292192D01*
X130813201Y-130434838D01*
X131185167Y-130435162D01*
X131528943Y-130293117D01*
X131792192Y-130030327D01*
X131875028Y-129830838D01*
X131956883Y-130028943D01*
X132219673Y-130292192D01*
X132563201Y-130434838D01*
X132935167Y-130435162D01*
X133117073Y-130360000D01*
X137432666Y-130360000D01*
X137446838Y-130435317D01*
X137585910Y-130651441D01*
X137798110Y-130796431D01*
X138050000Y-130847440D01*
X138950000Y-130847440D01*
X139185317Y-130803162D01*
X139401441Y-130664090D01*
X139546431Y-130451890D01*
X139597440Y-130200000D01*
X139597440Y-129000000D01*
X139553162Y-128764683D01*
X139414090Y-128548559D01*
X139344289Y-128500866D01*
X139401441Y-128464090D01*
X139546431Y-128251890D01*
X139565039Y-128160000D01*
X140050240Y-128160000D01*
X140050240Y-128737570D01*
X140094518Y-128972887D01*
X140233590Y-129189011D01*
X140445790Y-129334001D01*
X140697680Y-129385010D01*
X142297680Y-129385010D01*
X142532997Y-129340732D01*
X142749121Y-129201660D01*
X142894111Y-128989460D01*
X142945120Y-128737570D01*
X142945120Y-126557570D01*
X142900842Y-126322253D01*
X142761770Y-126106129D01*
X142549570Y-125961139D01*
X142297680Y-125910130D01*
X140697680Y-125910130D01*
X140462363Y-125954408D01*
X140246239Y-126093480D01*
X140101249Y-126305680D01*
X140050240Y-126557570D01*
X140050240Y-126640000D01*
X139567334Y-126640000D01*
X139553162Y-126564683D01*
X139414090Y-126348559D01*
X139201890Y-126203569D01*
X138950000Y-126152560D01*
X138050000Y-126152560D01*
X137814683Y-126196838D01*
X137598559Y-126335910D01*
X137453569Y-126548110D01*
X137434961Y-126640000D01*
X133100000Y-126640000D01*
X132872178Y-126685317D01*
X132809160Y-126697852D01*
X132562599Y-126862599D01*
X130860320Y-128564878D01*
X130814833Y-128564838D01*
X130471057Y-128706883D01*
X130365000Y-128812755D01*
X130365000Y-118769246D01*
X130496431Y-118576890D01*
X130547440Y-118325000D01*
X130547440Y-117875000D01*
X130528810Y-117775992D01*
X130687401Y-117617401D01*
X130852148Y-117370840D01*
X130910000Y-117080000D01*
X130910000Y-114684922D01*
X131185167Y-114685162D01*
X131528943Y-114543117D01*
X131562118Y-114510000D01*
X137505598Y-114510000D01*
X137502560Y-114525000D01*
X137502560Y-114525000D01*
G37*
X137502560Y-114525000D02*
X137502560Y-114617638D01*
X137158899Y-114961299D01*
X136994152Y-115207861D01*
X136936300Y-115498700D01*
X136936300Y-118500227D01*
X136690460Y-118601806D01*
X136189864Y-119101529D01*
X135918609Y-119754782D01*
X135917992Y-120462114D01*
X136188106Y-121115840D01*
X136236115Y-121163933D01*
X136132033Y-121163842D01*
X135585705Y-121389580D01*
X135167349Y-121807206D01*
X134940658Y-122353139D01*
X134940142Y-122944267D01*
X135165880Y-123490595D01*
X135583506Y-123908951D01*
X136129439Y-124135642D01*
X136720567Y-124136158D01*
X137266895Y-123910420D01*
X137685251Y-123492794D01*
X137911942Y-122946861D01*
X137912458Y-122355733D01*
X137719203Y-121888021D01*
X138048414Y-121888308D01*
X138702140Y-121618194D01*
X139202736Y-121118471D01*
X139473991Y-120465218D01*
X139474608Y-119757886D01*
X139204494Y-119104160D01*
X138704771Y-118603564D01*
X138456300Y-118500390D01*
X138456300Y-115813502D01*
X138647362Y-115622440D01*
X138740000Y-115622440D01*
X138975317Y-115578162D01*
X139191441Y-115439090D01*
X139336431Y-115226890D01*
X139349172Y-115163974D01*
X139472599Y-115287401D01*
X139719161Y-115452148D01*
X139795000Y-115467233D01*
X139795000Y-117805000D01*
X139852852Y-118095839D01*
X140017599Y-118342401D01*
X141696463Y-120021266D01*
X140985674Y-120020645D01*
X140019093Y-120420028D01*
X139278927Y-121158904D01*
X138877858Y-122124785D01*
X138876945Y-123170626D01*
X139276328Y-124137207D01*
X140015204Y-124877373D01*
X140981085Y-125278442D01*
X142026926Y-125279355D01*
X142993507Y-124879972D01*
X143733673Y-124141096D01*
X143740000Y-124125859D01*
X143740000Y-125250000D01*
X143797852Y-125540839D01*
X143962599Y-125787401D01*
X149373000Y-131197802D01*
X149373000Y-133448258D01*
X149343162Y-133289683D01*
X149204090Y-133073559D01*
X148991890Y-132928569D01*
X148740000Y-132877560D01*
X148150000Y-132877560D01*
X147914683Y-132921838D01*
X147698559Y-133060910D01*
X147553569Y-133273110D01*
X147502560Y-133525000D01*
X147502560Y-133617638D01*
X146683899Y-134436299D01*
X146519152Y-134682861D01*
X146461300Y-134973700D01*
X146461300Y-137550227D01*
X146215460Y-137651806D01*
X145714864Y-138151529D01*
X145443609Y-138804782D01*
X145442992Y-139512114D01*
X145713106Y-140165840D01*
X145761115Y-140213933D01*
X145657033Y-140213842D01*
X145110705Y-140439580D01*
X144692349Y-140857206D01*
X144465658Y-141403139D01*
X144465142Y-141994267D01*
X144690880Y-142540595D01*
X145108506Y-142958951D01*
X145654439Y-143185642D01*
X146245567Y-143186158D01*
X146660477Y-143014721D01*
X140962599Y-148712599D01*
X140797852Y-148959161D01*
X140740000Y-149250000D01*
X140740000Y-149490198D01*
X139357198Y-150873000D01*
X125451802Y-150873000D01*
X129787401Y-146537401D01*
X129952148Y-146290839D01*
X130010000Y-146000000D01*
X130010000Y-143446331D01*
X130490204Y-143927373D01*
X131456085Y-144328442D01*
X132501926Y-144329355D01*
X133468507Y-143929972D01*
X134208673Y-143191096D01*
X134609742Y-142225215D01*
X134609943Y-141994267D01*
X135575142Y-141994267D01*
X135800880Y-142540595D01*
X136218506Y-142958951D01*
X136764439Y-143185642D01*
X137355567Y-143186158D01*
X137901895Y-142960420D01*
X138320251Y-142542794D01*
X138546942Y-141996861D01*
X138547458Y-141405733D01*
X138321720Y-140859405D01*
X137904094Y-140441049D01*
X137358161Y-140214358D01*
X136767033Y-140213842D01*
X136220705Y-140439580D01*
X135802349Y-140857206D01*
X135575658Y-141403139D01*
X135575142Y-141994267D01*
X134609943Y-141994267D01*
X134610655Y-141179374D01*
X134211272Y-140212793D01*
X133472396Y-139472627D01*
X132506515Y-139071558D01*
X131460674Y-139070645D01*
X131384998Y-139101914D01*
X131384998Y-135685167D01*
X131814838Y-135685167D01*
X131956883Y-136028943D01*
X131990000Y-136062118D01*
X131990000Y-137437537D01*
X131957808Y-137469673D01*
X131815162Y-137813201D01*
X131814838Y-138185167D01*
X131956883Y-138528943D01*
X132219673Y-138792192D01*
X132563201Y-138934838D01*
X132935167Y-138935162D01*
X133278943Y-138793117D01*
X133542192Y-138530327D01*
X133680920Y-138196234D01*
X134166082Y-138397691D01*
X134873414Y-138398308D01*
X135527140Y-138128194D01*
X136027736Y-137628471D01*
X136231323Y-137138180D01*
X140067320Y-137138180D01*
X140067320Y-138068739D01*
X140163993Y-138302128D01*
X140342621Y-138480757D01*
X140576010Y-138577430D01*
X141216570Y-138577430D01*
X141375320Y-138418680D01*
X141375320Y-136979430D01*
X141629320Y-136979430D01*
X141629320Y-138418680D01*
X141788070Y-138577430D01*
X142428630Y-138577430D01*
X142662019Y-138480757D01*
X142840647Y-138302128D01*
X142937320Y-138068739D01*
X142937320Y-137138180D01*
X142778570Y-136979430D01*
X141629320Y-136979430D01*
X141375320Y-136979430D01*
X140226070Y-136979430D01*
X140067320Y-137138180D01*
X136231323Y-137138180D01*
X136298991Y-136975218D01*
X136299608Y-136267886D01*
X136038569Y-135636121D01*
X140067320Y-135636121D01*
X140067320Y-136566680D01*
X140226070Y-136725430D01*
X141375320Y-136725430D01*
X141375320Y-135286180D01*
X141629320Y-135286180D01*
X141629320Y-136725430D01*
X142778570Y-136725430D01*
X142937320Y-136566680D01*
X142937320Y-135636121D01*
X142840647Y-135402732D01*
X142662019Y-135224103D01*
X142428630Y-135127430D01*
X141788070Y-135127430D01*
X141629320Y-135286180D01*
X141375320Y-135286180D01*
X141216570Y-135127430D01*
X140576010Y-135127430D01*
X140342621Y-135224103D01*
X140163993Y-135402732D01*
X140067320Y-135636121D01*
X136038569Y-135636121D01*
X136029494Y-135614160D01*
X135529771Y-135113564D01*
X134876518Y-134842309D01*
X134169186Y-134841692D01*
X133588759Y-135081519D01*
X133543117Y-134971057D01*
X133280327Y-134707808D01*
X132936799Y-134565162D01*
X132564833Y-134564838D01*
X132221057Y-134706883D01*
X131957808Y-134969673D01*
X131815162Y-135313201D01*
X131814838Y-135685167D01*
X131384998Y-135685167D01*
X131384998Y-135469804D01*
X132092401Y-134762401D01*
X132257148Y-134515840D01*
X132266746Y-134467586D01*
X132268154Y-134460510D01*
X132301441Y-134439090D01*
X132446431Y-134226890D01*
X132497440Y-133975000D01*
X132497440Y-133525000D01*
X132453162Y-133289683D01*
X132314090Y-133073559D01*
X132101890Y-132928569D01*
X131850000Y-132877560D01*
X131757362Y-132877560D01*
X130365000Y-131485198D01*
X130365000Y-130187336D01*
X130469673Y-130292192D01*
X130813201Y-130434838D01*
X131185167Y-130435162D01*
X131528943Y-130293117D01*
X131792192Y-130030327D01*
X131875028Y-129830838D01*
X131956883Y-130028943D01*
X132219673Y-130292192D01*
X132563201Y-130434838D01*
X132935167Y-130435162D01*
X133117073Y-130360000D01*
X137432666Y-130360000D01*
X137446838Y-130435317D01*
X137585910Y-130651441D01*
X137798110Y-130796431D01*
X138050000Y-130847440D01*
X138950000Y-130847440D01*
X139185317Y-130803162D01*
X139401441Y-130664090D01*
X139546431Y-130451890D01*
X139597440Y-130200000D01*
X139597440Y-129000000D01*
X139553162Y-128764683D01*
X139414090Y-128548559D01*
X139344289Y-128500866D01*
X139401441Y-128464090D01*
X139546431Y-128251890D01*
X139565039Y-128160000D01*
X140050240Y-128160000D01*
X140050240Y-128737570D01*
X140094518Y-128972887D01*
X140233590Y-129189011D01*
X140445790Y-129334001D01*
X140697680Y-129385010D01*
X142297680Y-129385010D01*
X142532997Y-129340732D01*
X142749121Y-129201660D01*
X142894111Y-128989460D01*
X142945120Y-128737570D01*
X142945120Y-126557570D01*
X142900842Y-126322253D01*
X142761770Y-126106129D01*
X142549570Y-125961139D01*
X142297680Y-125910130D01*
X140697680Y-125910130D01*
X140462363Y-125954408D01*
X140246239Y-126093480D01*
X140101249Y-126305680D01*
X140050240Y-126557570D01*
X140050240Y-126640000D01*
X139567334Y-126640000D01*
X139553162Y-126564683D01*
X139414090Y-126348559D01*
X139201890Y-126203569D01*
X138950000Y-126152560D01*
X138050000Y-126152560D01*
X137814683Y-126196838D01*
X137598559Y-126335910D01*
X137453569Y-126548110D01*
X137434961Y-126640000D01*
X133100000Y-126640000D01*
X132872178Y-126685317D01*
X132809160Y-126697852D01*
X132562599Y-126862599D01*
X130860320Y-128564878D01*
X130814833Y-128564838D01*
X130471057Y-128706883D01*
X130365000Y-128812755D01*
X130365000Y-118769246D01*
X130496431Y-118576890D01*
X130547440Y-118325000D01*
X130547440Y-117875000D01*
X130528810Y-117775992D01*
X130687401Y-117617401D01*
X130852148Y-117370840D01*
X130910000Y-117080000D01*
X130910000Y-114684922D01*
X131185167Y-114685162D01*
X131528943Y-114543117D01*
X131562118Y-114510000D01*
X137505598Y-114510000D01*
X137502560Y-114525000D01*
G36*
X103452560Y-125269080D02*
X103312599Y-125362599D01*
X102012599Y-126662599D01*
X101847852Y-126909161D01*
X101790000Y-127200000D01*
X101790000Y-129257666D01*
X101714683Y-129271838D01*
X101498559Y-129410910D01*
X101353569Y-129623110D01*
X101302560Y-129875000D01*
X101302560Y-130625000D01*
X101346838Y-130860317D01*
X101437190Y-131000727D01*
X101353569Y-131123110D01*
X101302560Y-131375000D01*
X101302560Y-132125000D01*
X101346838Y-132360317D01*
X101485910Y-132576441D01*
X101698110Y-132721431D01*
X101950000Y-132772440D01*
X103150000Y-132772440D01*
X103385317Y-132728162D01*
X103488646Y-132661671D01*
X103490302Y-132663327D01*
X103723691Y-132760000D01*
X104164250Y-132760000D01*
X104323000Y-132601250D01*
X104323000Y-131877000D01*
X104577000Y-131877000D01*
X104577000Y-132601250D01*
X104735750Y-132760000D01*
X105176309Y-132760000D01*
X105409698Y-132663327D01*
X105588327Y-132484699D01*
X105685000Y-132251310D01*
X105685000Y-132035750D01*
X105526250Y-131877000D01*
X104577000Y-131877000D01*
X104323000Y-131877000D01*
X104303000Y-131877000D01*
X104303000Y-131623000D01*
X104323000Y-131623000D01*
X104323000Y-130377000D01*
X104577000Y-130377000D01*
X104577000Y-131623000D01*
X105526250Y-131623000D01*
X105685000Y-131464250D01*
X105685000Y-131248690D01*
X105588327Y-131015301D01*
X105573026Y-131000000D01*
X105588327Y-130984699D01*
X105685000Y-130751310D01*
X105685000Y-130535750D01*
X105526250Y-130377000D01*
X104577000Y-130377000D01*
X104323000Y-130377000D01*
X104303000Y-130377000D01*
X104303000Y-130123000D01*
X104323000Y-130123000D01*
X104323000Y-129398750D01*
X104577000Y-129398750D01*
X104577000Y-130123000D01*
X105526250Y-130123000D01*
X105685000Y-129964250D01*
X105685000Y-129748690D01*
X105588327Y-129515301D01*
X105409698Y-129336673D01*
X105176309Y-129240000D01*
X104735750Y-129240000D01*
X104577000Y-129398750D01*
X104323000Y-129398750D01*
X104164250Y-129240000D01*
X103723691Y-129240000D01*
X103490302Y-129336673D01*
X103488932Y-129338043D01*
X103401890Y-129278569D01*
X103310000Y-129259961D01*
X103310000Y-127514802D01*
X103540711Y-127284091D01*
X103561673Y-127334699D01*
X103740302Y-127513327D01*
X103973691Y-127610000D01*
X104564250Y-127610000D01*
X104723000Y-127451250D01*
X104723000Y-126827000D01*
X104703000Y-126827000D01*
X104703000Y-126822440D01*
X104997000Y-126822440D01*
X104997000Y-126827000D01*
X104977000Y-126827000D01*
X104977000Y-127451250D01*
X105135750Y-127610000D01*
X105635660Y-127610000D01*
X105627560Y-127650000D01*
X105627560Y-129150000D01*
X105671838Y-129385317D01*
X105810910Y-129601441D01*
X106023110Y-129746431D01*
X106275000Y-129797440D01*
X106825000Y-129797440D01*
X106954589Y-129773056D01*
X107075000Y-129797440D01*
X107625000Y-129797440D01*
X107754589Y-129773056D01*
X107875000Y-129797440D01*
X108425000Y-129797440D01*
X108554589Y-129773056D01*
X108675000Y-129797440D01*
X109225000Y-129797440D01*
X109354589Y-129773056D01*
X109475000Y-129797440D01*
X109790000Y-129797440D01*
X109790000Y-131050000D01*
X109847852Y-131340839D01*
X110012599Y-131587401D01*
X111462599Y-133037401D01*
X111537464Y-133087424D01*
X111133756Y-133490428D01*
X110804376Y-134283664D01*
X110803626Y-135142567D01*
X111131622Y-135936377D01*
X111738428Y-136544244D01*
X112531664Y-136873624D01*
X113390567Y-136874374D01*
X114184377Y-136546378D01*
X114792244Y-135939572D01*
X115121624Y-135146336D01*
X115122374Y-134287433D01*
X114794378Y-133493623D01*
X114561163Y-133260000D01*
X116048800Y-133260000D01*
X116289998Y-133501198D01*
X116289998Y-143499998D01*
X116347850Y-143790837D01*
X116512597Y-144037399D01*
X117123000Y-144647802D01*
X117123000Y-149000000D01*
X117131685Y-149046159D01*
X117158965Y-149088553D01*
X117200590Y-149116994D01*
X117250000Y-149127000D01*
X121399064Y-149127000D01*
X121500000Y-149147440D01*
X123500000Y-149147440D01*
X123608629Y-149127000D01*
X124000000Y-149127000D01*
X124046159Y-149118315D01*
X124088553Y-149091035D01*
X124116994Y-149049410D01*
X124127000Y-149000000D01*
X124127000Y-148600936D01*
X124147440Y-148500000D01*
X124147440Y-143000000D01*
X124127000Y-142891371D01*
X124127000Y-141100936D01*
X124147440Y-141000000D01*
X124147440Y-135500000D01*
X124127000Y-135391371D01*
X124127000Y-134779987D01*
X124147930Y-134766002D01*
X124693273Y-134220659D01*
X124805053Y-134322688D01*
X125220974Y-134494958D01*
X125453000Y-134373817D01*
X125453000Y-133167000D01*
X125707000Y-133167000D01*
X125707000Y-134373817D01*
X125939026Y-134494958D01*
X126354947Y-134322688D01*
X126786821Y-133928490D01*
X127034968Y-133399027D01*
X126914469Y-133167000D01*
X125707000Y-133167000D01*
X125453000Y-133167000D01*
X125433000Y-133167000D01*
X125433000Y-132913000D01*
X125453000Y-132913000D01*
X125453000Y-132893000D01*
X125707000Y-132893000D01*
X125707000Y-132913000D01*
X126914469Y-132913000D01*
X127034968Y-132680973D01*
X126786821Y-132151510D01*
X126368839Y-131769992D01*
X126639670Y-131589029D01*
X126964526Y-131102848D01*
X127078600Y-130529359D01*
X127078600Y-130470641D01*
X127036701Y-130260000D01*
X128187537Y-130260000D01*
X128219673Y-130292192D01*
X128563201Y-130434838D01*
X128845000Y-130435083D01*
X128845000Y-131800000D01*
X128902852Y-132090839D01*
X129067599Y-132337401D01*
X129607758Y-132877560D01*
X129150000Y-132877560D01*
X128914683Y-132921838D01*
X128698559Y-133060910D01*
X128553569Y-133273110D01*
X128502560Y-133525000D01*
X128502560Y-133617638D01*
X127633899Y-134486299D01*
X127469152Y-134732861D01*
X127411300Y-135023700D01*
X127411300Y-137550227D01*
X127165460Y-137651806D01*
X126664864Y-138151529D01*
X126393609Y-138804782D01*
X126392992Y-139512114D01*
X126663106Y-140165840D01*
X126711115Y-140213933D01*
X126607033Y-140213842D01*
X126060705Y-140439580D01*
X125642349Y-140857206D01*
X125415658Y-141403139D01*
X125415142Y-141994267D01*
X125640880Y-142540595D01*
X126058506Y-142958951D01*
X126604439Y-143185642D01*
X127195567Y-143186158D01*
X127741895Y-142960420D01*
X128160251Y-142542794D01*
X128386942Y-141996861D01*
X128387458Y-141405733D01*
X128194203Y-140938021D01*
X128490000Y-140938279D01*
X128490000Y-145685198D01*
X123302198Y-150873000D01*
X115428343Y-150873000D01*
X115591442Y-150480215D01*
X115592355Y-149434374D01*
X115192972Y-148467793D01*
X114454096Y-147727627D01*
X113488215Y-147326558D01*
X112442374Y-147325645D01*
X111475793Y-147725028D01*
X110735627Y-148463904D01*
X110334558Y-149429785D01*
X110333645Y-150475626D01*
X110497837Y-150873000D01*
X92760000Y-150873000D01*
X92760000Y-148564802D01*
X98537401Y-142787401D01*
X98594514Y-142701926D01*
X98795028Y-143187207D01*
X99533904Y-143927373D01*
X100499785Y-144328442D01*
X101545626Y-144329355D01*
X102512207Y-143929972D01*
X102621082Y-143821287D01*
X102706883Y-144028943D01*
X102969673Y-144292192D01*
X103313201Y-144434838D01*
X103685167Y-144435162D01*
X104028943Y-144293117D01*
X104292192Y-144030327D01*
X104434838Y-143686799D01*
X104434879Y-143639923D01*
X105037401Y-143037401D01*
X105158940Y-142855505D01*
X105262206Y-142958951D01*
X105808139Y-143185642D01*
X106399267Y-143186158D01*
X106945595Y-142960420D01*
X107363951Y-142542794D01*
X107590642Y-141996861D01*
X107591158Y-141405733D01*
X107365420Y-140859405D01*
X106947794Y-140441049D01*
X106401861Y-140214358D01*
X105810733Y-140213842D01*
X105264405Y-140439580D01*
X105260000Y-140443977D01*
X105260000Y-139564802D01*
X106537401Y-138287401D01*
X106702148Y-138040840D01*
X106760000Y-137750000D01*
X106760000Y-136062463D01*
X106792192Y-136030327D01*
X106934838Y-135686799D01*
X106935162Y-135314833D01*
X106793117Y-134971057D01*
X106530327Y-134707808D01*
X106186799Y-134565162D01*
X105814833Y-134564838D01*
X105471057Y-134706883D01*
X105207808Y-134969673D01*
X105065162Y-135313201D01*
X105064907Y-135605859D01*
X104573471Y-135113564D01*
X103920218Y-134842309D01*
X103212886Y-134841692D01*
X102559160Y-135111806D01*
X102058564Y-135611529D01*
X101787309Y-136264782D01*
X101786692Y-136972114D01*
X102056806Y-137625840D01*
X102556529Y-138126436D01*
X103209782Y-138397691D01*
X103917114Y-138398308D01*
X104530220Y-138144978D01*
X103962599Y-138712599D01*
X103797852Y-138959161D01*
X103740000Y-139250000D01*
X103740000Y-142185198D01*
X103620394Y-142304804D01*
X103653442Y-142225215D01*
X103654355Y-141179374D01*
X103254972Y-140212793D01*
X102516096Y-139472627D01*
X101550215Y-139071558D01*
X100504374Y-139070645D01*
X100315000Y-139148893D01*
X100315000Y-134419246D01*
X100446431Y-134226890D01*
X100497440Y-133975000D01*
X100497440Y-133525000D01*
X100453162Y-133289683D01*
X100315000Y-133074973D01*
X100315000Y-126081775D01*
X100563201Y-126184838D01*
X100935167Y-126185162D01*
X101278943Y-126043117D01*
X101542192Y-125780327D01*
X101684838Y-125436799D01*
X101684879Y-125389923D01*
X102014802Y-125060000D01*
X103452560Y-125060000D01*
X103452560Y-125269080D01*
X103452560Y-125269080D01*
G37*
X103452560Y-125269080D02*
X103312599Y-125362599D01*
X102012599Y-126662599D01*
X101847852Y-126909161D01*
X101790000Y-127200000D01*
X101790000Y-129257666D01*
X101714683Y-129271838D01*
X101498559Y-129410910D01*
X101353569Y-129623110D01*
X101302560Y-129875000D01*
X101302560Y-130625000D01*
X101346838Y-130860317D01*
X101437190Y-131000727D01*
X101353569Y-131123110D01*
X101302560Y-131375000D01*
X101302560Y-132125000D01*
X101346838Y-132360317D01*
X101485910Y-132576441D01*
X101698110Y-132721431D01*
X101950000Y-132772440D01*
X103150000Y-132772440D01*
X103385317Y-132728162D01*
X103488646Y-132661671D01*
X103490302Y-132663327D01*
X103723691Y-132760000D01*
X104164250Y-132760000D01*
X104323000Y-132601250D01*
X104323000Y-131877000D01*
X104577000Y-131877000D01*
X104577000Y-132601250D01*
X104735750Y-132760000D01*
X105176309Y-132760000D01*
X105409698Y-132663327D01*
X105588327Y-132484699D01*
X105685000Y-132251310D01*
X105685000Y-132035750D01*
X105526250Y-131877000D01*
X104577000Y-131877000D01*
X104323000Y-131877000D01*
X104303000Y-131877000D01*
X104303000Y-131623000D01*
X104323000Y-131623000D01*
X104323000Y-130377000D01*
X104577000Y-130377000D01*
X104577000Y-131623000D01*
X105526250Y-131623000D01*
X105685000Y-131464250D01*
X105685000Y-131248690D01*
X105588327Y-131015301D01*
X105573026Y-131000000D01*
X105588327Y-130984699D01*
X105685000Y-130751310D01*
X105685000Y-130535750D01*
X105526250Y-130377000D01*
X104577000Y-130377000D01*
X104323000Y-130377000D01*
X104303000Y-130377000D01*
X104303000Y-130123000D01*
X104323000Y-130123000D01*
X104323000Y-129398750D01*
X104577000Y-129398750D01*
X104577000Y-130123000D01*
X105526250Y-130123000D01*
X105685000Y-129964250D01*
X105685000Y-129748690D01*
X105588327Y-129515301D01*
X105409698Y-129336673D01*
X105176309Y-129240000D01*
X104735750Y-129240000D01*
X104577000Y-129398750D01*
X104323000Y-129398750D01*
X104164250Y-129240000D01*
X103723691Y-129240000D01*
X103490302Y-129336673D01*
X103488932Y-129338043D01*
X103401890Y-129278569D01*
X103310000Y-129259961D01*
X103310000Y-127514802D01*
X103540711Y-127284091D01*
X103561673Y-127334699D01*
X103740302Y-127513327D01*
X103973691Y-127610000D01*
X104564250Y-127610000D01*
X104723000Y-127451250D01*
X104723000Y-126827000D01*
X104703000Y-126827000D01*
X104703000Y-126822440D01*
X104997000Y-126822440D01*
X104997000Y-126827000D01*
X104977000Y-126827000D01*
X104977000Y-127451250D01*
X105135750Y-127610000D01*
X105635660Y-127610000D01*
X105627560Y-127650000D01*
X105627560Y-129150000D01*
X105671838Y-129385317D01*
X105810910Y-129601441D01*
X106023110Y-129746431D01*
X106275000Y-129797440D01*
X106825000Y-129797440D01*
X106954589Y-129773056D01*
X107075000Y-129797440D01*
X107625000Y-129797440D01*
X107754589Y-129773056D01*
X107875000Y-129797440D01*
X108425000Y-129797440D01*
X108554589Y-129773056D01*
X108675000Y-129797440D01*
X109225000Y-129797440D01*
X109354589Y-129773056D01*
X109475000Y-129797440D01*
X109790000Y-129797440D01*
X109790000Y-131050000D01*
X109847852Y-131340839D01*
X110012599Y-131587401D01*
X111462599Y-133037401D01*
X111537464Y-133087424D01*
X111133756Y-133490428D01*
X110804376Y-134283664D01*
X110803626Y-135142567D01*
X111131622Y-135936377D01*
X111738428Y-136544244D01*
X112531664Y-136873624D01*
X113390567Y-136874374D01*
X114184377Y-136546378D01*
X114792244Y-135939572D01*
X115121624Y-135146336D01*
X115122374Y-134287433D01*
X114794378Y-133493623D01*
X114561163Y-133260000D01*
X116048800Y-133260000D01*
X116289998Y-133501198D01*
X116289998Y-143499998D01*
X116347850Y-143790837D01*
X116512597Y-144037399D01*
X117123000Y-144647802D01*
X117123000Y-149000000D01*
X117131685Y-149046159D01*
X117158965Y-149088553D01*
X117200590Y-149116994D01*
X117250000Y-149127000D01*
X121399064Y-149127000D01*
X121500000Y-149147440D01*
X123500000Y-149147440D01*
X123608629Y-149127000D01*
X124000000Y-149127000D01*
X124046159Y-149118315D01*
X124088553Y-149091035D01*
X124116994Y-149049410D01*
X124127000Y-149000000D01*
X124127000Y-148600936D01*
X124147440Y-148500000D01*
X124147440Y-143000000D01*
X124127000Y-142891371D01*
X124127000Y-141100936D01*
X124147440Y-141000000D01*
X124147440Y-135500000D01*
X124127000Y-135391371D01*
X124127000Y-134779987D01*
X124147930Y-134766002D01*
X124693273Y-134220659D01*
X124805053Y-134322688D01*
X125220974Y-134494958D01*
X125453000Y-134373817D01*
X125453000Y-133167000D01*
X125707000Y-133167000D01*
X125707000Y-134373817D01*
X125939026Y-134494958D01*
X126354947Y-134322688D01*
X126786821Y-133928490D01*
X127034968Y-133399027D01*
X126914469Y-133167000D01*
X125707000Y-133167000D01*
X125453000Y-133167000D01*
X125433000Y-133167000D01*
X125433000Y-132913000D01*
X125453000Y-132913000D01*
X125453000Y-132893000D01*
X125707000Y-132893000D01*
X125707000Y-132913000D01*
X126914469Y-132913000D01*
X127034968Y-132680973D01*
X126786821Y-132151510D01*
X126368839Y-131769992D01*
X126639670Y-131589029D01*
X126964526Y-131102848D01*
X127078600Y-130529359D01*
X127078600Y-130470641D01*
X127036701Y-130260000D01*
X128187537Y-130260000D01*
X128219673Y-130292192D01*
X128563201Y-130434838D01*
X128845000Y-130435083D01*
X128845000Y-131800000D01*
X128902852Y-132090839D01*
X129067599Y-132337401D01*
X129607758Y-132877560D01*
X129150000Y-132877560D01*
X128914683Y-132921838D01*
X128698559Y-133060910D01*
X128553569Y-133273110D01*
X128502560Y-133525000D01*
X128502560Y-133617638D01*
X127633899Y-134486299D01*
X127469152Y-134732861D01*
X127411300Y-135023700D01*
X127411300Y-137550227D01*
X127165460Y-137651806D01*
X126664864Y-138151529D01*
X126393609Y-138804782D01*
X126392992Y-139512114D01*
X126663106Y-140165840D01*
X126711115Y-140213933D01*
X126607033Y-140213842D01*
X126060705Y-140439580D01*
X125642349Y-140857206D01*
X125415658Y-141403139D01*
X125415142Y-141994267D01*
X125640880Y-142540595D01*
X126058506Y-142958951D01*
X126604439Y-143185642D01*
X127195567Y-143186158D01*
X127741895Y-142960420D01*
X128160251Y-142542794D01*
X128386942Y-141996861D01*
X128387458Y-141405733D01*
X128194203Y-140938021D01*
X128490000Y-140938279D01*
X128490000Y-145685198D01*
X123302198Y-150873000D01*
X115428343Y-150873000D01*
X115591442Y-150480215D01*
X115592355Y-149434374D01*
X115192972Y-148467793D01*
X114454096Y-147727627D01*
X113488215Y-147326558D01*
X112442374Y-147325645D01*
X111475793Y-147725028D01*
X110735627Y-148463904D01*
X110334558Y-149429785D01*
X110333645Y-150475626D01*
X110497837Y-150873000D01*
X92760000Y-150873000D01*
X92760000Y-148564802D01*
X98537401Y-142787401D01*
X98594514Y-142701926D01*
X98795028Y-143187207D01*
X99533904Y-143927373D01*
X100499785Y-144328442D01*
X101545626Y-144329355D01*
X102512207Y-143929972D01*
X102621082Y-143821287D01*
X102706883Y-144028943D01*
X102969673Y-144292192D01*
X103313201Y-144434838D01*
X103685167Y-144435162D01*
X104028943Y-144293117D01*
X104292192Y-144030327D01*
X104434838Y-143686799D01*
X104434879Y-143639923D01*
X105037401Y-143037401D01*
X105158940Y-142855505D01*
X105262206Y-142958951D01*
X105808139Y-143185642D01*
X106399267Y-143186158D01*
X106945595Y-142960420D01*
X107363951Y-142542794D01*
X107590642Y-141996861D01*
X107591158Y-141405733D01*
X107365420Y-140859405D01*
X106947794Y-140441049D01*
X106401861Y-140214358D01*
X105810733Y-140213842D01*
X105264405Y-140439580D01*
X105260000Y-140443977D01*
X105260000Y-139564802D01*
X106537401Y-138287401D01*
X106702148Y-138040840D01*
X106760000Y-137750000D01*
X106760000Y-136062463D01*
X106792192Y-136030327D01*
X106934838Y-135686799D01*
X106935162Y-135314833D01*
X106793117Y-134971057D01*
X106530327Y-134707808D01*
X106186799Y-134565162D01*
X105814833Y-134564838D01*
X105471057Y-134706883D01*
X105207808Y-134969673D01*
X105065162Y-135313201D01*
X105064907Y-135605859D01*
X104573471Y-135113564D01*
X103920218Y-134842309D01*
X103212886Y-134841692D01*
X102559160Y-135111806D01*
X102058564Y-135611529D01*
X101787309Y-136264782D01*
X101786692Y-136972114D01*
X102056806Y-137625840D01*
X102556529Y-138126436D01*
X103209782Y-138397691D01*
X103917114Y-138398308D01*
X104530220Y-138144978D01*
X103962599Y-138712599D01*
X103797852Y-138959161D01*
X103740000Y-139250000D01*
X103740000Y-142185198D01*
X103620394Y-142304804D01*
X103653442Y-142225215D01*
X103654355Y-141179374D01*
X103254972Y-140212793D01*
X102516096Y-139472627D01*
X101550215Y-139071558D01*
X100504374Y-139070645D01*
X100315000Y-139148893D01*
X100315000Y-134419246D01*
X100446431Y-134226890D01*
X100497440Y-133975000D01*
X100497440Y-133525000D01*
X100453162Y-133289683D01*
X100315000Y-133074973D01*
X100315000Y-126081775D01*
X100563201Y-126184838D01*
X100935167Y-126185162D01*
X101278943Y-126043117D01*
X101542192Y-125780327D01*
X101684838Y-125436799D01*
X101684879Y-125389923D01*
X102014802Y-125060000D01*
X103452560Y-125060000D01*
X103452560Y-125269080D01*
G36*
X91251945Y-104120626D02*
X91651328Y-105087207D01*
X92390204Y-105827373D01*
X93356085Y-106228442D01*
X94401926Y-106229355D01*
X95368507Y-105829972D01*
X95458158Y-105740477D01*
X95498053Y-105941040D01*
X95662800Y-106187602D01*
X105644002Y-116168804D01*
X105627560Y-116250000D01*
X105627560Y-117750000D01*
X105635087Y-117790000D01*
X105135750Y-117790000D01*
X104977000Y-117948750D01*
X104977000Y-118573000D01*
X104997000Y-118573000D01*
X104997000Y-118577560D01*
X104100000Y-118577560D01*
X103864683Y-118621838D01*
X103681054Y-118740000D01*
X100804689Y-118740000D01*
X100513849Y-118797852D01*
X100267288Y-118962599D01*
X98337597Y-120892290D01*
X98291424Y-120961394D01*
X97753596Y-120422627D01*
X96787715Y-120021558D01*
X95741874Y-120020645D01*
X94775293Y-120420028D01*
X94035127Y-121158904D01*
X93634058Y-122124785D01*
X93633145Y-123170626D01*
X93868405Y-123740000D01*
X91000000Y-123740000D01*
X90709160Y-123797852D01*
X90462599Y-123962599D01*
X90110320Y-124314878D01*
X90064833Y-124314838D01*
X89721057Y-124456883D01*
X89457808Y-124719673D01*
X89315162Y-125063201D01*
X89314838Y-125435167D01*
X89424264Y-125700000D01*
X89335000Y-125700000D01*
X89044160Y-125757852D01*
X88827589Y-125902560D01*
X88725000Y-125902560D01*
X88489683Y-125946838D01*
X88273559Y-126085910D01*
X88128569Y-126298110D01*
X88077560Y-126550000D01*
X88077560Y-127007758D01*
X87910000Y-126840198D01*
X87910000Y-124414802D01*
X88487401Y-123837401D01*
X88652148Y-123590839D01*
X88710000Y-123300000D01*
X88710000Y-120462114D01*
X89404192Y-120462114D01*
X89674306Y-121115840D01*
X90174029Y-121616436D01*
X90827282Y-121887691D01*
X91534614Y-121888308D01*
X92188340Y-121618194D01*
X92688936Y-121118471D01*
X92960191Y-120465218D01*
X92960808Y-119757886D01*
X92690694Y-119104160D01*
X92190971Y-118603564D01*
X91537718Y-118332309D01*
X90830386Y-118331692D01*
X90176660Y-118601806D01*
X89676064Y-119101529D01*
X89404809Y-119754782D01*
X89404192Y-120462114D01*
X88710000Y-120462114D01*
X88710000Y-117864267D01*
X94776342Y-117864267D01*
X95002080Y-118410595D01*
X95419706Y-118828951D01*
X95965639Y-119055642D01*
X96556767Y-119056158D01*
X97103095Y-118830420D01*
X97521451Y-118412794D01*
X97568831Y-118298690D01*
X103465000Y-118298690D01*
X103465000Y-118414250D01*
X103623750Y-118573000D01*
X104723000Y-118573000D01*
X104723000Y-117948750D01*
X104564250Y-117790000D01*
X103973691Y-117790000D01*
X103740302Y-117886673D01*
X103561673Y-118065301D01*
X103465000Y-118298690D01*
X97568831Y-118298690D01*
X97748142Y-117866861D01*
X97748658Y-117275733D01*
X97522920Y-116729405D01*
X97105294Y-116311049D01*
X96559361Y-116084358D01*
X95968233Y-116083842D01*
X95421905Y-116309580D01*
X95003549Y-116727206D01*
X94776858Y-117273139D01*
X94776342Y-117864267D01*
X88710000Y-117864267D01*
X88710000Y-107014802D01*
X90887401Y-104837401D01*
X91052148Y-104590839D01*
X91110000Y-104300000D01*
X91110000Y-103614802D01*
X91252511Y-103472291D01*
X91251945Y-104120626D01*
X91251945Y-104120626D01*
G37*
X91251945Y-104120626D02*
X91651328Y-105087207D01*
X92390204Y-105827373D01*
X93356085Y-106228442D01*
X94401926Y-106229355D01*
X95368507Y-105829972D01*
X95458158Y-105740477D01*
X95498053Y-105941040D01*
X95662800Y-106187602D01*
X105644002Y-116168804D01*
X105627560Y-116250000D01*
X105627560Y-117750000D01*
X105635087Y-117790000D01*
X105135750Y-117790000D01*
X104977000Y-117948750D01*
X104977000Y-118573000D01*
X104997000Y-118573000D01*
X104997000Y-118577560D01*
X104100000Y-118577560D01*
X103864683Y-118621838D01*
X103681054Y-118740000D01*
X100804689Y-118740000D01*
X100513849Y-118797852D01*
X100267288Y-118962599D01*
X98337597Y-120892290D01*
X98291424Y-120961394D01*
X97753596Y-120422627D01*
X96787715Y-120021558D01*
X95741874Y-120020645D01*
X94775293Y-120420028D01*
X94035127Y-121158904D01*
X93634058Y-122124785D01*
X93633145Y-123170626D01*
X93868405Y-123740000D01*
X91000000Y-123740000D01*
X90709160Y-123797852D01*
X90462599Y-123962599D01*
X90110320Y-124314878D01*
X90064833Y-124314838D01*
X89721057Y-124456883D01*
X89457808Y-124719673D01*
X89315162Y-125063201D01*
X89314838Y-125435167D01*
X89424264Y-125700000D01*
X89335000Y-125700000D01*
X89044160Y-125757852D01*
X88827589Y-125902560D01*
X88725000Y-125902560D01*
X88489683Y-125946838D01*
X88273559Y-126085910D01*
X88128569Y-126298110D01*
X88077560Y-126550000D01*
X88077560Y-127007758D01*
X87910000Y-126840198D01*
X87910000Y-124414802D01*
X88487401Y-123837401D01*
X88652148Y-123590839D01*
X88710000Y-123300000D01*
X88710000Y-120462114D01*
X89404192Y-120462114D01*
X89674306Y-121115840D01*
X90174029Y-121616436D01*
X90827282Y-121887691D01*
X91534614Y-121888308D01*
X92188340Y-121618194D01*
X92688936Y-121118471D01*
X92960191Y-120465218D01*
X92960808Y-119757886D01*
X92690694Y-119104160D01*
X92190971Y-118603564D01*
X91537718Y-118332309D01*
X90830386Y-118331692D01*
X90176660Y-118601806D01*
X89676064Y-119101529D01*
X89404809Y-119754782D01*
X89404192Y-120462114D01*
X88710000Y-120462114D01*
X88710000Y-117864267D01*
X94776342Y-117864267D01*
X95002080Y-118410595D01*
X95419706Y-118828951D01*
X95965639Y-119055642D01*
X96556767Y-119056158D01*
X97103095Y-118830420D01*
X97521451Y-118412794D01*
X97568831Y-118298690D01*
X103465000Y-118298690D01*
X103465000Y-118414250D01*
X103623750Y-118573000D01*
X104723000Y-118573000D01*
X104723000Y-117948750D01*
X104564250Y-117790000D01*
X103973691Y-117790000D01*
X103740302Y-117886673D01*
X103561673Y-118065301D01*
X103465000Y-118298690D01*
X97568831Y-118298690D01*
X97748142Y-117866861D01*
X97748658Y-117275733D01*
X97522920Y-116729405D01*
X97105294Y-116311049D01*
X96559361Y-116084358D01*
X95968233Y-116083842D01*
X95421905Y-116309580D01*
X95003549Y-116727206D01*
X94776858Y-117273139D01*
X94776342Y-117864267D01*
X88710000Y-117864267D01*
X88710000Y-107014802D01*
X90887401Y-104837401D01*
X91052148Y-104590839D01*
X91110000Y-104300000D01*
X91110000Y-103614802D01*
X91252511Y-103472291D01*
X91251945Y-104120626D01*
G36*
X114177000Y-113623000D02*
X114197000Y-113623000D01*
X114197000Y-113877000D01*
X114177000Y-113877000D01*
X114177000Y-114601250D01*
X114335750Y-114760000D01*
X114776309Y-114760000D01*
X115009698Y-114663327D01*
X115011068Y-114661957D01*
X115098110Y-114721431D01*
X115190000Y-114740039D01*
X115190000Y-115730854D01*
X115076890Y-115653569D01*
X114825000Y-115602560D01*
X114275000Y-115602560D01*
X114169295Y-115622450D01*
X114151310Y-115615000D01*
X114035750Y-115615000D01*
X113939349Y-115711401D01*
X113823559Y-115785910D01*
X113750116Y-115893397D01*
X113689090Y-115798559D01*
X113558755Y-115709505D01*
X113464250Y-115615000D01*
X113348690Y-115615000D01*
X113328247Y-115623468D01*
X113269854Y-115611643D01*
X113302268Y-115448688D01*
X113302268Y-114751126D01*
X113323691Y-114760000D01*
X113764250Y-114760000D01*
X113923000Y-114601250D01*
X113923000Y-113877000D01*
X113903000Y-113877000D01*
X113903000Y-113623000D01*
X113923000Y-113623000D01*
X113923000Y-113603000D01*
X114177000Y-113603000D01*
X114177000Y-113623000D01*
X114177000Y-113623000D01*
G37*
X114177000Y-113623000D02*
X114197000Y-113623000D01*
X114197000Y-113877000D01*
X114177000Y-113877000D01*
X114177000Y-114601250D01*
X114335750Y-114760000D01*
X114776309Y-114760000D01*
X115009698Y-114663327D01*
X115011068Y-114661957D01*
X115098110Y-114721431D01*
X115190000Y-114740039D01*
X115190000Y-115730854D01*
X115076890Y-115653569D01*
X114825000Y-115602560D01*
X114275000Y-115602560D01*
X114169295Y-115622450D01*
X114151310Y-115615000D01*
X114035750Y-115615000D01*
X113939349Y-115711401D01*
X113823559Y-115785910D01*
X113750116Y-115893397D01*
X113689090Y-115798559D01*
X113558755Y-115709505D01*
X113464250Y-115615000D01*
X113348690Y-115615000D01*
X113328247Y-115623468D01*
X113269854Y-115611643D01*
X113302268Y-115448688D01*
X113302268Y-114751126D01*
X113323691Y-114760000D01*
X113764250Y-114760000D01*
X113923000Y-114601250D01*
X113923000Y-113877000D01*
X113903000Y-113877000D01*
X113903000Y-113623000D01*
X113923000Y-113623000D01*
X113923000Y-113603000D01*
X114177000Y-113603000D01*
X114177000Y-113623000D01*
G36*
X96127000Y-92573000D02*
X96147000Y-92573000D01*
X96147000Y-92827000D01*
X96127000Y-92827000D01*
X96127000Y-93776250D01*
X96285750Y-93935000D01*
X96501310Y-93935000D01*
X96661246Y-93868752D01*
X96848110Y-93996431D01*
X96890770Y-94005070D01*
X97012599Y-94187401D01*
X98737601Y-95912403D01*
X98984162Y-96077150D01*
X99275002Y-96135002D01*
X104176302Y-96135002D01*
X108247929Y-100206629D01*
X108247889Y-100252116D01*
X108389934Y-100595892D01*
X108652724Y-100859141D01*
X108996252Y-101001787D01*
X109195734Y-101001961D01*
X109206883Y-101028943D01*
X109469673Y-101292192D01*
X109813201Y-101434838D01*
X110185167Y-101435162D01*
X110528943Y-101293117D01*
X110677899Y-101144421D01*
X110677899Y-106687899D01*
X110735751Y-106978738D01*
X110900498Y-107225300D01*
X112064878Y-108389680D01*
X112064838Y-108435167D01*
X112206883Y-108778943D01*
X112469673Y-109042192D01*
X112761732Y-109163466D01*
X110204823Y-111720375D01*
X110040076Y-111966937D01*
X109982224Y-112257776D01*
X109982224Y-114268088D01*
X109921912Y-114268088D01*
X109631073Y-114325940D01*
X109384511Y-114490687D01*
X108935053Y-114940145D01*
X108935162Y-114814833D01*
X108793117Y-114471057D01*
X108530327Y-114207808D01*
X108186799Y-114065162D01*
X107814833Y-114064838D01*
X107471057Y-114206883D01*
X107207808Y-114469673D01*
X107065162Y-114813201D01*
X107064838Y-115185167D01*
X107206883Y-115528943D01*
X107292790Y-115615000D01*
X107222998Y-115615000D01*
X107222998Y-115665535D01*
X107087401Y-115462599D01*
X106884987Y-115260185D01*
X106884987Y-112077000D01*
X107127000Y-112077000D01*
X107127000Y-113026250D01*
X107285750Y-113185000D01*
X107501310Y-113185000D01*
X107734699Y-113088327D01*
X107913327Y-112909698D01*
X108010000Y-112676309D01*
X108010000Y-112235750D01*
X107851250Y-112077000D01*
X107127000Y-112077000D01*
X106884987Y-112077000D01*
X106884987Y-111803000D01*
X107127000Y-111803000D01*
X107127000Y-111823000D01*
X107851250Y-111823000D01*
X108010000Y-111664250D01*
X108010000Y-111223691D01*
X107913327Y-110990302D01*
X107911957Y-110988932D01*
X107971431Y-110901890D01*
X108022440Y-110650000D01*
X108022440Y-109450000D01*
X107978162Y-109214683D01*
X107839090Y-108998559D01*
X107626890Y-108853569D01*
X107375000Y-108802560D01*
X106625000Y-108802560D01*
X106389683Y-108846838D01*
X106173559Y-108985910D01*
X106028569Y-109198110D01*
X105977560Y-109450000D01*
X105977560Y-110222638D01*
X105587586Y-110612612D01*
X105422839Y-110859174D01*
X105364987Y-111150013D01*
X105364987Y-113740185D01*
X96960201Y-105335399D01*
X96960201Y-103894267D01*
X97475142Y-103894267D01*
X97700880Y-104440595D01*
X98118506Y-104858951D01*
X98664439Y-105085642D01*
X99255567Y-105086158D01*
X99801895Y-104860420D01*
X100220251Y-104442794D01*
X100354692Y-104119023D01*
X101063634Y-104119023D01*
X101691922Y-105639597D01*
X102854284Y-106803989D01*
X104373759Y-107434930D01*
X106019023Y-107436366D01*
X107539597Y-106808078D01*
X108703989Y-105645716D01*
X109334930Y-104126241D01*
X109336366Y-102480977D01*
X108708078Y-100960403D01*
X107545716Y-99796011D01*
X106026241Y-99165070D01*
X104380977Y-99163634D01*
X102860403Y-99791922D01*
X101696011Y-100954284D01*
X101065070Y-102473759D01*
X101063634Y-104119023D01*
X100354692Y-104119023D01*
X100446942Y-103896861D01*
X100447458Y-103305733D01*
X100221720Y-102759405D01*
X99804094Y-102341049D01*
X99258161Y-102114358D01*
X98667033Y-102113842D01*
X98120705Y-102339580D01*
X97702349Y-102757206D01*
X97475658Y-103303139D01*
X97475142Y-103894267D01*
X96960201Y-103894267D01*
X96960201Y-100471543D01*
X96914173Y-100240148D01*
X97427140Y-100028194D01*
X97927736Y-99528471D01*
X98198991Y-98875218D01*
X98199608Y-98167886D01*
X97929494Y-97514160D01*
X97429771Y-97013564D01*
X96776518Y-96742309D01*
X96069186Y-96741692D01*
X95713299Y-96888741D01*
X95713299Y-93935000D01*
X95714250Y-93935000D01*
X95873000Y-93776250D01*
X95873000Y-92827000D01*
X95853000Y-92827000D01*
X95853000Y-92573000D01*
X95873000Y-92573000D01*
X95873000Y-92553000D01*
X96127000Y-92553000D01*
X96127000Y-92573000D01*
X96127000Y-92573000D01*
G37*
X96127000Y-92573000D02*
X96147000Y-92573000D01*
X96147000Y-92827000D01*
X96127000Y-92827000D01*
X96127000Y-93776250D01*
X96285750Y-93935000D01*
X96501310Y-93935000D01*
X96661246Y-93868752D01*
X96848110Y-93996431D01*
X96890770Y-94005070D01*
X97012599Y-94187401D01*
X98737601Y-95912403D01*
X98984162Y-96077150D01*
X99275002Y-96135002D01*
X104176302Y-96135002D01*
X108247929Y-100206629D01*
X108247889Y-100252116D01*
X108389934Y-100595892D01*
X108652724Y-100859141D01*
X108996252Y-101001787D01*
X109195734Y-101001961D01*
X109206883Y-101028943D01*
X109469673Y-101292192D01*
X109813201Y-101434838D01*
X110185167Y-101435162D01*
X110528943Y-101293117D01*
X110677899Y-101144421D01*
X110677899Y-106687899D01*
X110735751Y-106978738D01*
X110900498Y-107225300D01*
X112064878Y-108389680D01*
X112064838Y-108435167D01*
X112206883Y-108778943D01*
X112469673Y-109042192D01*
X112761732Y-109163466D01*
X110204823Y-111720375D01*
X110040076Y-111966937D01*
X109982224Y-112257776D01*
X109982224Y-114268088D01*
X109921912Y-114268088D01*
X109631073Y-114325940D01*
X109384511Y-114490687D01*
X108935053Y-114940145D01*
X108935162Y-114814833D01*
X108793117Y-114471057D01*
X108530327Y-114207808D01*
X108186799Y-114065162D01*
X107814833Y-114064838D01*
X107471057Y-114206883D01*
X107207808Y-114469673D01*
X107065162Y-114813201D01*
X107064838Y-115185167D01*
X107206883Y-115528943D01*
X107292790Y-115615000D01*
X107222998Y-115615000D01*
X107222998Y-115665535D01*
X107087401Y-115462599D01*
X106884987Y-115260185D01*
X106884987Y-112077000D01*
X107127000Y-112077000D01*
X107127000Y-113026250D01*
X107285750Y-113185000D01*
X107501310Y-113185000D01*
X107734699Y-113088327D01*
X107913327Y-112909698D01*
X108010000Y-112676309D01*
X108010000Y-112235750D01*
X107851250Y-112077000D01*
X107127000Y-112077000D01*
X106884987Y-112077000D01*
X106884987Y-111803000D01*
X107127000Y-111803000D01*
X107127000Y-111823000D01*
X107851250Y-111823000D01*
X108010000Y-111664250D01*
X108010000Y-111223691D01*
X107913327Y-110990302D01*
X107911957Y-110988932D01*
X107971431Y-110901890D01*
X108022440Y-110650000D01*
X108022440Y-109450000D01*
X107978162Y-109214683D01*
X107839090Y-108998559D01*
X107626890Y-108853569D01*
X107375000Y-108802560D01*
X106625000Y-108802560D01*
X106389683Y-108846838D01*
X106173559Y-108985910D01*
X106028569Y-109198110D01*
X105977560Y-109450000D01*
X105977560Y-110222638D01*
X105587586Y-110612612D01*
X105422839Y-110859174D01*
X105364987Y-111150013D01*
X105364987Y-113740185D01*
X96960201Y-105335399D01*
X96960201Y-103894267D01*
X97475142Y-103894267D01*
X97700880Y-104440595D01*
X98118506Y-104858951D01*
X98664439Y-105085642D01*
X99255567Y-105086158D01*
X99801895Y-104860420D01*
X100220251Y-104442794D01*
X100354692Y-104119023D01*
X101063634Y-104119023D01*
X101691922Y-105639597D01*
X102854284Y-106803989D01*
X104373759Y-107434930D01*
X106019023Y-107436366D01*
X107539597Y-106808078D01*
X108703989Y-105645716D01*
X109334930Y-104126241D01*
X109336366Y-102480977D01*
X108708078Y-100960403D01*
X107545716Y-99796011D01*
X106026241Y-99165070D01*
X104380977Y-99163634D01*
X102860403Y-99791922D01*
X101696011Y-100954284D01*
X101065070Y-102473759D01*
X101063634Y-104119023D01*
X100354692Y-104119023D01*
X100446942Y-103896861D01*
X100447458Y-103305733D01*
X100221720Y-102759405D01*
X99804094Y-102341049D01*
X99258161Y-102114358D01*
X98667033Y-102113842D01*
X98120705Y-102339580D01*
X97702349Y-102757206D01*
X97475658Y-103303139D01*
X97475142Y-103894267D01*
X96960201Y-103894267D01*
X96960201Y-100471543D01*
X96914173Y-100240148D01*
X97427140Y-100028194D01*
X97927736Y-99528471D01*
X98198991Y-98875218D01*
X98199608Y-98167886D01*
X97929494Y-97514160D01*
X97429771Y-97013564D01*
X96776518Y-96742309D01*
X96069186Y-96741692D01*
X95713299Y-96888741D01*
X95713299Y-93935000D01*
X95714250Y-93935000D01*
X95873000Y-93776250D01*
X95873000Y-92827000D01*
X95853000Y-92827000D01*
X95853000Y-92573000D01*
X95873000Y-92573000D01*
X95873000Y-92553000D01*
X96127000Y-92553000D01*
X96127000Y-92573000D01*
G36*
X104424098Y-94615002D02*
X99589804Y-94615002D01*
X99022242Y-94047440D01*
X99600000Y-94047440D01*
X99835317Y-94003162D01*
X100051441Y-93864090D01*
X100196431Y-93651890D01*
X100215039Y-93560000D01*
X103369096Y-93560000D01*
X104424098Y-94615002D01*
X104424098Y-94615002D01*
G37*
X104424098Y-94615002D02*
X99589804Y-94615002D01*
X99022242Y-94047440D01*
X99600000Y-94047440D01*
X99835317Y-94003162D01*
X100051441Y-93864090D01*
X100196431Y-93651890D01*
X100215039Y-93560000D01*
X103369096Y-93560000D01*
X104424098Y-94615002D01*
M02*
