M48
;DRILL file {KiCad 4.0.5} date 01/22/17 22:08:42
;FORMAT={2:4/ absolute / inch / suppress trailing zeros}
FMAT,2
INCH,LZ
T1C0.016
T2C0.039
T3C0.040
T4C0.059
T5C0.098
T6C0.098
%
G90
G05
M72
T1
X034055Y-049606
X035531Y-049311
X03878Y-049311
X039173Y-048524
X039488Y-048524
X039567Y-048031
X039665Y-049311
X039862Y-035925
X039961Y-046752
X040059Y-037303
X040354Y-047431
X040748Y-056496
X040945Y-044094
X040945Y-045079
X041122Y-050394
X041339Y-045571
X041732Y-037795
X041732Y-053346
X041929Y-049606
X042028Y-045179
X042126Y-049213
X042493Y-049527
X04252Y-045276
X04252Y-047047
X042743Y-049754
X042913Y-047638
X042985Y-039396
X043012Y-05187
X043131Y-049238
X043307Y-039567
X043333Y-039048
X043353Y-045041
X043455Y-047687
X043825Y-047864
X044193Y-051476
X044213Y-04674
X044399Y-049341
X044488Y-042618
X044554Y-045251
X044766Y-04927
X045102Y-049751
X045177Y-049213
X046654Y-043504
X047539Y-046654
X049213Y-044488
X049705Y-042224
X049803Y-050098
X049902Y-053346
X050295Y-04247
X050492Y-044783
X050492Y-050197
X050591Y-047343
X050689Y-041437
X050689Y-050984
X050787Y-04186
X050787Y-04253
X050787Y-042844
X051575Y-044783
X051575Y-050984
X051673Y-053346
X052264Y-050984
X052264Y-053346
X052264Y-054331
X0625Y-044685
X070374Y-044685
X077854Y-044685
X084941Y-044685
X09252Y-044783
X099902Y-044685
X107382Y-044685
X115157Y-044685
X122441Y-044685
X130906Y-037992
X131594Y-042028
T2
X04339Y-037106
X04439Y-037106
T3
X047441Y-051378
X047441Y-052378
X048441Y-051378
X048441Y-052378
X049441Y-051378
X049441Y-052378
T4
X034086Y-035287
X034524Y-062287
X035461Y-039787
X035461Y-062287
X035899Y-047287
X036586Y-034287
X036899Y-049787
X037024Y-061287
X037961Y-038787
X037961Y-061287
X038274Y-054787
X040774Y-053787
X041586Y-035287
X043899Y-062287
X044086Y-034287
X044836Y-039787
X044836Y-062287
X046399Y-061287
X047336Y-038787
X047336Y-061287
X048586Y-032287
X049211Y-046787
X050211Y-049287
X050461Y-054787
X051086Y-031287
X052336Y-039787
X052961Y-053787
X053274Y-062287
X054211Y-047287
X054211Y-062287
X054836Y-038787
X055774Y-061287
X056086Y-032287
X056711Y-046287
X056711Y-061287
X057961Y-054787
X058586Y-031287
X059836Y-039787
X060461Y-053787
X061711Y-047287
X061711Y-062287
X062336Y-038787
X063586Y-032287
X064211Y-046287
X064211Y-061287
X065461Y-054787
X066086Y-031287
X067336Y-039787
X067961Y-053787
X069211Y-047287
X069836Y-038787
X071086Y-032287
X071711Y-046287
X072961Y-054787
X073586Y-031287
X074836Y-039787
X075461Y-053787
X075774Y-062287
X076711Y-047287
X077336Y-038787
X078274Y-061287
X078586Y-032287
X079211Y-046287
X080461Y-054787
X081086Y-031287
X082336Y-039787
X082961Y-053787
X084211Y-047287
X084836Y-038787
X086086Y-032287
X086086Y-062287
X086086Y-062287
X086711Y-046287
X087961Y-054787
X088586Y-031287
X088586Y-061287
X088586Y-061287
X089836Y-039787
X090461Y-053787
X091711Y-047287
X092336Y-038787
X093586Y-032287
X094211Y-046287
X095461Y-054787
X096086Y-031287
X096399Y-062287
X097336Y-039787
X097961Y-053787
X098899Y-061287
X099211Y-047287
X099836Y-038787
X101086Y-032287
X101711Y-046287
X102961Y-054787
X103586Y-031287
X104836Y-039787
X105461Y-053787
X106711Y-047287
X107336Y-038787
X108586Y-032287
X109211Y-046287
X110461Y-054787
X110461Y-062287
X111086Y-031287
X112336Y-039787
X112961Y-053787
X112961Y-061287
X114211Y-047287
X114211Y-062287
X114836Y-038787
X116086Y-032287
X116711Y-046287
X116711Y-061287
X117961Y-054787
X117961Y-062287
X118586Y-031287
X118899Y-062287
X119836Y-039787
X120461Y-053787
X120461Y-061287
X121399Y-061287
X121711Y-047287
X122336Y-038787
X123586Y-032287
X124211Y-046287
X126086Y-031287
X127336Y-039787
X127336Y-062287
X128274Y-054787
X128274Y-062287
X129836Y-038787
X129836Y-061287
X130774Y-053787
X130774Y-061287
X131086Y-032287
X132024Y-054787
X133586Y-031287
X133899Y-047287
X134524Y-053787
X134836Y-032287
X136399Y-046287
X136711Y-039787
X136711Y-062287
X137336Y-031287
X137649Y-062287
X138586Y-032287
X138586Y-054787
X139211Y-038787
X139211Y-061287
X140149Y-061287
X141086Y-031287
X141086Y-053787
T5
X032382Y-051929
X081969Y-048189
X106496Y-063228
X133878Y-040669
X142913Y-051929
T6
X041417Y-040669
T0
M30
